<mxfile host="app.diagrams.net" agent="Mozilla/5.0 (Windows NT 10.0; Win64; x64) AppleWebKit/537.36 (KHTML, like Gecko) Chrome/128.0.0.0 Safari/537.36" version="24.7.10">
  <diagram name="第 1 页" id="LjiFlis7qf-Xv43sxhy_">
    <mxGraphModel dx="1434" dy="738" grid="1" gridSize="10" guides="1" tooltips="1" connect="1" arrows="1" fold="1" page="1" pageScale="1" pageWidth="827" pageHeight="1169" math="0" shadow="0">
      <root>
        <mxCell id="0" />
        <mxCell id="1" parent="0" />
        <mxCell id="Wp1QRxqOT2l3ntqtBcgl-1" value="" style="shape=image;verticalLabelPosition=bottom;labelBackgroundColor=default;verticalAlign=top;aspect=fixed;imageAspect=0;image=data:image/png,iVBORw0KGgoAAAANSUhEUgAAArkAAAIKCAIAAACoYsA4AAAgAElEQVR4Aey9B1gT6fo+fM7/O+e3TdcV+666NloSSKgqqKQCdgEFEaSIFEXpVUBEUNEVsWAvgNgA6Z2EoGJFSQIoCmKhl4ReQ8p8ZyYQI1IVQWXmei58M/PWe8bMned9yr8wGDSFQgEGPN6+fbtq1aoJE36bOXPmtGnTZs6cOWvWrMmTJ0+ZMmXWrFnTpk2bNGnSlClTpk+fvmjRIldX19ra2gH64/F4hw4d2r17N4vFGqAafAlGYHQQ4PP5N2/e3LJlS0REhHDEwsJCDw+PsLCwzs5O4cnvssBv9bTT270VU3DXu/n1EWauC5Nuz6Lb130i9XSHXsKCagr/Mun2TLp9Ld22mmZfSXOrKgjiND0BgMaPYOEzWyooZbkBpXSPcoZ9Jd2+muZQS3Nk5kBCc6ijO9bTHRvojo10h0a6QxPdoYnWhzTS7esZdsw859oXe2uLgnLuHjfWW3HxTMBHY8Ef+kcgIiJi/fr1z5497b8KfAVGYBgI/Gv58uWXL18euEVeXt6SJUt+++236dOnz5gx46+//hITE/sZPH765Zeff/vtt99//33q1KloNNrNza2goGDg3pqbm11cnL28vNrb2weuCV+FERhxBLhcbmFhoehTyufzvby8pkyZsnfv3o6ODj6fLxiUw+FwudwRn8Dod3jt/AHDtRJZsY7NbwJrc91r6Q4gV6ANIiyaPZNmX9MtDtU0UKpAsa+kOZXTvCpfnmc3PevNFXi1rRWUUsaxErp3Cc25jOZckeNS9cwVEpfqZ061NCcWzamO5lBPs6+n2fdHFxpB4mLPynVivvCsLggoLwjxdtKz32nErK4efQC/xxEDAgK0tbWLi4u/x8nDc/4GEfjX9u3b7ezsOjo6Bpjc/fv3paSkfv994vTp06WlpQ0NDQ0MDNTU1OTk5FAolKKioqampr29fVRU1MAaBcEQVVVVZmZmFy9eFH4pDzA0fAlGYGQRqKys1NfXV1FRycrKEvb8+vXruLi4oqLCH/KZzMlKMNKSvR5kWFd4jJnvyWQ4dnOFT1QLQmUDSBTo9jUgP3CuprtW0d0q6e4VdPcKmnsFw6Oc4V3KOFJZeJ3dnA8AzUIYAYAP8JiNZdS3OSffPDv4jravJMennOZbSfODZH8NzZtJ92TSXVk0p3q6UwPdqRFSMPShXaA7NNAdWAwH1nO36nzfuuIrN847GWhjGdmPRYaDi30j0Nraar3L2tLSor6+vu8a8FkYgWEi8K/Tp0+vXbu2qKhogIbJyUlz586dPHnytGnTcDjc3bt36+rqSkpKXr16lZeX9+LFi9LS0qampgF6EL1Eo9G2bNGnUMiiJ+EyjMDoIFBdXa2vr6+mppaVlcXj8UZn0LEdpan6tYOl5n4nbCn9MOvFvlqGI5Nu10MLHOo+2XqopzvW0R1raS51+T5txSfYpZfaSoKb3gY3vg1pfn+1pfRGS/ntpvLE5poHPHY5ALBFVscHgJauplf1ZZT60oTGsriW8rjW8vg2UGJbyyLbSq42FZ1i5vkwGe51dGeILjg20Bwau8XxA3UAOYRjHcOhLt+lJs+7rvDsvYTDJpuwt69fFRkOLvaNQFVVlY6OtpeXV1dXV9814LMwAsNE4F+PHz8mEomiO7Wf9hAWFjZ9+vQ//vhj8uTJq1evfvfu3ad1hnyGf/Lkie3bt8PKsSEjBlccYQTy8/NptJy2ttYR7vfb7a7l9FE7iy0oGmUPs8CvNtcZ4goQXejZiain2TdAP+UhkwVHFt2lKsezqfAUUJ8IdD4C2AyA/RzoKgC6XgGcNwC3BOBWADwmALSBuoSPDg54kl8H8GsAXhXAqwC45ZC8B7hFAIfOZcXXFhyrYexlMVzq6E51NMf6HmmgddsxNDMcmxlOTQzneoZTXZ5zbZ5XbcHxHMqxrVoq/vs8ew/40ejwBxABOp2+evWqc+fOjRM2DN/1UUDgX0wm08xsm729/QDbB0ePHv3jjz8mTZo0YcIEXd1NFRUVnz2z4uJiXV3dI0eOtLW1fXYncEMYgU8R4PP5ra2tbLboz9xPa43PM/y0uAv6axfFhmyveeFfk+tWy3BggaoFB6HVgpArNIBqBicWzbUqx6ep6ArQ/BjgvQcAFgA0AUALwG8B+G0Avx3gd0AahW57DhG+wAcALgB0QVc7AUAo7VAP5Zz6e9UFZ6roPkyGK4vuzKI5CukCxBWcGuiOTRBRALlCrjMrz6WS7vnu2eEbZ3etJcicOuoP8ERGG5/3c7BVp6Qkr1ypmZqaOlhF+DqMwFAR+BcAAGFhYevWraNSqX02YrM79+xxnzhx4qRJk37++WcDA4PqzzUv4vP5ly9f1tDQePwY3nTsE2z45LAR+J9lIo/Hq6ioiIuLO3DgAJVK/e49F4aNweANivKoW7UxR/dqVL04WpPvVctwZoLGCqDjg4AuCCwNBX/rQLcFt8qnfo1F14GWfIBXB/B7VNl9vab5AMCDpK+LonPjAUBTZ/2TiufnK2j7a+gutXRHJs0BsnMEtQs9XMGpkeEskPpc12qG+9unexPCLLdqy3i7bC99UyjaI1zuE4GQkJBVq1bl5eX1eRU+CSPwGQiAXKG8vHznzp3e3t4tLS2fdtHR0XH48GEUCiUuLi4mJrZrl3VVVdWn1YZy5uXLl1paWnv37m1uFrWHGkpTuA6MwEcICChCXV3dkydPTp06ZWhouGbNGhcXlydPnsB7tB8hBX7gtdYVu9lu2LkV+TbnSM3z/bW5bgJPSJArQD4RH7hCjkMd6N/oVvXsYEPRTaDlJcBr+mSj4cMIPEiNwBWhCwMyhpaO+uzy/HM9XMEBpCygQ4TDp1yhIdephu72Ntsj8pLhVm1xT6ct7149G2AmH+Y0vktdXV3+/v6bN28uLy8f30jAqx9JBECuAABAVFSUvr5+bGxsn3bgxcXFKSkp4eHhQUFBaWlpAztN9Dc7JpN55MgRbW3t3Nzc/urA52EEBkWAz+e3tbW+fPkyMjLSy8vL1NR0586d/v7+qamplZWV8AbtJwDyofdrS8jZvRs1Zz9MdqstOMTM92DlQt4QIFf4sBNRl2PPynFggVzBtTrHt6koDGjOBXi1ANABkQHRvru1CXyAxwO4PIDLBzgf0wbeJ+91DgDUsuuyqvJPVdG9a+nOTHo3V6jr0S40gM4Rjo0MpwaGc12u25uHrrEhW830JJ12rSnMvwftaIjOAS73gUBDQ4Ozs5OLiwvslN4HOvCpz0WgmytUVla6urpqa2s/ffq0T7og6J/NZnM4nM8Yq6OjIyoqysDAICwsbID+P6NnuMn4QYDH47W2tj558uSff/7ZunWrru4mDw+PqKio4uJi2Pyl/8eg29fjUebtDRrzQk5tqS44wny+lyngCjRwJ0JotcDMsWPmOEBxk1xqcrybCi8CjQ+ArmKAW8PnNfJ5LXxuK5/bzOc0CoTHa+TyGjmQ8HiNPG4jn9sICIXXBPCaQeE3A/xGgFsDsAvZNcm1eUdr6J4shhPoEtkT6YEFWlkKwjQ5NICXXCtyPJKuGlkZSLvarnv94h4AwOFY+r/JIlfKykotLMzPnz8vcg4uwgh8KQLdXAEAgLy8PH19fTOzba9evRrZ1zmPx3v06JGFhcWhQ4cGsKD80qXA7X9QBATbDWVlZdHR0e7u7vrQceDAgTt37sChP4dwz7v3BJhVr3aZkxwsFN/TDjJf7GPlCaMsfMoVHJg5TjU5e5j5/qxXZ2uKwiqLbpcXxZUXJZYXJZUXJVUUJlYUJpYXJpYVJZYWgX/LwEvgmYrChMoeqSpM6JFEqBBd++oq88XJWsY+MMQCA3SJhCgCuA3BooHRJFmgn6QzM9ejir7/TuROe1M5D1vtdwUPP/bMHMKix3GVx48f6+rqJiUljWMM4KWPPAIfuAIAABkZGatXr7axsSksHBm6wOPx2tvb6XS6tbW1ra1tYSFslzTyt/BH7VFAETo6OvLy8i5cuGBqarpy5codO3bcunWruLgYNmAc8n0X2g+0nTjisIE0i0Z1Z77Yz8pzAqMX9NYr2EN6BVC1UJPjXE3fU0H3LqUffMcIeMs48YZx6g391BvayW7JOfEm5/jbZ8ffQfL+WaBASp4FCqXn5PGSZ8fLco5V5ByspnkzaW5MmhMYarrHY1NAFGrp9jV0p1qGR1XugQfxDrbGaCfLlc+zMwAe7Nsy5LsNAAkJCbq6uvn5+cNoA1eFERgMgY+4Ao/Hi4+P19PTc3Z2ptPpA2798gXHAP3z+fympqb09HQzMzMbG5vs7OwBKsOXYASECEAWCW0lJSXJycmHDh0yNTXdvHnzvn37qFRqQ0ODsBpcGC4CqXEhOGWxyIsGtS/86vJd6hiOEFcAvRYFwqI5gvYKNEcWzbGW5lhLd6phuFQx9lQwvMpzvcty94HC8BZIOX1vJd2rmuZV0y2eNTSPWhGpoXlU0z2q6Z6COrU0z1qaO5PmAsZ4hsI9CbY/BEQBzDTBsK9iuJU886betrU1UbAx03h6LwngwERhGPeZx+OdP3/ewMCAyWQOoxlcFUZgMAQ+4goAALDZ7IyMDGvrnebm5vHx8XV1rE8ZQzdNgP7ps38+n8/lct+8KT537pyR0VYB8xjZfY0+x4VP/gAIcDic3NzcM2fO2NjYmJqaurm5Xb9+PTeX0dj4cY6iH2Cpo76EkiLaplXI/Q6Ly+k+rHwXVrelwgeu8BFpoDkyaY5MumMN3bma7lIFRnr+INV0V8jp0ZlFc677IE51YK4HUFiQgPoDmjOT5gJRBBcWzRkiCmCAZ0jAPQgWmI/KrpbhUMVwKc3ZR4nY7WC22G675pOsJD67D8+sUYftexqwvb1937591tbWcKCR7+m2fQ9z7c0VBHN+9uyZra3tmjVr9u71un//fn19fa83vUA//CmNAACAw+FUVVWlpaXZ29vr6OicPHkSdt35Hp6Eb2WO1dXVLi4uurq6/v7+mZmZtbW1fT5m38p0v6t58DsbvRy3bN84Lz/TiZnvyhRyBboTGEIRiqIopAvCAgtiDEw6yBsEIgigBDkvgPmf+hShvSRU7SM60kMUnOqgLFbQ1oN9NcOpJMfjXqydi6XqLhP1p1kpAGegJDXfFfCjN1kWi7Vr1659+/aN3pDwSOMDgb65giDoQnBw8Pr16zU1NX18fLKzs9vb27lcLo/HE9UrCMs8Ho/D4bBYLDKZ7OTktH79enNz88TExM9zsBwf4MOr7AOBhw8famlp3bhxA3Zt6AOdLz4VF3FqA2FK3JXNtbkeLDCIsiMUkQl0QKjvgy58MHuEoiDYN9A+kRzwzKd0YVCuAFIThgNEFByr6e7lNJ9HSc6eu7G22zQeZkQDPJgofM7Nfvfu3ZYtW06fPv05jeE2MAL9I9AvVxA0KSgoCAwM1NXVVVdX37Zt29mzZykUysuXL0tKSiqho6qqqrS0NC8vLy4uLiAgwMzMTEtrg7n59qtXr759+7aXNqL/acBXYARABPh8fkDAUT09vS/LOQKD2S8Cpa+fbFknHuRLqsn1acj3qM91EiSREqSBgBiDgDcI/4L5HgVsACQKOfaNfcmnHKK+x24RIg0OPVoKsCAYpY7uyGQ41tCdquhuZTm+OWQvz91YSwO1e2mRAGf8pOro90593oVnz57p6OgMnN/n83qGW41zBAbhCgAAcLmcFy9ehIaGurq6amlpLVmyRF9f3wo6rK2traysTExM9PU3GxoaWlhY+Pr6xsTEwCxh1J6qPtmYIPjOqM1hBAdiMpn6+vr29vawOmoEUf2oq64GTwcd9x3Kbx7ta3yxvyHPpZ5hX8+wA6WPhJMQURDklOpRHvRHF3pxCJA9QA2hBBMOAr0FGJ+xZ5Q6hmMNw7GS7laas+9horu3LWmr9tK48IvtzXAa5Y/u2LA+JCYmGBgYPHjwYFit4MowAoMiMDhXEHbR3Nx8/vx5bW3t8+fPR0REXLp06fLly8HBweHh4enp6Tk5OWVlZc3NzVxudzoZYUO48DUQAN1M6huqyis+3c4XcAWhq9zXGP0r9ZmVlbVsmerVq3De4a8EMNhtyDmf7brI/zklNrw6VJfvxsq1Y9Ft6xh2dQx70ItSROq7X/Zg+kcoDDO41zCAdkGULvRwBbAtJE5QTEaQfICBpRkOLIZTNcO9NMf3QYLrXluS4XrlhMjLnS11X3Hl46DrS5cuWVlZwWq5cXCrR3uJw+AKAABcuHDe1ta2pqZmtKcJjyeCAOhmwuYU5T8/feQfl1277qak8j7OUi/kCsKCSOtvt8jhcI4fDyQQCM+fP/92Z/n9zyyLEm2kjb51xqj2xWHWCw9mnl0t3YZJt2Ux7MFAij0CkgYoW0Q9zaGhO220g8AuoYHW905EX1xBQBGEf4VcwamW4VbF2E8ne+93XGmuj02JvtrV1iSCrvDhFRRErsDF/hE4ePCgi4tLXR1MufrHCL7yWQgMgyv8L8Czh4eHu7s7HAbns6AegUYCZ1RWWUXkpeAd67VICxcpTZ9iiFuRnZbE431Q5/T6lv1eFAx1dXUWFhZ2dnatrfB29Qg8Lf11UVXy0sFq9WEPzfe0w3WvfGvznKoZdrUMOybDnslwgMRewBvqGNCWAZTYqR6kCyBXGApRaIQMHqE9CAFLEKgWBDsa9vUMe1auG+v5wfw7+w+7rd2up5YacxUA00kIj16PsPA8XBgIgZaWFhcXZ39//6YmUdY1UBP4GozAEBEYBldobm42MTE5cuTIELuGq40gApAuoaPm/dv08Fvuxsab5OX0JMTdVBY7LJFfN3eG9WoinZrG5Xabjvf6ov1efpfRaDmbNm2KiYkZQdzgrvpAoKvlsI/1LlOV+8ke72h+lbmerBeedS/c65671z13AyXPiZXrUJfnCAZrAumCYwPd6QNX+Mi20a4xR1Q+6Bt69iDAXFBCw4UGuj20AeFYS99XlLX/tK+eqc7SW1eCulo/DZ4hfIr7WAF8qk8EysvLd+3aFRoaCm8E94kPfPJLEBgGVygvL1+1atXly5e/ZDy47aAI9FIDQLqErtK3hbE3gr12mhmvWGIiL+O2TDkQp3pNExeiucJbGbFZcs4unVUZKbFcbneQO+EXrbAw6LhjW4HD4YSFhe3YsaOsrGxsZ/LDj95SV7vfw4aoOt/aRPGIJ+7ayTXUSCMGeUdJtkvd873Nr3yaX3k3v/JsfOHW+Ny1Ps+5Hsr6CFobCPQKH7iCXWOOrYjY9bMH0c0VQKtG0CrCkUlzK6C4nt233mqz6rXzR5uZtf1g3uu/Qj+1xuVpYYQbHnh0u7IXFBTs2GGVkZExLiGBF/11ERgGV3j69Ckej09ISPi6M4J7FyIAhr/sqiktvhMX4bXdcKOs+FbkfK9l8qc1VoRqLg8nLY0lKseoL75KUNqvhNCVmG28EncnJY7b1Z2OT8gSBAVhr99mgcViOTk5+fn5fZvT+zFmxefzO1rbYiMjtxvpO+4y8XQ0NN+ydPOqv/VXz7DUne3noHQraFNWlE3BHc8K2oH6Av+GggMNBfsbXng35HvV5+6pY7jWgfEWHRro9g00uwaabSPNBpQcm6Yc2yaQNwh0DJB2odsPonv3oZ5uXwfaQzjW0NxfZjid3qtpvAZ5/Zx/c235j4Ht6KxCsAvZ2tpaVlZWUFDAYNAfPHhw507m/fv3X79+HRYWZmho8PTpU0EUnNGZEjzKOEFgGFzh+vXrq1atevoUTuswks9Gfy9yHo/bUFNOTby9Z7vBJnmJrYi5jnLiJ7CK1zVVo9WXJBAVUwhy6QR0GgGTSFSIICrvXyqjLf7XFtzStJjwjo7uyLg9dIHPB/obZyTX8iV9PXv2TF9f/8aNG1/SCdx2AAT4fH5tdc2Fs+e2GRlfPn+upqKkraGq6n0+/WFC+BW/Q3v0dxgo62ku0ML+aaYt4eugdvP0ljvRuwofeFUwDtbmH2x45d9Q4MfK9WIy3OrozpDhgm0j3aZJIBBdgHQMPdoFEZ9JyLcCNJysZbgV3nU566O5fQMy5IQ3u7E/jcIA6xinl7hcbltb26tXr6Kiovbv379169YNGzasXbsGOlavWrVKV1d32bJlMjIyvr6+d+7cKS0t7erq+tRJapzCBy/7ixEYBlfYv3//xo0bS0pKvnhQuIN+EQBVi1xuF7uT8fCuv/1OXQWk9lwxW+ScILzCTc2lMSSlBIJ8KgGTRpBNJ8iQCSgyQSadgCarK93WUPFfKrtx0SwdFbm0uAgupx0A+YGAIwi5wrer1A0LC9u8eXNubm6/0MAXvgABHo9XW1t75MgR7Aq1c2fONtV/GsOgi91SnptNvnEl0NPRdPP6xTjl6VjFiZvXzPHYtTT0hP6jZI/3tEDWy6CmouNNLw815Hk05Do15to15do1M+ya6bbNdNsmem+9AmSdYM9i2LEYjtU017LsfdcCdCy1Za4FebMbqr5gQeOoKY/Ha21tvX///r59+9atW4fH4w0NDffv3x8cHJyUlJSRkUGlUlNSUm7cuHH27FlHR8cNGzaoqKqsXbv2+PHjeXl5MGMYR8/K11zqULlCe3u7ubn5jh1WcAqfr3Y7+FxuR01VyaOMlDP7vcxJagaI+S4KUqdwCleJCtEkhUSiXBoBTSbIUvAoCh4BiTQFj8jAozIJmFR1pVsEJd8lSN2FM7drYsnRt9pAezEhOehRMXw489XWMfyOORyOm5ubk5MTnEZy+OAN3oLDAcOpHTp0SF9f/+rVq22DuZl0tjaUvnnxJCv5RnCAh6OBgbbSBnUJ/bUIm22qAV7aN4O2pYZaPkuwfffAo5buXZfr1ZTn1fzcoyV/T1Oua3cQBRrkG8lwZOU6MnMda3Kdq+h7Xt11CQvUsdokc87fobnq7eDzHvc1BKl6aTTasWPHjIyMTExMTp48ee/evcrKyv6w6ezsfFX4Kjom2sPDQ0dHZ+vWrWfPns3Ly2tvb+8zblt//cDnYQR6ITBUrlBRUbFy5Up/f38OR9S1qVdv8MfhIsAHAB4AgMk0mlqZ9++mHdrruk0dqyu10BYtFbhC4RZROV5dMYWISSfIUPDIDJAZICg4KQpOskekKDiQLlAJGDJJ8TZJ+YiKrKnMImPisluhF1o/Mi//dunCmzdvtmzRv3TpEmy/PdwHaND6PB7v+fPn+/bts7Kyio2N7ejoNmcZtKGgQntLw/viF1mZKTdCzgb6e7ju3rpt03LDNSirTShfmxWhR7STr5gwkh0qsvc15Pu1vvJrebm3+aVny8s9jc9d6/Kcmc9dqvPdyxleL7M8Q49t3LZBKujA7pp3L4c4+niuxuPxSktLodhKlk5OTteuXSsoeDH07JEdHR05OTmBgYEmJiZWVlbR0dGfpgAcz/DCax8uAkPlCjQaTUVFJTo6ergDwPX7RwAkCjwep62pOu/pvXOHvXesJW6WEd+BEj+8XDGYqBqloZJIUkwhoNPwSDJOmoyTpoAiJAoSFJwExBikyDgEBY/KIGJS1RUj1BcHqKKNpeZuVpWPuXqps7VJ5PeEkC70P6mxuJKQkKCnp5edDZvCjDD6bDY7NzfX0dHR3NycTCaz2Z39DDA0cxZeB7OyJOcBJeb6uZMHnfdY61rpLdMnSW5bK7XXctmVQzrpYVa56e5lOYcaCgOYLw4xCw7WvPSvKAh4/vDglZNG2zbJHt2/o7b0RT9zgE9/QEDA8A4cOLB169bjx48XFhYOnSV86AUA2OzOe/fuOTk5aWlpnT59uqysTOTbQLQiXIYRGASBoXKFxMREeXn5Z8+eQf0JNduD9A5f7h8B0KK5vZlZmJd98ajvtpXYdZJzd2AkA/BLgtWX39ZQTSAuSSUopuPRaThEOlaKjJWiYKU+4QriArpAxkuTIe0CBY9OISlEEZWOLkObIP7etBh98/wpVm3lx5sR/U9qLK78L3mpl5eXra1tdXX1WIz/w47Z1dX16NEjS0tLU1NTiCh0+9P2LFhIHIWFnitD+pfXUc98m09PjggN2GvnvH3D1rVymkun6RD/sjORP7ZXM+aKRX7W4TeMc4W0i9cu2m/TX+q/b2dteeGQ+h7flXg83suXL93d3c3MzFJSUr484WpNTU1QUND69ev9/PxKS0thujC+n6/PXP1QucLFixeWL19eXg46OMGP2meC3dOMz+NxutprSl5HB58zX69BnDtdb/6sA6pyIRqq0RpL40jKiQSFFDwmDS+bjkOmYRHpWKFGQVgQ7EEI9AqSFEjrQMYhyDhkOgGdSlIIJyodVZExEv9r82L0tQtBrU11AP8bZXjv3r2D4nZcgm22ex6QEfi3tbU1MzNz+/bt5ubmjx49+rxfpUOfB7+9+SX9UUTo2f3uu4w3kUhLF5GWLjDSUfVxM/FxN9usvcLbbWdNWdHQOxy3Nfl8/ps3b/bu9bK0tLxz585I4cDhcEJCQtasWXP06NH6ejgC9EjhOo76GRJXYLPZnp6eenp6TU1geDX4O/2zHxCQJbQ1l796kXQ12NV4s8Fi9FbkAvfFMqfxi68TlGNBT0j5NIJcGh6dhpdJx6PScUgyKAhIoyAgCkK6IAXtRwj+gnsTZLwUGY8AW+FlE0kKNwkKR5aiTCTnbFVbfPvy2aYGZi+S9y1wBz6fHxERQSQSHz58+Nmowg1FEeDz+S0tzfEJ8RYWFq6urvn5eaJXR6Hc1sDKe/ow+mZowEFvZzsrc1N9bw+ngrycURj6ex+Cz+dXVlb6+PgYGxunpaV1fZzn5QtX19TUdPHiRT09vStXrny5ruILJwM3/+4QGBJXqKurMzMzc3JyEiQd6PXK+e7WPFoT/ki1y+dzOZyO0tevokKDPc1MjVUWm8qhPJcpniWq3tRQjSMpJeMx6Xg0GS9LBtUJMuk4pIAoUHBISh9cQZQ3CNmDJBkvlY5HkPHINIJsElE+gqh4bBl6O3Ke3mLZ0NOBjQ11ovfuo/mNFii9xmloaLCzszM2NpRCigIAACAASURBVIYTkvVC5vM+8vn8hoaG27dvW1pa+vj4FBQUfF4/I9Kqq6OTWVP7tri4prLqm1VrjchKR6qTxsbG4OBgXV3d6Ojozs7ukO1D71wQqel/m3r9xWKqr68/evSolpZWUlIS/JNv6MDCNQEAGBJXeP369YYNGy5evCiATPR9A4M4IALg65jP53ax2yreF6dF3tqzzUQXgzFCSHqrKF/UwIavwsZrqiaRlCBdgkw6DiUiAnUCYghcQaBa6PaMIONAupCOR6UR0EkkhXCNxYErMPoLZqyXlQg+FdBU/0G78C1whdzcXE1NzdOnT/P5vAGRhC8OjgCfz6+rq7t06ZKenp6fn9/r168HbwPX+GYQ4HA4VCrVwMAgICCgvX147iqCRbS0tDx79uzJkycvXrwoKSnp02etuPi1hYWFoaFhURG8JfTN3PvvYSJD4gqPHj3CYrH37t2DjRWGeU/5HA6ntrI0PTrSe4flJnm5TQsWuCkqBuFWRGjikjWXk9WXUomKGXgMlSCbAYoMhYASCKRUEGw9ICC9wqfbEELVgtAzQkAXhJsRoO1CkrpipPriI8tkjSRnr0QtunomsLmpQcj2hHRBtDDMNX5+dT6fHxUVRSKRcnJgBfXnwyhoCYZlrK09c+aMpqbmoUMHKyoqvrRHuP3oIlBZWenu7m5hYVFY+JkWoDQaTUtLS0FBnkQiGhkZ3b17t88V3Lt3j0gknjlzZmT3OPocCz75wyAwJK4QExOzcqXmixegs5PwNfPDQPD1FsLuaKWmJPo52esvUdZbtMhNUeEiiRCjQUxRX0EhLc0kKmcS5O8QMJkEdCZBlkqQoRJlKD10QYQrSPdwhQHogpA3dDtVCjYj0sHNCHQySeEWSfkkXslEeu4mJZmr504197MZIWAMHwMiyiJGsAwO0tLS4uvru337djgJ9ceYD/sTj8crLy8/ffr0pk2bTp06BackHjaCY92Az+enpaWZmJh8iV/606dPUSjUv//9719++WXu3Lk3b97sc1kcDmffvn2mpqZwmNQ+8YFP9onA4FyBz+efOXNm48aNggSAMFfoE8c+T1a8f6uvQSL+PcdlsfJFEiF8FTFeY0UaYUkGXvEOXv4uQe4OHp2Jl6XiZagElEAyCCgKHkkBAyoI1AlCEtDro/D8p4Vum0coJINgM0I2gaRwk6R0TE3eVHqu3hLM1aDAPjcjPuEKI0gOenUFAvb6dZGJifH58+f6RA8+OUQEuFzumzdvjh07tmPHjpCQEDiy6hBx+6aqNTc3Hzx40N3dXeBr9nlze/LkCQaD/uWXX3799VcUCpWamtpfP48fPzYxMbl06dLXdpDpbwLw+e8OgcG5Qltbm7u7u7W19edtoX13iIzghFtqqnWUFPVn/xWmQcpcSaIQVSgEhQyIHGTiUZk4WSpOJgOPgqIxSgtiMoJ/u2MufUoCPu9Mt6ljIlH+FkHx6DJZU6k5GzBS5wMOMWsqhFYCfND27IN055EQZJMY+b8gxnw+LyUlSU9v0+PHD0YQ8/HWVWdnJ4PB8PLysrKyjI6OhonCd/oA0Gg0MzOz69evf8mPsbt372IwmN9//33ChAmKioo94XD6gKSzs9Pb29vGxmaAcNF9NINPjWMEBucKTCZz+/btvr6+4xilz106t8thk7bhvNmhJCxVA5tBUqYS0Bl4JBWPyMQjM/EoKg41NB+Hz2MJwlagdiGVgE4gyt8kKp1YIWeOnLdW6u8gX4/qsmIhXehZpGiiKR4AcL9AwPDVkPRSKvAAgN/S0nTkiP/u3dZ1dXCywR7sh/kvm81++PChg4ODhYUFmUyGHeGGid83VD0kJMTIyGiImwJcLrezs7Otra2152hra+vo6IiPj0ej0VOmTPnjjz/wePz79+8HWOGtW7d0dXUfP340QB34EoyAEIHBucLr168NDQ1DQ0OFbeDC0BE44eqgN2fG2RWLKerLqURFKkEmgyBFxUtnQnSBikd+EjhB+IIfyQIZhwDDOkF0IZKkfAqnuFN2wXrkvDN+njWV7z+hC0BPDmvhy160IMoeRM9/Wu5FEQTmLnzo4FVWlllZWZw6dYIP0hH4GDYCbDb7/v3726EDDo89bPi+pQYdHR0uLi47d+4cNHQpj8fr6OjIzs4+ceKEtbW1sbGxvr6+gYGBnZ3doUOHtmzZMn/+vGnTpomJiWlraw+sZGIwGJs2bQoJCfmWkIDn8u0iMDhXePDggbGxscAJ4ttdx7c6s+TgC5sXzDm+VCGNuCyDoABxBUkqXjITL03tTgQ1kpxgQOaBEJg6JhHlIzUWn8ErWsssMFBAXDzsy6oo4fP6dFnsTm3Vox4QsAHRGE6CMsgJPhw8Ho/L5XI4nK6uLjab3dnR2d7a2d7a0dLc2lBXX1PFrCwrfffm5vWrRlsN7t8HnWvgY7gIsNnsO3cybWxsHBwc4DBWw0XvW6tfWlpqZGR09OjRgfd5eTzeq1evDhw4gMfj58yZM3HixN9+++3/g47ff//9T+iYPn36tGlTp0yZYm5u3tExUISG9+/fm5mZHTly+FtDA57Pt4nA4FwhNjbWxMSkuLj421zANz6r1w/vbJOVPrIYk0xUzQC9HlBUggQoeEkqHrRRGPDtPsI0AtQugHEXQFPHSPXF5/CL7eWkNqOlz/l4scpK+onN0q0G4IEHV8ABhCygs7O9s6Olo72hpYnZwKqsY5Uza0pL3716npv9JCsjMyU+MfL6zUvnrpwIOH3IN9Db44ibk7e1laOx4c7Nm1YvV9Ffv7qqbCA16Td+c8dweu/fv/f09NyzZ09ubm6fbvRjODd46OEikJeXp6OjExkZOXDDt2/fOjs7LViw4A/omDJlytSpU8XExCZNmiQmJjZt2rSpU6dOA4+pM2fO9PDwGDhrK4vFcnJycnR0hM0bB4YdvipAYHCucOHCBXNz8/r6ehiyz0Cg+W3hrmXKPnKIeOLSDIL8XQKSSpDIEMjocwW8NBmM6giGaUomKUarq5zDLt6NWLRZBnF6n9e74pdd7E5QFdDZ2dnZ0dHe1t7a0NhQw6wpKyt5/fpVfkH+szz6o6w7aZSU2MToGxHXLgafCzwTePAf3z0+brZuu7fbmxvuNtWz0F+/dS1Rl6CivUJh/RLZNXLSK1GLVkrNXyX5t5b0Am2phTpSi3RQUhqSC3RUlbIzyV9izPUZd+THaFJdXZ2YmPjq1asfYznjfBV3797V1NQcwG0BAICurq5Lly5JSEgImMGff/6JRCKxWCyBQFBUVMRgMEgkcvr06TNmzJg+ffrff/8dFBQ0MKqtra379+83MzOrq4PTQwwMFXwVRGAQrsDn8/38/Nzc3GCzqc98XhqZ7htWucpK3CapUohjzBW6U0zhEekEVBpJLomkFElcehG31F1JbpO0uPdO07hrF1JuX70VHHT59OFT/nsPeti77zbbZbTJeL26Dn6p1gql9SoYTQVpDYw4CfE3QfxPovgsTYlZayRmaUvP3oycY4Saa4FZuFtJynEpwl1VZu8yWT81zGGsQgBe+SRhcRBp8Rn1JefVVS6qLzutqbZXbfFmlLjvLsvGmsrPxHYcN+PxeHAgnR/m/lMoFBKJRKVSB1hRUVHR5s2bJ0+ePHXqlJkzZ+JwuICAgKysLBot5969u8nJyUFBQWg0eubMGTNmzJgzZ86gFmZdXV2BgYFGRkawK8QAsMOXhAgMwhUaGxttbW0DAwP7UVAL+4EL/SDAbgvYYbYbseA6YUk6UeEuAUXFg3sQGQTJjFHXKwi4QjpeOh2PSAO1C3LJpMXxmmqXSGo7pRcsm/bzkhm/LJ75i/y0/8pP/6/ytP9b/ucEwpzJ6nPEVv09Zd386Zsk/tqK+ttKWcpWBeWmhtlHUPTXXBq4RjVo7bKzq1UurVYJXaNyY41K+JqlkauX3F6lHKWpGKOpGKOhEKsuH0eSiyViYoiYeKJcAkHxNmnJZfVlLsooXbRU+NlTHPZAG6v9IDteToMbP1zY/PNHvt2pqamampoD252kp6crKChMnTp1+vTp0tLSJ0+e7LX3VFJSgsNhBTsR4uLiCQnxA0PG4XBOnz5tbGxcWlo6cE34KozA4HqFN2/eGBoaXr9+HQbrcxHghPp5bZecexmrmEpSvENAZeJBY4UMvNTYcgXQcAEvk0ZUTNNYdnsV7h9VOd2/JujOnWCvvHCPGtIbhz5EkDtKUDxBXHxGXeWC5rLLmsuCV6qGrlK5umrp9VVLwlctvr1SOVpDMVZDIUFdLpmESSGiUwgyaQQEmYCAliaVgZckQ0LBS1JwEmS8RDpegoyXTsehkvHyt0lLTuMUTaX/NlymnJ2WwoNfh309YRwOp6Cg4OnTpwPbqfXVFD733SBAJpNXr16dlZU1wIxv3rw5f/58SK8wVU1N7fHjx70qP3nyBIFATJo0afLkyWg0+uHDQcKWcDickydPmpqawnqFXkjCH/tEYBC9woMHD7S0tCgUcp+N4ZNDQSAp5JyR9N8nVNFJJKVMgmwmXioTD7pNUvHIDNBncpTNG6UFegUwSRVeJo0gl6q++PZK1cOKi6z+nuAtP/fKKsVraxffWK0csVI5SkM5WkM5mqQUS1KOJSrFkRTiSXIJJLlEEiaZhE4hoVOJsmkEGTIUa1IQUQp08cBJ3MFK3MGKZ+IWUUUkAydOwYtTcBIUnHQ6TjaBoHCLqHxEFbN53kyPrXqVr17Ahgt8Pv9/oc/Y7E4hFNXVVS4uLpqamvfv3x/KwwbX+R4RePjw4erVq1NTUwaYfERExMKFCyZPniwmJqaiovLkyZNeldPT0+fNmzcZOlRVVQdNMdrR0XH06FEbG5uGhoZeXcEfYQQ+RWAQrnD79u1Vq1bR6fRPW8JnhojAk4xEQ4z4ASWpOHVlKgEDRWECYzFRwYiNqCGkkRxJbwgyToQr4GRS8egEokIITsZt/kTXRROvYKVjSegEEjqZKJtOkKXg0Rl4TAYOA/4FRRaKMonKwAk0B2CISSpOioqThP4KChKZOPE7WFAgrrCQihPIIhGuIEXGIVPx6ESCwk3C4gNKSAPUopDDfk0NrCFC+sNUE3ICwYpYLFZISEhkZGRTU6PgTH19vbu7++rVqzMzM3+YVcML6YXAy5cvN2zYMHDQRjKZjEajJ0yYMGnSJHFx8RMnTrS0tHA4HOHu8LVrYbPnzJ4yZYqYmNjKlSsFIfl7DST6sb6+3sNjj6enJ+wHIQoLXO4PgUG4QkBAgK6u7sDxv/rrGj4vQKAo76kFfrGL7PwodWUKQY6KQ2XiwKCNYNzGseMKZIJMGl4mkSB7m4QJkJ+9e8a/jsrPilaXTSXKpBFQZAKo84DYjEwGXiCoDEgRAulCuulLD1eQpmIRoOAQVIg9ZOKkMrs5hAQVJ0HFiVNx4iJcQZKMk07Do1Lw6ES8QjhRxVUBaaqqSE6M4XE54+ex6ezsqKqqEn5T8/n8Bw8eLFy4UFlZ+dmzp0IawWQyS0pK4D2IH/jBqK+vNzMzO3To0ABJ1N6+fbNhw4Zff/114sSJEyZMkJeXP3jw4MOHD1+/ft3Y2NjU1OTv7z9nzpzp06dPnjxZT09vUG3B69evzczMAgMDf2Bg4aWNIAIDcQUej2djY2NlZTXoYzeCE/rxuqoue+O8ac0OqdkRGkvSifJUHIqKRQokAzc2exBkPBLkCgTZOKLsNQLKU2Ki09z/3MBLJ2nIUghICmhwgMjEIwS7JD0UATwpECgmBALULoDkAAGt5cOiINIgLSANAq1DBk4yAycBcgVQJCg4STJOCjRcwCPTcZgkgtLJ5XLGUn87Gm16k0/7NIjkj/FICMJTCNfC5/Pv3btnYWERGxsrpAtv3761sbHx9PR8+/atkCsIm8CFHxgBd3d3c3Pzt2/f9rfGzs7OU6dOSUpK/PHHH5MmTfr9999nzZolJyeHw2G3bNliZWW1fPlyKBDTtD/++MPS0nJQe9jHjx/r6elGRUX1NyJ8HkZAFIGBuEJDQ8P69et9fX2F32WiLeHyEBFob6nzszI2WjDjmsaSVJLCx1xhVI0VhH4QAq6QSpCNIsoGKs22mf3vAMU/E0kyqWD0BVAoPbRAyA9EWIIgRzYyA9QlIKlYVI90EyARrgAyhgycFAUn2b8gUwnom0SlvUpSBmjxc/s9mphVQwT2W67W603P4/FKS0vz8/OFvsdsNvvcuXMzZsxwcnISTSFdWVkJxzL5lu/sV5rb1atXdXR0HjwYyCCxvLzc3d1dSkpq8uTJv0DHb+Dx6++///7HH39Mnjx5ypQp06dPFxOb7OLiMug8b4Xf2rp1a05OzqA14QowAoP4QRQWFmKxWDhg+Bc+KFxO2xkv5y2LZl0hKqeoKwm4QgYWAcroGjYKYkSScdIUPCKNgIonyoRipfZITnRd9OtVIjKFKJOOR0CWj9JkvDRUTZqCFwjIHsBk2YJM2VgEGYugYJEUNWSGGioD/IvMUENAIp2BleoxX5DKwEll9EsUJAQ6hjQ8Ip6IvoiTs5FdYKqqkHYrjMvt+kLMx7Y5n89vbW3t7PxgotjS0nL48GEtLS0y+YOZcF5e3rFjx+7du9fL+W1sJw+PPiYI0Gg0fX39ixcvCu0P+pzG27dvT5w4sX79eiQSOXv2bDExMQFRmAQdYmJiEydO/PXXX318fPpsLjzZ3t7u7u5ub2//JSmwhb3BhfGAwEB6hYyMDHV19bt3744HIL7mGtnR544bIuedXiGXBHIFGZAlCN6s2NHWK3SHlMYjUojICBLqmPJsm/k/HVWeHamJScUjhVxBwBhE/oKpp8iQUHBIMsQVyFgkGYuidHMF4YqkMrCSkLWjZP8sQaBmkKDgxcl48XS8RCoeEUXEnFqBMZGaa7WSUJRH6/W7/GvenZHvu7W1NR46hNvPra2tHh4eKioq8fHxPF53sAQ+ny/KJ0Z+HnCP3w8CDQ313t7ednZ2g6aP6ujoePHiRXh4uK8vGHVx/fr1GhoaampqsrKyc+fOFRObPHXq1IGDNvL5/OzsbEFGwP8lp/5+QIJnOpYIDMQVQkND165dO6jvzVhO//sYm5+dErtNUfrIElSChnIGDpWhJp2hJkXBSoOCGwNJx0snklCXCdJukhNdpP8IIaBi1dFpA3EF0HuCDCoVkAKukK4mDQkiXQ1FVkOlY0Eh41CgNgLadIBsFAbYepCkgLEWBFwBpAuJRFSUupKPkvTqP8UOOexuYdV8H/cWADgcTlNTk2jWn9evXy9btkxOTu7Row8Jf9+9e5ednc1isb5rGvS93JTvcZ4ZGRnGxsZRUVGDmhoIV9fS0tLQ0FBeXs5gMOLj486fP79//35PT89Poy8ImwAA0Nzc7OfnZ26+HY4RLgoLXB4YgUG4AhaLTUlJgXWkA4M46NWK5zk7sMre8hJxK5dm4GQy1KQpWCkyVpo8FlyBjJNOwUnHqMscUpy1e97/+S+ZF6khl0QciCt0b0lAXAFUKqgh0tWkU9UQKXjZhJVKMasW39ZUvq2pFKWpGL1KPkETnUxEpIEGjKAZY78CcYV0UK+wKB2/KBUvlUzEBBMUHdDiuvLI6OALnZ3tgwI7+hWgHFof5eTMz88/ePBgeHi4MOhyVVWVtbX1jh07Xrx4MfozhEf8ThFobGzcu3evqalpQUHBlxDKgXcxurq64uLitLW1Q0NDYEO07/RRGZNpD8QV6HS6qampjY3Ns2fPYLrwJbenreq926Y1Doh5MauWZeBlKCBLALkCZSz2IEClAgF5HSftsPAXR/EJ5wgycRoK6QR0Oq7fPQhIW9Bt0ijgCmkrEElYWaouMcdr57NDTvf9nLL8HLL87O772Tx2NabqrUgiINPxA1o1QiEde7jCQiikIypGQ/EccfE22YVWazUe378z8Lfel9yRz2vL4/GqqqoKCwuFWgQulxsZGSktLW1mZiaqPS4pKSktLYX/13wezuO2VWZmpra29uHDh2tra7+ELvQHII/HKygosLa2dnBwGMDnor/m8PnxjMBAXAFy+L5vbb3TyckpNzf3W/vi/uZvG184Q34z03+HiaXEX7dWqpAJaDKowJdMV5Ma9Q0IBBkkBKgYdUyAwl875vzHT+6vGxrySeoKZDwaMkdAkHGgVWMvEZkngoxFpmFRiWqyt9WVXx50AQoeAJUvgerXQHURUF0IVBcABXdf+dtHr5SLXwHGUYDaSkEbE6J/QX0DFAEaDPwMMQbJdDwihYS+ral8cDlGV3rePjvr6vISAAD4kAjBHLUCn89nQ4fwW7uzs/PKlSuGhobJycnCk4WFhcePH09MTIB/pY3arflRB2ptbb1y5fLGjRtDr4Y2NzeN7DL5fH5JSUlAQMCOHTsePnzA4XzfFsQjCw7c26AIDMQVBI3v3LljZGTk5OT05s2bb5ku8Hg8DofT2dnZ3t7e0dHR1dU11rP9wBWArtbLvnu2LphxkaCYQkCnQVyBjB19roAk41CpBPQ1vIzT/F9tF/x2Vk06TkMxlShHxskOLYIkyBWS1GSj1eQiNmk0Jt0COmoBoA0A2JB0AkA7wKmpTwqJ2rgiQmVRGqg4EUgvs4xulQMZL5neLVKgSQQBmUREh6or22HEdeRRkcGXuJwxi87U3Nx87949Mpks9Glkszv9/PzQaPT58+fZbNgobNCvF7jCsBFgMpkHDx7U1taOiYkeQfbJ5/NZLNa5c+cMDAyio0ey52GvEG7wfSIwOFfgcDjx8fHa2tp79ux59+7d0O1uRg0QHo/X1tZWXFx8/37WjRs3goKCLl++TCanv3nzpr29Xfj7b9Tm09dA/MTQC1pzxY4uRSbg0KmgH4GkyI/1Xu/Rkf0oeCtLQe9sVBoeHYvHBCjMtZjxbx+5P28QMWkkRTIBQ8HJDJErpGGRcVj0LbxymoMl8DYf4AuIAgcAunroQivw7lmmndEtVUTKCgQFi6LgBKGsQbtIkfwX4MR6uAJIFECugEekEmRiSfKnsQqmkvO2q+OfP30yVmml3rx5s27dOgwGQ6FQhLyzuLg4IyOjpARUeMAHjMDXQKCsrMzZ2dnAwCA5OXlEvsG4XG5DQ0NY2FVDQ8MzZ84Iue/XmDzc54+KwOBcAQCA9vb2yMhILS0tb2/vb0270NXFfvfu3fnz5zdv1lNSUlqwYMGsWbP+/PNPNBq9cePG4ODgioqKb4HfPCYnai2c6SW3IBaPSQHdDkdNqSDKFWQSCZjQ5Uin+ROt5/x8Tg0RA+4+yFFApQKqHwXAR8SFjEOk4FBReLlILdLzSyeB9jqIInABgAsVBHShFWirfBd8PGKVasIKZDrIFWSg/oXJL4SaBikyXiodFEGWCvBvGh6RjJe9RVQ6vBSzcdGc/dZWle/eAnwRJc1o/V+srq62sDBft27d48ePv4VHaLTWDY8z9ggwGAwHBwd9ff2rV6/W1NRwOJzP+80j2EcrLi4+c+bM9u3bL126JGpVM/brhGfw/SAwJK4AAEBra+v169c3bdp06NDB0tKSz3twRxwWNpv96NEjBwcHWVnZGTNmzJw5cyF0zJgx/aef/u/f//73/PnzXV1dX758KfxdOOJzGGKHb/Oe6ctJ7paceZukkIxHQVxhdOjCB65AxslG4zFH5OdZzvyvD/qvcJJ8EkmegkP3EIWPaEGfag8yDnyRh5OU0ndva35MBfjtPeYEPIguCLQLHQC/lUvPSt9tHINFp6gJuIKALghUC90KBijM8weWIMIYkAlEuTC8oqsCUlcWERZ0qrOleYg4j2y14uLigoICoSXjyHYO9wYjMAACubm5+/bt27x5s7+/f3Z2dmNj43AJa1dXV3V1dWZmpqenp6mpaXBwcG1t7QAjwpdgBAZAYKhcQeCVGxISoqOj888//7BY30RKwKKiot27d//111/Tpk2Tl5e3sLAICgoKCQnx9/dft27t9OnT/9//+38zZkzfs2fPmLPppurS3auwW+f8fp0gl4iXgfwgRocrCAIeSJNxyBRIqeAsMcVu3oTzWJkEDcVUPLpn92FwokDBgRGZ4gmYW2uX5x4/AFS/g3QJwqeLDwBCxsAGGiqLzh+L0ViSiJWFjCE+4goCO0oRctCLMSCSCbIxRIVzJJXtMhJGRFxWavJI7UQIjFqG+7UrXCRcgBEYNQTKy8tu3LhhYmJiaGh44sSJ3Nzc1tZWNps98E81Ho/HZrMbGhqysrIOHjxoZmbm7u52586dETeWHDUc4IG+BQSGwRUAAGhsbAwMDFy5cuXZs2eFMenGahkcDic4+AoCgfjtt9+UlBSPHw8sLS0VTub583xnZ6eZM2f85z//kZKSun07cuD/YMKGX6vQ2XrAauu6af93UU0mniA7insQAhKASMPLxBHkAhXm7Zg34aDC3xGayqlEefJQzRSkM8DMDmAnUQT5aMP1rLQYgN38wUGhe4tA4LIAkQZOe8cDSpqxVjRePgXXmy5A7hjd8aR7LBWgwNKgyQIoaXhkEgF9U2PJIayyDmKh23bj0rdFH4Yb/k3i8XidnZ319fXZ2dlxcXHl5WXD7wNuASMw2ghwudzs7GxfX9+NGzcaGRkFBgZSKJSysrKmpqbW1taOjg6Bqw6bze7o6GhtbW1sbCwpKUlLS/Pz89uyZYupqcmlS5dKS0vH+NtvtGGDxxt5BIbHFQAAqK6uPnTo0Nq1a0NDQzs6OsbwEaytrTU2NhZkXXNzc2Mymb3gefXqlaam5i+//CImJtYrQ0+vmqPzMfiQ16oZP59ZjowloEc5ChMZh0zCy4bhZN0lpuwWn3x+OTKOKJ8OKhWENgQD6RUgoiCdgUWkYmXD1Zfc9bQHXj8H+CIeCjw+n8fr/S5nleUc9rhCkI9SQ6TiZck4GUhQgljRYDgHgUBJKHq8K8FpQHsTiDQ8Kp4kf1VjqcsSWV0MIvT4UU5b62fcKS6X29HRUVJSkpiY6OXlpa+vb2lpSafTP6MruAmMvTNC2AAAIABJREFUwJgg0NbWdv/+fR8fH11dXS0tLRMTEzc3t6CgoMjIyOTk5LS0tJSUlMjIyJMnT9rb25uZmRkaGpqbm1+6dOnly5cj6EwxJmuHB/1GEBg2VwAAoLy83NfXV0dHJyIiorl5bDaSAQBgMBgqKio//fTT7Nmz+8useuCA3+TJkydMmLBhw4aysjH+KUm+eWXt3D+OLpGMIWDIaqOZCQKRjpeJJ8qdWCqxa+6vngqzbxIxyQTMEJUKGTgwyiRFTZK8ApG4QjZSW/3dzWCgueEDM+ADna0t9VWV/F6RFnnt5Unh1/Q1bmJRSXjZdJxsOk4mHYeCpIcodKeZ+Iip9ER3AG0jotUVz6sv3a0gbUFSo2Wk8bgiBGXA/0MCq67GxsaCgoKYmJi9e/caGRlZWlqePHny6dOnY64VG3Du8EUYgT4QYLPZr1+/jo6O9vHxsbS0NDQ03Lx5sw54aOvo6JiammKxWAwGs2/fvqysrJqamjE30upjDfCp7xaBz+EKAACUlpb6+fkZGBhEREQI0+yOMggPHjxAIpE//fSThISEaOB90WlERIRPnz79559/XrFiRVFRoeil0S+/fEjVR83zU1gQTZQnqyFHS7UAJnFIJWAi8BgPxIxd8347hpWKVsek44fgJAk5a1Bx0hBRkEhdJh2zQo5sa8HJzwF4Iu9sLqe0IJ8cfqPx/ZuPUeV2FjPSPayvkeRjcbJpODTEFWR6GEM3XSCDjpQfcQXhx3Q8IokgG62hFIiVN0LMc9+iU/kq/wNH+Xgw4SeBIqG8vJxKpQYFBbm4uNjb2x86dDA2NraoqKi1rXUMlWHCScIFGIHPRqC9vb2mpqaoqCg3l5Gdnf348eNHjx4VFhZeunTJwMBg4MTWnz0o3HCcI/CZXAEAgJKSEi8vLwMDg8TERGEk/NFEMzs7G4PB/PbbbwsWLLh3r+9kmHFxcTNnzvz111+JROLr169Hc3qfjtVYUrQDp+yKmB1OkE/DosC0zt1xikQLfb81ha/P4RcQFLxMLEHu9GLxnXN+9kBOC1NHJ5DAKI0ioQ76GRQLJZXGSlJWiKcvW5SgKh2lofLy4gmgpU5kdXygpS4n8vpZmx3vKGkAvwuycBRc5wHtrKKb525oYyNxsqn4PrgCNI1+uQIZBxkuEGWvk+Q9FRau+mvimb2O7NZ+7Wq5XG5bW1tRUWF0dPSePXu2bt1qbW198eJFGo1WX18P/8wSuWtw8QdEID8/38TEJCkp6QdcG7yksUbg87kCAADFxcUODg5bt2598ODBKNMFDofz9Gn20qVLfvnlZzExseDgK59atnd1sc+ePTtt2rRJkybp6emNfab2ziYv/XU7Fky7hpdPw2PSsaIOhL3iFPXz8u7n97eAQHRbFYBGiB+ak3HIVDw6DCvjITHVavb/nVRdFKshl0KQGZwoQP1kYCUzsBKUFeJkVfEoVWSqsU57zr2P3R+6Ot+8SPRy9F9FpB45wG9mQc6TAiNHHgB0tDOyEnboX8ehk4fPFQTrSscj4kmyl7FIs4V/6GLmPUwJ53I6RP/j8Hi8rq6u5ubm/Py8K1eu7Ny5c/369Tt37rx27VpxcTFMEUSxgss/MAJ1dXVWVlZBQUHwM/8D3+WxWtoXcQUAAOh0urm5ubGx8f3790fHiIbL5bS1teXn5504EYjByP722y+//vqzgeGW4uIiiK90W+R3dXU9fPhg40YdMTGxmTNnuru7t7S0jBXKPeNyLuyxM1sw9TJWLoWkmAamYBBsBAxMFLozQQ/8ds/ASVNFpIcuINIIsnEEuWNKC3bO+WUPctoNdUw6CUPGCyIvfaAUfaorMnBSGVgJqpoEZbl4uqrULawc7eAeoLESYgOCNXEBblMpOSZMf91RVfmQLTqNtIdQ0AXBDgUfADhAfdmzQJ8wdaV4PDoNtFcQCiodMlaAgjkOMpNUAiKOiDquKm4kPtnFYFVx3n0+nwsAAJfLbW9vr6ioePTo0fHjx01MTPT09Ly8vKhUak3Nd5PVuufxgP+FEfhSBPbu3evg4NDQ0PClHcHtYQQ+RuBLuQKPx7t3756JiYmVldWDBw++amI9Ho/X0d76suD51dBg652Wm/V01q7RnDdv9n//8+8//5zm4LD78aP7dXXM5ubmhoa6R48e2tnZLly4QExsMgqFDAsL+xZ2qZPOnzBH/H0aq5CgqZpGVCbj5Sl4QXxlVAYeAb3ghQmWBK9PIVH4aMtAVIUg8Gak4qQzsR9EwBsycMgkIiZMTcZNYvKOuT+fXi4Vp6mYgR9i6gdpUKmgJp6pJkFeLpm0HBmrp1GXfAvM+ABGaRQkdWLzG8uzT/uHaiy7uEzulJpibnAQ0FQNUoTugwfw2piUuMgtq8Nx6CQw7xRSYN5IxoEOET27MINwhXS8dDJe+hpBZv8SCS2J6Sf32tezSltbW1+9KoiNjfXx8bGwsNi5c2fg8cDMzMwxj6XRs3b4XxiB0UbgwoULxsbGhYVjbJs12suGx/v6CHwpVxD8tsvKytq+3Wz37t10Ov3TvYCRWAW/q4tdXvo+NirC2cFGd+N66x3bTwQePht0THfj2ulTJ/7033/P+XPK6lVEJ2e7Q/773d2c1q9bI75o/rRpYvPmzVZWVjwWEMBkfpU0r0NfHZ/He5IYvWMxxnep3HXSshiCaiJ+cQpeKZUgl0bAkAkyFAKSjJci4wR0oTsHNPSz+yPFQy8VAhWHoGKRmVjEHay0qGSC9hCoGDz6mPJCy7/+64acdksDDNRIxclkgHYSg7yeKTiIK2AlMtUk09QQcQS5Bx7WwFs6lPSBB62aA/Db2vMfxdtuu4FTuqUmf0EFlWS/jVOQDdURRmXmApXFj/zcQgkKsWrIFCwY0EngNvlxeoiB5kPGSafipGMI6AsEhR3ohYZqCudOHbl88ayjo72VldXevXvDw8Nfvnw5Vma2Q38G4JowAl8VASqVumnTpuSU5K86Ctz5OERgBLiCALWsLFC74ObmVlxcPIK/4Pl8LofT1dJU9yjrjqe7s9YadeMt2scO748OD02Ov5WaGHnhzNENq/Hz/hKbPPE/k3//zzSxX+f8KfbXzMkzpk2cPUsMLSNhuEXHeKvu+nUrg04dr2cxx2Qnj8/nd7HZlaXv02/fMsEt2yw+z0EG4YmS9pOVPrlY9uIyTBgWE0HAxBDR8UTZJKJMMgGVSpBJx8sI3qnQT3AUGXrBf0IUpKmgOgGRKUIU7mKl76kh7mBRqTj01eUIF6mpO+f+HLhcIl5TMY2ApmJRQ+AKAr4iQcFKkJdLJGCRiZsI5bcvAu01kM5AwAO6gFZmSXTYDd1VkViFaJzc9eWo6xtwZfHXga4mEQtHPsBpZaZGXdMmRK5AJKpJi2w9fKQs6Y++gC6UUJ6IBIJcmPoSH+zilVJzScsULM1NAgKOUjOpVVVV3CH7Uo7D/+TwkscPAm/evDEwMAgKCho/S4ZXOjoIjBhXEKSj1NXVPXDgQHV19Ze9kqFXEUgT2HW1VYxnj4OO/6OrtXrDapK7067rwWcSoq4lxVxLjAlLS7iVFHPt2pVTuy0N8MvlkJJ/zZ7x24wpvy78e6q87EKttXhvD7uo8Cs3wy7s2mlKIiz/x9+vsqzk62g++r1fPB6vubn5wYMHrk6ORw/4nj3o67JlszURb4yWNRBfaDDvT+N5M3ZJ/OkmO3e/woJ/FkucXoG4qIYKxclex8pEqCGjsKg4PDqBgE4iyKbgZdIIsmS8bAZeNhMUmUy8zB0c6g6oVOgWkCiAXAFFxaLj8HInFOdbzPnFHTH1mqZ8MkmOjJOh4gSbHQP9jqeAug1JMk4idcWi5BWS4TiZLKdtwKvHANAqQgK6uoqfU72cQtRVo7FysVjZyBWoqzj5rEMe3Op3kEOEABMos1RFcZqjxS2sTLwaAkpULdx9GFzDIUgbkYZHJBDkr6urHCAs1UFLuO42Ly4q4HC6+sUdvgAjMP4QaG5utrGxcXZ2Gh3rsfEH8Phd8YhxBQAAWlpaIiIiNm/efPjw4bKysi+gC3wej9vR0vzqee750ye2GW3ZsJpkb709+NyJhKjrybHX46NCE6JCE6NDkmJCk+PC0pNuxN++cvnckYM+Do42xrst9d0czf856Bp84WhSbFhqws3UhFsRNy/Z7NyGW658yNf7TdHLUfPa4HK5lZUV4eHhlpYWtra78xi0ro62+qrK9y/yc+/eybwdEXPu9IV97od3bfPcst525TLL5ZhtShLb5RdaYuZZI/50lp61T2buMSXxoCVS55ZKX1ZFXlsuG7kCk4CVT8crZhAUqKBgMnHoO3j0XRz6bjd1QFGxsmk4zDU1mX3S063m/nxi6aKYlaBSAQrUODBLEFyVouAk0rDiSSsWxahJ31yz9G3wMaCpFAA6PoQ34HQWJsZc0Vl7RU0xUg0dpSYTqSZ7VU0u3MKg4iEV6GoX+V/FB9jNxWFnI9eoRK2QTsMKtleGMg2wDqRUkE4BzRvlQ9WXuC6RsSCqPqAk9phNiIwDF2EExjcCPB7v9OnTJiYmY+/2Nb5vxI+3+pHkCgK6cO3atfXr1wvowudsRvD5bHZnRen75PhYTxfHLZu0thtt+cfPK/pmcErMzZTY64nRVxNuhybcDkm8fSUpKjg5OiQ5OjgtLpScEJYaFxoXeTE24kJyTEha/NWU2NCkGJBPJMWGJcVdv3H1rIuD1cYNmh6u9vRnjzldX/0naVdXV0FBwYkTJywsLI4e/Sf/eV5fDxAY9bCjror1vvAt4/FTckLqzcu3Th857+MSaGfhb6rno63hSlhqvRhpiV5kgZq/GznfBTnfV1YiUAF5Vlnm4hLZq8vQ4Wry0XiFOIJCPFE+noiJg3wfoogKQarSzgsnuUlNuY5HJ6vLpxMEVo1DfElLpmIl4tUkrqlJxZltaH2QBPCaPvKWbG1KPxd0auO6EG3NcB1ipA4hXJsYsp54zkTvUeR1oEPU64QPAFxO7sMUS91bWJkULEKwn9LfpkOv82S8dCpeOomAiCbJn8cr7kAvDLS1aKop6QtM+ByMwHhHIDU1deNGnfv37493IOD1jygCI8wVAACor6+/cuXK+v+fve8AayLd17//e0+555773HPv6WfPnj17zu6qgAi2VbCQBCyoKE16FxAQKQIiIBYQQVERUFpIpZNkkgDJzCSAqFgotl3soigiCkovIW3+Z2YgouKqu1Qdnt8TJpOZb77v/b7JvPnVTZuSk5OfP2//ILqgVCi6Ol6cPlURH7vfxc7Gx93lSOzeAkZmSTFLxMsVcXNEPHYZl1nGYZZxGCIOXcxliLl0MZcGAXQIoIN8Oshn4CLm0zFh4HShjM8u5bO5hdn7o0OsNq0ODfK7XHdBPjQ0rmC+bEytVvf3958/fz4kJMTLyys3N/fJkycvf5G/PHCMLaV6aEjRLxvqHezvfPGk6f539Zcr4XJeASfrRFb8/qQdAQdcHPearQ9fuSxwvq7frC/9vvpr8Nd/jdD6e6z+Pw9/O+uowezkZbNTl2unrJgbMe/zbV/8+ui3X/NXLZCazJeiDhDv1vnjj2opaQ5E0gJIWlTK3PMJYcjj65hSAfdqxLot679Xfeq7QtZ9LruZx3jMYzRzmfeKmA38guardcjQaL0CglouOlouH92bv25pKWmuFK1D8d49wbhCqYlO0ZqFB5fM8V2ifbqAhih/TG2IMeAmdhEIfFwIXL9+ffPmzZmZmR/XsIjRTDEC488VEASRyWSZmZl2dnbZ2dSurq73GaJKperv6/v+6rWUpGPOdraONtYHoiM5OUwQKAZ5BWJenoibI0aFLeayxFwmJgwxlwHyGCAPJQqo8BmjZYQ0MMR8JioC1GAh5DGSj+7ftN5kq6frxXNnJ8Kqp1Kp2traSkpKtm7d6uvrW1lZ2d3d/T4gvPsYpVzZ09n3tOXpjYYbZ6pOFxcAqcey9+yM93SMsFgTsma53/J5HvP/6az9Z+fZf3Sd9ceNv//Zlr/+mrpSr2T1YomxPs4VRldpeu0X/Oi3UtJsMUmrcKUWczP5sTgPkb94NboBi5lUDqLVJuVdiLwTlaFORNaF7lEOvmEgUCGKnqflAM/VnEuaD5HwSNH3ogtSyhyxsZZg1TyqsZ6f1l/it9i03702Kizz3bARRxAIfDoIdHZ2btu2LTAwcNIsrZ8Otp/ySCeEK+DVq1NSUjZv3pybmzswMPAD2gU8nc7DBw9yWWxnR6cNpqbB2/yoqcfFQBEIFEG8AoiXi7EEFsjFhQFycaGDXDrEY0AoV6BBAA0G6DCfDvMZuEAjOgaQz4AEDEjIAoUssZAl4NDjYyLWryFvcXM+c+b04OAoG/xPXgsKheLx48dpaWk2NjZRUVGNjY0/MPaffDW8ATki61J0POm8f+NalRjKy8w9ti853DfC0cz06z86ffnbk8vQQtIQRU9K0ZVQtKWU97JBSElzSkjaOSRdONJH3XQNUyposiZoOq7COIECs00MYWRCge1RYS6QmhLVmF4Bkambb5yNCStcZVBGWliO0oV3axek5DkSyhyRsQ53lf7BpbNcdf9WkZ+JKLpHc5HRl9H0jNggEPhkETh27JiZmdmUV8v7ZPH/KAc+UVwBQZAnT57ExcU5OzvzeLyenp43H5lqtXpgYKDxXmOJQBAZHm5pbu7u6nLscEIptxAWcEBeHsjJhThsiMuCuEyIy8CEDnFpGoF5dEyyYd4owXUMqJoBlZfUQcAEBUyxkIlqF7js5CNxFhvXuzg7iUSinp7uEQOB5rmjSQ/wvvOO2R36rl27lpSU5OXllZKSMkXuRUr0ya3obrnfQE+KdV08J2ruFzkkffGqBVJjvXLjue/JFSRGswGSDseS9ACgYUoF+QhEowHRwIWTBuUoioAfpjkA65XsRTM/h2e9VrByYTlpQflw2sq3chcpWUuCRktqlZrosox0fGf9YZ/ThmcPv8NIiVLTtGZjdM+IbQKBTxYBkUhEIpEqKio+WQSIgY87AhPIFRAEaWxsjI+Px+lCb+8r1avlcnl7e7tYLN4THW1nY+Pu7HQwZl9hDrOMVwzyiyBeHsRhwxwWzGHCHAbMpcNcGsylS1ChSbjZw8LLlgwLVcLDBSUNEI+mEVTZMMIeQNSJgQEK2JAwv4xfcDLlmL2djaOjQ0FBQXf3qCLLKMwfxhVUKtXz58/FYjEWsBRWWlra3t4+7rP1oQ22t95PDvPz1f378WXagrWLIRP9chPdcsp7af7hld8UUuZKAhyRu7VYrkbFD2KCei+OaBTwZzeOoYZD4LoHmfJmXXmQZ8FKfYg0v5w8b0S1oF2BRnIOy0gyR22MK2jDlLmAsV7igr+7zvkTRE9C1F0IIlchBFf40OVAHP+pIHDz5s01a9YcP378JwSjfSpYEeN8TwQmlisgCNLc3BwVFeXq6gqCIG4/U6lUXV1dNTU1R48etba2srXZHLlzZ+bJVH5RLsgvAoF8kJsHc9gSDlPCYUg4dAknGxcplybl0aU8mpSXLeVR3yY4aYB5VJiLSzbEpYE8TAC6GHWBZIL8HFBYVCbgZGWcdHN1trAwZzIZPT2davUo3733hBBBFArFo0ePWCyWj49PZGRkfX39RLhBvHd3Xjnw3qXqCAtKgM5fGMZ6ZWsWSEzmVVLeWtdxtL8CtGIWZ8PihhP7kN5HCNI/KgWTWqVQKIaGlHK5aliGVHKZSj6olA8o0VcZLgr5gEopx04cwowU2HZ3yx3a0TyTRaVGeuVkvRHVgk4FWaeSNCwVaO5nVKRkbQlFB6To5a7UDZv1+90WpPbGywgiUyJDSkShQtQajYKGnrwyeOINgcAniUBXV5ebm2tAQABRGOKTnP8JGfSEcwVcuxAaGurr61tTU9PX19fU1ETNynJzdbHZbBUetoOelc4vLigDCkW8fBE3D+TmQFw2PMwSaBIuTcqlDwtKFEZzhexygFYO/BB1kAzTBSrERQXkUsW8LBB1bmCI+XkiQXGZgEvPynB3czFdu4pKPdnW9lilwosdvBfcajTCc+jGjRuHDx/asmVLdja1qanpvc6ctIOU/aW04446n0XofV60dpF4lf4piu476YKErC0maUNbNvacBhDlcwTpxR72qOZANdT/5PaNOxeqm+ouNl+qxeTCo8vVjy6feXj5TBMqZ5suVzdeqr5ZW9X28JYaDVjAXRlwxtAjq5OUumzgkHQlJF2MK8wdTRRwxoDTBYwo6JYYLzi+6JuQ+f+QZh9F5M8RRKZA6QLKFVSYroMgCpO2mogLzRQEEhISzM3N7927N1M6TPRzmiMwGVwBL0e5detWTw93Oi07KDBgwzpTT3fXk6nHSoHiUqCghJNXxs0VYTEOIOaaAHNpw+oEbjamSKC9+orrFbLLAVTepmaQcKkSbhYuMDcL5mZBqGRCvCwIyAYBlpifBwoKRYJiNoO61cvNmLLsRGrik5bG90wYrFQqu7u7z507FxYW5ujoWFRU1NPzip1lmsx926PbB7faW/3t18eWa/FWLSin6FWgdSbf6iUgIWuLKHNLTBdfTghDWr5HVJ2YXkGO0gW1rOPGFf6h2JMejumu9lmuDlRXhyxX20w36ww3q3Q3yzR3yzR3qzQ361T3zYnum0tSDvY138b8InG6IEeb6nzw3ZGIojULITR4UrecPFejUdBsYFwBtT6UGuvlkxdG6n552H5DzwPUU0GFcoUhJaLUcIVpgjPRDQKB6YOAWCymUChVVVXTp0tET2Y0ApPEFVQqlVQCG5ONln670NnRNm7/nnw2vQQoFHBySzg5pRx2GYcl4jDEHDrIQV0X4ZePeaoU80h4xXsR9WSkvpeMcAUNaZBwM2FuJszLQk9H/RhYkCAPFBYVsLOC/D0tN65OSoy9f/f7dyYPVigUDx48yMvLCwgI2Llzp1Qq7eubthH/6u+qYd91Bl6z/5i+UkeMBkTMwx7Gr9MF1D+ArAWSdThkXaHz+qfifET2DFMqyDC9wiAy9LwRyMm2Xkc1WpxjtLhg5aKilYuL0NeFhUYL8lfq45K3Up9hpJ+8Qi/Lbn0jzEMUXQiCt6BAeYO6e+CMsNRlfRl5HohVmxxLr4A6VUAUXR5lQYrBvKBFOlB2ClZmQqFGhtSIQj3KADGj70Ci8wQCE4HAvXv3Nm3alJOTQ7gsTAS8n2Cbk8QV0BxNL9q3ermvNjbKzkgpBVDXwjIgv5SbU6pJrMShgZxskJMNDRsOUE0AjD7sUafF92IGbx42FleQcDNgboaEl4V5NmBRlwAT4rN5uRl7dvrZW64+EB1647v6tyV2xO0O169fP3LkiIuLy9GjR+/cuTOhxbjHYV3Ke8F8qtPCr4O1P8sj6YqN9bHK1LiT43AVbDQ6kTwHIs8ppczNNdGvjPRR3q1DkB7MsRF3OxhQtd6WRgdTjb8VkheWkeeDZH0Jeb4EfdWDyXoQaR6IiZg8T0jRzycvoK01PH0sRvXi4ahwSjnaYOvN8zFB3NULBVjZybG4AlowooysV2D87S69r6Ms1jZeq8HdJzGioFQjP8azZByQJJogEJgJCAwNDQUEBMTFxU1PZedMgJDo4ysITB5XUCrlRxMPrltNymNmwKVFYkGeCMgp47HKOHQRhyZGWQIVE9xS8Nor6m0wmi7g/gdvvL52FvoWYxvDlghMu5Ap4WZIuBlSXqaUlyUdiZ6Q8OjlfKYwPz0uKmDzenJogM93l+veTOyoVqtxu8Pu3bu3bt3KZDLb2tpeQXS6vuntaE3dHeQ4+y+HFn3NNV4gMZlfTtHFLBGzy8mzyymzJeTZEHm2mKzFp+gUmi+/k5uC9DRh1gcZ5p+oQNR97XUVbPsNuUbzJSR9CWluOUm70ugVKV+pVb5SS2qkJTLSEZD1ckgLi7Y6dVw7P4orKFAdg7qrRUAHNpOLV2rB5FccG0f5K8wFSHppy/V99L4pSIzt7+vEoFVjYZlv5m+YrrgT/SIQmCIETp484evrO+08qKYIDeKyPxGByeMKCIJwi/OWfat/MumgtLQQ4uegHgNchohDE3GyxSNEAeRkYl4FYzz1f9x+XDkx6jUTVSoMS6bGNoGRhmwpny4qzj4aG2G22sjbzbnu3PkhmUwDsVKp7OzsFAqFTk5Ofn5+p06dGhh4LZOx5tjpuNF040qUnZnvnM8zV84XrV0qpeiVU3SklNm44EoFEVmryFgH9LUcuAwjyjbMADGIPenlSE9rLSOZusaQR54/Er+gVUF+KeWkObhIjeZARtplJD3OyoXUDcY3ilmIamDEDVGJ2SP6kdsXKoOdioznweQ3fRu1K9AgCL08I/0wrb+FbjB+cPnCCKBvcoWRT4j/BAIEAqMQgGHYwcHh4kXNvTPqM2KTQOADEZhUrlBfe85g0bx9kcESYQHEZ6PBCFz6a0Rh3LnCGwwD5Qq4SLgvuYKEi6kZgOxyAQvksY8n7Nu0xmSrm9u503hiR0ShkN+9e5fBYLi5uYWGhl65cuUDoZ4Gh6vl1fxCf6PFO3W/yjVeDBrPl1LmSimzJZjA5NkQaU4ZSatw7byG4zuR9u8RdTuifoHmM1D3Iqo+eeNlfrgPk7ygjKI/Us1hzmgfSSlpjkZgIy2IpCdcuZBusrwqNkrV1oyoFGiharUMUfcj6m6k894D6kHhJsM3uIJ2JVoqQhcizU9drO3x1V/yEmMQmaYS1WtcYRqgSnSBQGBaInD9+nVXV9eCgoJp2TuiUzMMgUnlCq2Pm9avNvJytREDORCfBQFo2afRGgWQkzkJXAHiZuACv8oVMLpAlQAMiSBXzM1Lio91ttm81cMDBqHurq7vvrsWHx/v5+ebmZkxKZmbJ2Ql9be3Zu/f7ab1j/jFcwDyfNh4ntQY1StIKLNxrlBK1spfN/9J/mHZk9qB9iu9z7/re3Fj8MUt2ZPv7wK0HKcNHOP5sLFeBUW7gjIHNV6MFU+BMQYtCWme2GhBPsWmqT+vAAAgAElEQVSA7+bwFC6RPbk/2P6w73lT34v7g8/vyp829JbSJA6rJGTdUf4K2pVkrXKSNkyez1+5IHL2FyFkw9t1Z0dhoeEKH5Ysa1QLxCaBwLRAAF/KE7eOOzo6AgMD4+LiiMIQ02K+Z3gnJpUryAZ6/LxcNpmSuLmZsADnCtkiDhWjC1k4UfgRXAHkZIGcD7JZZKKRk6gMu09iPg2ZqJoB9Y6kQ0AOzC8sLc5PSTxsZ21tY22ddOxYaGjojh07hEJBR0fHm/mqZ84yUN+9Wh9tY+7xjz9mGmiXmMwvN9aWGqM1FyRkLZisLSbrFK/Wq4vaUncysjI5HE6JKE+JPJuy++KxSMjfvtB0SZnxPClFZ4QozC4nD7tGvrYhJc2RkHRg0jyB0fwiE0PIx63uWNzp5LjK1AOnTh44mxrz/cnY72ICYMvlMJobSpO0UaucrA2RdEuMF2Uv1fOd/QVrz05Z92iPkIn+gp05M0n0dMYioFAqVWgisYn9U6mUcXFx/v7+0yGH7MQOlWh94hGYVK6AIOpjh2KXLdJhZh6VCHMwvQLKFTC68CO5goZhfCBdeJ1boIGUGHtAK1HxWBCQD/E5IoB3Mvn4JrONevPmhYeH19TUzCwHhTHXj1I5dFHA8V06L1zrr/lkPUy1oCM11pZS5krIc2GyrtBkHnf9IprZ4pOm81PXzj+5Rj977YI808UcE/1Ssi5M1kGdElCNwg8LZp4g6cBG80qW6RaSFhWZkegbVlDXG2auW5ptuiTXdCnXdFGJsS78as5pCVmnlKRXQFq0V/ufIZRljbVnRlJH40mjca4w5siInQQCMwABmUz28OHD5sctL1686Ozs7Onp7R8YGBoaUiqV4/4jhMlkOjg4fPfddzMAF6KL0xuBSeYKSAmvYIn+7OOHoqUluSCPJuZquAIVUw9koo98Dp5m8fXH+RueB+gB48UV0KbQTE1oLQkQYID8XFBQJCkVFOfnOto7WFpY3L59e3pP5Yf0bqAnP2GPx+zPEhZ8JSDrQ1hNqXLKvHI09YK+xFhfbKxfYqwvNNbjU/QElHkl5Hkiki5MmislaWPeiz/MEjSfzsHcGuZKSLplJD0hGRUBZR4uQrKuiDIXJGtLhq0Yc6SU2TBFS0zR5VPmJ3+r4/fNF6x9EYgS9x7FAx/wPI0fMlLiWAKB6YSASqWqq60NCwsLCgqMiY2NP3SYSmMAAsGZ02euN3zf3PTg6dPW9ra2Fy+ed6E0oqe/v29wcFAuH1IoFEqlEkuW8AEKibNnz9ra2paUlEwnDIi+zEgEJpsr3Gq4QlmxODLEBxbkYL6NaBDEiBkCpwtTwxVAXhbIo0K8bAiggwBDBLBF/IIyfvGRhIPrTU3pdNq4U/6pXS+dD24edLPy/uqPGQY6JSYLpBT9cjQsQr+col+BC1m/nKwnJeliMrdiODZyTiV5dsU7NAoaroBbKFCzAqaxmAuT5sJkHZisA6GCsgSYPAcmz5aQZkvIs2DyLJCsVULRLSAvitL9OoRsePNM+QhKBFcYQYL4P5MRePHiRUJ8/LeLFlpZWmy2sjRdu2b9+nXmmzZaWZg72dt4b3Hb7rc1YmfIwdh9KUlHmPRsgFcskYAXLlRfu3rp1q3rTU2Nz561dHQ87+7u6u3t6e/vl8lkcrlcqVSMWcvm8eNmb2/vlJSUmYwZ0fdpgcBkc4WB3i77zWZbnK2FxWjOxJGYSdxlYVi1MKb+YKJ3grwstFQEjwqi9aWYZUBOKZCfz6ZucXNydXG6d/fOtJiu8eyEoh7kBlG+3anz91zSAth4UQVlfgVFv5Kif4o8LJWkeRVGKEuoMNKqMJqDCmn2B3KFYbogpaDVpfEC0zBWZhrG95BnwxhLwIjCrDKyNt94fuby+QG6s7IiQweet46MmHBTGEGC+D+TEbhy+bKbi9NWT/fifFY+i0bPPJl54vixwwfj9u6ODg8JDdy2zdt9i4uDi/1mexsLBzsrJ3trB1tLBzsrZ0cbby/XoEC/qMiwhPjYkyePM5lUPr+oqkpaV3f++vWrjx41Pm9/2vHieXdXZ19vz8AASiP6+nr3798fHh4+farZzeTZ+6T7PtlcAUGQkCC/zZvWFDBPQny2mMsQc2m4XkETEDHRtGDM9oe5AkAVA3QRxhWEvNxjiXEb1q85eeLjZOXynjZOUpyX/jcH9L4WrjIoN15USZ6vIQqnyHqVJN0KI51hokCaXUGahcqH6RVwHQPquyAla2GMQVtCGSWYXgEmz4LIs8Tk2QLKvIJVi/fpz9ppsqJOUobGWL78+wDV68uTiC0CgWmDgFIpZzHoVpvWZyQnnoaE5WVcSQkHFhZD/EJcxLx8YRGbm5NdyMhgZ6VSTxxNPRp3KDZqf1RIeLBf4DYPX29nNydr+81mlhtXb9pgvNnS1NnBwtXR0tPNLni7196okEMH96SfOJaXQysRcKoqJRfOn927J9rWxub8+VdSxUwbSIiOzBgEJp0rqJVZ6anm6yjUlENiAOcKaIqF0WaIMZ/lE70T5KJ6BTHKFWgoV+Dn8opZO4L9XJztv/v+4/MMGn7utt797oCXo8eXf8peuQgyWVJJWTjCFfROkedVkuZWkLRxdcIwUcC4wru8GkfbIDTbGF2gaEnJ2lI0z9KwSMhaEhKqWkBTRlK0uMbzs4wX+8z+IiN0e1/nM+w2IijCjPk2ITr6wwg8bm4KCtjmu8UJ5BfA/HwIyIF4bJDLEnNYYg4T5LEhfi6MSo4E2wD5ObjAwjxIkCsC2KVcJr8wu4idlpOdTEtLTD2yP35faFSYX5Cfq7fbZifbDdabVm1cR16/eqWZqbH5xrV2NpZGK5Z99Y8vHR0dLtXXY/nQfriPxKcEAmMjMOlcAUHqLp613GCSGBshBtgiHhPP8Tw6I9NE04K3tY+6LABZID9bzGeKhLmM7FQriw0JCQf7+/s14H1kXgsIIr90CvRZvih49hf5KxfBxt9WkfWryHqnUBnFFTDrQwWqWphd8ZYgyddiJl99O7pIlXY5WUcjUpKWBI2unA2RtUTkuWzy/N3zv96yWOdiSTEW/qABntggEJjZCKhUKlEJsNliXWLcbmlZkYjHEnOZmGKVgZli6WIOugGiMdt0CGCAAEM8IiCfAQmYL0XIgoU5sDAXFuZKSjApzQOFuaU8FlBEy6GfyEg5fCR+397I0B2Bfj5e7taWm2bP+io56ahCPjSzQSR6P3UITAFXePyw0dl2U2SIbxmXKULrQbye5vltz/KJ358JApkgQBUBdCGPGbUr0NrS7NSpitGzo8b+PiZ6rhjs4qUecdP5Olb3ax5lcQWqWkCJwimybiVJp4I04qkw7K8wp2Ks5EtjZmQaa6c2FhkxmitoY3QBLW5ZQtY7uVzX5e+/PeBp39PaiMFOKBVGrz5iewYj0PmibVdogIu9eSE7AxLmi3jDRAHk0kEuXYzWxKGBXBqIhmJlQwANBGjiUQLyabiM7KSDfCbIHyEQQhYoZEOCHEiYB5cWSso4cBkHKuGISziiEl5RHmvDutXBgf5dnc9nMIJE16cUgSngCrK+rkA/D78t9oLC7OnEFTIhXgbIyxBjXCGXkWpjtW5naOCzp09GTxDOFT4y7UJX66Mj/t5eX312Yslc0HhxBWU+qlQg61SStCtImEsjThRQ7cJP4QqvaBSGVQskbSkmItK8ohXzIrU+d/jms1M8FqLqH6kfMRp+YptAYKYicKZSarFh9d5dAWU8lhhVKqBaBDGXDnFpEHe4ch4as82lovHbPCrmZ02FgGEBUfPoaKGJ+fRRwhDzmWKAKQZYqNlCkCcW5IsFBSJBEVjCBUsBD1dHJwebB40aH231x/SDZ6auiRnV7yngCohqKD4m0s5iTSHz5DTkCiIetYxHj4kOWUVZJuRz1CrlqxM6zBZe3Tnj392tO79r/apQ7X+wVyyEVi+uMNbD6j2OL1dAgydf0ytUkHQqjHQkpLlC8vysJTqeX/4+xtmyo+XOSP4lQq8w45cWMQAEQWSDA3siw8xNyfT0IyA/B32oo+oEGkYUcK6AJ599mVoGj+IeJg08qnhEQICKSTYI4EID0TBvNNIbM1uwUD8wgC0CckRAnohfIOIXSsWCfbvDLTeuO3/2FDYdeJ4S4uYi1uYHIDAVXAFBcmhpm9auZKQningsEZf5WqnJibc1vJblCb8/cb1CJgjQuHnp9tbrPFztWpqbPgDLmX2oqjyH5rtQZ9+8r4E1SySr5peTMQME7qMw8lo+tr/CaHcEfHvsxM/lZFQtUUlGq0NholNlpHNq5VyINI9DWRSvP8tnwZwafu5IAWsi89LMXlJE73EE1Gr15boas7Xk4G3upRwGyGehD3Xc3IAqElB5sxQOiGoXMIfrd7xSxbxsVLg0MZeOuj7wmKiBA6ULuWVAXhmQLxXzGZmp5hvWFOYyMXUCwRWItfnBCEwNV6gABRvXrjyesBtd0ChXeKXa5FRwhWy8QgTIyyrjUhNjd5oYLc7PyUYQ1QcjOmNP6Gx5kBLss2X25ynL5gpWLYTJc8tJWi/DH0izykmzpKRZYwVBvFJtEvNq1IQ/vL5RSZ59iqRVNSzaZ1fqnF45t4w8P9tofpDWl0lejrJnD7CvMwWhI52xS4no+CsIDPT2HE88tH71yszUBFDARhUAPFSXMCLob5U3uQL+NfgBdIH7ki5gXpMsEQ9VLZQB+ZIynqA4x3Lj2iMJsSrF4Kt0gdAuvDJZxJu3ITA1XOHmtVpbi7VRYX4gPwfz8cEKTqLkGrXbTSJXwDUK+E2bBfIyxTwqN/eEj5uVu5NVc5PGtvc29D6y/crr58rDzE22zfkrdeW8MrKeZJguoG4K5aTZUhKaYPFVrqDRH2hVUF7KKK9G7VHbmMqBol1OmVtBmVtOnislz60w0pWsnFdIWRj7rdbWRVqncjIQRD7KAEF8kX1ka+zTG45a/d2VS64ONtu3OpfxmCCfIeZhDozDrgnDRoe3FcBDtQu4vKFdwIwUI59yqSA3G5Nh7YKYyxRxh+kCVFIMCos8nG3Dgv27X+ChyEqMMRBeC5/egvyxI54arvDiadNWdztX+41iIGfEzUdz/2RPLlcY0QFyqWJUqZCZmhhtYbqSlZ2KIIofi+pMPU8l6y5hprkvmB2p+2XhinkgRV9K0q1Asyzo4NEKMBriqCUdkRH/A+1ytES1TjlFp9xYp9x4brnxXKnxXAlFR0LWlVB0YLI2RNYRk7TLVs4RGmkBRjpcI52i5Vr5hnNyv53FWDwrftFsjzl/jbA3a71dTxCFmbp6iH6PhcDQYD+dmm5htvbk8ThIyBbxaGIe+lDHfRjf/7tuOAHMKMYA8t60paIti1HRGCPYYiAXFBRIyngRIdtdHTbfv3MD6ybBFcaaLWLf2xGYGq6glHXviQjaZGokLGZMHVegjugAMXshF7X58fJOBvo4ujtY3Llx+e2gfcyftD++nxYR7PjVnxMXfsNbtRRctURivEhKWQhR9EHKPBF5rog8V0xBRUSZKzbWFVPQElBlZJ1Sso6QpMMn6XBJOkUrtfOXzWYv/Yb17df0xV9lLfxn2oJ/JOv9/ZD2Z7Fz/hw1649hX/8x6J9/2P7l77d/+bugWZ97zP2Hu9GiwuwUWf9zjKIR6oSPeY19UmNrvHs7YJu3/1bXMjRCgSnCfv1/KFF4b0ox/J2GBmGiQRa4aoEt5udJRZyEmCiLDWsuVldh+BNc4ZNahuMw2CnhCmoEUTCoKRtWLS9ipYHD2RsnU6+gMT2M8kPGPIOyT8TbbFqVfvyQSoGXNxwHiGdaE6p7V2oDN67eMvtvx40NctcaFZgYFpC/zSUtzDHSZ62cR1+uQ1umTTXUyjSYk24wJ23p7JTFXx/R/zJh3hexcz/fp/N5tPbn4XP+GvL1n4K/+VPI7M9CtL/YofPPHfO+CZk/J3ypXsTKb6PXGB2wWJfotDnF05UW5Fu8L6Lo6MFyXl5ra5MKkX1SPiIzbW0Q/f0wBJRKOacg39bK7HjiPrgkT8SjY0qFCTWzonQBRL/NUK6A0gUeS8zPlZQWZZ04bL7ehFuYi40BL8ZG2CA+bEI/5aOnhCugDoMXzkjNTclJCdEQnw3yXvMKfk23Nu5vNRoFGoRFLuG3VmkxfXeIr4vtpis1Zz7lNaFSyEoK2TYrltjP1/ZfrB+yUDdEf06I/qydC+aEL5wTrPvPkPmzwhZrhS2Zu9NAL2LloigTw73ryPs3rjpgveGIq12avzdtZ3DO3sjChBhB8lEwO6OqIPcin3cVEt87V/3k6tWue/eGWlqUz56p2tuRzg6krxuR9SNKGeHM+Cmvuo9y7E9bmncGB3q523Hzs7DwBJqYRwW54/6F9lqDqO8CFhaBZYTkMcV8tqS0IJ+ZZr1pTWJCDKLG48CVGC8ndHgf5dIb/0FNGVdoabrtYL0h1N8DEuSCAFPMo2M2vGE3w/fWub12k7zzrUajkD0S2YxGOaOxzjxWEeOkq43Zodiovq728Ud6RrX4vK31xNGELZYbfc3NQq0tdtla7nd1SPL3ztwZxNgdxjkUK0o/Xk7POJ3HqAEKvpeU3b9w+vHlmue3Gvof3Ve1tyI9nchgHyIbQBQyRKVE1MT30YyafqKz44KAWg2LSuytzQ8fiAL57DIurlR453fUOBwwwhVoYh5dxGOIASYkzOMV0FzsLYK2ecllPdj4FARXGJd5/kQamRKugD45+ruebd/q4myzQQzkgHzWKN/gCfVt1GgUsiE0YxqaNA3NscpDC7cciNphbWZcDgqJH7gIgjx92lpfW3OppubGtSt3Gr5runOz7dGDvvan8p5OZGhg5FtGNeKK+IncL8QwCQTeF4GBnu7oXWEudpaFrAxIwB75ihsHKvDOn1IjHo7ZYh4NNXwADFCQUwbkBG1zt99s1tpyHxsDwRXedyqJ4xAEmRKugJnKFP2JB3YbL1/AL8iGhTkjN9Ik6BWGAx80egWIy4D5ubzcLHuLtUG+bk8e3SNWBoEAgQCBwE9BQK1WV1dVrltF2r0zQIwmapwET4WXLAREo7qoaEAEGnZBw2pQsUBhXkx0yIa1pLphGyvBFX7KDH9y504+V8C9adBXTm72soVa6UmxGOmeBBvEaAMEzhgwfwUOAwJykxP2rCEtKeXlISqiFNsndxsQAyYQGF8E+nq6oneFraWsYGYcA/ksEZpakQqitR5weflcf6eS4EccgAVYYvkcMccFEY8O8tlwaX7qsQOryAacQhY2WMJfYXzn/CNvbaq4Agpr3bmKZQu1okK2otnRJ8NfYbQBYhRX4DKLGGmejhZ+Hg7PHr+mVCAM7R/5DUAMj0Bg3BFQq1R1F89vWEMJ8vUo47LEqO82GpI94pI1oXEQKAt5kyuIACZcmp/DSDUzNUqIi8bK3OAGROIrbtzn/+NscKq4ArpAW5turSV/6+FgVspBfXBGbqSJ81fQWB80GzSIyxBzmEdiIjatMSpiZSIqGTbPL5UfH+e0E6MiECAQmDAE+rq7ko8mrjVeST1xBBbmgQATRL/fNHmdJ5cr8LJFPJoIYEIleXwOw9l+k6ebXW8Xnr2RKLkyYYvgo2t48rkCMpJbFBnqe+7rbrtpjSEnJw3iM0flSJ+Ie+lNpQLq3ghzWUBO5laXzVscrZ4+vIP1TZOlBO/qRzfnxIAIBAgEJhKBhqtX3Rztfbe4CovZsDAP5rMhHgPm0UeSv03E99srRo1X9AooV8gWAQyxIEcszN8R6LnG2PDWdTzXHMEVJnIdfFxtTwlX0ECoOBK/x2jpPHraYRjNsoBS7xHtwvjeTmMSBSwUgsPOSoq3NCVTUxLR8oZqBaKWa9gMERChmSpig0CAQOB9EJDLZYzsTLO1q04eTwQFhZAgDxbkQABzarlCGY8mErDgssKEAxGL58+RgAJsLEQupveZUuIYFIGp5QqIgJuzfLHOkQMRIPBmRqZx9AMakyugBojSfNquAG93O4ubV2rQOECVDKULCGGDIG4PAgECgR+DwL07t/x9vb09XITcfFBQCAvzYX4OzGdBPAbEpcE8OsybODPrsHbhTb0CyhX4TLisMPPk4WVL5mWlJ6mHMzL9mDES53yCCEwxV/j+au06k+U7A73LOEwIYGK5xjTOBPjGOCoYhluGuTQYtR3SYR6LnnrYyWr98YT9yoFuLGeAJo6IYNyf4O1ADJlA4CchoFTIOYX5ttbmSYcPSkp5oKAAEuRD/FwYYEM8Jm6JgHnZMG8cv9ZesT7gQRNvcgW0ZhXm3liQk7lhrVHEzsDB/s6fNFTi5E8MgSnmCv29Xa5ONu6OmwWFdIifI0ZzItEhtGYraowYETTWaDwE80Pm4dSeAXOZIIe1e4efk9WGC6fgEaJAxBF9YncAMVwCgfFDoK21JWxHoJujbR4jExIUifl5ID8X4udAAKZXQJUKqF5hqrgCJMwTctkuDhaOtubNj+6O37iJlj5+BKaYK/zLe3DP7kirTesK2VRYWADxc0CACQF01HdhWGggnk4EDVAeB4EAOsbumRCPXcxIszdfu3dnUNezx1j+QcVIFkIijujjX/rECAkExhcBtVpdVSm13Lh+d/gOYXGOGMgH+bkgPwfisyHsaw0a4Qo/ImXCB53yNr0CKMgFhQVhwT4mZIPai6fHd/hEax83AlPPFWg06ro1JpknksSCAvTWAvD7igkBLBi9wZgQnwECdDFAQyN/UMFCgF5uY16+uK/ve7yKeTTsvs0RcVgxEUFmq1aIgEIEkWMsgVAqfNyrnRgdgcAEItDX3bV/T9Rmiw3Z6cmlvDwxfxpyhRyopPDY4X0rDBbwefmE7/YEroaPrump5wrl5dL160yDtvumHotnZCTlUI8XMU8A+ZnCwmxhAbWkkFrGoaLGNj5DDNDRyB+ADvKZIJ8pBhgigIFlO6ejH6FVUugjfEJDLF7fQJNJA0xYkF/MzrC3WBse6Pvs8X0EITQKH93SJgZEIDCJCGD5ly5YbTILC9oGFLLKeLngsAGCDfFZEMCAABoE0GDUBjppvo1Y6sbhX1A0EY8h4rNBYSGbfnK18bLU5MNqNOaL+CMQeC8Epp4r3Llze9s2v5UrDDduWOO/1c3Xw8Hf03FngNfu0G37dm2Piw5KjA1LTYzOSjlAT0tgZx0tZCZzctN4eRlAQaagkCoszi7jMsQAC+SzxXyWmM8UARrByAT+lsfEasIyRDymGMiBBAVH46LXkAxEQBFGFDTV3N8LNeIgAgECAQKB0Qh0d744cijeYsO6zNTjZbx8MZA7oiVlQXzUrgoB2bjAwORwhSwxLwutCvEqVxALCgTcHFurDZG7ggf6u0YPgdgmEPgBBKaeKygU8gsXzm/xcLfZbJXLomWePH4sIebAnl0Rof5Bvu4+bjZudmbO1uvc7MzcHTZucTT3cbcJ9HUJ2e4eEeKzf3dQwv6dyYn7sk8ezmGkFrDSCnPSi3MzeQXZwmJGKY8tFuSK+bmgIE8sGH4VC3IhYT43j+ZiZ+HmZPO46bWkzj+AFfERgQCBAIHAGAio1erai+dtrcy3+3gJOflifgFWPpctBpggqlHQEAUqBFBhYGKDIEZyPGu4AnXEbssQAWyxIF8kLPT1dvHxcn3c3DjGYIhdBAJjITD1XAFBEJVKdeLEiW1+fnK02DGikg/0dLa3NjfdvXntcs2ZKmmZiF9YyKamH4+P3RMaEujt5+28xWWzjeVay40m5usoVptWOdiYuTpZerja+Hg6bN/mvitsW9z+XSlHDlDTj2anH8uhnShkZ3EL6EIOuwTILeXlH0vYb2xkkMuiqVWKsWAh9hEIEAgQCLwvAgP9fSdTk9euoqQeOwSVcEBBPsjPAfksEEB9rTB1AsoScJlcroAyhhGuQC8DWCJ+nkhYuD96p72Nec2FM1j81/sOkzjuU0ZgWnAFBEH4fL6VlVVzc/MPTYZKJh/s6elsa2t91HT/dsO1+jNVUgFQRKOeSEyICd8Z4LvVzc3F1tZmo8XGtRvXm2zasNp8w+rNFuud7a22bnEO9veOCAuM3bsrITba3cnO0W7zg0YiauiH8CY+IxAgEHg3Amr1jYbvvT09PN2chdwCsaBQBORg4Q8sMZcu5tJAXjbGErIgAJXJ5wpYBBlNxKOX8Zgifo5IUJB54qjlJlOAk4/5dL97iMQRBALThStcunRp3TpToVA41pS8Ky2SWj40NNDX19XZ0dbc/OD69Wvnz5+BwNLiojx6dnrKscP7oiN2BG7z9fbwcHF0dbJztrex3GR2Ivn40CCqxiD+CAQIBAgEfhwCSqWy4/lzamaG5Uaz44kJ5WJBGZBbxmPjORXe4AqZEJA5hVxBxGOWAewyfl5hDtV+s9nJlKMqxSA2cCJK/MfN/yd01nThCk+fPrWxsYmIiFAqleMJv0o50Nfzor3tcfPDe3duX7ty+Xz1WSkMSyCo6f6D8bwQ0RaBAIHAeyMgl8v7+vpevHjR09OjUqne+7zpdaBcLr/f2JiXk2NvY7PWmJJ2/JikDMC4AkuMJq1nTkOuIAbYYn6ukMv2crfbExXW1/MCw/Rdv8emF/BEb6YAgenCFWQyWWhoqJmZ2fPnzycDBhXBoycDZuIaBAI4Amq1GucH7e3tzc3N9fX1fD4/OTm5qKioq2vmeeOr1eqBgYGrV68kxMdv8/UNDgiw2mTm4eRAS0/G9QplXKaISwd5DBAN0sZtEFPmr4DbIMRoUjs0ZEzMzxHxc0MDvP283R4/xJ27NRVwiAVLIDA2AtOFKyAIwmQyFy5cWF9fr/lyGbvLxF4CAQKBaY8ATg4GBgY6OztbW1vv3bt34cIFHo+blJQUHh6+bds2JydHMplsbm5eU1Mz7UfzSgdVKlV7e3tVVVV4eLiXp2eJQPDw/v2i/NzN5mbuTrbUk0fQICwOGp49EgRBGwmYnLw4CJCXpRGUK3Ax4dHFaAw5CxTmH9gTZjHRM6oAACAASURBVG9tdqnmDDY2DVcgfkS9MtfEGw0C04gr1NXV6unp5efnq9XoesVfNR0lNggECASmLQJqtVqlUikUCplM1tvb++LFi6amprq6OgiC6HR6XFxcaGiom5ubo6Ojt7f3rl27aDSaVCotLi62sLCg0+kKxYxJCqRQKJqbmwsKCrZv3x4SEnKuuloukyEI0tfTxSsucNhs7mpvkXokll9AR8MmARaWJZYB819GQ8AAdaLrQbyWEBpzrqSjufPRXHZMMcCCSwpSjhzYtM5YwM3HFhXBFabtvTVdOjaNuMKzZ89MTU3j4+OHhoYIrjBdFgjRDwKBtyOgVCplMll3dzeuObh27dqZM2dKSkqys6n79u3btm3bli1bPD09w8LCkpKSOBzOuXPnGhsbe3t78SblcvnevXuDg4MfPXr49otMl0/UanVvb29DQ0NaWpqvr+/Ro0dv3LgxunMquUwiKtnq7rTFafORuN283CwxwEaLQfBZMB/P24imY8JqR2leJzzXAsSlwjwaxHuFK4CCPEZmstXGNanHDyPDxak1dGH0mIhtAoFhBKYRV/jX75KoqChvb++nT58S80MgQCAwPRHQ8INnz57duHHj9OnT+fn5x44d27t3b1hYWHBw8I4dOyIjI48cOcJisUAQvHr1amtr68DAwJg+jCAIurm5QRA0zWsTqFSqzs5OqVQSHR29Y8eOnBz2o0eP3pwgtXzobKU0xH+rnYXpgd0hvDwqXjsKRtM8o09rCMBLTeKvtElQMMA8lCvAGFeAAAbqcQmwQEEeJ4/m5mQdHrJdPtiDDYTgCm/OJ7HnJQLTiCsgCMLlcs3Nzb///vuXHSS2CAQIBKYaAdwtsaOj4/Hjx9euXSsvL8/NzT18+HBwcLCnp6eHh3tgYGBMTExmZqZIJKqvr29qetDT06NQvDvR2cOHD/39/WNiYgancQCzUql88uQJj8fz8/MLCQmpqqrq6cGfr2NNjFJee/50sJ+XldnqA9GhnJwsEMh9WWpyDK4woaoFKqbGwPUKDNwGAQI5Yn6esJjtv9XNwcb8STMRETbWPBL7XkVgenGFa9eubdy4USKRvNpJ4h2BAIHApCKgVquVSmVPT8+zZ88ePHhw/vx5gUCQlZW1Z88eLy8vOzs7Z2fngICA+PiDbDb73LlzT548GRoa+hE+RkNDQ6mpqXZ2dg0NDZM6wve+2NDQ0L179zIyMry8vOLi4m7evPkeKhDV9auXosN3WG1YFRW6rZidMboyNTxcmZqO/dynQtyJ4wpUiJsNDRsgGBCPAQJMkM8S8dhF7MyUxFhbi/UrDBdBYuHQEOpyQfwRCPwAAtOLK/zLJcrNzS09PX1MdeUPDIP4iECAQOAnIqBWq/v7+9vb21taWu7cuXPlyhUej5eUlBQaGuru7u7s7Ozt7R0eHp6WliYWi69du9ba2oq7Fv3E6168eNHS0jIzM3Occ6v8xG5hued7enuuXLkSFxfn6emZkZExpt3hbdd52HgnJjrc0mzV7jD/Ila6iMcCATYEMDGugBoFJpgrYESBmw2iXIEBoZUp0DBObm5G9olDu0O3uTlYuthbWW0y3b7N+7url5TvoQR620iJ/Z8CAtOLK/yrGER0dHRISMhMDLn+FJYLMcaPGIGBgYHq6urMzMy4uLjw8PAdO3YEBQXhngf5+fnV1dW3b99ua2sbF34wGsaurq6QkBA3N7dnz56N3j+127jdQSQSRUREBAcHl5aWvniBpy36gH49uHsr8eA+J5tNof5erMwkMY8N83PQyIhhooDXp54IvQIV5GaDaHppOlYOmwUCLF5uOjU1PjYqyN/TMcjXjZZ+/HLtebCU7+bsuGd3xJ1bNxTyGRON8gFzQBw6TghMO65Ao9EcHBxu3bo1TgMkmiEQIBB4LwS6ujoLCgqioqIOHz6cm5sLQVB9ff3Dh03d3d0TrecDAIBCIUskkh9hxXivsX3gQQqF4tGjR3Q6HbOzxNfV1cqwwMgPbAY9vLmpMS356OZNpr4eDsyMY2IeGwLY6A99Hh3i0mAubbxtEKhRA0SzKdDEXNSTEQRYpcX0nKxjMZGBPm42Ad7OJ44erDlX2dfVjhXqG4REpR5uLrH7996+eV09Y3No/oipIU75IASmHVeorKywsLAQi8UfNAziYAIBAoGfiACeOaCxsfHFixcTTQ5e62pLS4udnd2+ffs04ZSvHTCZb2UyWUNDQ2pqqp+fH5VKbW5u/okMpv1pC4uabmex3sfdPjv1kIjLGkUXslGXAtRl4SdpF7BgBzRtA8wbdlBAUzTyWKUcRiHzxJEDET5utk6bN8RE7aiSlHa/aEXUQxqvC5VCzudxXJwc4mJjWlseTybUxLVmEALTjivcv99oaWmZnJz8E+/PGTQHRFcJBAgEUlKSN27cWFdXN4VQqFSqrq6uc+fOhYaGbt26tbCwsLOzc1z6oxjsB4ry7Cw2eDpbZyUniDhMjC4wUcdDVLXwU+gCThHweAeMKGA5l0qL6by8zLSkAyH+Hrab1mzzdCpgU1se3kEQ3NCgxqpRD2dpHBzoK8zLdbS3Sz958vnz55PMFMcFYaKRiUZg2nGFrq6u7du379ix40cr/SYaMqJ9AgECgXFH4OrVq5aWVqmpqePuD/GeXR0aGmpubuZwOAEBAaGhoeXl5X19fe957vscphwaKOMXe7rYeThYnUiMKS1iwHzU1RHk0VH3w2G6kPVaysV3vsU1CljN62wIoIE8mohLB/IyaScP748I3OJk5eVqm5l65FbDFSyPghJTJ+AU4ZWECt2dHdlZmU4ODunp6a2trcRPtfeZ00/qmGnHFVQq1YkTJ5ycnFpaWj6pmSAGSyDwKSMwOCiLj0/w9PRsbGycfBywQlBX09PTd+zYceTIkRs3rv8rp+S4d2NooA8u4/t4ODtZmx09ECUooIEAC68Zgfohot6IVAg1IrwuIOqCgAr+keYtiOZkRFNAQkA2CNBAgC4symJlHo3bE7LN08Fvi8OxhH3nqiR93e0jFgdcnaAaYQyvVH942vokNSXZzs6OSqW2tbWNnDLuMBANzkgEph1XQBBELBabm5vX10+lNnJGTibRaQKBNxBQqVQ/LvPBGy1N+I5Tp07b2NgJBcIJv9KoC6jV6u7u7qqqqj17ooODgwsKClpbW0d9Ps6b8sG+0+WQv5ebrfna+L07eXmZIMBG0x6gFSlRBQM4kt5Rk+cRrePAQxUGqPoB3aZjfosv92BHMkRcWjE79djBXdu9HbxcreP2hZeDgvbWh4hKQ3pwRYIKsz7gr69wBQRBWlufpKQku7q6sljMjo6OcR480dxMRmA6coVr165ZW1sXFRXOZGCJvhMITAECSqVytLFZqVI+fNhUXX22tbV19P4p6Nl7XPL5847g4JCYmAMDA4Pvcfg4HKJG1O3Pn3MB3lafrTt27CgvL+/u7h6Hdn+wCZV8sO7C2R3+3rbmaw7uCQXyqaAgB+Sz0UJTPCbEY8Jo/QgWhL3FOAQDROMmNMJEoxvQI4f3iIppQF56VnLsDj8XV9sN4cFbhbycJ4/uIWpNhiUNM9DYHfANvKOvMIbW1tbExERXV9eioqIfSk/5g2MkPvz4EJiOXOH58+d+fn67d++ebrlZPr7pJ0Y0cxFQKpVDQ0MqlVIzhIGB/oaGhlu3bmpM/r19vRkZGSYmJkwmc2BgQHPktN1gs/Ocnd0v1V9RqdQK7E8uV+AyJFcMDcllQ3KZbGhQNjQ4KBsYlA0MDPajMoBK/7D09fej0tff29fX29vX09vb09vT3YNLd3d3d1d3V2dXV0dnZ9Ojh3kFBT5+vvv37//+++8n8wvnVsPVPbt22Fma7o0I5ORmQYI8iJ8H8XNxgfm5IJ8t5rHKuAwRly7GQh+xAEgmiBajQgMvxQBLxGPy87OoKQf37PTb4mTu7WqdmXro3u2riLIPQZQj3osaRcJrRGH021dWRFNT0759+1xdXUtKSgi68Ao0n/Cb6cgVFArF4cOHra2tplVulk94kRBDn3oE5Nifph9qtfrx48fnz58bXaHx1q1bPj4+Xl5eDx8Ol23s6+s7efLEkiVLTpw40dv79hIGmnaneuP8xXrTDeaxcYe+a7h18dLVC5euXKhH5Xz9lTM1l09fqD91vraiukZ65jx8qhqsPCsqryqVVJZKKkok5QJIigsfhAExxBNBnBJRsbC0QCDMA4AcLpfN4bCKi5nFRYyCfFpuDjWHFRoR7uLhns1gTKjd4W2gPrh7M25vpI25aWTItkJmJsgvgPiFZdxcXh4tj3aCmX6MfvJI9olDjPREDjutjMsSAzmY5IJAXhmHBeRRWZlJCft2bvdy9PWwOxIfffGspLujFYt0UCKIAqMLylGkYTQ5GL09Rgdv3boVGRnp5uZWWlo6HQJZx+gisWtyEZiOXAFBEA6HY2hoeOHChclFg7gagcDUI4B7GIw2GQwODv6rVMrly5f7+/vx/qlUKj6fb21tRafTNb+Gr1+//q/CCtbW1vfu3dMc9ujRI5FIdPfu3dENTv0gx+qBCkEqzl381mTNwjXrbAJ2mPkGbEAl0MwnyMw3aP3WoPVbA9dhstY7YI1XwGpPf5Mt24zdfYy3+JpgYrzFFxMf4y0+lC0+ZA9vkof3SnfPFW5blrm4G7q4GTq7GDg7GTg5LHe0Xe3mOJe0zHGr1/3mMSpGjtXB8d937/aNowkH7C3NQrf7srJOAvnsrOQjUSHb3ewsrNebmK8hbTBZbr3BOGSbe0bSQUEhHRYWwsIiETc3l5qasG+X3xbHrW62iQeiqiSlz1oeIKqBEYqAE4XXNAof1v+rV6+GhYV5e3vBMKxZeB/WBHH0R4TANOUKV65cXr58eVZW1vT/gvuIFgMxlClAQI39jb5we3t7bW0tVnpg2JD84MGDgIAAe3v7a9eu4Ueq1eqioiJjY+OUlJS+vl585+DgYHV19ZkzZwYHX7H3y+XyaXsfaUzlagRp7+vbk5KqZ26xws9/RWj4t6ERi0OjFoVGLwnbZ7grdnnkwZW7E4z2HCbtTSTvP0qOPWZ8IAmVuCSTg8dXJaSuTTyxNvHkGvT1hOnRtHXH0tcnp69PztiQkrl+WDLWp6avTz2x8cSJzSeOu6UdXx3ot8rVET5frenG6ImYnO1nLc3Zaal2luZb3V12BQdam63T/eaff/vD/33+u//50//86rf/9fPf/vpn33zxF7NVKw/sDivl5oH8wozjh0L9vTwcrEIDtvKLc1qabiPKAUx/oBjhCrg64R3Kgx8eoFqtvnr1amhoqL+//6lTp15bVD98LvHpx4fANOUKnZ0d1tbW/wp0Ht8Q549v/ogRzSAE8OKNox/barX64cOHt2/f6u7u1kS0V1VV2dvbHz9+XC4fwkd39+5dKysrAwOD2tpazXifPn1aWVl5584dhULj6I5+qGlHc+T031AjiEyN8E6fXeLisjQ01L642EJYsqEMXldWbio6ZSqqMhWfWSc+i0n1OjEqpuJqU9HZEaleK3pd1ojOrBGdxmW16PQa8Zm1qJxeKz5lClZsKgMdSoRW2Rm6ro5b9kU/m3iXxh+YhYGebmr6SZOVK+bNmfXFn//4h//59Zx/fEEyWLTayHDFkgVff/Hn//nPX/zmVz9btkhvX0RI/L5IT2e7bV6ujKzUuzevqYZ6MX6Ah0FqTA8aZ8YfuOx7fXTlypXt27cHBGyvra2diDjS9+oEcdA0QGCacgUEQSIjIzdu3NjU1DQNUCK6QCDwwQioVCqNdQA/ubu7u6Gh4cGDB5r9CoU8NjbW2dmpsrJS80UsEokMDAzCw8O7u7vwE2Uy2dmzZ8vLyz9Wy7EKQZo7ez2i9//dymZVWvr6MpGRGFoGnTKEzxpKLiyT1iyX1i6X1mlkmaR2GVxrOCw1hnCNAfSGgBeXYmIAXRwlFwygC4bwuRVQ1RpIal4iXBEbM2ezJU0oHFK+9BL94Mn+ySfU11xcv2b1Z7//3T8+/2ydCTkhdp8ELLtcc75SIo6P2bNy6cLf/Nd//s+vfqb19d+tzNYmHY67UndB1t894pEw2uLwmoPCT+2ZWq0+ffq0n59fVFTU9esTknbip3aROH9SEJi+XAEAABMTk6qqqknBgbgIgcB4IqBWqx89evT9999rYvDUavWFCxdcXV337t2rqVjY398fHBxMIpEEAoGGKzx58kQsFl+5cmV0jMN4dm76tTWgUBaJy/XNbReHRppy+CQRtBSqXAKfWyK5sFRSYyitXya99JoYSuoNJfUGcL0BXPeaLIXrlkK1bxP0YEmtgeTcCknVKlCysaBgloe78ZYt1x5M2c8SuVyenJSkNeubP/72f01NjAVczvOnL3M8dHe0M7LSFunP/c1//fK///NnXu7OLQ9Hp6vSpFcanWEJtz6Mz0wPDg7CMOzj4xMdHd3Q0KBZqOPTOtHKDEFg+nKFe/furV+/ns1mzhAkiW7OeATUarVcLh8cHOjt7e3s7Hz+/HlXV9dok8H7j1Aul2dmZjo5oQoD/CylUimVSpcuXWpra9syqkLPxYsXS0tLXytQpFarf9x137+H0+dINYLceNBsuy14noPHxiz2qlLJCrByCXxmKUYUlkpqDaV1GF24vEyqkUuGUkwkl0YYA84bhl8xulC3FMLkDTJhIKkzkFxYLqkmQafMRTAp8dhf166LTj3Z2z81YaVPWlrMN278z5///K9//vORQwmygWEPVs0cPXnc5Ovt8aff/++vfvEzR/vNrY9H05rXnBLGkyVoOtDf319aWooz3Rs3bigUCs1HxMYngsD05QoDAwN+fn4xMfufPn365MmTFuzvyZMnbW1t3d3dxGL9RBboBA1TqVTKZLLe3t7nz58/edLy8OHDxsbGhoaG6upqkagsPz8/KyszOTlZKBT+uPjyoaGhmJiYhQsXFhcXaxwI2traioqKKisrR9c6USgUMyWv4kTMhRpBegaGUpj5X5usX3fwqI0ANgKrVkiqDSTnDSQ1mAJAwxUuLS+/rJFl5ZeX4XRBeskQZQwvBVM2vEId3thTZyCpWSa5sBKuXgdVWfHL9AN2LLC2La++oJyKoszff//94oULf/bv/6GvO+9UecVYOCsZtMxZX3/5s//3b0YrDK9efum28kYm5gnhCgiC9Pf3C4VCNze32NjYe/fuaVb1WL0l9n2ECEw7rqBQKPr6+tra2hobG4OCgszNzY8fTzp8+HAc9hcfH5+SklJUVFRTU9PY2Nja2trb26ux/n6E80MM6cMRwH+UKxQKmUw2MDDQ09PT0dHR1tbW0tLS1NR0797dmzdv1tfXnzp1CgCAjIyMgwcPRkREBAQEeHp6/ivWwMLCYt26devXr9+8eXNKSsqPS/KhVqsbGhqEQqEm1cGHj+OTOEOlRuq/u7PW3Xeu0xZ7jtBMfGq55Nxy6UVDae0orlBviNkgNERBs/GSLmh4A0Yd3iAHb1AHSa0hXLNCctEYrt4kPWPBLvibufW2qH2P2tonH/dL9fV6enq//PkvDJcsvVxfP2YHqirLl3678D/+7d8WL5x/vvrMmMdM9E6ZTFZcXGRnZ3v06NFnz54RdGGiAZ9W7U8XroCrfzs6Ov5FsUUiUXY2NSYmxtnZ2dLS0t/fPygoKBD78/f39/b29vLy2rZtW2RkZFJSUllZ2c2bNzs6Oggr2rRaWBPdGZwQYCaDQdxk0NbW1tra2tzcfO/evYaGhrq6utOnT8MwzOfzc3NzMzMzExMT9+/ft2vXrqCgIH9/fz8/Px/sz9/ff/v27SEhIbGxsSdPnszLyysrKztz5szVq1dbWloIJjqhU/m8a+BIGkvX0nFDUpoVWE6BThlILyyToroEXKlgIKlDXRPe8FfA3RdGLBGo74JG3k0U4HoDlCvULodrjSQXKPBZa3HF0ujYhRZ2bEGZXDHZTo6oXmHx4l/87OdztbTLJZI3AVeplAKAu0B/3s//4/+tWGZwqa4GO2YKIj27u7syMzNdXFwyMjIIuvDmTH3Ee6YFV1AqlV1dXVevXs3Ly4uIiAgKCoqNjcnOzoYgqK6u7s6dO48fP36C/TU3N9+8efPixYsCgSA5OXnnzrDt27dHRkbm5uZeu3atp6eHoLof62JVqVS9vb3t7e2tra2PHz++f/9+Q0NDbW3tqVOnhEJhTk5Oenr68ePHExLi9+7dGx4eHhgY6Ofn5+vrExISEhUVFROz/+DBg0lJSdnZ2fn5+aWlpRUVFbW1tbdu3Wpubm5ra+vs7Ozr65PL5cQSmrQlpFYj5WcvbfQIXBYUac8Xr4Iql8FnlmJKhRGuUIc/+DU8YMyN13wbX337hkYBdYcc5grL4Npl8MUV0HlT6MwGdpGui6dL+O67TY8nDQH8Qo8fPzYzM/uvX/3Xn/7wh4SD8W9Guzxvexq7f++XX/ztv3/9K3s7m4dN97ETp4ArIAjS0tKSmprqgFWvxspRTjJaxOWmBoGp5wpyufzRo0dCoTA6OjogIGD//v1lZWUPHjwYbdMdE5v+/v47d+6Ulpbu37/fx8cnIiJCKBQSVHdMrD6Cnd3d3SUlJWlpacnJyYcPH8Y1BKGhocHBwQEBAYGBgTt27Ni1a9f+/fuTkpJoNFphYaFAIJBIJHV1dTdv3mxpaenq6pLJZJieQK1UKglOMOWr4kVnf1hc8kJbL7M01ibxqRVQ1VJJ9VLJRQNJjSEaqoAHOLzlYT8qAmLYhxH3ZHz1FeMNY7WAto+qFpbBNcvhiyT43HqhZEXckW9dPNNyivoHNVWXJgOkwcHB6Ojozz777Je/+MWKFSuEAkF7ezuuKFWpVB0dHXwAMF279ne/++2Xf/8iMfFw31Sn63706FFCQoKtrS2bze7sJMpRTsYimfJrTDFXUKlUt2/fTktL8/PzO3DgwKlTpx49evShfostLS0ikWj37t1btnicOHHiNZfyKYeY6MC4INDQ0GBra+vi4hITE3Po0KGUlBQGg8HlcmEYPnfu3JUrV3D9U3t7e09P96fsLTguaE9CIyoEKZVUG1h7rNx5wBqQUMDTBvDZJZLzOFdADRC4AuDlqyY2stYARmWpJqcCWGPwhiwFa5aCeNIFlBO8qmzQGDiG6cIy+IKx+PT6QuHC7TtNXLzO1F5TT+6P9rNnz65du/aXv/zlr371qxUrViQdO3bh3Lm7d+5evnw5MzNz06ZNf/nLX/70pz9ZWVldunRpEmbnnZdoamo6fPiQs7NzYWHhm4qQd55OHDDjEJhKriCXy+/fv5+YmOjm5paamvL48U9S/TU1NSUmJlpaWh45cqSpqYlwX5hxa/EHOqxSqYRCoampaUlJyTsVTj/QDvHRFCGgiet7ef1nnd2eofu0N3tsohWZgaeXQWeXwmg2BY1L46tcAXd1RD81hC8YwueXwedXQOdJ0AUKXGMC15pANRqhQDUk8OIK8XlDUbWB6JyB+LwBeNEArkEFUye89mooqTGAL6wEq03B6lWpjL+sNt8WHfesY8KLU7/EAkEGBwcZDMbixYv++7//+9///d+/+OKLNatXOzg4mJqazpo16/e///1nn322bt06Ho83fdZ/S8vjPXv2uLu7gyBIJNgdPZsf5faUcQWFQnH9+vWDBw/6+Pjk5+c/ffr0p+P79OlTBoPh5OR04MCB69evf6h+4qd3gGhhghDo7e2Nj4/39PTUZDGaoAsRzU4MAq8H8smGFPkCeKGF88qohI0CKQU8sxQ+vxSuXYpmPhgRjUYBfcBfNJScN5RUG8JnlkNVJtKz5lUXXaov+11sCL10J+LyvcjL9yIu3Y24fDfiyt2wy3f9a264nr1iLjlvIqpaXlplUHbWAEQZA5rhEUatD69KjaHk4nLovBF0fiMgnRe8e7apRU4pJJNPahaBjo4ONpttYWHx1Vdf/e53v/u///vf3/zmN7/97W8///zzxYsXb93qXVpaqkntNTHT9MGt3r59e8+ePf7+/hKJhKgv9cHwzagTpoYrKJXK+/fvHzp0yM3NTSAQdHSMm8Wrp6cHAABXV9f9+/c/ePBgRs0F0dm3IvDgwQNfX9+UlBTCyeCtGE3TDzQahZc6fbUa+e72A8fAXfNd/SxZ3NXgmeXQuSWoRqFuqaR+qaTeYDghI+5nUGsoubhMcm4FXLUSqqDAFeanzvhdvpbw4GFeeyfUNXh+QF0nQ+plSN0g+lo/hFyQIdJeeWFb19HGR0H112wqzhmLTy8vO2MoOmcAXhjWMbxCF2qWwReXwRf+P3vvAdZE3jZ6v+c63/ee8z7P8+2uq25xd5VeRIqNkgSkCioKFgQRG0U6hNSZBOxrd8Uu2Auoa0FakknoLYQANpSyiAIKiPQOKfPtzEBAVHQVMWJy3VcYJpOZ//+eSfKbu+Ih/gJ2tt35G8ou61eQgPvllZKx1WpHR0dubu7hw4d9fHyWLVu2ePFiFxeX4ODgM2fOPHjwoLe3vz/I2A7qHUe7d+8eAACBgQEpKSkKXHiHsr7klz8PK9TW1p44ccLb2/vmzZuj7uvq7OyMjo5etWrV8ePHFZaxL/niHBx7amrK2rVrs7OzB1cplr4MDchYYXC4ze1de06em718zcK9R1fEJZlxMnAcvvEAKBihuIAQA5atwM1FCyymzWfznLjJQbmCI0+fJra13ZNKn8FwEwy3w3DnEOmA4TYYbobhWhguhqXpnR3nqp/RCu6t5GVbJ6QTEjIRYuAgBgbExtBPDIhdASESiG/BzrJPTDHbF67psmb/haimrlc6dg7O4VMutbe3V1RUFBQUCIXCBw8ePH78eNS/JEdx+FKpVCgUgiDo7++fkpKiaEc5irqVq119BlYQiUSJiYlr166NiIj4RCa15ubmgwcPrl27NiMj4+uplStXF9YoDkYsFp86dcrHx6empmYUd6vY1afXgAwUBo0KYimcIbxnt97XxDtk9S3WYk66CZRlAuWaSbxS6wAAIABJREFUoIhgxM3HBLUuCHFcAQHKseRkLGInr09O3130MP7lywdScQ0KBK+01+yfTP8RpbBUBEu7UGh4CsOpnZ2HH1f6ZhXas7PmJWTiWTk4Dh/HQfgADY8QoD6OXDyUS2BnWbPSHGMSZwSTrbx9efl3xti08OlPyugfQSqVPnjwwB99FBQWKL5yR1/FcrDHz8AK1dXVIAhSKJQRekhKJOLOzs6uri6RSCRFH/9UVyUlJX+3tKZQKKMSCfFPj67YfhQ10NjYSKVSd+/e3dPzGW7yRnEiX9+uhrOCFIZfdHTvOH5mtqvHsqNnVrDTLNnpxkjugwDzPgxhBaEx0kwy1wLKXsbLDsoqOPO4Kr+rpw6lhG4Y7nutuDGq3sEjSmGpBJb2wXA3DDfCcBEM32hoBQqKl3Ky5iVk4FlZOE4OEiaJ4AIiqF0hl8Dhm7Ey7DmpVscjlZ1c/HftrW/r+PpO3IfMODMzc9myZQcPHuzq+jxtNT5k0Ir3vLcGxpoV+vr6bt++vXHjRgiCRqiI9/JlPZvN5nDYQqHw4cOH5eXl1dXVdXV1DQ0Nra2t3d3d7/Rbi0SiGzduLFy4MDo6WhHk+N7XgzxuWFBQsHLlytu3b8vj4BRj+icaEEthrvD+Yj/KPGDr6hiOLSuVwMk05uYac/OMuEIZKKALQiPUqGDH5ZOExTcb2v+SIB4HjBJEMPzG2/1BUhgYFdaEsQ+GW2C4DIbjm9pD75Q4sDLNEtJN2DJc4A+yAlqayYqdviQmcTYjbKbr2j95ab3iQbvIwI4Vf4droKOjg0QihYaGflgLleG7U/wvZxoYa1aorKwMDg7auXPnyAHtOTk59vb2ZmZmDg4Oq1ev9vPzA0Fw9+5dR48ejYq6nJyc/Phx+Tv9Fy9evPD391+9enV1dbWcqV0xnH+ggfPnz/8d5yUnaeX/YNyKTV/TQE1zB3HPkVlrfJacPO/ISjZlp5lA2SbcPJQVhuGC0IiLVFRcxOXvfFh1RwJ3wXAvDIsGRAzDYhjulUrb+/paensbu7tfdnXVd3c39va2icU9KEzIfuGlKGQ0w/BTGE5oaqfk3reNT8Enppuws3EcJP1yIF4BdUNAfAInw46VPP/cJVU392VB1EeVgx2iX5uTYkW/Bv7uvUIikXbt2qmIEhuX18SYsoJEIrlx4/rixYs5HM7I2oyPj586deq///3vCRMmTJw48Ycffvj5559/++03NTW1GTNmWFtb+fh4R0VF1dbWjuwbi4mJMTU1jYmJGflwilflVgO9vb0kEunv9g2KarJye47ec2AiCXyVkzFz5QZD2maH63FWrGQcB0mVfCMroKGOAlOIP5+THZh9N66xo16K4EIfSgw9MNwmldb09BQ1NSU/qbhdXBz14P65u3cv3L//Z2lZUs3zovb2lyJRL+qnwEwLvTDcAcOtMFwBw3/WNqznZVnEJuFYmSacLByUjUedEZgbAkmI4GRZstPs4lgm23b/Ymv/e8S59q4xreT4niqVq82ePHmyYcOGyMgIRW0buTovozWYMWWF9vY2Eilk7dq177zRj4qKmjJlCkYJk9HHpEmTvvsOSTj+z3/+8+9///vbb7+dNWvWgQP7R67g9OzZM2dn502bNimic0frihnj/ZSXlzs5OUVGRiocSWOs+dE9nBSGH9c2u5I2qTlvWHQmamECD8dOMYayjLn8AVYY9EGgsQtIaUUClGvBzl6WmBqWey+tqaNGLO1AUx7q+0R3m5tvlZX9kZNDSkzwiLnleuP6yut/Ot+4uS4mlsiBDgiFrOrnT7q7O1E7hHgAMrpRZ0SRSLr7fqlDfDIhIRXHzsRxsjBWGPBE8NEmEZmWnJQlV29quHvjXNel5N+XyMwUo6ua8bK33NxcZ2fn2NjY8TIhxTxe0cCYskJ5efmSJUvCww++83v/8OHDkydPxsqaqqurW1iYEwgEfX19DQ2Nn3/+6d///vd///d//+tf/5o5c+aJEydG5oADBw6sWbOmogLrtvLK5BX/yLkGJBLJrVu3nJyc8t/SqFfOx68YnkwD7d19x6NjVe2czLbsXZbAs0K8D5moUQFJXDQeEqwwUGIBYQU8lGvGybFJTFsRn7RFcI/T0PZULK0SS5Ke1YTn5gWwOU5x8fbxCTbxiRbxifPiE+fFJVrEJsy/Fbc0Ji6Yl3KuuORhd3cLigt9A7jQBcMvYZjd0h6UlW8Zn0JITDcZwgoYLuC4AjzEJ0CZDqyU+UcjVZY6B+/e/6KpXTYdxcLrGvi75a+zs3Nubu7rLynWjAMNjCkrpKWlWVlZcd/UdHWoKiUSyY4d2ydOnDhlypQff/zR3t7+zz//vHbt2okTJ/bs2ePp6amnp/c///M///rXv7755v+zsbG5d+/e0LcPW05OTnZwcEhLSxu2XvGv/GugtbWVyWQGBwe3tLTI/2gVI3ybBiRSmF9UsWgjVXW1j+OlW3acNFPE+4BYFGRVGjFEGACFfKR9A8IKAgLEn8fJtIlPckpMYebdj65tulLbwMjMdUuAlsRzrFlJFpwUMygND6WbQOkmnHQ8O9WMlWwWy7G9Ge/OSYosKbnX090KS7GgyD4Y7kEtE6UwfPzJMwdOullCKuKG4CAhC1hCBJZFieACl2/NTne8zZpLDzV023ATSutTBDm+5RxLpdKTJ0+uW7+utLT0LZsoVn/ZGhg7VpBKpZcuXbKzsystLRlZZ319fQBA//7773/++efJkyf7+Ph0dHSIRKL29vbm5uaHDx/u2rVLSUnpG/QxZcqUU6dOjbBDzJgRFRX1ztSJEXaieOmzaOD+/fuLFi2KjIxUnLvPov/ROmhje/f2k1Fay9wt9kU4JqSaQRl4BBT6+02/2vdB1hMSYQUchFRUJEDZZux0q4QUR3aae6bQPUvowEq1YaWac9IJUCaem4Xn8pGeDkg+Ra4xJ9uEk2nMTsfF86xi2Ru4vLPlpSV93W0DoZG96EIDDHM6uj0z8ywTUvpZAanxgJVbyMNx83C8PBxXYMrJXMBOXXz+iq6Hrydja9mzl6Olk3G2n76+vi1bthCJxBcvXoyzqSmmg2lg7FhBLBYfOHDA1dX15ct3fN7a2tr8/PwmTJjw008/TZ48mU6nD/upKC8vX7Ro0YQJEyZNmvTtt99u3bp1hNNZX1/v6uoaHh7+TsfHCDtRvDT2GpBKpVeuXDE0NMzKyhr7oyuOOCoakMJwnwROz39o7UWaHRS64hbPlpWBg7LRxo8FJhAmMj4YuoCyAtKcGsUFTrYZO9OclWHFzrTmZFpyMudxsghQNoHLx/MEeJ4Qx8tHhCtECzLykZ9/VppZAm9+bHxwagqnvqYBRQTME9GHVnv82xq5+UHJAlaqMRKykIOHcnFQLsoceThkh0IcL4/A5VtwMhzjk6z3HjZctf549M1e0RuzNUdFW1/wTtraWn19fXfv3q0o8/wFn8URhz52rNDV1bVlyxZ/f/931iutqalZvdr1u+++++mnn3799dc9e/YMY4WOjo41a9Z8//33k9DHyKzQ0tLi7u6+ZcsWRYWQEa8EuXuxo6MdBEEHB4eqqkq5G5xiQO+nASkMP2vq2HrkjI6Ll+3h8w7IT34WYu2HhCgoFKLPQxFBtoywAib4fusCn8DhExAzAyJoB4dcPDdvABQKcbxCPK8Az81HcIGTg2Nn4Vmp8+I5K+MTTpcVV0slWMollmzZDcNVMBxZXbMcSjfpT57kI6wACXDocTFcwPMEplC2LSt9+dXYWRuDFvsE3S2twGABq+XwfmoY/1tVV1c5Oztfvnx52Hf1+J/5VzPDsWOF1tZWCvp4ZweUkpLihQsXfvfddz/++KOamtowE7RIJCoqemBjY/P9999jMQ179+4d4Xx1d3d7e3sDAKAA3hG0JIcvlZSUuLi47Nq1a+TYVTkcuWJImAZQo4I0PoM/38PfhLLF8TrHCimVmNsfpoC0kXx/VhCgxIA95+EhRHAQZgDIx/EKcNw7qGC4IESMBJwcPDvDjJXiEJu4XZBb1I20dsCKOEnQhXoYvtXY7JaUjktIxiF1mXJxHAEqeWi0BGZaEOCgHHN2pmN8su2BY1pLV4bs2PWipb9dtSIxQnap5+bmLlq0KCkpSbZGsTDONDB2rNDe3k6lUkNCQt55fy8UCvF4/IQJE3788Ud1dfVdu3YVFRWVl5c/efIEa6myffs2VVXVSZMmTZ48eebMmSNn6fT09Pj5+TGZzHced5yd2i96OlKpND4+3sHBISMj/YueyFc++IoX9f7bd+m7uS86cX4JK2MeEqaA9JNE7Qr5bzcqYLGN/c2pESZA4YDAzUMlHzUe5OOgfBwXBQWEFQpx3EI8IgUEbj6BKyRAAgInx4ydsSiWTUpO4jc3dqHlmyRomSYxWisaamrx5Kaax/MIrAysabUJW2DCFhhz8owhjBgEJmi5BVtWmuO12FkBIXqLHW+web1j265azq8iqVQaHR29cOHCu3fvyvlQFcP7YA2MHSv09vaGhYVt3Lixubl55OGmpaUZGBh8//33P/6IlGAyMzNzdXX19PQMCAgIDAxwdXU1MNCfPHnyDz/8MGXKFDc3t6qqqhF22NbW5uXl9fvvv7/TnjHCThQvjbEGuru79+3b5+HuPor9ysd4CorD9Uml52Juz1zpjGeELbuVYANlEDCjAmJR+CfCReAAJQDsuYDALcBzC3DcAsSiMERQUEBeJXALTLn5ppDAlJO1MB7y4bBTX9R1DhRzxKozdcFwRnOrHzfVOo5rmphuwspBO1YLjNkCY3aeEQcVKM8YyjWCcuax0xclJi0+cVprubMHmVb2pFJhVJBd4b29vdu3b1+xYsXIX8Wy7RULX6IGxo4VpFLpwYMHXVxcnj9/PrKm4uLitLS0ZIWYfvzxx/+gj++//x5DBKw6008//YTH48+dOzeyh6y2tnbVqlXHjh0bucLjyENSvDrGGnj+/HlAQMD+ffvG+LiKw42KBiQSSXdPz6PKyqX+flqrXZecO2fPhgjcdBMu3xgSGHOExpyRkyCGkgRiM8BzCwmvCR61JSAWBV4hRgyvskKBKVdoBuUsSkjyZLGg588xVsAmKIGRKpCZLW0BvDSbOJ5pQgaOxTdmCTAxYgsMMeEIjCDBXIiP46Sbs7jON29bM0INbGyv3Y4TSRRBjv0XS3Nz88aNXn5+fopOEKPy8ZHPnYwdK8AwfP369QULFhQVFY2gC4lEcvbsWWVl5UmTJv344w9Tp05VUVGeOHHiN9988+2333733XcTJ37/66+/qqur/x2ycPjw4XeSR1FRkaOj440bN0Y4qOIledNATk7OhvXrFe5PeTsvr49HKpWKRKLu7u729vaGhobq6urS0tKCggJuaip9x44fjeaagTSn2FtWLJYRN80YyjHmvM4KmEtC9vwKKJhAhTjuHTz3DuE1wffHKKCRCiguDGUFzLRgBvEXJqR4JHLY1QgryIwBErTKQkZLuz8v3TqeZ5qYYcLim7DyjNmIGCEiNOLkGXIEhpBgDjfHCEo3ZfNW3I6z2bZVx9LqTFRUn0j0uja+zjVVVVXLli3duXPnyLdtX6dyxs2sx5QVBAKBmZkZi8UaQX09PT179+6ZMmUKygo/4nC49evXOzk5WVpampqaEgh4S0sLNzc3Go128+bNmpqad16diYmJS5cuzcnJGeGgipc+owZkX9/YGCQw3N7VGXHmzCo3t0fFxZ9xYIpDv00DYrG4p6fn79zm+vr6ysrKe/fupaWlxcbGXrhw4cCBA0wmk0QiBZFIDqtXTzKcgwMojjHXzRMSjaDUN7ACdzDfYUjMowwXCjBWwHBhKDHgUYAYCGnsx4XXWcEUyl2YkOrF4nGf9/sgBi8zGE5uavPmplkmJBFYmcYIKwiN2UKEEthCY06+MUdoBAkModw53GwjKG0eO2nR5ajpHh7L/XwLHj589br9qrMiCgsLFy5ceO3atbddMIr140ADY8oKVVVVS5cu3bdv3wjNRdra2qhUKha3+NNPP/n7+9+5c6ewsJDL5SYkxCcmJkIQVFhY+PTp0/fJaxCJRLt37/by8hy5bcQ4OJFf+hSwb95esbj65cv4pKTVnh7mCxb8GRdf+fx5d0/vlz67L338Eonk7yZebW1tdXV1FRUVd+7cSU5Ovn79emRk5N9ZSJs3byaTySQSicFg7Ny58+jRo1evXk1KSeVmZDgE+qu6rbI4fdIqIdFExgpIwuQADbwXKyCmBRz3Lp57lzAgeO7dV0AB2UAW2zgYsmAG5S6MTw3gZqQ3tHQOxDZK0YUWGI6ra9gApZknpuHY2cbsXNSiIDRi5xuz81FWyDeC8gyhXEMoy5STbhPHmbP1d62VLpE3b7b3Drsmv2pWSExMXLBggeJ+7Ev/mI88/jFlha6urrCwMGdn58rKp28bVmNjo7u7+7fffovZFbZs2SKzHEgHHm977+vrnz596ubmduDAfpGo7/VXFWvkRwMSGO7o7iosKT5wMsJ+tauOKUEdZzLfxYX++05uanpt3QuJWOEeHtPTJRKJurq6mpubKysrCwoKkpKSrl69+ndNMyaTSSQS/fz8goODaTTali1bjh8/HhMTk5mZ+fDhw+fPn3d0dMhig85z2KpOK1QoJPPrN/CcFBMo25gjwJIgcFwUF97ACkNIAinWVIiYFqA7OOgOHrorExyEsMIrbggUF3BIiYVBVpgHCRYnpDH5d+90i7oG+khhOZMvYfjik+pVSE1oJAnCmCMwYgsGjAoFxpwCYw7CCkYcvjEny4qVNu9s9G+r1rsAYSU1ta8aFeCBfpZjeoLk5GASiSQiImLx4sXl5eVyMiTFMD6FBsaUFWAYZrPZZmZmN27ceFsVxbq6Oicnp2+++QaLbdy1a9cHT1skEkVHRy9YsECRd/fBOhyDN0phuFskqqyvj09L9WcyZ82fr2NtZbRyxRznlRq281VMTa2Wr9wdfjS/8P6L+gaRomreJzglEvTR19fX0dHx8uXLysrKR48eZWdnJyQkXL58effu3f7+/mvQx8aNG6lUanh4eExMTF5eXkVFxcuXL0ew8FU0Nrrt2P7tihUG4UfME5LwnEykDQSE4ALCClwhbjgroPWXBg0PqA8CKsTLhFOIR6QAExxUgEMCGjBBMyOQLEosl1JI4OaZQ7nOUM7R0qoyCYy1hMBqMfWitZgOPSxbmpiMY2cas/nGnDyUFZBgBcyogMRgIpGY2QRO5vwYrl7orplrNl5Lzux+wyn4eu0KXV2dYWFhrq6uTU2Nb1CMYtV40cBYs0Jtba2XlyeZTH6bU+Dp06f29vZYGOPkyZOPHDnyYaqWSqXPnj0LCAjw8/N9Z1XpDzuE4l0frwGxVNrQ2ppz//7OEycWrl+nY2ert3wpwdcLH+RnTPQ39PfWdl051cZa28p6xXrP8OOR/NyCuroXiuz2j9R8T09Pe3s7ZrHr6OioqKi4f/9+VlZWQkLC6dOn/67US6VSfNEHiRSyadOmo0ePRkdHQxBUVFT08uXL908/FsMw68GDOd6+ysEUi2txZuwMYyjbpL/KAtJhEimPOFCfUVaoUdYqAqmgABXgEcknQPl4jpCALuBYuSaICEzYeYPujH6/BhIAYYyIAM/hL4ByaYJHvMbOWrRrVB/qfRDBCDc86BWFCQoXJvCM2RlGg6wgQFkBKz4tNIb4OHamBSvN4lS01oZA0sETLzt6MDPCkFPwmpVhyGvjfrG+vt7Hxyc4OPhtt3/jXgNfyQTHmhWkUumNGzfc3NxiYmJ6epBP3bBHRUWFh4fHrFmzdHR0Zs6cef369WEbvOe/nZ2dN2/edHZ2jouLlXkx3vO9is3GRgO9ItHj588vx8auJ1P0FixQs7M1WL/WmBQ8i0acQQ3SogRqkwNmkPy1fT21XFZqWM+fM3/BMrf1+w8fz+QLa+pe9InE7znOr/emD1VQZ2fn0EJkYrE4Pz//+vXrWA5RcXHxiRMnQkNDSSQShUIhk8mbN28+fPhQdHR0amrKgwcPnj9//saP6nsqv1UK77x0RcXNc/beY5bxyTgEF7JMuDlYo6b+zgvDcaHfDYGD8vEoIphy8szYuVZQnmNWkZOgeD5PYJaQgYvPNElE4gyMkMxGpHoSKgKkIgKHb8zOMk/M2JBeGFXdXC2FO1EHhGiAFVpgOLGm3oubah3PNeIgrIAaFTA3RJ4xB3F8mHARo4IpO93mFkcP2GbpTeLkKWoNDT/tZWVla9euOXjw4PAXFP+PLw2MNSvAMFxTU4M1Gn7w4MHrymxvb09OTo6OjoqMjDxx4kRZWdnr27xzjVgsvnv3Lo1G27ZtW319/Tu3V2wwxhoQS6VNrW059+5vPXzEys1Nw9ZWfZmjrqf7bApRDyBrAiRVOlGZFqxCDVKjBGqRg3SJAQbeXrqrnLXsFsy0Xbh0veeu8KOZucK6+pdiyVd9VzfsxInF4q6uLrF4kKLa29vj4uIgCOro6MA27ujo2Lp1Kx6Pj4uLk0qlJSUlFy9ejIyMvHHjRlpaWlFR0bNnz/7uBj6Kt4l3KyrtSaG/bQjAX7hulphqAmUO4ILgbayAWhRQUIDy8axcc1b2/ISM9Zl3dj6pP1bfxnj4dBU3xyY22TQ2xSghw5CVbcjOMULFGIlSzDJhZ9iw0tenCI6XVt/rlnbCcN9AuUYRamAoF4kPFT5YFs8yT+AZDrCCIUvGCgXoAPg4drplYjLh2BnNdT6bj5970d41TOFD0jBfe+XrWMHn811dV8XHx38d0/16Z/kZWAGG4eTk5LVr1+7bt+/lyzf/kEul0r6+vra2NlmQ1PufIolE8vz58/DwcCKRmJeXpzAqvL/qxmbLnj5RWWX1mT9vOAcE6i2y11riYOC+QT/AT4dM1AYoqgBFCaRMA8hT6aRptBAlaogKNUSdQtShBBuEBM4N8NV3ddW0W6BjZb1o9do9R08K7z2sb2ySvJ0YxjFK9Pb2DHUHiMXi0tLSmJiY8vJy2Qfn4cOHlpaWS5cuLS0txc5vV1fXoUOHVq5cmZqaCsNwb29vc3Nzd3f3p/ukiKRwZCxPdcUGFXCHxW2IwM00gTJMIKSJFNr56ZWoBcQlAQn7LQqQkADlmSZkzo9PXZeUc+Tx8/Re6X0YTukWHyp96pvKd0xINouB8HHJ+IQ0ROJTTeNTLVmpjsmZIXl3L1bVFXWLmwciD7H0hy4YbpTCnLqGQG6KTWwigZU8l5NpiNoVDFm5huxcI6TGsxApLM3JnsdKtb4epxFIsQmk8B+UDiIYokrMXDWOr6/3+j6Ii4tbt27dG2/83uv9io2+EA18HlZoaWmJiIhYvXr12bNnGxoaRvFLSiqVNjQ0nD9/3t19Q3R0tKLtkFxdh2IJ3NDckiEsBHbtnbvY4TdzC00np1l+/vohRG0KSR2gqII0FZA+DaQhAlCn0alTaZRpNIoyjaxOJWlTQ/SpITPJxFn+vtqrnKdZW2tYWC3z8jl05tydh8Uvm5rHceCjRCIZZjDo7Ozk83OysrJkoYUdHR3Hjh0zMDA4efKkzOnw119/LV++fP369UNNdHV1dSUlJbI3jsFFUtXY7ha29//auxidvGABpRM46SacDDzSUToPC0VEkyOEOEiIR0FhgBXyTCG+VUKKGy/jSMkTYa+4HoZbYPglDBf1iW/X1u9/UOKdnLGam+bCzVoJZTpDmWuSsoKy8w78Vc5taa1C4xJkP/BILysYboThO109ewruLr2dMC+Bi2OnG7KzjNh8QzbfkJWDQkOuCUeAh/gEKHN+PM/wj6O/LXXZdfFKR++wXCoFK8BSqfTMmTO+vr4K8+0YfIg+7yE+DyvAMPzs2bM9e/Y4OTldunSprq5Odhv0MeoQiUS1tbW3bt3y9vY+dOhQXV3dx+xN8d5R1IAUhju7e0srqs9cvensF6hpbau+xFHP00s/OFiXStWm09QBmgpIUwbpyiCgxACmgcA0ABP6NICuBNCU6VQ1OkWDRtaik2bQSDOpIbODAtRWLv/F0lLb1s4lIOjoxaiC4rL6puY+8Zd9qyeVSnt7e4eFCDx79ozNZpeVlclcA0+ePPHz81u3bt2jR4+wM9XZ2Xn69GlLS8tz587JWEEsFt+7d6+4uHiEoiajeKLftispDMdm31N32vCrH9X0aqwFOw3HTsdzc/C8XBwvD8fNww0gAuZ9QFlBSODmzoMyV/Ay9v31RNDV+xKGe9Hf+14Y7oDhWhh+IBJDDY1Xq55ffPr83OOqCxXV16pquI3N98SiOhQUhl4KYhhul8LFPX0XHj/dwE2yjmcROCkm7EzUf8Gfy8qZm5htyOIbsfkmnBwClG0OZVhfvvGbu4+1d1D+X09enZoCFBB9dHV17dy5k06nK+7KXr08xuF/n40VYBj++4uPyWS4u7ufO3fu8ePHH/ld1tPTU1ZWdubMmcDAwPDw8IqKinF4ut5jSt3dPd1vChp9j7d+kk2kMNzTJ37+4iWUzqfv3D9v5WoN20UzVrnNDsQoga4OAGogXQUElBmACgiqgAxlkKE0KKASCCqBAIIRAF0VoKsBVHWAqglQZgAUXXKQtreHstOyqfPnz3JwXEehH7kYzb/z8EVjkwj9lZD/qEaJRNLZ2Tn04u/s7BQKhWlpaa2tA72PpdKYmBhra+sjR47ISu5XV1eTSKSNGzfev39fduZqamr4fP6zZ89G0VYn2/lHLjR3S5kRUT8vW6u3M9wmFjLlpOG4WTheDo6Xi+cK0DbTiOsBy2tA0UFgCmWbc9K8sgXxXT31KCVgY5CigYo9KDE0wfALGK4bkHoYbkbXDzMCYEWdy7t6/3xSHZLFX5TIMWVzcdx0Yw5iVDBi8+cmZs9l5RiykLgHE3bmPA5S+3nO9n3Ky1YduxrT3iszTyi8D4MXQl1dLYlE2rt3jxxeb4OjVCyNhgY+JytIpdKysrLDhw97e3tv375dKMxraWn5gElbIJd2AAAgAElEQVRJpdLm5ubcXP6ePXs2btx4+vTpysrKr/Pa7eruycjKTk5Lf/zk6cvGxs6ubvHn63CD/U63dfUIi0p3H4tcsNZ9xqIl01c4G3j6zCZT9OiAJshQBxlqIEMVRQQVBlOVEaoCMlVApjLIVEJFGVlG6AHFCFAFBFVBhC3UQLoGSNMEKYiZgRSk4+Ol6eKssXiJ/mIHx41+eyPP5RX/1djaJm9eCbFYPOwOrKGhISEhobCwUGYwQCEgZNmyZQUF+djHQSqVJiYm2traHjt2rL29HVvZ19dXVFRUWFgoWyPb+AM+RGPzlqLKF/bE0F/W+JqdjrJkJ+OgNGMoEwfx0a7TCChgrIAuCHFQLoGTZcZO3ZCeE9PSWS+WDq3GhQUfiFFo6EMxAnvGMh2Gbon9tnfA8F+9fdcqqqiZOY4cniWbh9aGyjTmZBkjQZH8uYmYXSHbhJ2NZ6fPZ6VanruiscFvbeiOitqXQ/SjsCgMKqOkpMTT0+PcubODqxRL41QDn5MVMJXW1NScPXt2/fr1QUFBly9ffvz4sSxg+506l0qlbW1tZWVl165do1Kpvr6+58+fb2z8SkuCiCWSbGG+q7vHEhcXIjP0j5OR12Ljs/IL/3pa2dDS2jPmdQ9FEri2oSk2OcOXsVnbyvYXcyvdNWvnBIcYUOk6IKgBMlQROBgqYaqMMFVGqCoYqiITRqgKg4liBEOVgQmoysAEUGXQVRk0DZAyHSDrk4INfL3VV678cZ7FtHmWToHEE1euFz76q6WtP/7/nZfTp95AJBI9fPgQgqChzt28vDwbGxsAAGTXbU1NDYlEWrp0aUFBgWxIjY2N6enp1dWvtF+XSqWj4ryTHeVTL0hh+FxCyvSV7jrAFutbCaZQijEnDcfJwUF5JlgZR9SugDkgcJAAB+XgWWlLEpO3Ce+nPW+s7ertHepUeL/himG4TSwt7uyOflIVnJG9lMW1YCcROGk4KAPHyTZBrAh8Y3auIYtvmMg3ZuXgkZDGtIW32LOYO4zd/ROy8189pvzbqt5PL6OxVXZ2tpub28gtfkbjOIp9fH4NfH5WgGG4ra2Ny+XS6XRnZ+ewsLDbt2OKi4tfvHjR0dHR29s77NsQK03f0dHx4sWL4uLivxtIbt682dfXd+vWrcnJyc3NzZ9fqZ9jBFIYfvq8xh8A1YyMNAgEbQsL9Xnz9Obb2q1b7x226Y8Ll2LTMu4+Kq6uq2tpa+/u/YQ+feSGTwq3tHfcLXsSfvaSrdsGLZuF6o7L9Tf6zKJQ9ABQCwQ1GExVgIGZEBA46BeMFV5/Dh2CFP3EoMJgqDBBFSagwkSIQY1B1QYounSKHoWk7b3xFwfHSXgzXTv7DcGU89djSx8/aW3vHHav+anPklQqFYvFvb29MoNBc3Mzk8k0MzNLSEiQHT03l29jY0Mmk1+8eIGtFIvFjx49ysvLG2YwkL3li16oae7w33Hgl5VrTI6dsmLxCJxUPJSN2BV4SNVFjBgGDAxCE04ujp1lEZ+yNAYKTc6+/qjiUVNbS6+4BzUnvPoT3q8V7JdcgtZR6IPhLglc09WbV9d88kGpT3LmQlaSJSeVwMnEc7IQRuHwTdi5JmyBMVtgxMo1ZuWasPmm7CybxFTLkxe01/pQwk82dg5r/fBFq3+UB/930o2bm1t+PmIA+zpNuaOsUDnenVywAnadPXny5PLlyyQSycPDg8lknjlzJi4uLi0t7f79+6WlpX+hj7KyMqzAHIvFOnPmzNatW319fWk02vXr16uqKmVfynKs8E81tKaOjohLl7TNzfWWLJnn5YH38jRYs1pz2VKlhQt+tJg3xXzejMWLlwcGbjly9MLN25z0rDuPSque1TS3tPb29r1i2/24AUphuL27t6y65moCxy9si6HDMo1FSww2eM0khugDwHQQ1AQZagyGCuJTQHwNKiDid0DNCa8jwtA1Mp7ot0OgrIDhAkYMiIFBHaSp0yladKpWcKDWBg/VJUvVzG3mLHDwpW+6GscpfvK0pb1jFIlBIpGIRCIsDrG9vb25ubm+vr6mpqaqqqqioqK4pLiwsJDP55eWlmKZjQ0NDWQy2cjIKDZ2sD5YW1tbdnb2w4cP+/qG/yaN1y9fKEc4Z42nsm+w9fXbyC83lIXn5uKRes/5KDEMtJVCbAx5Jhw+gZ1lGZu07DYUyEr5Izs/ofzZ3aa2yq7eRpGkQ4pUYOwZkC40UqENhhvFktqe3vL2zsL61hsPK3anC9cnptglJM/jZBGgHDzEx3FyMTFhC0zYAhxLYMIS4Ni5eDbfnJVpdz1xJn3rfB8SR3D3jUTycZ+S8fPuo0ePuru7f7XBYePnRL7HTOSFFbCh9vT0FBcX37p1Kzw8fNOmTStXrnR2dt60adPmzZu3bt26bdu2zZs3h4WFhYaGMpnMbdu2HT9+PD4+/tGjR7Ko7/eY8jjcpE8sSebz7d3clC0sjdzdccGBxpQQQxrZiEoyCPLT8Fj328rlUxzslZcs0nZYYrRihc3adWtCyIzd+09FXeOlZd57UPyspq61vbPvo/0UTW3tyfz8TfvDrV3XzFhkr+figqRE0mjTQVAdBFURSkBiETD5J6wg44ZBGwPim2AyUAFRGwPyrMxAoiDVAKoOhTIrmDhzvYf24mXaVgusnFYTN22Pup34sPxxa3v7P/oBkEjEfX19WF3k5ubmly8RIHj69GlRURGfz09JSeFwOLdu3bp06VJERMShQ4f27du3Y8eOzZs3AwDAZDJv3ryJBeKIRKK7d++yWKyamppxeBW+fUrDoKe5oyvs5JkpDk6z9h6cHw+ZctLR3+88xJzARWRI2eY8Y06uCScHz043T0heGAc532YFJCbvzCo4W/T4dmVtcn0jv6VV2NpW0Nqe39ae19bOb23LaG7h1L64Xv709L1H+zILguNTVsVw7eJTzNjZBCgPj6Rl5iEODhQXEFDg5OE5eQTkWWDKybZOSMeFR2qv89lx8nxts7w4sN6u3c/2ikQiCQ0NDQoKevnyJdbX77MNRXHgT68B+WIFbL5isbi5ubm4uHjNmjUuLi7nzp07efJEeHj4wYMHDx8+fPbs2cTExNzc3LKysoaGhqEB5J9eXfJ4BCkMV76op//+u9a8eUbr1hkHBMwiEfVpZF2QqgtSZ9BJOtTgGZSgGSEBusG+M3w8tdauVl6+VHmJvaqdnb79YptVq9f6B2/de/Di9Zi03PyS8sc1L+rbOrv+6f13T29fdU1tdGz86oAgfdtF6ovs9TesNyAG69LpWqEMNSYSnyijBOUBo8J72xXexgpMFaaMGBBuUGYwVBgMVRDQAOg6dLoBhTo3mDhz3Qa9ZU66dvZmS518aEDUzZiyiiedncNr8GGdFVtbWxsbG2tra6urq8vLy1F3gCAtLY3NZt+4ceP8+XMnThw/ePAglirm7+/v7u7u4eHh7e2NtV6k05HWi3v27Dl8+PCJEyeuXLly797doSw7tKiiPF5Pn2BMr/+Q3Hn81Naf+POaDZYXoswTeaacTBy3v/8kAgpIQylUoDy00ZQAB2XjORlmrBTLeJ5dLOQQC61KTF4HpW5MySTmCCmCO/S8u4DwHiC8RxfcIWUJA1JzvLgZ69iprvEpS+NTFiSkWrIyzCC+KSQkcBFWGCYErtCUKyRwBJbsLOs/E5R9Qiz8SNn3S0WfQBvjZpednR2Y87ejo+MrvKrHzXl8z4nIIytgQ+/p6fHw8AgPD+/p6cE64HV0dHR1dSngYNip7ejpuRqfYLpihY6DgykxeFYIUY9G0QFpWkxENBkUTZCsCSBlCXRAsi5A0qOG6JOD9YP9Zmz0mL56laajg+aCBVrWNrMWLFq4Zp0nhbb1QHj07QThvQflFU8bmpp7et/xhSkSiRobmzJz87bsPWDl5KxpM1/PZZWBj49uCFGTRlVnMlRCmUpM5jQGQ5baMOCAQMIY38MBIQMFNPJxIBwStStgrPDq80AspBoIagKgHo02m0QyDgyetXb99EVLplvamC52IDPDEjhQZWVVZWVlaWnpgwcPCgsL09LS4uPjo6KiTp48eeDAgZ07d4aGhlIoFD8/v40bN3p7e/v4+Mh6MW/dunXfvn3Hjh07c+bMtWvX2Gx2Zmbm3bt3y8vL/04ka2tr60IfPT09w+6qh52+r+Hf11lBDMOn41jKy1fqhm42v3HbnJOO5yLZEFhFpiFNpNC2k0i3iFwcNwcHZeE4maacjHmsNIvEVPOEFPP4ZMuEVKvEVGtUbBJS5yem2Sam2yZm2CZmzGdlzGdnWXGyzaEsMyjHjCsw4+YhTPCamPLyzXhCUw7fNj51zr6jvyxbteP8lZbOvn9kf/oaTuXQOVZXV69bt+7UqVN9fX0KVhiqmXG5LL+s8PTp04ULF167dm1c6n20JiWBYWHRw1V+/uoLF8zy9ZlNJevRqdMBmhaDrsWka6KiwaBrMujIGgZNC0kZoOgAZB1aiC6NqEcONiAGzPT31ndfp+20QsPeXsncQhlnNnfBYsf1XkGMLUfPXmSnZDx4VFJZ/ayxqbmrqxt+1eDQ1dVVXFp69lKUi+dGDTxBZ/GSOV6es8lEXaQKAg0trMSYxmBOA5nTGINpkIg54R9TAkYMw3wQr1ICYmNgqiCpE0j2hCoDScjUAoAZdLoehTo7hGToH2C4bv3MxQ7T8YQFS5fv3rt///79TCYzJCQkICDAx8fby8vLA31s3LiRSCSGhobu2bPnxInjUVFRCQkJGRkZd+/eLSsrq6qq+jv4oL29XUGuH3wlP2tqXrtp6xSX1cbHI2wSk02hbDyUiyZEyPhgcAGHFGDoFwLEJ3AwyTVFvAavS54pJw9dn2sK5ZlCAgI3l8DNQ+UNoIAYFXhCM65gHjvL4uKNqe6+C4Mod54+h9EWEh88wXH/xry8PFdX18TExNdZcNzP/SucoPyyQmpqqq2tbUZGxld4Vt5/yg1tbTsOH9aytNJ2XaVPJevQqdoAXROpPUDXZAIaTBATdWQZFQagAdK1QJoW2qJJix6iTQuZQQ3RpxBnU4hzQ4Jm+m6csWaNmsNS5fkL1K3t9BfYW610XR9ICt25N+LcJRYnqejeo6rK6uam5u7O7vr6hpT0jLBduy2Xr9C0sp6+dJlRgP9cGkUXoGogdRjp00BwGsiYBjKnAsjzELvCiOYEELU3vPI8NLVycBlLp0TdEEOgoZ8VEGJQZYSqgQx1ANAEAG0qVZdEnksMJvj6Tre21jXBk6nAzp27d+7cuXfv3oiIiOjoKCyc9s6dOyUlJZWVlS9fvmxvb/+aY2bf/1L8gC05efmG7l4aZJr19VgLbiYB4uORPEmkjCPSrhqJKhgUNM4AqQD9qiAlGd4iSMVoTPBcIZ6bjz4Lhz/z8gg8BCPMOXzL27yZW/bOcPM6Ew9hTjiFXWGE0xoTE+Pq6oolQYywmeKl8aEB+WWF06dPLVmypKSkZHwo+lPMoru37zaXN8/JSX2RvUFggDZI1wDoGiCozkBEg8lQHxA1JqjGRFaqMUA1EFAH6ZogTQOkokLRBChaAGU6iNgbdOkkfSp5Jilkpn/ATC/vGa5uusudZ9g76tnaz7FbYue0eq13IHPLzrMXomNjOYePnXL19jNyXGqwfMVsd/fZQUEGVPIMOlUToKmhZRaVAEAJAJUAhhLwSrDCm/0OA3Aw4KHoT5RA/2WooiWbVJEASbD/GSm3gJReGE4MCCuEYaKKLCDVnJDMCzqgTqNNp5DnEIO17e1tVrqkZ+XW1dU3Nja1trZ2d3dj+Y0Kl8GnuFbfuM/2XtHm0+eUXN1mHzg0n5NihpoW0MBDBBGGhRQgzalRIUD5BG6/4NFYSCwiEn1GEi/fLLwCpPEET/ia5OF5AlNerlViBi4ySsMjwH93+LNGpGKmAhSGnrW/IxnFAw+JRCKVSk+cOOHv7//s2bOhmymWx6sG5JQVRCIRANBXr17d0NAwXlX/kfOSwPC9kr+cffzUrKwNPLwMqDR1BqAKAGoMJClRjcFQZzIxUWP2r0FqGSF1D0Gk6CEDkIkmCGiBgBYD0ALp2iBdG6Dq0KkzaBQ9ClkvJGQOiTw7MGiml7fe6nU6y5xVbRepW9kZL1lhbOuoZTRvuu2iWWvWzQnwn0UmIXESdJoWgCCLGgCoAIAyIgxlgKkMDP3hZ77KCv1WBAwRkO3piKgATFQYKgCoigigCgJojWek0rMKWhYazb1EgxmRkEYMGjAHRD8roMQQ2h9TCYDKdECDRjUgkVQXL5m/ek1ZxSuljT7yjCje/gEaED5+Yh0Q9Kunt/XVmxZIQgT/NUSQQQPCCiglFBC4g4LnFiCZlqjgeYUjSVIBHsUFE57QZBAa8nC83Hlcvs0t7gxgO8E7hCO4+wETGZdvkUgkbW1tNTU1JSUlAgES4cvj8VJTU3NycgoLCwMCAkgk0mh18xmXChxPk5JTVmhpaXFzcwsODh7WQWc8qf4j59LY1rHn2EkVvJmus+tsElUHQG64kRLIA6F/asxQdVTUmAM1CbDba/QGHbM99FsgGAyNVwTEMEITpGvR6Vo0+nQqTY9Gn02lzw4hzwwizvT2m7l6w89G5t9Mn63jssaQSNKn0XQAuhZirgA0QVADANXQH3isv8PrdgI1RuiAYAzBUEGQAlSmg0o0QIlCV6bQlMmIqFBoqhSqCpWqTKWo0CjKVLISlaREJSvTKEp0mjJKJP3ln/txYSgl9C8rg6Go+4OhBIBqSOwCRdlxqdlKl6LS8o88C4q3f6QGemD4yJ83f1vhrL9jt00CzxzKwXNlcDBsAWOFQUrAiAHPLRgUXgF+gBtkADFkAbErYKAgwwUTpNFlrjU3xzQyWmt9IHDsXEN7z0dO6ot+u1QqFYlEbW1tlZWVQqHwypUrBw7sB0HQz89v7dq1Li4u69at8/PzIxKJeDxuxYoVUVFRQqGwsrKyo6NDYZP7ok/9yIOXU1Z4/Lh84cKFu3fvHla0ceTJfD2v9vaKoPRsq5Wr1BbYGweTdOlIyWSkPNGIrDCIEQO2B5kRon+ByVRDpd8mwWCqM5iIvx9kaACgJh1A0AEA9GjAnCDSz9b2/0ffWHOd52yAgRZZAjRATJDBqIEMNQBpBDW07JIMGtRA5pBOEKAKHVCh0VVpdC0Q1A0N0w8Nm7tpC27rdrPfd1nu2jN/z17LvXvwu3+fs22zXihDi05Vp5BUyEQlcogShaxMo6oASNMpZRBURkwLgw4ImSdChREmwwVVOqBLpao7u5gscxLeLfp6rhm5nemTFw3LQ7d87+yGO33Rmp1hys0lQLloJOMbWEHmiUBtDG/mhjf6IEx4BSa8/KGgMIALAlMe3yYuRZO2zcYfTL5T9jW7HiQSSUtLy4MHD+Li4g4ePEij0dDcH9+wsLBDhw6dPn364sWLly9fjo6OPnnyJNa6zMfHh0gk/vHHHywW66+//mptbVV8acvtZ+1jBianrJCZmWlmZvbnn39+zNzG8XtL/3oSyNykbWM3d6PPXDpSDLHfc99fBhGN6WOGqmEyWERZVv3wHQv9b2Qid/9IeCAmCAEgLgxtOjCTRPt5wdL/rWekscF7JiNUA+nvAPTbKhC2YKqDCGSoYvkOA4EIaKMHpiqCEQhJID4FkK4K0NRoVB06Dbd187KjR3yjoxixcbt5SSf4/AuFhdF371+9/+Dy/fsn8/P2pqUyE+J8L192OnzYYttWPSpFNThYlUxWodGU6Ggza6SEQ6jyQLDCUFbAcEEZZKoBoC6Npu3qZui4PDN3sOHCOL5a5HxqUhj+M1ug6bruNyLN4s94c262GZSDxTm+SgxYVGN/1MJQaBi6/MY4Rzxa5Qmp2cATGiflDREBgce3ZmcYhp9WXuO788z1F+190q8VFnp6ep48qbh9+/bOnTsBANixY8f58+czMzMfPXpUW1vb2tra29uLpTyIxeKOjo7q6upHjx5xudyIiIgtW7aQSKTt27ffvHmzvLxckR8k5x+6DxiePLKCVCq9du0qgUBQRNi+8Yx2dPccP3thjv0Sg1WuRhSqLuJ9GOqtH1qNYHSXEV+GCoOhBTAMyMAvi1f+Lz1jtfXe+iATpQSUFQZAAcEFBhNFjaFjCEXMDACIWAIAugpAU6NTtEGq0ZZNTseOhsXHXim6n1Vb+6i9/Wlvbz0MN6H9hZthuBHtO/xMInnc01PwsiG2uPhQSqrP2XOWW7bqkqnqZPI0CnkajYZ2smYqv820wAhVZoSqg0jFBZ3Va2fZOySlZ79Rw4qVY6yBl1195OOnJqxw1T9w1CIxxRLFBcTAwBMgSQq8PDxPiEo+gVcwVAa9D0M9EQPLQ8MaCEgB6XyTJKFRksAwKdcIFeMkviWUaXElRmljiF1IqLDkGdKmUgJ/hbjQ3t4uEAj++OMAkUjctWtXfHx8RUUF2pHkHegkEolaW1vLyspu3ry5adMmb2/vXbt25ecLOzs7x/gqUhzuk2pAHlmhr6/v8OFDdnZ2NTVIirPiMVQDYimcfefB4vUeWouXGAUF6dNpGqgFHmvo/H69FYb+eP+jZcwawdQGmAYU8DcHl//SNVJe66kPhqozGMOMCm9ihVBVpFwjiAQ80mnKdIoKjazHoC/8Yz8jPu5GcfHdlpZaGG6FkQr/fWjvH/GQZxHaLgh7boPhZ3292c+eHc3IWnsiwpARqkQM+ZVEmkYHlMC3sgIW56gBMvSoNN016/TsFiXyUobqVrH8GTUgfFqNDyD97BOEi7phB2VZQtlmPD4hKReXlIdLyjNJEqKSj0sqGC6vBijg0ZAFPIoUpryCIZKP5wmNk/PmJvFnJ+XMTc4xTMoi8DIXxPNmbt8zbfnqw7dYHX2IAiTv+HH8jEr6VIfGuvcxGIyQkJBr1649fvx4aKXR9zxqX19fSUnJuXPnfHx8QkKIPB6vtRVJJ1E8xocG5JEV/i5xw2AwvLy8uru7x4eWR3EWlS+bQn7foz7f1sDT04BK1qBRVekAkhOIhDT+ox/+D9sYKYWkDTBnUhnTlrr+1wyjaa4b9AGmBshABVSX2RUQo8JQuwLCGSoMBppFiYCCOp1iEAq6Rpw8liu409paj3b96RmghNe/rrH+gbIugiIY7oThSrE0/vGToOs35mza/BuRiJoW3s0K+lTqzHUbdG3sbrOgUTw1il19jAZ6YPhQPFttg7f29r2LYrl2nEwLbpYpLwfH45sk5RonCYwQyTNKEhrxhEa8fEyMefmYoLEI+dgzmhuJZEyYIoIUbx6QPBxPYMLNMYEycbwsApRmC6XaXbiitNbTgcIorW/6OvMkOzrak5KSQkJCQBDMysr6yHDyrq6u9PT0wMBAT0/PRFaiAhc+5kMhV++VR1aoq6vz9PTcuXOnXGlKHgbT3tl96sZtLdsFak4rZpJCNGgUFSSyD/yIMoj/lBj6WWEWjam83O2/dOZOc143k87UBJmaKC7IWAEFBVkPyf5ii0ogMA2gKdEpalSSybYtGy6ej374qKynrw2Ge1ETwuuI8Ea1S9GCehIY7oLhGhiOq6tfe+mSJo2qTKMiXScQR8kbsiFkdgUDKm2uu6eute2ft+PfuH/Fys+igb8am1fv2qfs5b/gbPTyxOSF7FQbTroZlI7nZJhAGcZQujGUaczJMuJkGbGzjDjZxuxsHCfbhJ2NQwXPysazskwSM3EJmfj4DNP4DNO4dNPYNEJsGuF2qikmsSkWMUnWMZDlbWh+TIL91ZuGjM2z1rpf4qV+nckPbW1tSUlJdDp9+/btd+7cGZVEBqlUWlhYSKPRgonBEAQpbvk+y6dp1A8qj6xQXFzs5OR05Ur0qM/2i95hn1iamX/PboPHD+bm0328dGhkFTpVmUZT/hysMJvGVFu57r+mz/lthdssGsYKyDMW1YgENvanbsqCKJGKy0oAXYlOUaWSDACqT9Sl6+V/lfWJWlBQGEYJGA2IJNI+iVQkfXPTbCnqraiDYdaLlx7RV/RCmaoAfUg2xBsTIkI1QIY+lWbk5a1rbXv5+q0v+pIYZ4Pvg+GojOw5Ht6GIcDyiAsLTl00PXVhduQ5/cizuhFndE6e1jlxWuf4mRnHz8w4dlrn2JnphyNnHD6lczgSkxmHInUPRU7/44TO/mMz9h3T3XdUd8+RGbsP6+w8NP33g9o7Dk7f8YfOjgOzth8w3rZv7rY9+O27DcnA9JWuAbv2VjY2jzNlvs90enp60tLS/P39t23b9vDhw1Hs6SAWi+/fv79p0yYikZiXl6fIjHif0yHn28gjK6Smpjo4OGRkpMu57sZyeFIYflLbQN+1d5qFpeaa1dPJwep0sjJAU6bTPw8r0EM1V3v81/S5UxxdRmQFWT1mJJ9TCaCpUEm6AHX1iWPXy8rKRaJmGO4ZUiBPgvog2vr6altby2pr71U8LSh7fO/J0+Lq6ur6+qaOzp4hzmQpDLfD8J2Wth0crvmO32cASNtrlBWwSM83s4I6g6FHoxlt9JluPf/M5StjeRIVx3qnBoqe1a4kkqfbL7UhUk2CyDq+QRoBwWqBwSoBgUp+AUq+Aar+weoBIer+RHV/oqp3gBoq6j6BGr5B2n7BOv4hM/yJun4hBn4hM/1Js/xJcwLImMwNpBgGUgwDyIQAkmUg2dQv2DqQZL3RzzWECuUIxO8c2bjbQCKRFBcXMxgMPz+//Pz8D7AoSKXSEfIdJBJJTk6Or68vk8msqlIUPfviLyC5YwWpVHrlypUVK1YoqjsPvbg6enovx7KMHJerOjrOJAZp0imqdCrCCkhhxM/gg5hJD9VZ7/tfMwx/Wuw0m8rUQnwQb7QrYKzAQOtEASo0qjaFtOSP/ZeKih6LJc2oE0H2NS2F4TaJ9K+mZs79B8cTE0LPnA46dMj/jz8Cww+Rjhz5/eKFi0lJ/PLHde3tXajDoheGyzq7jqZlLtmzV5dK0aLTVQFgBFZQZoQpI1mgDF0aba63j5q55U2QLB8AACAASURBVJFTZ4cqWbH82TWQmZfvHhTsF7pp7/lL285c2BR5ftvZi9vPX9p+/tLW8xe3nbu469KVA1dv7L9y48DVG+FXbxy+duvInzHHr98+eTM28lbc6duJZ+NY5+M5FxOhyyzeFU7yVSj1T17ajeSMm6lZt1Kzbqdl307Lik3PikGfE9OzBPeL2rp7P/vEx34ATU1Nx48f9/DwSEpKGuEnf4SB1dbW5ubm3rt3r6SkpK6u7nXa6O7uvn79+rJlyyIiTn5kGMQIw1C8NDYakDtW6OvrO3LkiLe394sXL8ZGBfJ/FCkMFz4scyOSVewW6Pt669IoqnSaCgIKGCswxjheQRNk6gOhel4B/0vP+IeFy2ZTGNpgPy5oDLghBuIVENeDKgiqIOWZaWpUskko83eIUyGWYqDQN2BUEMNwW5+ooKb2MJvtdmCvKSVE18dr+kZPHR9vbe+N2p7uBhu9LMgkr0Phx5OTM58/r+ztfdzbe67w7tL9B/QpFHUKWY1GQ6pKIxWZZHaFV0wLyswwJWaoKoMxg0ab5e0z1XTeniPH5f/sfz0j7Orq+iP8UAiVer+ktEsCt4ulnWK4R4rEsmDSh+bCiNFolWFOq69HS6MyU4lEkp2d7e7ufvTo0Q9IecDGEBcXt2rVKhcXFw8Pj+PHj3d0dLw+toaGBiaT6ey88t69e6/DxOvbK9bIrQbkjhXa2tpCQ0MZDMYHX8Fyq+sPHlhjW8euoxEzFi7WdlttQCFp0ekqdKzVQr8DYgxZIUwFqbwUqguE6nkH/e+Z+El2jrNIgIwVNEGmDBfQ+gpI5SU0T5KuSqdqUckuhw9zK6s6UYsClhiJdf5tEYlzKyp33LxhtyVMJyRAleivFBKoRAqeRiJOJQVPIwYpBQWoBfpPD/QnMBle589FPLh/sqjIJTJiBo2qRiErU6nKdPpA9cZXqk3I4hxRVghTZTCn0+izfP1/MZ239Y9Dr54UxQ/Qq/oY2//u3r3r4+N7/sL5PpFobI/81R2ttbU1PDw8ICDg/v37Hzz5/fv3//DDDxMmfPef//zb0dGxvv7Nd3cCgWDp0qUHDhxQ5ER8sKrl4Y1yxwp1dbVeXl4HDhxQhMNg10dPnyghJdPMyVXDcZl+UJAOjYbUTgaQBgr9ghQtYKqCI3Z5Hr10ShVGmDoYqgOG6vkS/585pt/b2M8i0qYP2BXeyApYQQU1GnUOk7k1Pr6it0+ExiVIBm4Qe2D47vO67df+tA0L1SMFq1GIynTSVDp5Kp06FaBNpdOm0qjTKBQlCkmJRJwWFDidTpt/KNz+xHFdBkOVSlahUpWQGE/EHaOM2DCwblJYK6nBhAgZK2jR6Ab+Qb+YWwF79g35EGL5mENWKBbHUANisfjw4cMeHh6FhYpimp9c7w8ePPD19T19+vQbjQHvefjNmzd/991333777f/8z/91dXV9Gwp0dXXt2rVr1apVitp676lY+dxM7lihpKTExcXlwoUL8qmvMR6VWCx9WFaxIYSqbGVr4O2rS6dr0gFVAHE6DJUxAwW0xXOYOiNUG2Tq+Yf8v4bzvjO3mxVE1gGYWkB/yMLrdgVlAFCi0zSoFNtdu288LGlFow0kqPcB+32u6+6JhJIWhobpE4O0qCRVgDINoP4G0H8D6FNBYCoATKVjQptGp02jUadRKSp0mhoIKFMpyjSKMo2mRKOjrIA0hkCbYiBFr9Eqk4NuCGVGmBITaVGtQQP0AolTrOYHbt0ui5ZAz6zCrjDGF/jg4aqqqtzc3Hbs2NHc/DWmJAwq4tMvSSSSy5cv+/n5fYxRAYZhGo02YcKEiRMnfvPNN0QiUfR2a1B+fv7y5cvPnz8vkbz6gfv0k1UcYbQ0IHeskJaWtnz5cjabPVoz/KL387Kx9cCJU2qEedourrMpVC0AUENaM39OVlBF7QpaIFMvkPx/TCy/MbWZGUjSAZACTViEI8YKg/EKSFFnQIVG06ZS1kWeymtq6R4opYAlRophmF/x1GP/gZlBgdNJRDUqWRmgKgE0jBKmgQBSvokOKNEApNQSjYakidLQtpNUigrGClQ0dxRJCRnOCkNxAYltROouhKrTQN0g0mQL6w0A2PXK9aFghVfUMWb/iESiqKgoR0dHLpc7Zgf9ag/U1NQUEhKyffv2tra2dypBIpF0d3c1NDRUV1c/efKkqqqqtra2paWloaHBz89v4sSJkyZNmjhx4rZt20bYVWdnJ5FIZDAYbW2KSo4j6EmuX5I7VoiOjnZycrpz545cq21MBtfd28tLy7BdtXqqpeWsoEBdALmTRuMEh7HCGHkfZHUh1cFQLZBpEEz9F8HmP3hLA/+QflZATQtvZAU1Gs2ATg+LiysXiXsHXA+YUaFDKj3FSzInk7WIwepUpGiEEp0+DQCmgsA0Ol2DGTojdJM2yNQGQE0aXZNG06TRtPqFqk1DhU6fjjTCBjADA1qcarA3t6zzJMYKyowwNTqoS6RMsrReGRTcNiQJcyDOckzOruIgQzRQWVnp7e1No9FqamqGrFYsfhINFBQULF269PLly+8sqNDR0fHw4UMWK/HEiRNbtmwBAHpYWNiePXvOnTt36tQpOzu7iRMnTp48+ZdffomIiBh5rJGRkV5eXuXlii7wI+tJfl+VO1Y4ePCgu7v7s2fP5FdnYzIyKQwXlf1FZDB17ObP9tygTydrgTQ08xBr9DzogxhLBwSGCxgrzAyhf2Nu9y8jc31f4uusMNAPAo1tBAB1Ks2IwTiWmVUzUMUZC1aAYbimu4d0KtIgyF+VEqJMoyD1mgBQCQSngYAqnW5xMHztxUtrz55fc+q0W8Qpt4hIRCIxiXCLjFgTEbHm1Kn1F847RJyYzgCnUiiYdUHWgHuQFZA8CMS0oEYH9UKoP823W7zRuwmJnZA9FHYFmSrGbqGvr+/atWuOjo5sNlsRKj8Ger9+/bqtrW1aWtrIx2ptbeVyuSEhITY2NgYGBqqqqr/++usvv/yirKw8Y8aM2bNnKysrf//995MmTVJXV4uJiRl5b1wud926dZmZmSNvpnhVbjUgX6wglUpBEKTT6e9jHJNbnY7KwFo7uw6dPTt30UKDVSuMKcHTAYo6SEfyD5EURDSSUdboefTiFmWWg7ctqDHC1AZ8ELPI4AQr+/8710zPJ/h1H8RQVlAFQA0qjRAaFl14t2GAFbDMNxiGSxubnH7fphngo4QGM04DACWktTRDGQR16EDQ7dj46mdp1c8zK6szK6uyKiuzBySrsjITlazq6pyamisV5VZ7dk4lk5QBJD3kDayA1FfoZwV9EnWK3UK7De51HUO74SlYYVQu3n+2k6qqKgqFEhISokiT/meK+6CtJRLJgQMHHB0dSktLR9hBV1cXm81etWqVurr6lClTfvrpJzTlYcI36OPbb7/97rvvvkcfEyZMmD59ekZGxgh7g2E4Pz9//fr1N27cGHkzxatyqwH5YoXOzk5vb+8//vjjncYxuVXoaA0sp/CO/fq1qrZWs33dDWjBGgBVjQHIfv8+cT/JtzaJQEEhTAP1QcyhMifaOvz3LILuxsARYxsR04ImhWa+aXNsMRLYiLT9HQhvlMDwnZoaGwZNNchnKkD5jU6fihgVmMogUxUADOj0vekZz9E2UbI+k8OaT8py7othiePBfVNDiEp0uhIwqCuZXUGWPKlOB/VJtF8X2lutWVPVNDSSTsEKo3X9vu9+xGIxlqZ/+/bt932PYruP0EBvby8AAGvWrKmrqxthNyUlJZ6enr/++usPP/wwZcoUFRUVQ0NDGxsbCwsLAoEwe/bsX3/99dtvv50wAaGH2bNnvTNMsqyszNvb++TJkyMcVPGSPGtAvlihurra2dk5KipKnlU2BmNraGoCf9+hZmGmvXqFHtFbmxakBlLVGIP3yig0jHWYgmq/UaGfFebSQn9YtPx/6+NmeAXMQGMbsdKNr8YrhKqAoSogU4NMs9y8lf34cfsAK2B5ECIYFjyrMgNIysG+vyG5D8BUgKGEZnmoAcAs+v/P3nvANZHtfeP3/7/3Pve993nuu/ducXevroVuX7dXd91ddS0U6b2X0NOTSagqKFIUUWkpJCTUNEoa2Bvq2sWKigKKgNJ7yrzPzEAEF1ksIGXy+X1gMpk5c873nMl886vkXUePNsOnjAj70DDHO6BmU0LcHGzoM1zh97zKkAx8TCDP3Wi20t7+9qOhQeEoVxgR5nHc2dTUFBERERgYWF9fP46XQZseRKC7uxuPx2MwmOZmqK7miC+NRiMQCJYtW/b22/+eNWvWggULnJyc0tPTlUqlTCYTCoWZmZnW1tbvvfcezBX++dNPP925c2fEpnQ779+/HxISkpSUpNuDbkwtBCYXVzh//py5ufmBAwemFoivvbeHT5xcvuqH2T99vyzEaxEp0Igaqg87KwzRK+hKOD5XB/A8O8Kr7B+iVwj7ghrxvqnN/7f0y0VegUsHuYLRYC4muHYUxGYQrmCIJ/8ctVlx53Y7/OBHiAII2yNOP3qwkk6aF+I/5xmuQKF+QiHtOnqk9fk+hwhXQJ7wVaDGLGH77NCQP+QKRjBXmG9m8Y2V9bWa2tc+fWiDY0egoqLCy8uLy0VjpMeO2Ssd2dnZGRoaGhwcPEpIQm9vT0xMzOzZs2fNmvXee++tWrVKqVR2dT211nV3d8fFxc2ZMwcJmLSysmpoGE1LAYLggwcPsFgsyhVeafLe6MmTiysUFRXZ2NhUVla+UUze/MUPHjvx2bq1H/z8vZG/60JygOEIXOENKBWG6BXCTYDwz4HIDyzs/7TkCxMP/6FcASk1aUAb6CHEFWhh+gTyDxFRkmtXf88VrrQ+Xr8lYn4I5iMKcS4APNUrUICPyaSEo4ebBukF4g6p4xm6kEs1TCaug+qNidv/ExoCe0c+tUH8Xq+AcAW9TZafm5lfrEIds9/Ygu/t7d29e3dgYOD169feWCdm2IW7ujqDg4MDAwNH8Qnr7OzA4/HvvfferFmz3n//fW9v76amxqE4/a+NODIy8p133pk1a9bbb7/t5eU1CvNATqyvfxgSErJ79+6h7aDbUwiBScQVtFptYmKij4/Pw4cPphCC49HVxifNO9LSFm1c96HFr4tDvBdTQgwBoiFARbImD6YueAN0YVCvMMAVPrR0/NPSLwzdfJcN6BXCDAFIDGiQwAoM2AZBC9MjUb+ihWWdOt0yJLkCkt35YV8vJi3FKNhvNhE7l0qZS6XNo9L1qHQDCm0xkUQtKT7z+PHNx4/vNDTeaWy829BQ3dj4qLW1T6tFHBcQPwYNCF4D+zcmbpsdGgolZQIA2AOUPqQnTxUwhmRgOZFiYGO7fP36iisznZiOxwIeY5tXr1719vbeu3cvmtB9jIi9+mEqlYpMJru6ujY1NT2vte7ubiwW+/bbb78Hvd7FYDAtLcMMFohj2T//+c/3odcsEon0h9WnqqvvBgYGMpnM510U3T/JEZhEXKGrq8vf359Go3V0dExy1Cage9UPHobEbJ275kdDR6uP8YGLKHhjKnkgJSKNjtAF+EH49BH4KsaFMZ6LcAVDINwICP+UFvkfG5c/LftSz8V7GYW+kBpmBIQbAlCgxNDW9ICwBUCYHhn4mESNlyrrNVpdxkYExh4Q3Ltf8SkuaDY2cC6ZNJdMnUehLaDQ9Mk0IzxxQ2IiOT8vIjc3mpsdnc3dks2JzebyD+x/2NPdN6hvQPQK18A+U5grwPkVoBQUBhBxebY/UC4pCrCMSDF2cFy4evXhs2hG4QlYziNcoq+vb+/evba2tqdOnRrhY3TXuCGQkJBgbm4+ioeBSqWKiIh4991333777bfeemvNmjVHjhwZaoNoaWlxdnZ+6623PoBfsbGxfxjsevbsWQwGU1RUNG7DQhseXwQmEVeoqalZt27dzp070UoQyJyfuX7dhUTUX/PTEleH5YSQxRSSMRUwAmhIOKIhjQ6rGSZauwCHTUJqgxW0iNkO7n9a/tV8J8/lZIgrIA/mkbgCXY9CW4QnYTk5N7p6VIPZnXVL+8T9apvtMQtCAufj8fNIlPlkYD4Z0CMD+gSSCZ6wHBv6cWDApwH+nwb4fh7o+42/T8CuxCtPmnpgroBYIkAQvD6EK+gDNH0q3WCwS0O4S4Q+LdyISltGopg4Oev/8IPyZIWuG+jGRCJw+/ZtV1fXsLAwNKnzRMIOgiCSX+HkyZOjXDcvL2/RokVIhOTs2bPd3d0LCwtPnz59+fLlW7dunTlzxtra+t13333//ff/N1Zi374/rtcql8u9vb0rKtDbbRTUJ/VHk4grnDt37tNPP8nNzZ3UgE1g5/pBcP/pM2Zengt+XrXUy/1jIn4RhWIMUI0AGix0QwDSsQ95EA77QT9u+8MgF0s6fTkt/CNnzz8t/3Kuo8dyMk3HFYZfN0IPiNADwvWpYQY4onn8znK4yCSiCdBh2dDXu0sh+y6cboDFzsMT55Eo88hQUucFZIo+iWREwBvjQk2wQSah/otD/JYHeHsm7bjc8qR7uDnjBthnlrhtTkiIPhUqmWEwyBWGMJgIfVokwhWWEikLnV0/+ubbksNHdN1ANyYMAZVKxePxLC0tDx48OGEXRS+EIHDu3DlTU9Ps7OxRQtNv377t5eX1/vvv/xN+ffjhB59//vnGjRvd3NxwOFxQUNAXX3zx/vvvv/vuu/r6+mP50mYwGL6+vlVVVegsTFEEJhFXkEqln3766R9mE5uiQL9ct7v6VAK54gcbW/31G5b7+S4jERdRIbpgDACDoYkTzBVgokCj69Hpy2jh8919/rTiqzn2bs/nCpHQ4xmiC2HzsYQVVPquw0ceatS6atQILCoQPNvYQC4s+IoeNi8k5CM8HjJGUMhzKZR5ZPI8EnE+ETefEDwf52+A9VsS6O25M/5K85PewVzRSCM3wX7zhO0fhQQbUKgGw7nCoCUiQp8G6RUMqbQlJMpCV/cPv/pauH+mB9283Mp8xbNqamoCAgIoFMqTJ09esSn09BdFoLm5GbH2jqLRUalUUqnU3Nx87ty5b7/9NqJg+Ne//jVr1qy5cz+aP3/+7NmzP/jgg3//+1+LFy+WyWSj96G9vZ1MJgMA8Pjx49GPRD+dtAhMFq6g0Wj27NmzatWqW7duTVqw3kjHWju7GPnCzy2sF5iaL/EPWEommVDJxlRIuwDrFSY4eHIYV9D3xvzp029m27nAXIGOeDUO6hWQBzPEFfSAiAVA2Fw8aQEW58FgnGlt6YXNBzo8tSDYDIL7a2tx+flf0Gl6oSEfYUNnE3BziPiPiISPSPi5ROxcQtA8HMYgxOeTYD9c+r4bzc2ILUPXyE2w32I4VzCEXSh+70WBcIVFHp6zvvwqV67QtYBuTAwCarVaLBZv2rSpqEjyh3buienSTLtKenq6q6vrpUuXRhl4e3v7/v37SSTSjz/+qK+vP2vWrHfeeQfhDUgWprfffvsf//j70qVL/1A5dObMGScnp6ysrL6+vlGuiH40mRGYLFyht7eHSCRaWVk9rwj6ZAZxvPvW3NG9OSXNaO36uZssl4SGLCITjSlkI4BqCNAMaDQ4k8HEWB/C4fhDuNYznb6MHmbkF/CnL7770MZxOQlYSH3GfwJR+A/hCmTqHCzum4iItFMVTRqNroIUEg3RB4JNIHikri6qtMQiMeFzOtUYj9XHBhvgQgzxoUb44IWE4BWU0J+jqN4pSdlHDz/q7tYMx/0mqBrKFQypdCNqmDHshjmoVxhACeIKZMoSL693v/ySKRQNbwZ9N+4IPHz4EACA4ODgujo0ucW4oz3iBS5cuODu7p6VldXb2zviAbqd9+/fl0gk0dHR3t7eVlZWGzZs+O67b1esWLFo0UJjY+M5c+b89NNPo3shdHd3Jycne3h4nD17VtcsujHlEJgsXKGtrc3FxcXDw2MUE9qUA/c1dvh2zYOAyC0L1qybb2+/GBe6kEw0opAG6QL9GXfCwV/240EghuoVwhb6B/3/X61839JuGZE6CleAVAu08HlUYA6RpB8aapO8q/z+vRYQCnpEYiI0sJpBDYKdIHirvb342rUdCrk/i+GUnGSXtMMuKd4uMc4rLYWWn51+ZP+R27fqOtr7f+cgeQNUWyTGzcOG6lMo+hTACICIwvO4wlIKZamP97tffbGTzX6N04Q2NSICGo2mr6+vpaWlrq7u9u3bOTk5Li4uYzFyj9gauvPVEejo6IiNjQ0ODh69KoTuQq2trdXV1efPnzt69GhJSUleXl5mZmZKSkpkZGRycvK9e/d0Rz6zodVqL1686O7utnPnzlEyRT5zFvp2EiIwWbhCc3Ozh4eHk5MTWmFyxFWiBcGKyuv2WMKsVT8buLktIuKMyURDKtmQCiAejhPl5PiUKyyl0RcHhPzXN6tmmdssxVP+kCvMB2iQ/wEOu5xIxHE5vzU2DnVO1GVg1IBgBwjWdHefe/jg4K2biquVimuV8muVx+7dufak8VFfTxfMMIaipIWdHC/2d5slxi3A4w0oFAMKYPwMV3gaPBlmBNCWUSnLfX3e/eoLenx8D6oXHYrm69jWaDQ9PT2tra2PHj26c+fO+fPnDx8+nJeXl5KSEh8fHxQUFBZGR8sTvw6kX76Nw4cPeXl5MRiMzs7Ol2hFo9F0d3fXw69RLAtNTU2JiYmenp7nzqHByS8B8yQ6ZbJwhd7eXgaD4ejoyGQy6+vrUSvm79dIr0Yr3n/oW3und39ere/jtYiEN6aSjCDHhYkMiBjkCjT6UoC+JDD079/+9K6p1VIcadFwG4QeLUIPUifoJHwBjT6fSl1AIumFhn5LocQWFV9ubOyEZ3rEMgxqEOwDwV5YukBQFyE5FBmEJXRpwQfd3QW3rq3evtWARDSkQr6Nz3AFyAwBwIoWgGYCUFdQyMu9PN75ZIWZs/P+w4ebUJerobC+1LZKpWptbX348GFVVdWZM2dkMhmfz9+3b9/27dvDw8Oo8CsqKiolJYXFYp05c/oPs/e8VC/Qk8aKQHNzc0pKip+f3/79+//QEjHWRocf19XVKZFI3N3dMzMzh6ZnGH4U+m5qIDBZuAIIgg8fPmSxWL6+vhkZGaPXQJsa0I5DL590dO4tKFxsZv7e+g3GARgTMsEIclwAYMcFxMlxfMMi4OxPUCYofRp9GUBfGoT9+3c/vb3efCmWsJhKg1lLGGIQgYs6DqUL4Xq0sAUAoEel6JOIi7DYtZGR2wSC07W17ZpnHA8GgBtKIHRah6GgamHLRYtGc+XxY/7pUz6s9M/DAUMyyZBKNRzgCmHGQJgREGZARYSuT6EZkCmLSaSlAf4mlpv0v/n6FzNzT28fBpN1/34NmthjKLxj2e7p6Xn8+HF1dfXFixfLyspYLFZcXByNRgsNDQ0KCsJiseHh4YmJiVlZWUVFRceOHbt582ZTU1N7e7tarRpL++gx44rA9evXyWSyt7f32bNnX7vxV61Wnzp1ClkDd+/eHdeBoI1PAAKTiCuAINjU1LRr1y43N7fs7OzJHEylUqm6urra2tpaWlqam5s7Ozsn7DHzqK0tlsky2Gg6y8JML8jfmEQ0olKgmIiBZI7jyBWQfMlwJijIp3I5QFseDHGFt9ZuWBKKX0IFjKHQjDADAOrDYAHoCFjBEKFHC18AVY+k6QNUAyrFhEJeisP+RCEDXE75zZsP29q74XyOY1/xkKlCrb7f3nbwdlVCscQ+LvYLCmExmWBIIUO6FirNCPJthMQQSrRAh6IoSVRDAtkoMNjY3cPQyup7J2dyTGy+WBIRGe3i4paYmFRZWdnT0zP2PszYI9Vq9d27dyoqKoqKitLT07dv304mk319fT08PTAYDAAASUlJeXl5R48eraqqam5uHkVHPWMxnAwDV6vVhw4dsrOzo9Pp169ff42aHpVKdfPmzZiYGAKBcObMmckwWLQPr4jA5OIKIAhWV1fHxcV5e3vn5uZOQl8YlUrV0NDw22+/FRYWZmZm7tu3b8+ePXw+/9SpU/X19RPDGO41NGDj4//z69r3bK2NcaFGZJIRks8RogvjyxXgMpI0YwAwoVJWkCnL/QP/8fXK//nxl4V+gUuIpIVQqii6IdQHqF7UIF0Y4A0LALo+FLgBGELppKjGRIJJcOC3ZJLn7t2pZfuP3am+39La3g+lXtBVh3pmcSMWhz4N2Nbde//xk0O3bqYfPhiYmbYmHPgcF7KMiFtEJg5yBQCmCzQjKmBIBQwogCGZYoQlGPoGGNo6LjG3sgrBpuUX3ql7oNaCtbV1LFZWQEAgjUY7cuRIc3PzxMzjM6ObQm97e3tzcvgkEikkJASHw0VHRycnJ/P5/P3791dWVtbX17e3t7/GB88UQmbKdbWrqys/P9/Dw2Pbtm2XL19+dWOEVqvt7Oy8ePFCQkICmUwuLy9HV8KUWxUjdnjScQWtVnvjxo3o6GgXF5f8/PxRsoWMOJ5x3dnT03P58uW0tFQXF5fPP//cwMBgPvxatGiRubl5YmLilStXJuYn1LkbN50B4INf18x1czHEYY3IFEMqlG5BH/5ND2ccQtIbQKmHXodAj39DgG4C0ExI5IU4/MLAoEVePsY2Dv/5/qf3f/xlgaWtoZunESZwMYlsQqXpA7T5sCwYxhggXwcDGs0QAKCf/hSyEZGwCI9dgQ9dHU4PzEjfJZWXXLh0vrb23pOW+vaOx929rX2qdkjUHf2a5u6++taOO4+azt+ukZ08lyou8U9N2xAb8wVAXk7ELSPhl5BJC8lkYwoF1itAFAEWqiGFYkgkGQQF67t6LLRx+MnDh7Ijqezkmab2p2VHWlpaS0uloaGhWCw2Ly/v7t276BfcKLeSSqU6dOhQTk5OeXn5+fPn79+/39LS0tvbi3KsUUCbtB+1tLTweLzAwMDY2NiTJ0+2tLS8tLuYSqWqr6/fv39/ZGQkkUgsLi5ubW2dtANHO/ZCCEw6rgCCoEql+t+HLgAALq4u7DMkAQAAIABJREFUJSUlk6SUlEqlOn/+PJVK/eqrrz788IMPP/xQT0/P0NBQX1//rbfe+tvf/qavr+/v7z8xCjeNFjxw5uwGf/9/r/5lvpeHIR5vQKYYUKEiCPqQBx+cLXHg76vQhTCoWiOkxod+oJuQKIvwBH1vn/n2jgbWdh/bO63zC8JEbAnYun2tf7CRhdW7a9fPc3EzDsUakcn6VOp8KnUuAMyj0ebR6LCaAeEKdEMA0kxAyaqpFGMy0YSIXYQPWUHA/kCj2sTG4jIZ28SSfWX7uccqCs6cF529KD57WXz2Mv9IRWppWVyOgLKP6RkTb0oN+4JIXkwkmpBJi8jkRRTyQgrFBBZjKkQXDKkQIzGhUIxwuAXePnOsbJbZOXrQIzlF0ju1D3r7n3WS6Orqrqio2LJli7+/f0JCwqVLlyaG9r3Q7TquB2u12meM1t3d3Q8fPhyxeHF3d3dnZ+czx49r99DGxw+Bx48fi8ViKpVKJBJ5PF5VVdVLGOO6u7uvXLnCYDDweHx4ePiBAwcQ2qEFh7oejd8g0JbHF4HJyBWg5DwazdWrV8lkckBAwIEDByZDydr79+/T6fRFixbNnj37k08+8fPzS0pKyszM3Lt3r6ur69y5c//617++//4sPz+/Bw8moqZ2j0ojKN+/wtrmvXXr5vv6GBAI+hSqPpWuB4TpA0/zIA3qGMaoXYD0B5BAjdDhqgqAMZlqgica+gfru3kusHGYt8FsuZWtLZYYm8GSHzt5417t3UeNZafOEHbu/sTW4cO16+dYWht6+ZhgsUYU8kdU8hyAMgegLqDR9Gg0WK+AcAXYkAFQF1IpJlSSMZlgRMQa4YIXhgQux4Z8QSZ+T6evidq8fkuM6dZtZjHbTbfGrgmP/JECfEcgf40nfo7Fr8DiFhOIJiSSCYWMUATdX2MqxZhKWUilLiVTlmBxek4uH603/c7ZIyo189SVay1dz00+o1arb9++zWKxvLy8aDRaRUXFy4WTje8t+zpa7+/vb2tr6+t7CoVKpbp27VpFRcVQZnDmzJnNmzcXFxejWpbXgfqkbqO9vf306dMxMTGenp5hYWGlpaV3794dS/CCVqvt6uqqqqoqKSmh0+l+fn7x8fGXL19+CbYxqQGa8Z2bpFwBmZeLFy9isVgcDnfs2DGV6k06Tmu1Gj6fv3Tp0n//+9+fffZZUlLS1atXkQeJSqX639+gAADo6en95S9//s9//sPlciemt23dPSm5+YvNLd7eaLoA469PIutRaHrUMD1qxO/owhi4AhCmB7kfQqJPoRlSqIYEkkFIqL6P31w7x7kWVostbX908/Sghe/m5528cLmxbVhYdnXTk7z9BwO37fjaxU3fYtNH1tZ6Pl7zscHzyYSPqOT5AGUBQEXogiFAN0LMGQBgAgDGkA6AbEglGVAIBiScAQFrQMQZEnCGeJwhFhJjneDwC/GEhQTCQiLRhEQ0oZCNyWSEGej+QroKCnkhmbQET1iCCTS2d/7Y2t4eS8ouVtQ0No/lB05ra2tBQYGvry8ejy8uLm5sbJy03xJa6DVMQaJSqdra2oYuP41Gc/v27WvXruoIt0ajuXLlCpPJPHWqAtE2a7XahoYGAACsrKzOnz+vU0Hn5OR8/PHHdDp9kuj2Ju1ETJuO3b9/Pycnx8/Pz9PLMyYmRigUnj59uqqqqrGxsa2ttaOjo3Pw1dbW9ujRo1u3bp0+fVokEm3dugWDwRAIhIKCgpqaGgQQ3UKaNvjM5IFMaq6gUqkOHz4cFBREIBAuXLjw6n43Lz3THR0dvr6+//rXvz744IPg4OCHDx8+09SNGzecnZ3/+7//8ec//9nDw6OhoeGZA8bpbVNbR9Te9AUbTP9jY6cXEqpPARZQ6XrU8CFcYWw2iEFFgiFAMyRT9UOxev7+ep5eC+wd9C0sV9g6WIbgtuxLLzp05Hr1/bbe/hEfun0gePdRY/7+A/5bt37u4DBv48aP7GwX+HjpY0P0SYQFZNJ8KmUBFdCH6mTSjSFLxIAYAoABQNEHyLCQ9KkUAypFn0rRp1D0KFSoFhQsEH2hUA2pFESgAJDfC5lsQsAbBQQYOLkutnVa7YWJSWOfrbze3t0/9ilob28/dOggnU7z9PRks9n37t3r6enRaDT9/f29vb2I+r2zs7Ojo729vb21tbW5ufnx48eNjY0NDQ2PHkHpaR48eFBXV1dTU3Pv3r27d+9WVVXdvHnz+vXrNTU1Qx/kz+sSTAKGYaxSqTo7O4eeq1Kp6urq7t69o/vRr9FoqqqqeDzehQsXdNaBjo72LVu2BAUF3bhxA7mcSqXKzc399ttvt2/frlJBsGi12traWgwG8+OPP544cULndnDx4sXIyEixWDzTzDHPm5eZsL+3t/fcuXOZmZkAQMVgMFgsNiYmJj09PSeHLxQKi4qKJNBLXFBQkJGRsX37NhKJFBoaGhUVlZ2dXVlZqaOkMwGrGTXGSc0VQBDs7OyUyWQBAf5kMvnMmTNv6jururp65cqVf/8//8fAwEAgEPx+iWi12rS0tDlz5vz5L3/+7rvvrly58vtjxmnPjdoH2O3xC0wt/uPoYkii6EFcga5HfYGACANauAGVbkimGhFIRqHYBV4+s23s9KytP3VxMQ0OwcfFZwrExy5cevikuW/Y82vkAfWC4LX79zlFJQGR0T+7eSzaZDnfxnqBp/uCoMD5BNx8MkmPQjGkAsZQCgRIwQAHfELxEfo0CixUfQCABfKRhEInhoghlEyCigic4noodSCbkElGoSEL3D0+2mT1iYMLZmtcnvJQ7fPVCdrnD6e/v//q1as7duwICgpKTEwsLS09fvz4wYMHFQpFaWlpUVGRSCQSCAT5+fl8Pp/D4bBYrIyMjNTU1H379u7duzclJWX37t3Jyck7d+5MTEyMi4uLgV5b8/LyWltbR/+91d/fX19fX1tbO1RncOfOHYFAcPnyZR1dePLkSVpaamRk5J07d5CZ6O/vFwqFK1eujI+P11lPoKKCAf5mZmanT5/WaRGOHTsWEhKSm5ura623t/fYsWNisbipqUk3r/39/c/zV9Adg25MSwTa29uvXbsmkUhSU1NjY2NpNBqJRCQSiRQKxdfX18XFmUKhREVFJSTEs9lshUJ++/btsRgspiVWM2RQk50rgCDY1tYml8u8vLxIJNKlS5d0P5gmcoYuX768bOmyv/z5z0uXLPnfH1sjXrq8vHzp0qX/9be/fv75Z+fOTVyVFDUInrtxy45AefeXNfO8fA1JgD5kiYCtCYNOhcPCFyEVAiQGcJ4iYyB8IYVujCMt8PWf4+D8ganF3A2mXzm7eEdH7crlKysqqh/Wd/T0DtN0jzj+4Tu7e/tvVd8TycoIMdu/d3Cau27dLDOz2e6uekGBBni8IZFkRKYYUQGIB8CZnfQhbwYqLAC8DTk3DBEoo4PhgACGNOqAAFR9gGwAFd6kLCQRTIIC5zk4zTez/MUnICE77+Lt6raekUxXWnAUlqAbh1arffDgQWFhIZFIxGAw0DclkUggEIhEIplMgmvsUgEAoNFoERERUVGRkZGR0dHRW7du3bZt244dOxISEnbu3Ll79+69e/emwq/MzAylUtna2qr74a671tCNxsYG5Atap53SarVisfjbb7/dsWOHzrG8vr4eiw01MzM9ceIEcrpKpTp48KCnp2dWVpbu511/f//hw4clEsnQ/GZdXV23bt16pkCwRqPp7UXTSwydipm+rVar29ra7t+/f+XKlZMnTx6EXwkJCS4uLmKx+Nq1a7W1te3t7TrGOdPxmtbjnwJcAdEulJaWurm5RUZGvpGi1VevXPn04xX/9Ze/mBgZnTh+fMQlUV6uXLFi+d/+9pevv/7i4sXzIx4zTjv7taD40NHvHJ3/76pfDHwCjCC6AOgBsMBOhXowaViAeCRQ6YaUMGNKuAk5bCEBMA7CG3pi5ts6zzezMjLbtNLZLWjzlhyZ7Gr13dbeEZ+0LzCIPpWm6n5tvlTuTQtbZmY+Z+2aORYWBh4eJsHBxniCEYkMWRloAOzHMMAV9CAFAyK0QdKAbAAGNEQGiIIRjWoIUAwoREMS3hgbaujhoW9l+7WLZ8CWOMmRkw1tXS/Kb0YcWEdHx+nTp/Lhl0gkKi4ulslk5eXlhw4dOn78+KlTp86dO1dZWXnjxo2qqqrq6ura2tqHDx82wK/Hjx8/efKkpaWlra0NsfUitowRL6TbeffuHVdX11WrVl24cAHZqdVq9+/fv2HDhqSkJB1X6O7ulsvlPB6vtvZptca2trYbN24MpQUgCKrV6r6+vmeUGc+81V0d3UARGB2BkydP+vj4HDt2bPTD0E+nGQJTgysgdKGwsNDd3T0+Pn7ol+Prng8km/Czrd69XfXLqh//73//94fvz0reuVMNW3mHHtTT3bV3T7K+3rx//P2/1v36S9Wt60M/nYDtls5utrh4yUaLD9ebG2CCjYhkPSpFD4CFRtWDtPo0fSrNkAIYkqgL8dTFoSRjv5D5jh4fmduYmNv84OLlRg2PzWBKjx2/V1/fN9xj7hX7rwLBG9X3GPmFznjCF1Y2BhtN51tbG3h6GgeHGBIJehTyAoA8aICg6NERSwRlUM2AKBuougP0aRQDGsWQRjEByFCWa1zIAi/Pj6xtjM0szQOw+/LF1+/V9ahfsctv8vQnT56w2ewdO3YMLdnc2tp6+vTp27dvD9WrqVQq1Nv8TU7VjLz2rVu3vL29WSzWjBz9zB30lOEKIAi2tLRwOBwfH5+9e/eOG1141oLd19v7oK6uXCnfsG7tB++9+89//N3CbMOl82d7up5GAahVfefOnnJ2tH1/1tvvvfsvbEhAa+vjiV9TTzq6dmXxlmy0mGNhbRwYbEgmGlAhMaSSjCkUEzJlEYG0MBRv5Bdo5OZt4uC+yMbpE1vnjZhgWsLuAvn+izduNra2qZ4F4LWNo6un73zlVWa+wItM/dLWTt/MbIGtnb63l0FosCEJZ0Ah6FNJ+jSSPo0M/0W2R/5rCJBMqKRlZMKiQH8DF+f5Zuaf2znhtyWWnzr3uK37tfX4DTWk1Wqam5sbGxvRn/5vaAbQy46GQHNzM4lEolKpb8p7bLTOoZ+NGwJTiSuAIPjo0SMGg+Hp6ZmUlPT7YITXi5JGo37yuOnEsSPJOxMJ2BBne9uPlyz+59//9tGHswL8vOSlkqqb12tr7t2punXy2CEKCbfQWO+9d96aO+f9bbHR/f1v5on1oKk5YteeJaYWenZ2i0ODFpOxS8i4ZRT8xwT8sqDgxZ4+etZ2C0wtV1g7WgRhCbHxabkFR347X/OoqUf1WhT2fzwD7V09F6/f5IqL/cIjvnZwWrBx4xyrTXpe7obYIEMK3gAg6AMEveeLPkDQpxKMyPjFBNxSXx8jS6vP7BycSEB6oaSqrn7k8Iw/7hR6BIoAisBYEVCr1cnJyS4uLnV1dWM9Bz1u6iMwxbgCCII1NTUpKSk2NjZpaWk6569XnohnTA/ajo72ysqLzMx0XEigu4tTOEDeszPRx93FcN5H//fvf539/jtrf16JC/KLCgdwIf6bzNYZGy6Y9c5bJobzv/zs4wA/z99On+jp6XrlXr1MA1X36/CbY0zWr1vi5vQFIehTbMDyAJ/FLk56pmYmG0y/tLJzxJLi0pgHTpy6fa+mreOpduRlLvay5/T0qSqrbmeJijzI1OVm5h+s/mW2rZWev48BPkiPFKIH4BYMFz0Ap0/FGVBxRhScMQlrEOCr5+JsaGr+i4tHzN6M45cqn3SiTnkvOxnoeSgCL4hASUmJhYXF4cOHX/A89PApjMDU4woajaaurm7nzp3Ozs5sNvsZX+4XnApdrWPdhqarq+PWrWsiYT6NSnS0twoJ8N2duENckKMoETFTU9wcrJca673z1j/+9d9//fC9t+b+591Zb//PW//z1zkfvPPFJ0s8Xe1pZKyrgzUJH3TkUHlnR9sL9uf1HH604vRae7t533+zzN5yse0mo42/LjPd+LOjY2hEZFa+4PyVa49b3kzHnhleT7/myo2qDH6eZWDQIguLD03Xf2hvNdfPzZAUpE8J1qOG6FND4L9YQyrWhBy6iBS6hBBs7Oc1e5P5QisrZyIlp0RRU9/Yj2aRfQZZ9C2KwHgicP369U2bNqWkpAz1nhnPC6Jtv3kEph5XQDCrq6uLiYlxdXUtLCx8haRyWrioIVTXUKPt7+vrqqurLi+Tbt5Mc3e193J32BxJ4XPSpeJ8eVF+WUmBQpLHyUim4jAb13z/6RJDE/3ZxnqzTfQ/+mSZsZXpWjoZy2GmSgr5CduiXRysAjFeSnlxe1srOLHp0FtbWw8dOuLk4b7oi89W/PzjKmtLx0DM1uRdyiNH7tyv6e7pe/OLbngPunr6Tl+6ksjmmAcEGluY/cds/Ucutnr+7kZ4zEJysDEpaCE1dAkpdGlowBKMz0I3Z2Nb6+/c3el7UyuuXu/oeYEMS8Mvi75DEUAReEkEWltbPT09g4ODJ1Vtv5ccDHra2BCYqlwBBMGrV69GRkYGBgYWFxe3tb30D2WILqhUPQ8e3D16RLl7947QEF8fL0eAFJS5L1FSmCUvypGJ+TJxtlKSXV7M21+SU5THYKRs3xqOJ2N9yaE+AMF/awQpY0+8OI+jKM5XlhRKCrITt0W7OVn7ebsJC3OaGp9N8ji2qXnho5B8AEKhcMuWLRFRkTvid8TFx+fm55+/cKFhEicqRsb5pK3j5NnzcQymJRa72MZyjvn6+Q6WSzCen4T6f04M+TQIs9jF0WSTxZcODu7h4azS0tsNjSNlTnhh0NATUARQBF4UAZVKtW3bNgsLc10y0BdtAT1+yiEwhbmCWq2+cuXK5s2bnZ2di4qKuoYEJrzINGhbW5vOnzuRtjfR38/Vy8OOTg5OS4kr5GeWiLgyMVcm4shEWXIRWyHOUoqzyoq4+4uzy4u4MiG7qIBZVMAsEbBLBVlyCU9ZxFNIeIoivrIot1jA3bdrm4+7vYO1KZed3tRQ/yJdeplju7q6rl+/vmvXLjwen5qaevnyJTjf8KOplUytoaXt5KXLSTy+VWjIMnNTow2/fmxn85mz4zIry+Xm5uYYzA4m6/iVyqZOKHfCuEVsvAz+6DkoAjMKgZKSkpUrV/5v+ekZNeqZPNgpzBWQJDOXL18OCgpydXXdv79cl6tu1BlFHjHQ376+7ju3rxfksqmkQE8X61B/t13xUQW89GJBVqkwq1TIlgpYUiEkMiFDIWIqREyliFUmYpWJWUoxWynhIKKQZCnEkMjhv0oJV1nMl0v47LREX3c7ZzsLdubeRw+eJswZtXsv82F7e/uRI0doNJqHhweHw4HTA0/hJ2lzV/fJCxd2pKdb+vh8vHq1ycofvt9kiY2Klh45+qCpaSx5pl8GRPQcFAEUgTEjcOPGjTVr1jCZzNGTkI65PfTAyY7A1OYKSPXq8+fPBwUF+fv7Hz58+I/oAvIE1fT3dT98UHP4oHzrZsDTxTrQxykpNkzIzygVZJUK2MWFzBIBq1TAlBYypAKGTMiQCTPlwkyFMFM5KAohQy5kPkdYCnFWGWSwyOUxdgf6ONttWpeWklBXcw/UvvYkQdqmpiapVAoAQHBwsEgkGprPf7KvvlH719jSevT06didO0OowF521pWq273qCQrsHLVf6IcoAigCUKUeDAZDp9N1lUdQUKY3AlOeKyBV8k6cOBEQEEAgEE6dOqVSj2bIVqt6Gx7VnTpxaF9KYkiAp7e7XTglmMdIlkMeCZBlQSpgDkghQ1qYKSvMlAsQyVAIhopu/zMbDLmAKReyFKKssqLs8mI+OzUhwMvR3nLd7sTYO7cq1f2vLbqvp6fn3r17OTk5BAIhJibm9OnTf0SVpt5iftLaWl1T87i1FaUJU2/y0B5PawR27drp7u5+7969aT1KdHADCEwHrgCCYG9vr1KpDA0NDQ8Pu3jp4oiRPFqNuqX58YVzp9jMVAohKMDbmUYIzEiJE+cx5GKuQsyRi9hyEUsuZMoETJmAIRNkygQZ8mH8YChXeN52pkLwlC4oJVypgM1OTSAGezlYrd++mVZ58bRa1fvqC7C9ve348eM7d+6kUql79+69du0aWsHl1VFFW0ARQBEYIwJyucza2lpXumyMZ6GHTVEEpglXAEGwvb1dLpcHBATgcLjKyspn6EJPd+eN65ezszIhluDrSiUE7N0ZI+BnyIQcBUQUYO9FEUsBcwXIsgA97zNfnChkKASZsCB0ga0QshWiLKmAncfeE0kJcrbdGEXHXzp3UtX38okdtVrt48ePpdJSuOAhuahIUldXh1oNp+gdiHYbRWCKInDr1i1HR0cul4t++UzRGXyhbk8froDQhaKiIgsLi/Dw8CHlKLWNDQ+VsqLIMLKjrZmfp2PitoiC7HSpiAupE0TsQWEh3otyIUMuYMDP++dpDsayP1MhYMoFLEiEbLkwSyHiSnIzYyMIjpZryVi/304eUr9UHmiNRlNbW8vlckNCQiIiwisqKl4hvcQLLRX0YBQBFAEUgacIdHZ2BgYGRkVFTT/T59NBoluDCEwrroDQBT6f5+TktGPHjrt37zQ2Prpw/rf01N2+Hk6eLjZRNBw3M1kmylYW8SF1AhQMyVIIWcoBYSiFiFYgc7hrwljIwTPHQJYImC5AjEEmYMuF7PKi7OK8zJhwnN2mNYRgr4qjiu7O1sGJGNP/7u7uq1evJicnYzCYxMTEq1evouWFxgQcehCKAIrAOCAQGxuLwfiNd2meceg42uQLIzDduAIIgm1tbQwGw8XFZcuW6PT0fSRCqKerQ6i/Z2rydpmIrxDzlBKeQsRRiNhyIVMBi1LIVApfXZcwlC4gXOEpXZALWGWirDIJpygvY8dmsovtugAfh/0K4ZPH9XDuyD+YOY1G8/jx40OHDm3dutXf35/JZNbU1KCqvz9ADf0YRQBFYDwRyM/Pd3JyOnfu7HheBG17UiAwDbkCCIJ1dXWxsbE//LDSzs4aFxKQuH0zj7WvRJCtEPPlQo5CxIHtApBTAvzrH/n76rqEEbkC0jhLIYC0F2VidpmYW5SXvms74O6w0d/bLp+X/rixdnS6oNVqa2pqcnNzKRRyeHh4aWlp46TPwzgpVjfaCRQBFIHxRODMmdNOTk4SiXg8L4K2PSkQmJ5cQavVHj58+Oeff/Lz9crP4RQLc0tFOVIRTybkIOYA2HuROZwovHauoFMtQNoFhYAJcQURqxzK/8guKcjMSN7i47bJ2W49n5Pa1PDcTE29vb23bt3at29fSEhIUlLS+fPnUevgpLh10E6gCMx4BGpqagIDA5OTk1Fj6LRfC9OTK4AgePfuXTs7m+Bgf6VUIpUUlAh5pUKuVJgFcwXWeGoUnqtdUAoZZUJmmYhZJobyPyrFWZkpMT6um9wczLIydzfU14HaZzNDdHZ2Hjt2LDIyMigoKDMzs7q6GrU7TPt7Eh0gisBUQaCrq2v79m0kEgn1sJ4qU/bS/Zy2XKGtrS04KMDe3koizJVK8kuE2U+5goA1nhqFZ7jCUO0CkvaRUSZilImZ5ZIshYjNTosL9nW02/QrIy353p3rGvVA4USNWtXwqL6sTEkiETEYjEAgePTo0UtPM3oiigCKAIrAeCCQl5fn6ek5JO5sPC6CtvnmEZi2XEGjViclxK3+5Yc8HlsmyS8RcEsFHJkgSy5gK55yhddrdxjKEnTbusAKZCMDyRIN0wXIHlFezM1mJAV4ObjaWeyK33q98oJG1adV99+4dpmZmUanUWNjthw5fOgVCmm++UWG9gBFAEVguiJQUVHh4uKsUCim6wDRcSEITFuuAIKgSJD/zVefpu/ZWVYiKBVwpYUIUdBxhQkgCjrGMGwDpgsM2BjBPlCSXVbE42bupOIwrg6btkbRzp85ceG3iu0x0SFBmMz0tJvXr/b3vYY8j+iKRxFAEUAReO0IVFdXe3t7JyYmvvaW0QYnFQLTmSucOXVy5bdfRgLE8lJhqYBbWpglK2QrnuoV3hhXUAh02gVmmSSrvJinLMrJz06PoIY6WpsG+roH+3uT8SESYf6DulrNqOUtJtViQjuDIoAiMNMQaG9vp1Aonp6eXV1dM23sM2q805kr1NXcM9/4q6eznVySLxVkTyqugOR6gpI6iFgKMaesmK8szivkM0ghfiuWGFqZrztULu/ubJ9RaxEdLIoAisBrRUALgoi81laHN6ZWq1NSUtauXYu6LAwHZrq9m85coae7K8DPa8OaVaLcLKlwkCsUsuWFSLTkm9QrDOaFzJSLmFDNKglXJubLJLnbN9NWfv1JakoiShSm262GjgdFYAIR6O/rra6+c+PGtXvVd2ru32t49LC1tbmrs72np6u/r0el6tdq1a+rO1Kp9IcffpDLZa+rQbSdSYjAdOYKIKiN37515defZqXv1nEFeSFrcnEFIcQVZOJsmSRHkMPCBnh7ONtWXb80CdcK2iUUARSBqYLAnds347ZvDaOTY2Oi4rZtTtmdmMVOL8jPLikW7i+Xnjxx6NLF327dvHb/3t36+rrm5scdHR29vT3PlNwb42CvXr26bt26nTt3vtzpY7wKetibRWB6cwVQIsz/+rPlCTERpYWQb6MMUipMIq4gF2TKhEyZKEsm5skleekpCfZWprviY/p7Ecuf9s0uDvTqKAIoAlMRgb6+7mwO03TDai93h0CMB8bH1cfLycfT0dfLCePrFuTvgQv1o5CCI+ik2C3hu5K2Z6bv5fM4ErGgXKk4cfzo+XO/3bh+teZ+dVNjQ0d7a29Pl7q/T6tRwRaNEfBoaW4O8MdgQ0Nbmp+M8DG6a1ogMM25wtXLF3767kt8oHdJIUcq4EwqriAXZMiEDKmQVSriSMV8qTg3koZ3ttt04sj+waWFcoVBJND/KAIoAmNFQHvvzg1PNwcnO/OMfYk8TiqHmZKxLyFlV2zSjqhtW4DSOglsAAAgAElEQVTocAKdEkzE+QX5u/t6OXm62ro6Wbk4Wro6Wrs6Wru72Pl5ueKCMeEAMX7b5ozUZD6HIS7MKZMVnTh28OL5MzevV9bcv/OkqaGzo7WvpwsENVqNOouV6eHmUnXz+lj7iB431RCY5lyhveWxo42Fq52FJI8lg8ImIb3CYH6FN+yvIBfquAJXUZyXy0n3dLGJpJOaGx/AqwglClPtZkL7iyLw5hHQqvq7RYW8n3/4KoqOLxXzZUU5A1KcI5PwS8XZxUKOuJAtymcW8DOyWXsy9sUnJ0THbQWiaDgKzj8E4+7tautiZ2636Vcr09VWZmuszNbYWPzqbGeO8XIihvpFALgdMWGpyTu4rFSJMOfwQcXZ0ydZGfvMNqwVFeZ3tLW9eQzQHowDAtOcK2jUqnAqYdP6n3NYe2RCLqJXmGRcgS2FnRW2RQEO1qaKUpEWSt2IEoVxWOxokygC0x8BbUP9PYAcYm2+hsvcrSjKKRVxYM0lVybJHiryIp6iiK8ozoGFL5fwpaLsUgFHks8uzE7nMVOYe+NTErZs30yNomPppEAqwZ+M9cUGegT6Ovl52Hk6W3k4W/p52Af7uVPxAX6eTt9/9amXm/PBcqUu+ez0B3smjXCacwUQBLnMtF9XfZOaFCMXZU8uvQLsrCCFgiD4PNY+ZxtzQgjmUd1dePmhXGEm3YXoWFEEXg8CWo2m/+B+qYOtKZXgLxVnyyXZUlGWFPKI4sjFXJ1IxdBOaL+Io/tIIc6GRJKtkPAUEr5CwpeJskuEnGJBFiwccT67gJfBZ+9hp+/M2LMjJXFLQmzY9s3UaDqeTgoO9vPYsPanmM0R3Z2IagH9Ens9kzpJWpn+XOHE4fLVK7/aGkaQi7LlgiwFlI4JqQfxZm0QmXIBA3Zs5Mgl/NgoYPUPXxfyszSqnkmyMtBuoAigCEw1BLQtzY0xW8LsbTawM5LKinNk4iyZiI2IVMSWQtss+C30Vy5my8VZzxGIWMjEHKmYKxVzZRKuXALrIYr4iqIcRVGOvIgvF/Nk4mypKLtEwBHlsQU5rGCMR2igT8PD+zBuGlQ/OtXWz2j9nf5cofbuTauNa/H+HlIBt0ycPUnyNioECFdgK8TZolyWl4utk41F7Z0b6N012mpFP0MRQBEYFYHfzpx0drLGBnvJIPVA9iAtYMlELKmQKRMy5UKGXKQTplzE0glMI6AjdfRCBtOLAZIhRjQQA/oJGfxWBvGJbEURXybml5UWxkRSXB2tKi+egfuoBkE1+oU26nRNpQ+nP1fo7WwNxXh5OloW57PLxdlKYZZSOFn0CnJRlkLM37czduOalXt2xqn7EaXCuKdam0orFO0rigCKwNgQ6O3tTk1NsbbauGdXrLIkRzqgVGDJRExE5CKGQpQ5RBgKEVMn8sHDdMcP2RjgELAqgi0TwzKgsciSi7lSEVdZkrc7YYuN+dpyqRjurwYEVSCIaBfQ77SxTeEkPmr6cwVQq06IjbYzWyvITi+bNFxBDusVFCKOJI+F9fdwtjWvvHh6cJ2gurtBJND/KAIoAmNGoKrqpp+flx/GvTCPKS/iwe4IbPh5z5CJIBmJKzAUEIGARA4fgxyp+zuiEmK4BiJLDusYFEV8dlqS1cafWWm7YHWCFgT7B1ULE5Ftesw4oQe+DAIzgCuAYAGPvenXVay98WVinlLw5vUKUGYFhCuIOYyUHY5WG1KTd/T1dAxOIOoTNIgE+h9FAEVgbAhoNJqcHN4mS9Nt26KKxbxSMQfhCrC2gCEVZUpFmTJRpvwlhQFno4cMFpA546mwZSLI40Em5igk2QXcVGebDVE0rKoXqWXTh3KFsc3eFDhqRnCFk4fLLdf9HL8ZKJfkKIVZb9y3Ec7CBFWCKBWw6IQAHzfba5cQCx/KEqbAPYN2EUVgEiJQX//Q39/X3d2Jw8koEfNKRRzoKS5iy4RMqRAiCpAIM2UvL7AvNuz0IIXaRAT2l4QcJDkKCbekkBWKcfZxtXp0/wYMEcIVNEMsEZMQObRLY0JgRnCFO9cvO1ubUUP9yiU5ZSLOJOEKSgmbk5HobGOasC2yt7sVni7NmCYNPQhFAEUARWAIAmp1v1gsWLNm1dat4RIRvwQKT+BARemELDg5bKZUmIGIDEoB93LCkAlggbLNIsKUCllSIRRnAQdTcBRF2dFAkNmab86eKId71we7LKBOjkOmaspuzgiu0NL0EOvv5edmpxTzy8TcN8UV5IKMQcmUC5nKIs5meoizrdnh8hKYd2tALcoVpuydhHYcReDNIfDg4f2QEMymTeuzIaVCTomIi3AFGcwVZEJIoyB9SYqgIxY6ncQwrgBdAqp+x5aJs8pKeDu30VZ/v0KUx4S/01SDLgtq+O2bAwi98isjMCO4grq/e8fWSEerDaUCTpkkW/GG4iDgpM4ZcmGGXMhQiNnivAwv501RdPzjeiQc+bmlWV55ltEGUARQBKYfAgMmS5W6TyYTb9zwMx0ILRHxS0XZUiFsgBCyZAImpAwQIpL5shoFHV1ANjIHGxywSkDaC4guZJUV87LS4jf+8nXcFiqohkpFoFxh2iy7GcEVQFCbx2VarFvFZ+wuK+IpRWyFgKkQTHQupgGuAHkYMaUi1q4dEfZW66RF+Vp1L+w2jCoVps1thQ4ERWDiEGhsfBAZQbax/JXDTJaKeaUIUYAMEDBRGOAKr4soZEAeD4gxQvcXKpYLcQVlUbY4N8PeYrW3i1VXy0MYAiRsEo3tmrj1ME5XmiFcAaw4sn/j6pUJW2nlRfwyMUc54VwBsj4IM2AnZIZczM7jpjjZbAgJ8HhQc2vAADFOM4w2iyKAIjCNEdCqjh/d72BjSicHloq4kEujkCMXZcmFbLmAKRcw4Pywr5EoPJ8rQAERHJmI4+9hu/7nr+9VXYZRR9IxoV7bU34JzhSucL/qqo0plL1RKeaVQy4LE6pXgAMfBomCiCkVs3fEUL/+bBGbsUfV3wmHFaFKhSl/L6EDQBGYcAS0HW1Nu5O22VisZafvhMpICjlyIVcuzJJDmeyZCgFDAdGFcecKcPboLEi1UMyPBoJ/+GpZxVEljIYuF9OEY4Ne8LUiMFO4QvuTBoyHk7352pJ8drkke6K4QiZs6chE7lU4qwlTLmYV8PZ5u1mZrV9VCYVKqkCtLrvZa51btDEUARSB6YyAFgQ1Vy6c9vNywgZ6SgqyZGKeFCIKHLmAPYQrZCK/VV6Ts8LIegUp5LIAcYXykpx9O7es/HIpPysV/mZDszBNkyU4U7iCur87JoL609crcpkpcFUIJM1zhkIwfpKJkHqE18uFUEIFKJOJmL0nabPFhlWJcdFd7Y/hmCKUK0yT2wkdBorABCKgVfd3ZzH2OtiYpiRtlYp4UlG2TJgNKxV0XAHyykI8pSaCK4jYZcX8PM7etau+jKIT+nuQgpMgWhViAlfFeF1qpnAFENTksDO+XG68Z0e0Aio4Od7ujU+JwgBjEMJ51+HwB0KIp4eL9ZULp0Ft/2D8Mer7M15LHG0XRWC6IlBTfTMY4xHg65rPy5BCSoVsGaRXYMPfb4gNYsCDezBaWxe2/SobUN07yA1iQJgyAQsSuDyEAqqCzXWy3uDpYtP48B6MPFoMYjoswJnDFcCKw+XffrJ4MxWrFPPkQoQrMMYnGgIxPUCWQkSUAiZUsErIVog56SkxdpZrdyXG9PV0DoYgI3nNpsN6QseAIoAiMCEIaFX9vXk8tvnG1fHbIkuEOqUCZIAYrKY7Tl5Z0PfbELowyBWgpEyQe6OyiE8M9jJfvwr6OQS90O+3CVkR43yRGcQVam9fN1+7CotxU4izFaKsQcef1x45+TuNgoChFEBEQSnilBayKDgfO8tfK44hec1UsF4BVSqM8zJHm0cRmG4IaGqqq3w9XRxtLXI46TIxH7Y+cBWCLJgosMc/49yzdAFJ4AhHTvKStof/+vM3ZTLJoOM2Ggcx5dffDOIKPR3Nof6eDpbrJHnMMgkPvpcQP+HXSBee1SjAegUmlP1JmFUmyeYzk51tNoRRgluaamEbni4HKnovTfl7CR0AisCEIaBW9YqFeatWfhUdTi4W8mWQrnQoUXjt32wj+nXp6AJTKoCSPUMiYiuLeTnsPetXf8dMT9Gqu2G9woQBg15ovBCYQVwB1Kp2J21b++NXfNae8qJcmIAPM+m9sp/jCBoFBaRUYELWB1FWWRE/bjPZwWqdrCgP1PTCGc1QrjBeKxttF0VgGiPQ+OgBlYy12Lg6m5UqE+fKhNkKqCoeYn2AiAJc9X7AKeGVv9lGJAoZT4O8BAy4lBTEFWQidlkJXyrKtrVYuzmC3NP+BHVsnB7rcCZxBRCUFQt+/v7zvUmx5cV5CgEXvrUGQpBf2XFhZKKggDwV2Aohu0zCLc5nujuYAQT/hge3IdWctg+mC6rBsq3TY0Who0ARQBEYXwQ0GvWhg2VWFuvDqbgSAV8m4suFnCE+CnBCBajw/YCMG1cY4BBQTCbk58iUCdlyUZaymFdemhvg5RCMcX9UexfmCqjedHyXxAS0PrO4wo3KC+t/WRlGCpGJ+AohT1Gou8GQEMqBdAgIX35x9vAsXZBDuVDYEN8XcpRi7q7t4Wt+/FyQy4L1cv1DiIIuXQnqMDwBax69BIrA1Eagpblxe+xma4v1Oew0uShHDikVkPK5TzUKQyMkx5srQGGZiLcjzBUUEu5BWX40gHW1t6iE3BtRf6ypvd6Q3s8srtDR0uRiZ+XlbCvgMeQCvlLILxPxlEKuEnqcs2GvAqZCOFQYCiFDIRzgEEjcEXzjwVHLT+tGIvz6Ga7AhBySB4hCtpCX7mKzwcXO9M6Ni/DNo1MqPEMUUAI+He4rdAwoAuOGgPZMxTFXJxsS1l8uzpMLeUqIKGQhzowjpmicAK4A0wXGQBEpUdYBad6ehM12m9aVy4pQrjBuK2FCG55ZXAHUqCIA0obVP0YDhN1xmzOT47L2JXDTk3JZyUJeqiQvvSQ/UypgykVspThLKeGUFXGUEo5SkqUUs5VilkIE50iA/kLbcuFAunX5YGzkgCcjlF2VpdMoKERchSh7946o1Ss/y9gb39fTChsdEK6gS5auy26GcoUJvQHQi6EITC0Eers70vfsst+0MWN3vELMh1waBzwVWBBREDxTExJ6OwFcYdAMwZLBkZNlxXxu5i57y/VZmftArXpqIYz2dkQEZhhXAMFiUaG1+YZfV33v4Wgd7OOKcbfHeNgF+TjiAlwpWM9ISsC2KHxiLHV3fERGSiwnIzGXvbuQlyrOSS/OzywtZCrEnLKi7LLi7LKibKWEqxBzFOIshTgL4haiQRFylAIOpBWE8qJwFWKeOIcRinHzcNx0+/r5QaXC87jCiNOE7kQRQBFAEYAQuHvzaoifN87fU5LLhokCB84WA7lpy4Uj132YeK6gkGQL+Znujptiouiqvm505qYBAjOOKzTUP+QyMy3Wr90eHZ6blbFrx9atEWSAEBDo4+TjZuXuaOZo/auV6SqL9T9Ymf7sYmfq624T6OOEC3SnEQO2hOF3xkWkJcey0xL5rJQCXnpRPlsu4iklueVFeQeK8w+U5B8oztsvyS2X5JaJcxQinlzIk4v56bvj7DatY6Xv0qi6B0MldRkbUY3CNLiP0CGgCEwEAhpVX2EOx9naPCV+iwz6eoGqP8ig6g+wp8Kb4wqIDUKGRE6KsmQibqmAG+znFujr3txYPxHQoNcYZwRmHFcAQbC2+k6Iv28Bj9Pd0froQe29u1U3rl46U3Hs6CGFoiQ/j5eRvmdHwraIzRGkMEooMdQvwMfF18PBy9XW3cnK1XGTu5OVp4stxssJG+BFxQVEUEJjIyg7YyNTE7exUhKz03bnMfcKszPFOSxxDqukgCvKZVFw/h4uNtcrz8KzqXmOV+M4TzXaPIoAisAUR+DB/bv4YAzG3akwOxNJvjTIFaAUtM+r+zABegX4Egz5U67AUUhywimhtps2Xr9ycYqjjnYfQmAmcoXujrYwCnlLRJhWrRq+CjSgpk/V19Xd2drW0tj4qK6m+vb1q5fPnjl58tjBA8oSiSCXx85I37srKW7r5ggAIIbiAn0DvF393J383Z39PZz93Rz9XOwDPRxxfh7kEL9wYsj2aFoEFWtpujpmM62zrQn2VEByNerqRaGxD8MnAX2HIoAiMBICqv4+UUGuxYa1MZG0UiEfLinJlQmyBvUKb5wrZMoFSFKmLJmIoyzKTdoeuWHtKnmJZKTRoPumGAIzkSuAGs2+5N2ONtZPHg1VjiHPbCR1ue4vMp1Q7Vetul/V19PT1dHe2tz46OG9u7evXrl07kzFySMHykolotxsbua+fUlxO6LokWQsFRtACvUnhWCo+CCMl7OXm71cJtKoukAQSb6EtK+zPkyxRYN2F0UARWDiEXj0oDY0EONgbcFjpSkk+YgNYpJxBQZUREoIc4XiXFZa0sZff9q9K3HisUKv+NoRmJFcAQSlRcWrV606feL4EEAhQgD/7lcPrxM9+u9+LahVq/t6uttbWx43NNbX1d27U3W9svLiuYvnTv926ujJowcUUsmBcmlDQy3cbD98iaFxkkO6gG6iCKAIoAiMhIBWq1EqZKtWfkshhMqKBIqiAhkcBDGEKzDeoG8jbIOAUj7LBCw5HAqhLM4p4GXYbNqAwwb19vSMNCZ031RCYIZyhauXr/y6Zg2bwRgyVwhX0NEF9WBY8BiDGHVKAuR45K1aq+lX9ff09/UMUgT14MboFGRIv9BNFAEUgZmNgEajqauro5BJ8+fOoRJxpRKBVJxfKoLqRQ1yBTgOQvDG4iCe4QpyYZayiF9UmO3t4WhnY/mwrm5mT+B0GP0M5QrNTY9dnJwoRFJfb++QaUSe3zoDxBhZgq4BHV3Q7XlmQ0dHXrTlZ9pB36IIoAjMFAT6+vpu3ryZkZHh4uz806ofHW2t42I25/OzigQ8mShHJoRcFuA61Cy4TvQIdAF+kE9AloWnegUo5YM4WybJpRCDV//8w7nfzsyU2Zq+45yhXEHV378lOtra0vJBbe3wyf3D5/3wwwfejeUslB+MCB26E0UARWBkBLRabWtr68mTJxMSEigUCpfDkZWW4EODnWxtosNp2aw0uThfLsqRCbgIV4BSLAgYMihychhjeCNcQS7mKorz4rdFr/zuK2FhwcgjRPdOHQRmKFcAQVAiEn33zTcnjh0bPlljeeoPPwN6pztr9I3fn4juQRFAEUARGAEBrVbb0NAgFApoNFp0dLRcLn/y5El/X9+pE8dpFLKTnTVAxOZns2SiXIWQLxcM1IOQC5hQGafhXEEumAClAlR2UuevAOsVIK7AzEj55aeVcdu2qVVo9sYRZnkK7Zq5XOFa5dXvvvmGzWJptegv/im0YtGuoghMfwT6+/tv3ry5b9++wMCAhISEc+fOdXZ2IsNW9fdduHAuMoy2yXQ9CReUm5WhEOdCOd9gS4RcwIIiEZ5qFyAdg1yYOSF0YYAryJA6OLBeQZjPtbEyD/T372xvn/7TNq1HOHO5Qmtrq4O9PZVC6Rq8Caf1RKODQxFAEZgaCPT29v7225nY2FgMBpOWlnbnzh21etiPcrVaVXnlYlQ43WLjWhI2IIedJhPnwH6OUA5HWFgyIRMWBsIb5BNRFeIpV5ALs+QirrwoV1ZcGOjvY21pWXvv/tRAH+3lcxCYuVxBo9Fs3brFwcGhurr6OeCgu1EEUARQBCYOAY1G3dTUtH//fjqdTiaThUJhQ0PDiJfXatVVt27Gx211sDEnYQO4jD0lgmyZkCcVcqRCNiwsKUQX3gxXgPiKMEsmySktKiDiQ77/9puK4ydGHAi6c6ogMHO5AgiCIpFow4YNJ06gi3iqLFe0nygC0xYBlUp169YtLpdLJBKjoqKOHDnS/kd6+5r71bt3xXu42of4e6anxEN0QcwrFXJKh9IF2B4xDnqFTIVAJxlKIbSN+CvARIFdUsjisfbsSoh1c3FcsXzZvj17Wptbpu3kzYCBzWiuUFlZaW5uxuPxUJeFGbDU0SFOPQR0rsJTr+sv2GOVSnX58uUdO3aEhobu2bPn8uXL3d1jKs9Yc7+ay8pwd7b1dnNITY4rFmRLh9MF2BIBpX9+tWiIzN+dzlAIEMlUCiFRCBlyIRMqH1XIEvFSU3duJgR7Bfp5AGSSv59fAAYjL5WiSZlecF1MosNnNFfo6Ojw8vKMjo7uQdOKTaI1iXYFRQBCACEKuhSn0xiUtra248ePb968GYfD5ufn19bWPuOgMPrYmxrq8/kcFwdrF/tNyQlbiwq5v6MLUErHV6ALmTAtGEYX4FwODCSjg0KYoRBlKsUspZhdlJuWsWtLOMHX38MGF+jJYaZdvnTx0oUL0ZGRBBzu1MmTmuG+F6MPDf108iAwo7kCCIJbt2719fWtrx9aGGLyzA7aExSBGYqAjigMLZ0y/bBQq9UPHz4sKCjA4/Hh4eFlZWUtLS+jqG950lSYx3O2s3R1sEzcFiXKZ8vE/FIRVyrKkgrZA06OUDTEsOf971QFz9M9IFwBKmU5IBDzYA4KQybIlIsgxwg+IzGGHuzrYuHvbrNze8TxQ/LHTY+QWTtVUQFQqBQi6dKFC1qNZvpN5bQf0UznCrm5ufb29hcvolVTp/1SRwc4lRDQpTjVZVFFFAxTaQx/1Neurq5Lly6lpqYGBQXFxcX99ttvY7Q7jNhwW8uTYnFBgI+bs53F9i00UR5bJuFJxZCrI8QVoEoNjJfjCnLYEeGpIkHIUIiYChFLIWIjUpKfUcjdnbwdwGGcMa7WkeRgmZhfe++Gqq8DVg9B/e3u7j529CjGzw8AgGuVlS+kOBlxvOjOCUZgpnOFU6dO2dvbFxcXTzDu6OVQBFAEnoeAjijo/BV0G887Zcrtb29vP3z48NatW4lEIpvNvnv3Tn9//yuOorOj9YCyFBvk62RrFhNFEeRkysQ8qYgjE7JkUI4mKKsjTBfGrl2AVBGwxyISgcmEmhKy5CK2XMRWiLlyMUeQvS95exiA9QnycQwjBedxMm9c+q27owUulafWcQUQBLu6ukpKSvz9/aOioi5evIjShVec7gk+faZzhfr6el9f3927d08w7ujlUARQBJ6HAMIV1CDYq1JPv0RpWq22qalJLBaTyeTIyMiysrKmpqbnQfGi+7s7208e3U/GB1qZrYmgYgt4mZAlQsiWC1mwMOVCxJTwPHPDM/sHiYIAisMsHZAsSF0h5hYVsBh742gEjKfTJnygF5+dfunsqZbHjaAaIT0IwRs2gra2Npns/7H3HlBRnOvj//nf5Ca/5OZ7ozExiRqBrfRqQ+yx0gXpKr23bdNnF7ArxRKxK/YaVBSlWsECUsQKAtKx0HtZ2Pnf2YUVFdEoEAO75zmcYXb2nXeed2A++9SLrq6uAoHgyZMnr70n++Xz1sBwZ4X29vagoCAWi9XU1PR5r5RsdjINDCMN1Le0pt67fyIq+vKNW+UVVUPGv93R0ZGXl7t9+3YPD4+1a9empaV9it+h1xuirbUpPTWZx/I0NZiHAr7HD+6IjjxwkbQE7BM7DvbFRu6JJVMc38CCXn8Vs0LkXgkonI+MOB+5//zpA2dP7du/Z6MA8XVattjNyXrjhpUpyVeqK1+KOoS9TqnnzoaGhsjISFdX1w0bNhQVyQo09dTNZ7093FmBIIhDhw5ZWVnl5uZ+1gslm5xMA8NDAx0ioqi8/PDZqGW+/roGRobLHQI3bY6/cbOsovL9D6LPW0XNzc2pqamrVq10dnYODw/Pzc0VCgfkmjraW+9npQfioIXpIojjdSQiPPpPidcgIvZMRNyZfbGn90oSHd/1UxLDGEM2ud57IXIfaVE4vf985P6zpyKOHtgWuhb3dLVeamPIR/wuRJ0oLS4gRK9Vlux7HWpra48fP+7i4rxly5aysrK+D5a9+5loQMYKxPXr142NjWNjYz+TJZFNQ6aBYauBquqaW2mZqzZvmWNlzfx9Hm3ePMbChaoG+oYurkFbtsYl3ywqey78RxkZRCJRS0tLc3Pzy5cv4uPjBQI+m80+ceLE8+ddCQIDttadedkP1q0S2FqaAP7ue7eFRP8ZEXvmgJgVunCBDFGMlAQx7ImN3Bt3em+8RCL3xpG2hz0XI/d0g8KB6DMHThzesTl0BQp6+3osg7juh/aHP8nObG1u+IhLqKqq3Ldvn6ur69atW0tLSz9iBNlHBlkDMlYgcnNzra2tN23aNMiql51OpgGZBqQaaG8XPi0oOnD0hJMfe7KpiZqpiY798sme7jpuLopWFjQjQw1jEwNnVzxkY+z1myXPX3z+wCAiiOrauvsPH56Pjo48fXr3nj0gCK1bt+769eu1tbXSCx/AjU7h09zHO7aGOdgtcbW32hsefOH0gdizB+LO7I+J3Hf26LYju0J2bw76Yz0aHozv/WPliX1hMX/uSTx7IO70/thI0g5x8XTEhdOk0+HPY7t3bV2PAt6ujtYY5HcoYtvd9KSa6ufiAMaPDCl59uzZ7t27ly1btnXr1vLy8gHUg2zo/tCAjBWI+vp6Npvt7e396XHI/bEisjFkGhheGhCJRJVV1VeuJ+Mr1yyysdMyMNS2tdb19pzI8dPm+mtw/NR9vdTcXRTtbKlGRqqGRoscnfkhG+OuJz2rqPw8NdXe0VFYWnrl5s2te/b4cLkmSyzm6xtaWNtuDd+enZ3T2to6eNMWdZSXFe3dtdXKzMDT2W7XH+suRO4/f2rfrs0rEJaTg+Ui0/lT5umpLZiusXiBrsdy0z/WY1HHd8WeORh75lDsmUMxZw6dOxkRsSMsAGG5Lrf0cLLdErom9caVypflnR2tPXMcPu6KysvLt2zZsnz5soiIiMrKz3Q1P+7Sht6nZKxAdHZ2bty40dTUdOCtgkPv/pFdkUwDn6QBYUdHdl7etn0R5k5O2osWaS0xm+TsNIXlpwNw1UCOMhB+RHwAACAASURBVMBWAthKPLYKl6XG8lX3dFdetpRubKyqb7Bomf2KTVuSUlLrm1s+aQb9+uHm1vb72dnHoqKAFStMnBynmZpOMTCYusiAoTNx5kKDK8m3+vVsHziY6Fl5yaljBxyXWjouNQ9dg68WcBfrz9BSHEcb+/3YH77+6bt//fjtv0Z99xV1zA8LZk6AWW7H929LiD4Zd+74yUO7glfibvbWDrbmq/jQpYtRZcWFwrb+VHhJScmmTZtcXV2PHTtWV1f3gZckO2zwNSBjBVLn586dmzdv7rVr1wZ/AWRnlGlgeGqgQySqqKm+cvsWsGrlVDNTxUUL1Gytdbw9tLhsNZCnBIFMGKBDAB3i0UEeA+Qqghw1gKPJZWl5eSrZWNMWLtJYZGDp7vVHxIGbd9KqagbFqt/bUnUKO+rrGwpKSq+npOw6dtwTRWdZWSnPn6dibDhpqd1MF+d5bu5axqaKM2at2hxe8qz3vpG9Ddyf+xrqak6fPLLMxsxowcyZupoKY0bI/fx/Wkpyi2ZPNjf4fe60Sco0udHf/78f//u1prICxPI4GrF955Zgnp+7vc0Sro/74b078rMfdLYPiEWkoKBg5Uoy3vN/eaT9nhXSn0oc3mPJWIFc/4cPH+rrLwoNDR3eN4Ps6mUaGCQN1Dc33Xlw748DEbYsX83FxoqWi7W8XDW4LCWAS4dAGgTREJgGw1RSICoM0mCQDoMMiKcEctV4bE1/H003VzUrK+VF+hP0DZZ6+fyxe+/NlDsVlVWDdAHi0wjbhC+ePU+5lXro2HH++mBLX19dK0tVUxNlyyWqy+0m+Hrq8thTOKwpfn46zi5UfYMJxovD9x+uqP57sKaupnJz2DoNZdqvo75TGDvKeMHM4FV44sXI1BuX4qNPbdu41njhrJ++/+b7b77Qm6Dm6bTU193J39N168aQtFvJZNWEv5Lp8JdWobOz8969LIFA4OHhER0d/d7umn9pcNnB/aUBGSuQmqytrXVycnRychpUV2J/raFsHJkG/jka6CCI8oqK0wlxLgiga2Gmam6i5rRUi+2jjgBMBFJAYDkEkUcQCoJSEZQGozQYocEkN4gFpMMAE+KqgFwNLnuCn4+Ok5PKYjPVRQZTTRfbuHsFb92emplVXfcxkfl/SYU1dfWPc/OiL8atD93k5O0339pm4mIzlSXmKsvs1N1dNP19NLgsdYirBvFUQZ4al6PB8td096AbGs+zWXbsbHRTy6eWaPxLs5Uc3NHRviN8M11h3Ij/fDV9ivbBPeGlRfnC1iais729tbHyRfmZk4emT9b87usvfv3x+7kz9LaEbrh57cqz0lJh24CYE3peQnt7e1bWXRzHHRwcoqOjGxsbe74r2/4cNCBjBXIVJCEL8+bNKyws/BxWRTYHmQaGpAYaW1rTHzwI2bXTwMWBaTBfxWaJlperJsBSQUAGiiigiByKyiGYPIIpIDgFwakwToOxbmIQQwMC0RGACQNKEE8N4GhxWNo+3lrOzmpW1oqLDDUXGdl4+W0/cDTt7v36pv50q0uWo4MgnlVUJqWkbD9w0B8XGC5drmu8WMfUTNvGVtvJSdPbS4PDUgG4SiCPCfGYMMiEIVIgUBkENHk8DVc3+nx9/WWOCUm3Bz+Po6aqwtvTfdTI/44a8R2P5fO8vPiN4MTa6kqYy/pxxP+N/L/v5s2Zk5aS0vHJZac//DYWCoWZmZn+/v5ubm6XL19ua2v78M/KjhwEDchYoUvJ169fnzVrlixkYRDuOdkp3qUBkejN9DMR+XrtsSIUCj/i36h4HFGn+NXR0dHW1trc3NzQ0FBbW1tVVfXy5cvy8vLi4uK8vLycnJxHjx7dv38/KyuruLi4v4r2d4iIZy8rT52/4MjhTDQ1UV5spO60VIfrq4nwlFCQjiIUFJNHcLHw5RG+AsKnwHwqzKeRgkmIgYogVASmIhAVAWkIwIB5ihBPGeCqczla/v4abm6Klja0RUaTFlvY+rC2Rhy6+zC7VfimSt+l/D72d4qIhpbWnKcFkTFxeHCIqYvLpMWm6iamauZLdOwdJnp6TWCxtLhcNRBQgkEGDNPISZI/aQhCR1A6gjBgRBmCNDkcRdtl42fOsfFhpT96/Nq69nH6fnqrqKDAUH/RN19/9duYX44fOfgGKEhOcvbUSYaC/Pf/+W7GtGnpd+7005k/dBihUJiamspms1ks/5s3b7795/ChA8mOGwANyFiBaG9vb2pqSk9PNzIy2rZtW27uk8LCwvLyshcvXjQ0DLgxcwDWVDbkP0ADb/8fbG1tbWho6OzRrretra24uOj582fSg9va2lJTU0+ePFlcXNzrRba0tOTl5SUlJV29evXSpUtx4tfFixfPnz8fFXX29OnTf/556vjx4wcPHti3b9/u3bt37ty5bVv4li1bQkND169fHxQUyOfzcRxHEITL5W7YsCE5OfnjuiRLpyciiJqGptt37wXv3D3X1pYxf56y5RIdbzcdiKWG8BQxiI6RoEBBSUSQRwQSUUAECoiAAgvEuNBlXaCSvgmEgsAKCKSAAgooSEFBKgLQYUARAlQBQIPNUXF1py2xoi4y0jQwceTCESfPpN9/VNvQLJ3Ph290iojGppai0mfXU9L2nDjlGxCoZ2FJnTuXoq/PtLLUcHXV9vXT4nLVAVAVgpRgmIkgDJIMUDqK0sQiBgWMjmB0BGXAsAoIqfmzGFbW42fN8eQHPC4c1ArHeU9yF86b99WXX8qPHxdz4XyvekhPSdXR0Pj+P99NnjDx2pUrvR4zoDuFQuGNG8l+fr4AAKSnp/cXqg7onIfJ4MOXFZqbm4uKCpOTk8+dO3f48OHg4OAFCxY4OjquWrVq7dq1GzZs2Lgx7MiRI8nJyY8fP/7Ef5fD5GaSXWavGpA+6aXvCoXCZ8+e9bypJBBw4sSJnl6w/Pz8gICArVu3VlV1hezV1tauXbt2xowZFy9elI7Wc6Oqqio6OjooKAjtfvH5/IDuV2BgYEBAgEAgCAgQBAUFdd/q60NDQ8K6XqGbN2/etm1beHh4aGgoBEEgCJ46daqi4mXPs3z4dqeIeFpceuh0lAuETrGwpBkZqDkt12T7qENsJYTLxEA6htDEoKDQTQlduADz5WG+AiyxLmBUCKXCCBUmWUEBgeVRUB4F5FFQDoPkMUgehRXE9gYGDCkCgIo/W8nNg2ZuSV9oqGtm5Qpi+45F3nuU09D0oX73zk7iZUV1RuaDo6fOBm0IW+bHmmlrq2xiLGdkqGBtqezhrsZhq4KQMggrQggDRkkaQHE68prQUJzWtbMLF5gwogRB6n5+400XK8yZG7AlvPRFv3WNeu+iFD59aqiv/+8vvhg96sd9e/b0evyVxEsqikoj/u+/elN0byYn93rMQO9saWn5Xz8tb29vHo8nw4WB1vaHjz/sWEEkEtXU1GRlZZ08eXLdunW+vr5cLjcoKGjdunWBgYHBwcGbN28ODQ1duXIlDMMsFovNZvP5/F27dt24cePFi+c9v/Z9uJZlRw5dDbxm4haJRLW1tS0tr77FCoXCvLy8tLQ06fOeIIj8/PwNGzYcOXJE2rGspqZm5cqVEyZMOHXqlPS7VFpa2oIFCxwcHKQA0dzcvG/fvqVLlyYnJ/Wq0qampkePHsXGxl68eDE+Pv7y5cvXr1+/detWamrqnTt30tPTMzIyMjMzs7KyHjx48OjRo5ycnLy8vIKCp4WFhUVFRSUlJeXl5S/Fr/Ly8ps3b65Zs9rLy2v79u1Pnjz5qzd/ZU3ttZQ72IbQecvsNcyXqC5dqubhpgmwlWEuA+XRUJCGgVQUpqKoAul94MvBpMh3CS4P4fIQpgBhFAilgAgVgqkQTIFheQSSRwBSSGKA5DFYHkMUUFQBRagoaflnQrAyAKr7s1ScnJnmlspGJtMt7ZxBdNexU+kPs2v6JIam5ranhSVXk1M2bd/j6sebb2k72cRMy3yJqq2NsrOjsrenEpulCPIYEEwnPSM4HeHTxEJHBHSE/w6RMgRGRxAVEFT29v7VwEDd1OyPw8erG1/dLb2uaX/trKqsdHNx/c//++abr792c3F9+eLN7M2GuvrgdevH/vrrT6NGmZmaPn74sL9O/VfHaWhouHDhgr29PQAA9+7dk/5F/NVxZMf3owaGFyt0dHRkZ2fv3buXy+X6+vquWbNm3769sbGxd+/effLkSUFBQUlJcUlJSWFRYU5Ozt27d69evXrkyJHg4GBfX183N7fQ0JBbt241NsocE/14B/5jhurs7OxpIejs7KyoqMjPz29peRVDV1ZWFhERcfbsGenOqqqqNWvWGBoaRkdHSwuD/s9HMGvWLCcnJ2njnObm5k2bNs2dO/fs2bPS/4wvXrzYu3fviRMnpDVqRCJRWVlZZmZmbW3NuxQnFApbW1vb2tqEQmFHR8dffcD3HLa1tTU7Ozs8PNzJyQlBkJSU29K59Tys1+28wqLwfftNXdw1TRYrmVtourlqsv1VeBxFBKCjAA0FqWKhICDpU4BReRiTgzA5CFeAcAUQUwBRCoBQeDCFB1NJgWgASANBKgQqwIA8zJODeXIkMUAKKEQRAwe12/JPI+MDYCUIVOFy1Px8VZydGBaWlIX6qgbGS7xZ4UdP3s3Ja3uN8cgrqKlvTL/34NDJ0zzBysUOrnom5jr6xtrmFjr29tqeHhr+PkpcFhPgMiCQzMhAUBppReDTkYAe8i5WkO7HaSjGgFFlEFT09BxjYDDNbnlk4pW/0HapV11/2M729vbdu3bRKJQv//UvRQZjz67dL3v0pGhqbIyLidVfuHDEf/+rICcXJAio/lsLKdbV1Z06dcrGxobP52dnZ/f80/uwy5Ud1c8aGC6s0NnZWVtbe+3ataCgIA8PjzVrVsfExOTm5tbW1kr/g/eq2oaGhsLCwqtXr4aFhbm7u/v4+Bw7drSsrEx27/aqrqG68/nz5zExMTdv3pTGFba1tR09etTLy+v69evSboHJycn/y6ZxcHCQQkBlZSWCIJqamseOHZN+trCwcNWqVbt37+7ZFyA/P//KlSvPnj3rqcO6urq/N91cQifiroAubDb70qVL1dXVPWf49nZtfUNySiq6dt3Uxeb0RQZqy+01fHzUeVwlCGDAIB2F6CgoYQUKAlAQQAEGKBCsACHyAKzAQ+gAqghiyiCqBqEaEKYBY5oQpgEhqiCkBAAMgKsAsOVA9niIPR7mysGAPEkbEKUrkJCMJRTHCsA0hEywVIS4KgBbleXDcHL81cho1MzZyoYmDjD/SHTso/yilnZRS1tn2fOKpNupm3btXebLmrnEWsPAWN3YbILtsikubpN9fHVYLDUeWwnkkoWhYIjM4UQwMSgIelCChBikTPDODSrpmMDIUEcQpDk7j54739jT+/aDh4MT5/jo4UNHe/uRI0Z89e9/T5k4af3atZcSElNTUm4m3zi4f7+ttc34ceNGjRxpbGCYGBffMTA9MN++Yd61p7a29vDhw3Z2dhs2bHhXgM67Pivb3+8aGBas0N7enp+fd/z4MQRBBALBqVOnCgsLpP/fP0SnnZ2dz58/j4+PDwoK8vT0DAkJSUtLkxqQP2QE2TGfuQb6hr8bN24YGBh4eHhIm9wIhcLQ0NDZs2edPHlSCgGPHz8GAGDDhg1Sj0N7e/vt27ePHDmSn58v/Yrf2dlZVlZWUVHxxkn/0j05mPqsq6tLTEzEcZzL5R44cLCoqOiNmUsmU9/c8jA3d/fRY7Y+vtompsrmS7Q9PLS4HBWQpwiBdASmoWJByIDELoF5VIhLBwAlENLBBLNWrzP/Y7vD3v0eB46wT0RCZ6Lgs+eQs+fB02e9Dh+x3bFDPyR4ciCuDHMVAL/xgP94khu4CjBIIes1QeIaDAgNIZ0RFMlZUB4d4TFhnjLIVWL5ydkvH21oKKdvONVqqU/AmoOR0REnzwaEbLb09Jm82FzZyFjZwlLL2WWyr98UDncCGbfIUwHJFE06TM6fQeY1YAyUz0AFDCRAIj2I4Z2IIPFN0BA+FcGpCEZFUDoMM9nscTY2Y3+f64LgWdm5nW+ZOvp9iVtbWi5GRy82Mflx1Kiv/v2VvJzc7JmzjA0NjQ0MJ+rojBsz5rcxY/UXLDywL6Ly5UdGqPTvnKuqqnbv3u3k5LR9+3ZZDf7+1e1fHW3os0J7e3tOTs6WLVs4HM7OnTszMzOlFt2/qixJkPnhw4f9/Py4XG5iYqKsIulf1eFndXxbW1tNTU1xcfGDBw/y8vL6WM27d+86ODgIBPwX3V5ekUiUmpp65Mjh7OxsKQS0trbm5uYWFRVK9xAE0dra2tjY+OHW+89KRdLJtLS03L9/Pzw83MPDc/364Kysey3Nr0IFO0RE6YuKM/GJ/kFBs5baqpubqS1fpu3nqwGQ1ZpJcwIC01FSxAUZIRr5aOfRYR4D4KhA3GmBAqs//kBOn95+81ZUTu6louIbZeXpLyuyqqrvVdfcq67JrKq+UV5+8enTA3czV8TFOB3Y+3vwGhUUkOP4/cbxkwe4FAgQl3eEaTCZV0lBoC4fBwZSMICKAnQEYiIQE+Qq+vsynF3oZhZqRma6JlY6+qYTTJZoWVpr2ttre3tqcvzUQa4aBKhAoLjONPkpOgozUISBogwUY2C4mBUCGGhgt0jdEO9lBZyCYN2C0AGQ4eenYGFFmT0XWr0+v7hMqu2B26itqbmckOjp7q6qrDzi+++//7//G/nf70eP+vG3MWMnaGu7ubhEnT7z/NkzUY98nIGbzIeM/OzZs23btjk5Oe3atesNq9uHfFx2TH9pYIizgkgkys/PDwsL8/f3P3jwYFlZ2ad/dauqqrp06ZI4CZiVnJz0T38G9Ned9I8YRygU1tXVlZWV3b179/r163/++efWrVtXrVoVEBBw5MiRl+/+LtXQ0JCampqdnd3TY9Xa2lpfX99zD0EQkkoG/wht/NVJdnZ2lpSUHDp0xNfXn8cDYy7G1dXVkzDU1pF2/9H6HbsMnF00zBZrLV860dtL3NYBIM0J4pKLdASho+Q3fjoM0yGQAQFKEKAKAbNWBi3btWN1TMyZx9mZFS9LW1uqRaI6gmggiCaCaO6WJoJoJIg6gnguFD6qrUkoKd5257bbsUMz1q1iAhx5jr8CwKVCAFkcGiZrG4hDJiEqClGwLqFhCJ0UWAmF1SBI289fc7nTmGm/j5yoq2W3XI/FmghwtBBABQWZKMggHSUwHSWzH+mYRDA6hpOg0AsrBHabFt7DCvQuuwJOhTEqjNEgmAGAqt6+4w1N1BcahO2OeFn1zjCUv7pYfRzf1tr28MGD/Xv3AVyul7uHu4urr7c3hiD790Vkpqc31JNr+lm9SkpKNm/ebGNjs2vXroqKwcsc+ayU8LdPZiizgkgkev78eVhYmKura2RkZD+asFpaWpKSkvzEr/v37//tqyibQB8aEIlEdXW1hYWFt27dOnLkyLp16yAIcnV1dXJy8vX1hSBo3bp1+w/sv3HjRt/lNIRCYU9rQR9nHNpvVVVVX758lcMBHB2cDxw4nPMkLzrukjOLq2NozDQy0nF1nsRha0OgGgwqkk0cIDosqUdEJhbSYIQBwQwQVOJyJiKw9datwZevxBQUPKqpregUNRJEO0EIX5cOgpBIp7h4UKf4mFqCKGxpuVReGnr7xpKd25QAjhzLl0b2khDjgpgVaBhCwxAq3iU0DKNjGB1HmTiqjKJaIDTRjz1ukfH302dP8PCagsCaKKSCwUwMJtM4cYRGIgL+tnwiK3QnSuA0GKfCKA2ClbmAqoeXgoGRnoX10ajoVuHghC4QdbXkH0Xukyc52dl5ubnFhUW1NTWf7Tef4uLi1atXW1tbHz9+/KMNw0P7D3Ogr24os0JNTc2RI0fs7Oz27NnTM5e9X3Ta0tIiyeoJWhEk9WH3y8iyQT5OA2SBw87O9vb2+vr68vLyJ0+epKSkxMbGnjx5cvv2bStWrABB0NXV1cHBwdfXd+XKlTt37oyPj8/IyCgoKKiurpZmLnzc2YfVp9ra2tLSMgICVri5efEgzNDSVv33+Rpm5hPcXCcDXA0IUEFgRQRmih38ZHkiFCNFwgogrAxCs4JW+Bw8fDzr4cP6hiqxCUFCCRIgEHVjwbs8+J1inqgmiMctzYefPLbbvVMT5tHY/jSAS4NAsrAjClMxlIpjUqFJHvw4zsBxJoapwYg2BxhrvOTbGXM0vX11UEQVQxQxlEEiAkYjpRdQkKCD1AdBRwPpWCAdDaQhAaSg/F6lmw+6rA5kjiVKZlpSSYWgDABW5vCUXT3kFuiburhfS0l/11UPq3vs7YvNz89fsWKFp6dnVFRUfb2se/XbGhrYPUOWFZqbmy9fvuzq6rp27doBiqGtra09fvy4lbXVvn37ZHGOA3uffsDoxcXFSUlJ0dHRBw4cCAkJWbFiBYIgIAgKBPw1a9aEhYUdPHjw/Pnz169ff/DgQVlZWV1d3Wf7LeoDLvdvPqSjoyM/L//gwaPGZlZjlVR1La1n+/lN5nE0IUAFBhURmCGuY8hEMCYZDIgzUJyOknYFJoRMCQhCzp6/XFpW2treSBBtYlNBB0F0dotIvCHZI+GGXq+2TeyqKOwQnszNcT8YoQMDdLY/Qxy4QLohSFbAqThO4/NpOCl0nM/oElwFRrR40FhTy39Pn63q6a2FoSoYwhSDQrctgU/H+N3bPbmBT8cEDIyMVyBBAQukoYFUNEAsfCrai0jIQFKGQQIKXYeRDS8wGoQyAEiFAyg5uNAXGNqzgIz7j2S40OuKP3nyZPXq1R4eHgkJ8b0eINs5cBoYsqyQm5srEAj8/PwePXrYxyOhsbGxj4i29+r9xYsXAoHAysoyJSXlvQfLDhg4DdTV1e3YsYPD4aAoimFYUFDQ1q1bDxw4cPHixfT09JycnNLS0urq6tbWFpkfoR9XobKyGg1cPUZVY6aLywweRxPkqkKgksSiACNMBGUiuCKZNUCK2LSAKkHIguDQP58U1IgpoachoUMMDS0ioq5dWNHcXFJTU1hZWVRVVVJVXdHY2NTZ2fF6DwOJdaGZIIo7hGfznjjs2q7GYSkCXCoIUGCIgkpYQUDjB9D4AjouYJASIP7JV0FQLQAet9jqX1NnKLp5aGKYEtplVBDzAQkEYnkDF6T7AySgIGYFCSgIegWF9+zsxgUmCKuzeUzr5bTZC3zQwMd5BTJcePtG7ezsfPDggZub2/++BnzK/+23R5btea8GhiYrCIXCyMhIR0fHqKgoofCd7V+bm5tjYmKOHTt2+fLlW7duZWZmSB4q9fX1HxgCKRKJUlJSrKysVq9e3e9ujvcunuwAiQYkKQk2NjYbNmy4fPny7du3Hz58WFZWVlVVJfMsDPRNEr7v4BgN7anOzlO4HLLFIgQyYZjRDQpMlM9EBWSGIcpnIDgDwVRA2CRsc2Lpi3ax8aBrBcVBCc0EUVJfn1rw9Hx62u742A1/nlxz/MiaE0fXHT+2Pfr8+fS0u6Ulle1tEnuD9LqEYhdGcXv7wcwMw3VrFVn+FA5bAQIVEISCYVRcQMVJXKCTlEAKHRfQcb4KimmD6G9m1v/f5OkMZzctFFMkwxjFMQ2k90HKBHxJqebun1Ivg4CGBkiEigrE0otF4T2gIDZC0CS4AKMqIKLhy2aaWjJmzcPWhRWXfxZZi1I9fyYbbW1tAoHAwcGhZ22Sz2RuQ3saQ5MVKisrBQIBBEF9B82WlpYuXbpUU1Nz7ty5hoaGlpaW7u7uCIKEhITs2bMnOjr60aNH73UuNDc3b9u2zdbW9s6gt2Ub2rfmh19dY2Pjxo1h5ubmd+/ebW9v7+jo6DX7/8MHlB354RrYdeT4aA2tiU5OE7gcJsBlkvGMMAMmLQoSUGBiAiYWwMQEDIRPsgIAmQSHXSoqb+9hJOgQP+/Ti4p2x8WAe3bYrl+9AIemQyw90F8PZE0HWXMgtsWqQN7unUduJOXX1vRsVywSWyOaCeJRU1NA1DlNNlvO20sO4Ir7S6FUjE8KLqB12QkEEmeEMsbXgfHxFnb/mjKD7uiqiaBiVpD6GrpYgdabT6EHAXwkJZBeCUzwKriBLLqAM2FMDUB0vPypBiZaC43C9x9rahmcio4fvtp//5ENDQ0wDPv4+MjsCoO8GEOTFVJSUhwcHI4dO9b3MyMrK0tbW/uLL74YMWLEyJEjf/zxxzFjxsjJydHpNGVl5RkzZri6uu7du/fhw4d9j/Po0aNly5bu3r1bZt8e5NtXcrq7d+8uXWq3du3apqYmScriEE5c/Fs03MdJI/48M1JNXd3eXpvHoQMcMhMBhsm2igjOQAVMTKCIByji3awAoyo80GRDyBus0EYQ5W1tG89GmuCQLttb1d+dyXKncT1oXC8615vB9ab7uyv7ekzw9zZfGbT5QvSDFy9bxKghMdR3is0SNQRxsbDIdMMGOQ/3cRx/eRiUJ00LuBgXXrECHeMzcFwZ42vDuLzV8i90Z9GWO2vCiCJCdrF6w37QAws+0mzQ6whScOn2dIi5AcEVIUyTB+l4+tAXGv5uvexc/LXW9kFKi+hjiT+rt/7XssTNzW3lyhWyf7aDvC5DkxV2795tb29/7969vrWZlJSkqqr63Xff/fjjj6NHjx43btxPP/00YsSI7777j+Q1evRoHR1tDofTd2JkS0sLjmMsFuu95W/7no/s3Y/QQHNz8969e21sbNLS0j7i47KPfKIGjpy/8F9lFUVbW00ehwpwaGS7BLIKsjhGQaCIBShigYpYIBMLYCB8JoJJWaGthw+ilSByG+vZu8IneLso+7nS2R4UwFsO8pGD/eRgf3mYpQD603n+iiwfDX8ffRwLiTr3uLq6RYwIUr9+O0EUtQtXX4hVY7HG+HnLgTx5BKZgqBgXXmcFjK+M4loQTrF1/HLqbIqdgyaIKMFkcWgqivf6dO/fnb2wgtjMQEdwJRDR4oLqDs6UuYvM+OShPgAAIABJREFUXL2vpmRIL/ATV2pofDwrK8vGxmbv3r1D43L+QVcxBFmhoaGBzWYjCPJeh1ZcXByFQvnhhx9Gjx5NpVLNzc0NDQ11dXWVlJTk5ORGjhz57bfffvfdfxQUFP6XkS+t8N/r6h48eNDKyiozM7PXd2U7B04D+fn5bDZ7/fr1EqNCD8P2wJ1TNvIrDfwZn/hfFRWatZUGyQpcKlkNCaXBkuKGAjEoBCliQRJWINsmSewKxWU94xVaCOJJY73f7nAtX1cljged66kAeI8HfX6D/MfB7N8QjjzCo8AAA+Qpctjqvj5GgYH7rieVtbe3iXFBMhsRQbQSRGLJM/01a8b6ectDXaxAxflUrCcrkEGLyiiuDfPpy1y+nDpnvNVyTQBVgjEaiv1drCAxMNBQPgNGlXiQuh9byXYZ5feFy9nQg9yCV+rutqZI0kOGIUZcunTJ3Nw8ISGhp05k24OggSHICsXFxWZmZnv27HmvkerEieOjR4/+6aefRo8eraenFx8fn5ycfO7cuX379vH5/N9///3HH3/8z3/+8+233zKZzMjIyD7W48aNG2ZmZqdPn+7jGNlb/a6BlpaWyMhIJyenW7duSWsmyhwQ/a7nPgaMunbtv2qqCpZL1LkcKsB7gxWYaIAiRrICAwugo3w6+SAEjYNDEovLetoV2ggiv7mBtTtcy9NR0cuJ5u0s7+Pym5/7OLb3OIA1HubJo5ACAlERmA6Cyhz2BBbba8fOW6XlzeJCCz2nV9Te6bX/gDzLTwHiKaAIhcyclLBCAB2TikAZ4WvBfKaD+5e6s8ctsdMCMWWkJytIAhE+KrXhPSEOpC/jbbtClzMC5dNgjAEiylxQ05dFW2ItP3Mud/WGp6XlPa9RCgrDkBVOnjxpZ2f74MGDngqRbQ+CBoYgK6SlpS1cuDAmJua96tu+fdvIkSN//vnn0aNHL168WBIzLxQKGxoaioqKjh8/Pm3atJEjR37//X+/+fYbLpcrqebba+xCQUHBsmVLt2zZ8t6Tyg7oRw2UlJTAMCwQCKQ9mqXxCv14FtlQUg28/XC6eOvWD9packvM1DhsCSuQ5QjF/ZrF6Q8BTNIBEUTHyFJFVBhVBEDD4JCE11lBSBDPOtrDoiLt1q00X7fSdMNqo5B1BptC523eqL1qJYVsPA0roDAFRagwrAiAGmzuQn7AgeSb1eLAxp6zqiOIdQmJqghMgQDKm6wgLodAEoNACRFowwIlZ68vpsz+1dRKG8JVEJxOOiAkPghBd8mEAcGFd7ECAxPQEZwOY4ogosqDNLz9FUzM6HPmrd+xu6L2VfWhYcsK7e3t27Zt8/HxkZW/k/5JDtrGEGSFc+fOGRkZfkjBg5UrV44cOVJiWnBxcXlD6TU1NWw265dffhk5cuRXX31lZmYmyYno9WtrZWWlr68PhmFvDCL7dUA1EBsbs3z58qioqB42pJ4PjgE9+XAc/G3lXsrMGKs39bfFpmocFgXgUSCIQnZvwmmogI72KEIgZgUKgjEByCA49A1WEBFEC0FklZfGPXwQ/fjR2ZzHkblPTuXn7c/Lc408q4iiCggij6EKKEpFEAYIq/FAXS4YcPREcWu7sIfbSTLOoXsPJgcFUkEe9S1WENdNIgMJFWG+NixQdfH5csrsn40sJsB8FbIChDSAcWBZQWxakKZlSgo5dP0UZ4vgDBhTAhF1ANby8pFbsEjPxOzQn2camlpI49nrMqzuwv9VYQ8ICODz+U1NjcPqwj+Hix2CrLB3714zs8WPHz/uW79CodDX13fEiBGjR4/++eefQRB8+/gVK1aMHTt25MiRX3/9tbGxcWMjeYP2ygr19fUwDPv6+opEsrjltxU5IHvq6+v5fL6fn19+fp70BL2ujvRd2Ua/ayD54UPK7NljjY3V2SwqAFAgSEHKCuKyht3FDckv6BJW0A8JjRfbFd4gjzaCaOzsrBWJKgniOUGUE0QOQaxLTlWFUSqMKKCYAoJRyB4KiAoAa/vzXEI3Z72ofKNAUxtBnHtaMGP1KhqPRyWbU2PdeRAkuLzBCmquvv/WnT3awFwHwgeZFUhcQHvDBTKzlBQmjClDiDaXq+PsTJ8xy8Da7tqN252iYc0KL1++9Pf337RpU0eHsN/vZNmAfWtgCLLCpk2bLC0tCwsL+77yxsZGa2urESNG/Pzzz7/99tv69evfOL68vNzNzW3s2LE//PDDN9984+jo2Iddobm5WSAQuLu7y27iN9Q4cL/evn3b3Nx8//79PQsu9fRB9OotGrj5DM+R7zzJU16w8Fd9A3UWiw4AVNKugHbZFXphBZwBQCQrlJS19siDkKpOUt1ZKI5SbCKIMoLYciNVkwczIISCYPIILg9jFAhV4iEavlyLgFVJuU972hUIcfjCxYLiOavX0Lk8CoJKKhmIYxt7YQUNd/+vps75cdFibRD7W1jhVYmF7l4S3c0jcDqMMiBYncfR9fNVXaSvNFn3wJHjHW+xwhu8JdXkkNzIy8tzdXU9evSo7E978Nd3CLLC5s2brays3ssKL168mDv3dwkrjBkzhsvl3rlz5+nTpyUlxWVlpXfv3g0NDZ04ceLo0aNHjBjxww8/hIQES4o59vrNtampic/nu7m59VFPevBXdwifsam5ae3atUuXLs3Nze15mTJW6KmNQdh+VPZsoqnZ6HkLNPxZDAkrIGTmIemDeI0VAqiogILgTDErxJWUSzIe3zVDST/JlwSx60baJABRBBAqTLKCHIwrgCgTgNX8OCZoYOLDnJ41nQhxWkRsYfHc1WsYXB7ZnIkMJAwQi7R3Q7cPAhFoerK/1pv7wwITLRAdfFZ4Ow+TtDQgEsFpMEqHIBUua6K3p9KCBYusbJJvp73hgBhWoEAQxO3btx0cHC5duvSu20a2f+A0MARZISIiYsmSJdnZ2X1rLS8vb+LEiSNHjvzll19++uknbW1tC4sl7u7uPj7evr4+dnZ22trav/zyyw8//PD9999Pmzbtxo0bkgF7ZYXa2loAAPz8/GTA27fa++vdzMzMJUvMt23bJgk47TmsdIFka9FTLQO0nfuiQs/C+sc5c9X9/JkAjwbD1D5YAcYZILQoNCym7FmT2Hgg7QchbRwl2ZD0hqggiD230ieDqBL4ihXkIYwOwCp+bGM8MPHRkzeM0UKCiC0o/n3VajqHK66txBenP3T1eSLdEOLICSVEoAXzNb05/2/6vBHzjbUAVHVw4xXeBoUurwTJCjgpEMIAASV/X5qVhZah0R/7D9Y3NL3BCgO0pp/tsKdPn3Zxce672s1nO/l/+sSGICvEx8cbGRmlpr6nmVNGRoaiouKoUaMkrPDjjz/+9BNZkennn3/+5Zeff/rpp5Hka8Svv/6qoaGxcWOYtGm69FHUc+2fP3/u6ekZFBTUc6dse4A00NDQsHnzZnNz80ePHr19il4X6O3DZHv6RQOFldWzbZeNmjVb3deXCXDpMERDURqZTSCgdXdi7G6wRNoV6BA8NzTk+NOCp8LOwpa2spa2Zy2t5S2tZS0tpa0tpeRGa1lLe2lLe2l7Z3Zbx8ZrNyfBuCKEUmBMHibtCnIwRgMRZRbHYvW6q3mFb5RB7iCI6LyCWYFBdC6PStZhfJMVJBkZSghfE+Jr+XC/mbHgv78baHJhtc+GFSSNMxgQxORx6S7Ov86f74LgjwqLJeslxYV+Wb5/1iBhYWFeXl4lJSX/rGkPjdkOQVZ48OCBvr7+hQvRfa9QYmLi+PHjR48e/euvv4wdO5ZGo40dO3bUqFESRJCUfFZQUFiwYMGaNWvy8l6LnusRed11kidPntja2u7cubPvk8re7RcN3L9/z97efs2aNa2trb0OKLMo9KqWgdhZ2dxm4ub5w8yZ6j7eiiCPAYP011ghiE4mTAZJggqpCJ8GIxNWBHn/+efahEsbYuJCLsaGXrwYHHNhQ0z0htjo4JiLITGxoTGxobHxIQmXVidett8XoQ5jdAhRgFF5GJMTCxVCVAHIKXxH6vOKN3wQ7QRx8t5DPZzP4AE0FBN3gepq8tTd7anLB6EJ4Tq+vO9mL/pu1kJ1FkiyAoaLKYcv7gX1Cd0jX+VTSBMrPmhD4oMgm3PCZJMtpo/PGGOTKbZLT1++1iTsGG4ehzdu1/b2di6XC0HQe4vsvfFB2a/9ooEhyApVVVVLliwJDw/vkUfXi66OHj0yevToX375ZcyYXydOnAjDMIvFsra2MjQ0XLRokZGRkaOj4+rVq8+dO1dQUNCz7WSvz6Gr165aWFh8SFGHXqYi2/VXNNDa2nr06FE7OztZs66/oraBOrZZRNhxeKNmzpKwAh0GaSjSw64QREdX0NEVNDRI/Kjmk+WfEVgnQDA1QDAtgD9NgOsJ0KkByNQAWC8AnhaATA/AZgTg0wP5ekEBuisCtQSkKUIBguUhRA5Cx4uFAsJaGI6eOZvT2tbyeoxkM0HsuJ48EUaYAEh2wSY7RpKs0F0vgQybkORMakL4RH9wxDyjb6bPV/HlilmB7Ach9g4MbC2mXh0QEh8EgwQFXAXGNHiQnLXtuHkLVu+NeF5bL3HWDNQq/hPGraioWL58eUhIyNtux3/C9P/xcxyCrNDR0cFms/39/auqqvpYn82bN48cOfLXX38dO3astbX148ePnzx5kpGRfuPGjatXryYlJd2/f7+srKy7cvCrkXplhf379zs4OOTk5Lw6TrY1MBooKiqCYXj16tXvbQE6MOeXjfqaBoQE4Yxio2bOVPX2YoI8GgzQUJjMVCQD+wNJo4KYFcSmhQAaIqDBOBWGaCBAB7h0gEMDWFTAnwL6UUBfKuhLA3xpgD8NZNFAFgVkUyAOBeIqQKA8BMmDsBwEj4fInxQeMHPN2n2Zd58RRHMPVugkiCqCWHH2nDoPZEJwT7vCG6zARPgaED6BBf2wwPRrvblK3ix1lM8Q945614N8EPaTNZ4RXAnGNCBE3ct39NwFJj7+94pKZXnYBEE8evTQ1NT0yNEjb5t1X7sjZb8MjAaGICsQBLF//34LCwtJ3d9e9SYUCjEM++6778aIX97e3tK8O5FI1CF+9fpBSX2FN96qq6sTCAR8Pr++vv6Nt2S/9q8GhEJhVFSUk5PTlStX+ndk2WgfpwERQXgFBo2cOV3Zy4MB8WgIQEUhKtmEqRdWoCMBdLEbggZBNAigQjySBmA2BWZRIH8F0E8B9JMH/eUg1niY/RvMHg9z5CCuHMSTAwE5AJQDSVEAAFUIdjl4KFncq621+9EhEidMPqyp89y1R5nLY8BkcYV32RWYCK4O4RPY8KhFi7/SnaPk6adBNtHG6GQVKbLywSCQQW+nwBkIpgohmmwO3dJmkvXSI3GXmjo6JTEKH7dAQ+ZT8fHx+vr6l69cHjJX9M+6kKHJCuImxUu3bt36Ln92Q0ODq6vrN998M1r8AkHwU+xaycnJzs7OJ06c6Nvr8c+6Mz7P2b58+RIWv16+fPl5znAYzoq3IXjkjGmKnm4SVqAgvbMCmUJJsoKAjmB0GKHDEB0G6TBPCQMnrBToBGFMgKXA9lHg+cmBrN8g9jiI8xvEGQ9xx4McOYArD/DkeTwFHlcVho03btybkVHY2dnUo3dUJ0E0EMTJ1HTjFauYPB5DXIjpHayAMxFMHcImcuDRBmZf685SdPfWRMWsgOIkzfxNrEBBcSaMqgOgor2jsql50PY95XX1kmJTwzxYgSCIPXv2GBoaypIg/q7/MEOTFerr69etW+fu7v6uzMlnz8oXL178xRdffPvttyNHjvxf3dCPfszX1tauWLHCw8Oj15j8v2tdh+p5r169Zmtrd/z4cVkdi89niVfs2Dlq5nSmuwsTBOgwSEVgSXNnGhpARwMZaJBYAhnkNmlXoJN1CVFFGFaGQFUImLthLXDhPHThvPnmjdoAh+nvQ+X6yQH+v4Hs8SBbjgQFjgKPTeFx6By2Bgha/bE1PPnGo4aGxtd7UgsJIre2Dtq7X5fLowMAHUFpGC7uyfR2vAL59V0NxiZw4F+Mlnw1ZQbD1UOLZAWc0WVaGIzO1G/ZFXAqgilCsLK373gDYws2kPo4r0PsYZHZFTo6Ovh8vp2dXd/9fj+fP4qhN5OhyQoikSgpKWnZsmW7du1qbm5+e9levHjBYrG0tLRUxK8dO3a8fcwH7rly5YqpqenOnTsbGxs+8COywz5OA83NLevXb/Dx8c3OlsWFfJwKB+RTGw8f+WnWTEVXF0UIYsAwDUEkaZN0TMBAA8SI0AUK4m5SAgbKV0QxFQTRBMEZOI5FRSVXVaVWVR178NBv//7ZOKrK9qWyfeTYPuPZvnIcPwUui8Lypft56yKI/bbt+1Pu5NTXN/YIU5B0SagniNNp6Ua4QJPFpoEQDcHEoCApwfRGbKPY1A9jE7jIGBPLLydNpzq5aiIYE8PJcMhBj1roqt5Ido1CVXjgOAtrrSXW+8/H1Le2SzMkh7ldoaamxtHRkcfjSQrtD8h9LBu0Tw0MTVYgCKK2tjY4ONja2vrKlStvfwdtbW3NysqKioo6ePDgrl27srKy+tTSO98sLCwEAMDDwyM7O7vXmMd3fnJIvNHRKaqtbyh99qLk2cuSZy+Ln70oJn++LC4npaj0eUFxeX5haW5ByZOCYlKeFufkF2fnFT1+UvAgJ//e47z7OflZ2XnpD7JTsh7czLh3MyPrZkZWclrm9ZT0q7fvXL6Rkph0OzHpVuL1m5eSbh47dXq5g/OhQ0ebm8kmOrLXZ6KBbSdPjZ41Q9HFWRkGGTBERxE6itLJ7+g9WSFACgoMDFdBME0Ino5irAMHE4pKnhNEJUEUtwuvlpZuvnTJI2KvUej6GasDJwnQCXxkapBg3rrVy3ZsW3Px4vnHOU8bG9/IfZC0jMp8UcHbt2+Cn78Kh0uByFwMCSu8ngQhyYPA6QimAmM6APabuc2XE/TkljpowCiDzJkkO1N3Z0MMUtSCOFUSFzeAgJXcPX+dvwgM2VxUWS3hAykufCbL/bdMIy8vz9DQcOvWrR9tAP5bpj2UTjpkWUEkEmVmZjo5Ofn5+b3LO9DW1tbQ0FBTU/OusIa+V7qiomLXrl12dnYXLlz4uBH6Hv8zf7eTIHKLSv/Ysx9evR5cG8JZvcFv1Trflet9V23wW7XBb+UGn6C1XgFr3PkrXbAVzmigMxrkhAQ5woH2oGAZD7floNZs2JaH2wK4JQ81Z0NmLHCxP7DYHzD14xn7cI282AYe/ovcfPXdfI3c/Zb4cH5fYmO+zPHxk/zPXDPDbXp7z0b9MnumorOjGgwqIhADQRgIykAxBplZIMEFKSiQRgUGhqvCqC6Ge+6OuPAkv6y9o04catBIELUEkd/QmFRWdjLn0c70lI03r4fduPbH7RsH791NKC5+VFtXKexo6w5mlOhZAgo51XV/xCXOw/kq/iwmAFBJB4SkM1Ng76yAYsowpg1iclbLvtSZOs56qQaM0jFM7D3BujtTDwIrkAmcdISvCONqIKrq6/+b8eJZjq437mdLakzJQEGyyjdv3pw9e/b58+eH2x/X53O9Q5YVCIJobm7+X3UEe3v7devW5efn9S+QVlRUnDx50svLa9u2bTU1NZ/Pig7aTOpa2sIPHNU1XjLHwXWeN2umN2uqN2uyN2uSD2eyD0fXl0uKH2+KP6DrD01hSQSewoKnsOEpHEQiugA+FeJP6VN0If40RDCfv3LiUkc9M8vkjLuDdo2yE32IBo7Gxo2bM0fJ0UEDhpRhmInATARhouTX9G5cEHQbFUhWoKOYKgSbbdpy/EF2abuwSdyQuo0g2sSJDK0EUU8QL0Sdxe2tBa3NBa0txW2tzzuEdeKa0G9UaZQ0gMirbdh79aZ18EZNLk8RAOgwmS35XlZQgjEtEFOwsf9SZ+qvFjaaEMLAUBqGihM+Bydegex8TSNbSuKqIK7NgWlWdkqGpn+c+LPhde/DMHdAEARx5syZOXPmpKenf8gNKTtmIDQwlFmBIIiampqTJ0+6uLisX7/ujSZDn6LNurq6U6dO+fv7bdy4cXgWHO0kiNSc/EXOHhrW9jYbt1nvijDdc0B/78EF+w7Njzg8P+LwgogjC/cfXXDg2MKDxxcdPLno0KlFh08tOvyn/pFI/aOR+sfOkHL8jP6Js/onohadOPuG6J+M0j8RRf4Ui/GJsxYnzpiE/aG8xJq7Pri0ovJTlk/22f7VwNlrSZS585SX22tBkCoMK5KsADNRlElGC/KZpGmhp/DpCKoCQsv3RiRX1TeI4xPbCaJdvCFpBiEU/9ouRgdh9/5en5dCgiiqa9x7+bpt8MbJIKIMgHRYHC3RFdVI9q+S2hVoSIBYBOKGCxjJChBGtXX8t47ez4stNUD472EFmM+EcHUeqursSV1k4ipYkfuyUtomo9er7t/l+0eMtmXLFkNDw+LirkLX/4g5D7FJDnFWIAiiqqrq0KFDy5cvX7FixePHjz99/SorK48dO+bh4RESEpKbmzsMwxRIrTa2rtx7iGFmYxy23TEqziI6wfhi4vyYS7/HXp4Te3l2zOU5pFyZ3SVXZ1+8Mjvm6pyYa2K5Pjv2+qx3y+zY63Nik+bEJs2O65J5Mdf0oxPNT5zRgwWaFtaHLsbKqtN8+p3cXyPEp6Qx5y9UWbpMB4TUYFgJIXFBEUUVUVyRDGPsCQpiuwKCMrnAgrXrd92887iqVtKcWkIJPT30751eg1D0+EXFjthEy9VrJ3K4agCgCMNdtRpxAQMPYOBkH2oJLkhAoTtpk4xtJH0QEEZf6vzVBL2fjM3VAYhkBbIyxCD6IMjiVHxFkK/qy/3N0Hy+k2fcncy27vwOGShI7oGmpiYYhu3t7WUFbN77RzFwBwx9ViAIoqKiYv/+/Y6OjgAAXLp0qbLyY76VikSihoaGrKys8PCtrq6uISEh2dnZHR0dw5AVhARx+U7WbBefif7wsqg487hrC+Kuz05ImpZ4Y2riTd0uuaWbeGtq4u2pibf1ElL04sU/E1L0ElL1ElKnvlv0ElKndcv0xNTpiXemJ96ZmZA6KybZ4Fyi4d7DNBsHGwjPL3s+cH8VspH/kgaS7t5XXWSgbLt0IgipQ7ByFy68mxVQjMEDNbjAkrXB6yPPXX+U86yhWfh6FELfE2gQdpbU1MXefbDmxJ+mgUET2WxVLkcZAhVRlE5aFPh0EhQCGXgQAw/qZoVAOiIt8ECyggqM6oAoc7nz1zpTRxmYavLEHx9sVuDTIb4yD1NY6swwtgiOOFrV0irFJhkrSG6D8vJyFxdnGIbfjlLv+z6RvduPGhgWrCDBhTNnznh7e7u5ue3evTsr6251dfWHP+abm5vz8/MjIyNxHPf19d2xY0deXl7PJhH9uCSf/1DltY3Y5h2K1g4G4fvMLlxeGJ80K/HmtMRbupdu615K7ZY7upfSdBPTpyam6yVmvC6ZeomZU98teomZ016XGYkZ0+NT515MMj4TrxsUrGbjuONUFJlPJnt9BhpIy8nXMDRWsrbtZgVECUaUEExiVHjbrsBAcUUIUeYCOmzufBjz2hy+PSbu6uPH+dVVFW1tzd2BC8JuH4TEJUHGMYhEL1pbHj5/di49fcv5aPfNW+ahqDaHrcrjKMEA6fvAyCAJOs4XGxVesQIdlYBCIAMJYCACBkLWYlKFER0QUbJ3/kpnyg+LDHUAUBlFGb2wgqQ3xKfHOeLikMlXP2lkCUtcGcQVPdm/LFxsycNTHj+VtMKShTT2vK8fPHhgaWm5ffv2njtl24OsgeHCCgRB1NXV3bp1KzQ0FARBPp+/ffv2q1ev5uXlNTQ09AoN7e3tdXV1xcXFqampR48eXbt2LYIg69ati4m5WFZWNmwJt1NERCen/u7uNxEUmJ6KXnjxypz4G9MTU6Ylpuglpuolpuklpk0lJX1qYsbUhEy9N+WuXkKWXkLW1IQs3XeI5ADpz2kJWdMT7k6Pz5gRkzI/OmnR4bMaPpCJD5iZ83SQ/1pkp+tVA49Ln2sZL6YvserBCqgSgiuiAom8Hq9AuiGYZNEhRIUHqPqzJ7DY8zHMecvmFadO7LqUeC4z4+qTnNtFRSnFhXdKizPLS7NePLtTWpzw+PGJO6nhl+Kw40fswoLnCrCJPI4qh6UEcJkwwEQhJoYwcYxBgoLEAdHNCmgQAwmiI0EMJJCJBDARAdnIEUHVIHgCACk7OH+pPXnE3IUTeYAqgjIRVJIz2V3pmQw/FIvgrdJJf4kecLFrA+vxE6fBOB3CVFngb2a2Ey3tD8Vcrmluk0UqvHGPiUSiy5cvm5mZxcXFvfGW7NfB1MAwYgWCINrb20tLS69evbp9+3Y2m+3h4cHlcsPCwk6dOpWcnJSWlibpIHX//v0bN25ERUVt3rwZx3EfHx9fX9+wsLCYmJjc3NzGxob+TakYzPX+9HOVV9d7rw7RcPbS33PI8MLlOXFJMxNuTUu8IxG9hDt6CWl6CWlTE9L14tP14jOkMjU+Qyx3p8aToiuWKfF33xbJAdKf0+KzpsXfnRafqReXPjPm9sJz1+Zt2a9q5YIHb21savv0K5KN8IkaKKismWC2hGpmPgEA1EAyFUJqV3gV24gJxKWZpLELOANBmRDMBAAmh6vEZmnxuNNQZGFQoPn69cu2bHHZudNlx3a3nTu89+z2i9jnuXvX0k2bTNatmbciQA9HtECuEo/FBDgMkEdHQDoK0TGEgaMMHO8GBdIHQccCGVgQA13xOiuQpKIEI+oQPAkAVRxdvtSe9N2MOTr+bA2InDkdQckq1Ii42DPSkxU+BRdeYwUSRxCMAWHKXJhm50hZaLJyx76SqjpJFI7EqPCJizJkPi4UCg8fPmxhYfGu1Pchc6Wf+YUML1aQLEZLS0tZWVlqauqBAwdwHDcyMvr99zlubq6enp7u4peHh4dk28PDA0GQHTt2XL58uaCgoLGxsVcLxGe+xv04PSFBHLt4Sd1i2WT+atOzsfPjk2bk6Yz1AAAgAElEQVQl3JyemDotMW1aYppewp2ppKRNjRdLXNrU2HSp6Mam68amT4nNeCVxGZN7k1cHxGboxmboxWVMi8uYFp85NT5zWlzanIu3TE7ETeIEahtaJV67/erqZC6JV7oY1K2SuoZptnYKpou1uRw1EFCCQEWYjG0kSyZjfLGQoECywishMyfJpzKM0CGYBkJ0AGTyACUuT5kUQJUHqnIBNR5PAwA0AVAdAFS5PGUemRLJBAEGCFBhkIZANLKeNEwjcx0xOo7TcQEdDxAHK4ijGsny0ivo3UYF0q4ACxTJps+oCgRrgpAuD9Rwcv1CU+frSbrqLm6aLDZ5FhBSghAmjDFgnA7zqYiAbI/ZBQ2kLYGC4BJ53afQt5nhTVZgIKgqgKh6+MktNLbjII+Ly4WyG7i327alpSUkJMTR0fHj4sx6G1K272M0MBxZQaInkUhUW1ubl5fHZrPNzMx27ty5e/fusLCw4ODgLVu2REREnDlzJikpKTs7u6KiQtJZapiDAkEQuSXPzfyh8VYOcyOOG8Ymz064PSMhdboEFBLTxKDQzQpxaXqvs4IEGsS4kD6FhAZSJsemT4p7TSZ3vzVFzBaST+nFpk+Ly9SLz9SLz5gem6p/Lkl/1wnlJfbOHKS0pOxjbnzZZ/pPA88am/Td3BUWm2iyfVUBjiLEY8IgAyXLFXRFGopBQYILr6CBrEFE1k+kIxgVRkmBECqIUEGUAiAUAKbwICoPpPIAKgDSAJAGgjQIpsEwlRSEipAJCzQMp2HkTyrGp+ECGh5AwwNpYosCDQ2iiSlBygpMOEAR5ivBmBIEqwGgDpc3xY+lZrP0O+1J30/SldM3kjM1V7CyYzi7KXr7K7N5SjyYCWJ0CKfBfCrMpyACCoIrkIKJBaUgmESoCNmDu6dQ3vz1NVagI5gShGj4cWnm1tNtlp+/kiwDhXfdj3V1dQiCAAAwbOPD3qWZQd4/fFlBouj29nYMw4KCgiorK6urq1+8ePH8+fOXL1/W1NQ0NTUN26CEXu/C+hbhH4f/pJhYTwhYvzD68jwSFNKmJ2RMS8yYlpgu9jukTRU7IPTiSVD4BFbIkJCExBTRhQtxGRJW0ItP+/3iLZOzV+avDNMytow4dKypsZeWH71egmxn/2qgs1MkIoji6mozXx+KiaGGv6cKz58JcsQNJyEahpCVEMnHOb+niHs/8kkbA5lOSVYtpCHi2kcIToVxKvlgxikwRoEwCoRSIIQCiwVBST4gEUGS1kg+m2mYgIbxqaQIqFiAWAJpWBAJCl2sEMhASJGAgjKMq0KIOgBo+rPUnV3VrGx1l9pbsHh+60OXI4Lfndy1LGwZphbjjZeMM7Mab2uv4OxJ9WYxOCCdB9NAlAphCjDaJQiigCCULkEp5CX0FAk6SPe8ilSgI5gijGpwIWV7ZyUD04DN4dVkdwvZq3cNlJWVeXt7h4WF9f62bO9gaWC4s0J1dbW7u3t4ePhgKfyfep5OgriZlb3Q1U/Zg2N0/Pzv8TdnJqSKKeHutMRMvYQMvYT0qWIhwxTEoED+7PJBpE2N7RLd2LQpPWRybNqkOIl0WRfEdoVMsRuCNDzo9vBiTI0TRzwkpM+ITZl/8YbF0ahJbv4Wzp5p6R/ZzuOfuhiDPm+hUNja2lJbW1teXv7kyZOMjIzk5OT4+PioqHORZ89uP3BgoqH+b/Nna3q7qnJ8GDx/GsilIiAVJRtO0jCMiuOvhEQHcVrja6wgCQuQWPvJUobdgtMQjPzWTor0uSspqtjdDqobEahYIBULpKBB1G5QoImTJBmIgAnzlSBMBSLjGbUBSMvHl2llo2hsauTpE3rwSPL9x/llz+7l5sffzjwQFbti2z4HNGiOs5faErux+ot/XGT602KLX2ztx7l6yvv403ggHYSpEESBSaGKhQLDCghKIVGGbCfRXaGBnLA4UlLSY4Is3kBDUUUYVQcRTW8/qtFiKz9O6qMcmfOhjzv6/v37Tk5Ox44d6+MY2VuDoIHhzgo5OTnLli07efLkIOj6H32Kl7WN+OadTLOl88IjTGKTZySkTItPm5ZwV5zmkCGhhFesEJ8+rZsYpsbd0Y1NISWGlKmxUkmdGntnSmzq5LjUybGpk2PTJpMuiYzJsRlT4u5OicucEpehG5euG5c2tVt046Q4cmdm7E2T85cWhoVrmtms2LRNFuT46XdXZ2dnU1NTTU3N8+fPCwqePnr06Pbt25cuJZ49e/bgwYM7dmxfv349juOSoGAHB4dly5Y5Ojq6e3p5czias2f8PElLydpMw8tFieX1/7P3HWBNZHv7z/P/7ne/7367e11313V31bW76u66XSAUsTcUEUGkiEjvNUAoihTFBmKnCdIE6SVlEiBAQkhCKCJdepHeISSQZP53JhAjIquIBZl5zhNOzpxz5pz3DJl3fudX1qOt1zui12Ic1jo5rnXGrIHogniaoAuwaEEoV5hQIZx0rSh0sHgWVhRwXTchzxfaLoo+Ia6wZprktsbJbS3GTUQUoH0HB+ef7B1/Qdv/amOzRd/gB+Vjfyqrmrl5pmRRW7q6uTzoYS0AQS4PHBgebWnvLq2uzSgovpcC2PncOmrjsFVTZ5WC0le7939x4NDXR48t19Bco2/wg6X5JsgKw+YHtO0GB7u1jvaQCoUwzCa8PwJtkUBRK4WRtJygDBQpA/Ozg+MfNuiNx9W3qpy4n5Q6xEWMf2e6ebOysk6ePJmdnT1TJeTc20dgoXOFjIwMDQ0NCoXy9qGex1cQgGAGvUhGS/8XU7sjScAeIBeyd4BsHIqlIZVDIVeANyCILGlYsVEayJcGmNIAXYpAk8RTJfEUKRxFBkeRScuWTiHLpmTJY6k78DRZLAWFzZHCUqVweVJ4phS+AGYJRRLEIglioSSxQIrIejGhiPnSQN4uHPlQTOIfluhtJ/XTc1nzGN93OHSBQDA8PNzZ2dnY2FhdXV1cXJyTk4PD4SIjIwMCAq5everm5ubg4GBlZWloaKirq6sHH4aGBubm5nZ2dq6uLhcunPfz8wsKCoqJiUlLS8skZ9KYjOuB/vs11Nbv2rZs347lqkrrTAw22lmtd7Bdh0GvcbJf4+y4xgWzxgWzFkpOa12cIVVEZ1jzUbgH4SRiACK7A4gKvEAdJmUJTmfXYqYlClAh3PDMesyZDY5nNjq6QOIEtMMWa5ufjIw3aGisP3T4kJHpzYjo8tq64VHOy97px0FwgM2pf9peWFFFZOTfjkuyunRV0dL6l2Oqy3bt/kp++5K9e75TUlyteeIHg9ObzI032VhsQttstLfbCAXbhPQu1zs5rndy3IBxhINpYTbA7iw3Ozr+bof+Rc9g3b6D6Cu+DR2QO2fkmAGB1NRUAwODysrKGeogp94BAgudK4SEhGhqalZXV78DrOfvJTr6hzFXb/+genLvjcCDePI2Ig3SS4C4AkQUoLd/6ImejyLmoyYoAkMayEMBNBQhRxJPlsJlyBEydwNZSmSaSmaeanquRmbeaUqBTk6BKomqgCPvwWVtx2XLYHNRWIYkDhIwbIXsIwokAJYkEU4kltTkHgcsvWChiAwZIHtvGnHX3Xs/ndTXw5xr7eqdvwi/jZELBIKenp7y8nIajUYmk/F4fEJCQmRkpL+/v7e3t7Ozs62trYWFhampqbGxsYGBgYmJiaWlpa2trbOzs6en59WrV+/duxcbG0sgECiUHBaL9fjx4ydPnjQ1NXV0dPT397PZ7LGxMR6fJwAFXT3dGbk5jhfctyod+k5e9ttDB1af0lpvYbIebbXW0Xa1E3q1i/1qV4c1Lo5CuiDkCrDmo8uk2EC4wT+VK8Bemc8KP9dhJrkC5uxaDCQ/eFGuMEkUXDc4umx0cNoMixO2WFis1dBceVjxt+MnDM95Yil5nb39L2MJL64FDwT7R9j1T9sKyisSyeSLgQF6To57dLR/PXJ47d5dK/ftWql4YPXxoxt0NDcZ6f9oabrZ1nKjvc1GR7sfMHaQ7weM/UYoqpbDTw72v6Lt/jA1W61w+ICBUXbRY0SlUSAQjI+Pj4yMdHR0VFVV5efnUygUMpmcmZmZkZFBo9E8PT0NDAyQn+gXb8t3XLLQucL58+cNDAy6urreMe7z6HJ8EEzOocufNt2KPqOciN9JyJIh5Ql9J6BIhVIAayIRmVIAA0WgSxNo0gSqDD5bDk/eBZAPZeZo0fMtS8rOVNX4tbQFPO0Kbe+O6OiJ7uqL7ui719TuW1V/rqTSklmiQc4/gKfJpdK2ptH+wjG2EphbgXwJIB+iC6SCqVwB8hKdK48n70vESbld+OGQyr3ENMiRzYI8BJAE/dkhEAg6OzubmppycnJ8fHxcXFwwGIwjfLi6unh4eFy8ePHy5ct+fn4BAQERERGJiYkkEolGoxUVFZWXl9fU1DQ1NbW3t/f394+MjIyNjfEFf48sd4xb39QYR8Daenvt1NNZp3T4myOHVmhrrDE3Wu9gvd7Jdq0Leq2z/VoXh7UumHUuUABoOLmsm1AJFHIF17UTMoYJuYI4V1g/EfwJEiqsxZx7gSucWQO3XY9x2QAZO2B+QttvsbH90dBojarqD0eOKlpaXwmPYlbVDHPGnoH1mjnO+Hhnb09lXS2ZSQ9LTvS6c8vQ1VnBUO8vVeUNCvu+379nheLB748fXX1KY72R3iYr05/QVj/b226xt/sVbfenne1flpY/qKhuVlC8Exvfz+a85sU/tupsNruuro5EIoWHh/n6+rq7uzs7O2MwGBcXZycnJzjjoqSkpKBw8MaNGwQCoby8/LX87X5seL3X+SxorjA2NmZhYYHBYIaHET3kl96GbX2Dumc8N2nq7fcPPUQgbwMo0pCyAuRqCUWE9AmecQUCXRqfK4PLlsVm7sSnH83IMS8ouVjfGNHXRxweyRvlPB7nVfMFdQKwSQA2C8AWAdjEE1RzxopG2On9Q/fbes+VNejSHm/HUbamZv+Fo20lMLYCTCFdeIEr5KNIDGmAuh1P3hMWs1pLd4+ucWFV7Uun8bGcEMCHaDYCgaC7u/tJzZORkRFRYWdnp4+Pz5UrV4hEYmJiYkpKCoFAyMzMpNFohYWFlZWV9fX1zc3NbW1t3d3dQkLA5XLnJLjJyCi7rqUZS81x9POV0lT/aue2Lw7uWa59Yo25wXp7q/VOdutgurDOBbMedoogNHqctCAQpwvTcwUxunDuBaGCK2SpiHHe4IjZ7OCwBY3eYmG5Sef0miNKf6qdsPP1IxYUNff0cia1E0RwzS4zxhsfGBl+2tVZWVebw2LFYLGXAwOMXJ1365zcfGj/0h1yn8lLL1HY9/2JY5v0dH41Mf7LzEzG0vJPndNr9+zTc3Wr7ex+jt/NbhDzthWbza6uro6Li3N1dTUzM3N0dLh8+XJwcHBCQgIWi83ISM/IyEhPT8fj8cHBwZ6ensJqdnZ2t27dotPpSBCpd7/yC5ordHd3HT9+/No1X8Ry92V33jgfDEsm/KikJuF8TjE+dRchU46YC8WCgh0uPSMKkPohA0WgyeBztmMzDuHTDSi0K0/qUgcGC7ljdSDYDoK9IDgEgmwQ5DwfcXgMLuwDwQY+yGRzY7sHnR49OUrKk03NlsDm/oWnT3AFIuQLUizB7hyIdBRA2ZsCSFz0XaV4zOXGnb6hZ4/Ml01qHpVP8RDK5XLLykrLykp5vHHhLDic0ZiYGHX1E0Qikc/nCQurq6v37t2roKCQn5/f19c3NDTEZrO5XO74+PiUDt8SFGwut761JT4z3ey8x18nVBfLyyw+sPt7HfUfbMw2YuzWO9uvd3ZYB0sXICuJCcOBieiOa5ygR75QQrDO6cw6zMQGhLiAAdqMgPYgIEHCswTZSmDWO2I22dtvsbX9ydBo1VHlDYqKxx0c/BOTy5pb2OO8acUjouAL4pnXQmacxx9mj3Z0d1fV1lIKWMGJ8Q4+V5RtLP86cXzdoQMr9uxevnv32v0HtigdXbtz156Tp4jM/IW8+9Dd3Z2amurs7Gxububh4REVFcVg0Gtrazs6OgYHB/8TVZIzebDZ7N7e3sbGxtLS0uTk5IsXL0Le8owMg4ODa2pqEIc3r3WXvmHlBc0VHj9+vH///piYaOSee9lt9KSxdf9pkw3qOgeCww+kErYDWbLEPGkSA0VkShHzpYB8mC4IM3QZfO72tExlXLpzQVF0WwdrlPMUBAcnyQEPBEW+7icvN+HNVgCfGgPBYRBsF4DU4dHrde2nqMU7sBSJNKoEgSkJ5KOI4kRBlGdKEuGdiPiU3+wwv6tppmVTp30eTF7xA/0rEAi4XC6H85xQuqWlhUgkirS6BAJBXV2dgYGBvr5eU1OTcCZsNtvb2/ubb5beuXOHy51o3tvbe/369Vu3bnV0vM9onMMcTm1zc1J2lrGH+5ajR77cIff1EYV1Rrob0dYbHdEbnBzWOTuuc8LAYaAnIkGvcXKZ5AoTMgaYLkCKiuJcAZIuQNsNQlbhArWCHDo5bnC034RG/2huvuHkyZWHDv+qrGJ71Sez+FH34NAEt5pu/cUpwrT56Rq9tIwPggMjI03t7SVPqvFM5q24WJtLl44am8oqq/yyc/fWfQd8goL72aMvbf9Rn+DxeNXV1TdvQqF6nZyckpOTamtr+/v7X8WTzcjISGNjY3p6uqenp5aWFhqNplAo4uK0jxq59z+5Bc0VSCTS/v37srKy3v86fJAjGBgevR0Ws2rXwZ2el5RSsHtw6duIORBXIDKkIK4AJ4guQKaPkkCeHC5bFci+UFxK7utr5PGHYPmBkB+8ZH5TpbBC0tAHgkVcfkBrn05O8fY0KopAhxQnnxMqiLgCS5KUJw1Q9gDkfSERK09oGbh7NXTOJub4S0b4VopHR0c7OzuHhoZEvQ8MDKSmpkZGRvb1PdPQTEhI2LFjx40bN0ZHoUeLQCB48uSJsrKykpJSXd1E3Cwej0elUs+f98rPz4fFYxCkQn2Fzs5OkfhBdKF3n2GPjT1pagpJStKws/tZWWmF4qEVGifWGBlssLXegLFfj3Fch8GshTwaQf4JVjs5r3ZyWT3JGISeEKEwThjX57nCmQmNSMjpgjPkoMnR8Qd7u002Vuv1dFeqqGw+pqJkbXvrYXxlSwt7fAaeAOExLT+YrlBY9hoQjoFg7/BwXWtrYWkZnky5HRzqHxpW/qR2PtLZ15j2S6oODg5SKBRPT08bGxt/f/+SkhLxf4GXNJpazOFwGhoaHjyIMjMzs7a2TkhI6OjomFoJ+f4WEFjQXCE4OPjIkSNISJJp7yu+AKSyHh0xMN+iY6gS9VABT9oJZMmRcmVIdJQ4V4BUGiGtRml8rgKBcr60KmdouFMg4MI/weI9C0CQJxZlmAd/Fa8gyo+BYCsIpo3wbViVu9OyZfB50i/hClIkliSJKUWiyRGzD6YBWz0u/HFKLyg5TbgnLerwPWb4fH4rfIg2CEAQzMvL8/DwwOFwIkFCQ0PDyZMn5eXlS0qe+ZXC43FKSkr37t0TcgUQBIeHh7FYbFpamvjrFJvN7uzsFNV5j5Od4dJ9Q0OFVU9CUlINPD3/0tZedljxGxWVNUaGG2ysf7C3X+/ouBbjuBqDWYVxWuXkvOoZY5jwvwTTBaF0QfjpOqERiXFa5+i4wcF+I9p2o5nJclWV5QoH5Q0MXP0D04tKOgYGZ/FUFmcJM8zodU9xx3k9vX3dPT3csdlrVr7uRT+c+mw2m0gk2tvbu7m5ZWVlwUR2YstsFoMcGOhnMpne3t4mJiZ3795ta2ubRSdIk9dCYOFyBR6P5+Lioquri9DSae+Yzp5Bt2t3flPR3H/1unIKbicBFipAFhBiQgWhaAFyr5S3H6DZ5pdlD7PbYHGCeJ98uGQEBNvHeXVDw1V9/WU9PaXd3ZU9vU9HRkfgDQjx+hwQfCIA7zW262Tm7UojyxJoKIAhJYxHJfyEZQxSsHEETBcYKCJ1B4G890HsT+bWR2zQhVU14h2+s3xPTw+TyWxpaRFdsaOjA4PB2NraNjY2CgsFAkFoaOiff/7p4eEheq/q6ury9PQ0MzMVCQxAEOzo6KBSqQ0N9eL6NCMjI/NUFZcnAPuGRyrqG4KSU9UdnbccP7H0wKFvVI+vMjBYb2uzztFhDUwXVjph4OS0CuO05jkfiJBTpvWQgMF1vRPkz3EdBrPO0WGjPXqztdU6XZ0VSkfWHz6k5uAQTiTVtnewx2ElRtFKIJn3hwCPx8vJyba3R3t4eBQXF88Jrx0bG6uurvbx8VFXVw8ICBD9K72/WX7kV164XKG/v19dXf3s2bNcLhLXeJq7PJ3K2qVjLGGBVo5J2I8lyQHZskSaNIkhNYUrAAwUPk8ORzGkFsX3DLeB4OjzEgVIDMsXlI+MkJ4+DSur9KMzL2bnemRkuREzvDJzAlmPSE3t1SNjA5NiBh4ItgnA5KfdVtT8g9gMOVwWCp8rRaDD0gtIPQIKYjnBEiBDSjjlS5Ho0kDOHixJyvfGapUTLtdv9Q2/ayVHPp+fmJi4d+9ePz8/YbAxEARra2t37NghKSlZUFAg3B0QCARMJsPb2xsAAFG18fHxhoaGqqoqkaRBWBmyV4SCLkzdrJlmweZPUc/AYHFVdWAS9gTGde2hI//euXuJispKQ4ON9uh1jg6rMI6rMI4r4c/JgAtCbQahp+QJf8nrHTE/ONpvtrf9xdZqnZbGsv175U6d8ggMyquo6h0enoU4Yf7gN/9GWlRUZGVlefbsmZKSEtE9/+bT4PP5dXV1Xl5ehw8fTk5OfhWlhze/6ILtYeFyhbq6Onl5+aCgoAW79jNMvLNv2OnKzV+1DPbfCDicRtyOJ8sQadJEBoqU/0xTAXaoIEmgy2ApB/FUv+qWaj5k5iD6mRbAOw7tPD61u+dGyWNrcvbJVLxaYppKQtrRuNQjD1OOPkzViMNZ4HP8WBVAS1cdB+wDwTYQJHb0n6EXKxGytuHIkgSKFIEmBckVRKqUkCdHoceFSa7AkoJ3IrYRsnbEJW0wtfrtmFoGI3+GCc7JqSlGhgKBIDw8/LfffvPw8BD9IA4NDYWHh4eEhAjFV8KnPpvNbm9vX8hvQgIQ7B0aefSk9sbDBEUrm+/3H1y8Z893J06sNTHZYGuz3t5ujQN6taP9aoz9aozDaoyjMETTWkizwXEdxmEDxuEHe/RGS4v1+qdXKittUDys5ewck0lu6uxCHCbPyb09h520tbVhMBh9ff28vDzR/4Wwf6EBsPjntNed8o8mXofP51dXVxsbG2tpabFYrI+MVYvP9L3nFy5XYDAYf/31FxaHfe9r8KENgA+CqeQ8eW0jedfzR+JSd+PJMgAFRaRDbhmJLMj2gTjBGCQBugQ+d0dajgntMWmA0wuTA+F0hEShhy/I6Oj0YhWqA6T9WMLOVMLOVNKO1PTtqeTtKeQdSZnbE9J3xaerJJOtMpmBla2Zg2OEAe4ZRukJgLqDQJEm5EoCeSgiZHYBiRMmk9CZ4yRRgEQLkiSWRDpDikiVBTLkbweuVD5ucta9tXOOXWyNjY0NDAw0NTU9evSISqUCAPDkyRPxt5n6+vq4uLji4mLx36wB+Hg3xoof2r0083gEINgzOJxfUXXlfoSyte3mo8rLDyt+r35inbHBBhvLdQ42axztVjuiVzmiV0+mtQ52GxzsNtvbrjc1Xq5ybO3RI3uNDD2Dg2gVlf2jox+V+GVm7ObJWTabff/+/WPHjsXHx7HZz8WDFacIovyL0+ru7qZSKVQqtaCgoLKyUlxTR1gZ3uDI0dLS8vT0bG9/n4Y/Lw7+YypZoFxBIBDExsbKysoWFRd9TMs5J3Opf9p1GnNui6bBkZBoBSzkfAlFzJOCn9ZChwooIB8FMCGzSQJdEktRIub51bVXPi9UGAfBfhDM6+n1YjBV8cSdWECWkCFDyJLB58jgqDI4mgyOJoujSeNoMtjc7SmUAyk52uksx+IGx0cNyoS83fhcGYAO+WyAtBrzUSQx5wpwkAjJF3YiJNPzJdNpUqRshSSspMu5X4+qBscljPFmrz8F2zFyhoaG2tvbysvLc3JyoqOj/fz83Nzc0Gi0mZmZs7MTlUoVf1USCPhsNltcvWBOVuTj7oQPgp29/fkV1TcexKih7X9WPrZM4cDy48fWGOpusLFYb2+91sFmrYPNOnvrDWjrTXZWm63MNuid/l5J6Te1E+aXLqfS8pq7uznTu074uJGbB7MrKirS0dE5e/ZsV1en+HBF5GBKRryOME+n0zU0NBQUFJSVldFotMiEWLwmm82OjIzU1tbGYrHi3F28DpJ/QwQWKFfgcrmXLl06evQootg45QYa5fIDHyb/qKi2w/3ysWTSbkKOLECDdBRE/hkht0tQXCjYo3OeHJZikFucMsARqjQKX+wEsHulGh7/Tmn5iVS8fCoggyejAIoUkIsC8qQhP9DCxEABDGmAIUNgyOEZO/CM/aTCAxlF2/AMGQJTisCEZRgTCgrPbCZFziKFYaWe6S6wpEh0SRJ1Lz7jUETML6cNj5iYl9fWi03wlTTc2Wx2W1tbZWVFdnZ2ZGTEtWvXzp49i0ajLS0tra2tMRjM+fPng4KCHj58mJGR0draiggMxBCefZYnALv6+vPLq25GRatYW6/bv2/xDvnvVJXXm+j/aGf5I9rqJzvLLVbmmw30Vh1TXn9EUcnK5lZsQkld0zCXi4gTZo/722w5PDx8+/ZtdXX13Nxc8X8TIT8Qv/KLJaKzKSkpa9as+fe///3pp5/KyMgI9X5EZ0XKUW1tbZaWlo6OjshPuhg4c5ldoFxhYGDADD7EXwrnEtd529fj6sa9OsabtAyUIuIP47O3AVQoVuSEz6UCFFCAAljCGJIoAl0GT9uNo54pqSngCfpg5UShNwUeCGkepHf3mmXm7IxPk8SRpQCqJMQ56FITGwqQWAKSTMDuGYRRp6WhnqGEAliSULhqoaMn2Ie0eLRJMdYCGVTpU8wAACAASURBVEdMcgWYTED2k9sIWQdT8ft9b/6squ4TFDL8zMGRiCs8tzwCgWBwcLC2tjYrKys6OtrHxweNRv/H39Hp06cNDQ3RaPTly5fv37+PxWIZDEZ5eXl9fX1XV9fg4ODo6Kj4L+BznSJfZoWAkDEUV1Teio5RsjBfvW/vFzu3r9dQ+8vMWMLceLO62nc7d/yurIzxu5HBKmrvHxgXacfM6nJIo7eKQEVFhbGxsbe39xTVnBmYwYvjiY6OXrFixWefffbPf/5z27Zt4ibu4v3w+fzw8PDjx48j/nJexHBOShYoV2hpaT527NjFi95zAuJH00n/MMf3XtS6g8d2nr+mmELag6fIQuEimbBQQUgUCqWBAviJzpQm0OXwuYfwlJt1Txtgl4tClwlCJwpNAjCgtPJIMkEmibgVVjuYakDxzJXTZEQJcRIA+XeaSOIijWnyk9IFmCtA8SdRAEU+jagcmyxp7aCgb5KVDxkgiI6xMc7Q0GBb29OysjIqlZqamhIaGgoHWHI2NTU1NDS0tLR0cnLy9vYOCQkhk8mlpaVNTU29vb0IMxBh+A4yPYNDzMrK80FB+/T1f1Q4uH7f3s0KB/44cuSIoZH/w7i6p23ssYXsJfkdrMAcXCIuLlZLSys7O1to1CPqUfwZLyp8WSY0NHTVqlVffvnl//7v/x45cqS5uVlUc0o/VVVVenp6fn5+CIMXQTSHmQXKFR4/frxv376IiIg5hHK+dyUQgFn5j/brmv9lZq8SnbIHn7WNQJUGGCjo1b9ACihEAYXSE6kAEi0Q6NtxVBV8TnRbTw/syJk/6W2JA4KP2WNu2fRdCQRUWo4EADmERgkNGSb1IiF7iglxxbRcAVaihBnDNPzgOVYhJniA/C6wJIl5KGzmgTTSoTvBf6qfsjrnWdfY2N7RVlLyKDMzPSbmwe3bN7283IWx7Jydnc+ePevtfeH27VtRUVEEAqGgoKCmpqa1tbWvrw8RO73Hu5oHgk+7u3OLH1+84y+xe6/E7r0ePtdy8gu7+weQTYf3uC6veGkOh+Pl5WVtbS3UNxTX9p22Bw6H09HRUVtbW1VV9eTJk4aGhu7u7r6+Pm9v71WrVi1duvSf//znqVOneqAfm+kPDodz5cqV/8RYR7YhpgfozUoXKFfIyMjYuXMHmUx+M/Q+qtZdPYNOl2/8pKyleCvkGJYsD+TIADRYqJAPbz2IiMKEaEGGQN+JpWjhsrCdfcOT7pyFbpfYIJjXN2xNyN6eQJLG0SQILCiaw4SegdCMQswA8sUH/3MlYjsRz5U/zzCILEkiS2gZIUFkSBEo2/EZyvEp29BOv+xXcHRz877kjcE4WFlZ2NhYnnVzvXTJOzg4KCUlhUqllpSU1NXVtbW19ff3I8KDD+2e5vHB0opqRWVVCxu7J3WN3LG/cdj8oY1/wY6ntbXV2Nj45s2bf6vqK/SqlJCQ4OnpaW5ubmhoaGJiYmdn5+XldfXq1cOHDy9btuzbb7/9xz/+YW1tPTz8zDP6i9jicDhVVRUGg/HiKaTkDRFYoFwhIiLiwIED1dXVbwjfx9ScQi/apnZKysxePRG/H5clTaSiIPUC6O0fBe07TMMVdqdl6+IySd19HFiiIFQHEIaAyuoeMMFmyidmyOAZkkABilgECyeef8DP8OyHTgn5xKtxBQDiCkK6IAntbtClCWTFNMK+Sz7L5eQ1DQ19r18LD7+flpaSk0OurKxoaKjv6OgYGhricrmIxPIDv43pDKaCwuGw++E8xNjhA18qseEVFRWdPHkyLS1NrGya7Pj4OJ1Ot7e3l5GRWb9+/ffQseL7779fvXr1xo0bf/3119WrVy9duvSbb5b+4x//cHd3n1nUV1ZWpqysHBcXN82VkKI3Q2AhcgWBQODj46OjoyMep+fNYPwYWifjM3/ce2Snk5dKWro8nixFFKoizsQVdqVl6+IzM3r6hVwB2pWEXSyMgCCprccwJX1bQqYMgSlJLEQRi1DQJyRdeD69hD0826p4Va4gBSsuSJJYUuksVGa+NDH7QFKapLOrpIZmcmZmU3NzT0/3yMgw7KZTyGo+hlVbCHMICgo6eFCBQUdeFufTamOxWE1NTSaTOfOgCwsLT58+vWHD+q+++urf//734sWLv/zyi8WLFy9atOiLL75YOnl8/fWS//mf/7l58+bMexmtra26uqevXr0680WRs7NAYCFyheHhYQx8fAhR+GaxZm+pSUllraKRzRYd8/1RCdtwmRJAriQwjVwBBSkuwNYQBPoObLYOPpPY0z8y6aEZhDNsECS395qkpMvFk6TxDAmgAEUqhJMoPuRkBnLuJEwiKQKcEWo+TnzOtGEhtKEQfkrB0gWpDBYqnS6Lz5QOuLdZ38Du5q2e553AvCUAkW7fBgJ9fX0WFhYmJsgm9NtA9y32GRYWpqmpWVpaOsM1uru7XVxcVq5c+dVXXy5dunT58uV//PHH3r179u3bt2PHDhkZmR9//PHbb79dunTpV199tWjRosjIyBl6A0Gwu7vb2toajUYjwsKZgZrF2YXIFeCNNKObN2/OAq+PuAmbw70bk/rjUe0tZ713JAMSeIoEALlgmrIHgQIKhbsJkG5jWrYWLgPb3Tco5rGRD4JcEMwfYNsQsuTiCJC+AvTGP0kOpoSWfsYVmJIAU5LAgBLsvOE5Z9KQXqSIVTzLwAacE5aWE8aWRJZkOlMSnyOXiF3r4CRvZU0sLUUM6+bvfVtUVKSkdCQ4OPhvt73n7xw/ypEHBAScPHmyurpqhtnl5ORIS6M+//zzL7/8cu3atSdOnAgNDc3IyMjKIhMIhLS0NBcXlw0bNixZsmTx4sUrVqzAYv/Gze7AwICLi4uRkRES5WcG2Gd3aiFyhbKyMi0tzaSkpNlB9hG3evK0V8vRc8kxLdmgSBTkFAHywgR7aSyAxQmQKYTUJFdAAfRt2GxVbHpsW2efGFcQihaqxvjuFKb8wzRUapZQPgH7XmRN/YT2GiCP0ZIAQxKgSwJ5cKJLCUUaz6QL03CFKURBGiYTEC8B8mTTMv+84b/8pK5rSFj7M/8KH/HSfZxTEwgEUVFRhw4pFBSwPs4Zfryzunv3rra2dk3NSyO+CgSCgICAFSuWL168+KuvvpKVlU1KSurr6+NwOFwud3R0lM1mx8XF/vzzz0Khws8//0yj0WYGbGho6Ny5c3p6ei+6gp65IXL2bxFYiFwhJydHTU2NxUJ+fabeHmN8MJmSv15JfbWlo2wyXhZWb5SGdBtZQrNJmCjAcgUiSxJgyGJzFFOJgTX1HWJ7EEKthTYBeP9Jo0IiTjoJkCRQn2k/PHv8MyclB4xJikCTBEQpD2YPovjX03AFke8mUUYKYG0l5svic7dFp60yst5mbkutrEGiiE5d5vnzfXBw0MnJSU9Pr7e3d/6MGhkphEBQUJCWllZV1UvlCnw+/8qVK0uWLPnyyy+//vrr48ePiwdzF4IYHh62adOmJUuWfP7557KysuKOmKZFub+/38nJSV9ff57GbZ92Uh9I4QLkCoLo6OhTp7Tr6uo+kDX4oIbRPTxq5Xdn8VG1H2/clcNmooh50gAT5goiulAAhXmEuYI0lrIvGbiQX1w/PjXuwiAI5oxwDLKpcolpkvhMFDFHikiVguJKTJMkId2IXBFRkCDkShBoEwKGl7thEFEEYUYGdj69lcjcnpazxfvmqqMnr0QlDnCQuIMf1P31eoMpLy/X1NS8ceMGsv38esB9ALVjYmI0NDRm0FcQCARXr15dunTpl19+sWTJkqNHjzY2Nk4ZuJ+f39q1a77++uvFixcfOXJEnEwIHTFNUXXs6uqysrJycHCY2VxiylWQr6+CwILjCuPj41evXrW2tprBp8erAPex1uGDYG5tE8rEaqmRpXREvCxAlZlwxyTUEpgkChBXYErhqPLJ6VZkWkH/0JTXdw4IPhGAV6uqldLwMqkEKUKmBJANEQLiRJIi5k4kgCpFoEjjKXIE6s50+m5yvmRa1p+pZAnI2+OEcuXfKSvkSwP5MgSmDIEhDeTJ3U9ccdpS2fZsRXMP4rRnXt+oqampqqqqubm583oWC3Pw6enpGhoadDp9hukHBwevWLHi888XLV68+Pfff4+Ojh4eHhZ//J8/f37lypVLliz54osvTp06NTAwIOpNjCs8+y9vamrS1dX18/MT70TUBMm8CQILjisMDQ2h0WgvLy9E+eVl983IOP9aPHajhv7P7pflU0hw7Cihm2fWhEQBVkiUJDIlCHmSaTnqOHL8k8YpMmIeCPaAIHlwyK2o+DCBJJGG/xOiCxQJIlWCmCtBzJWEIkRQJYEcKXy2TBp5e2qmcibdrKweXd+hmM3cmgj8mZYN9Q8wIIWG6RQbpeDIEbBQgSkN0KUJtG14qlxS+k8uF3/WMIoh5nJnH2PyZdgg5e8OgdHRUdgNn0ln53MhCt/dCJArvQECpaWl2traM6uFUalUCQmJzz77bNGiRUuWLFFQOHjjxo2UlJTc3NzKysqqqioLC4sVK1Z89dVXX375pZWVlSiGpIgoTOEELBZLTU0tOTn5DQaONJ0egQXHFZ4+bT158mRgYMCUm2x6eBZqaVVHv767z2odE7ngyF2EHGmAJknMF08TColEhgQ+VyElwyO3oHTkOY96PBAcAcFGvgDoH3B79FgBD6DSAAk8eSsh+y9Czp/47K34bAl8FgqbuS2FdDA1QyeDdqmqMXaEg+PyLjW0qWXmyqZmSGJzJAh0SUj58Zntg4g3QJ6XYNfRKCIdRcyVwWfvSE2XDoxYp21sfuF6e//wQl29j2TeLS0tpqYm1675IhYQ83FFe3p6rKwsr1+/PsMvLWy24Pztt99++umnn3322TffLP3pp5+2b9+upKSkr69vamoqJSUlNJj8+uuvPTw8RDiIuIKoRBhyIi4uTk1Nrbi4WLwcyc8JAguOKzx6VKyoeDglBSGeM90/XD6YRinYon56s53zgRSCPECRJNIliAwJIlOCyIQdIwo1ExlSQN6utCwtHDm2sb0b9sUk9HM0DoKjcECpZoEge3j4ypNanVz6Xny6VCLuz3jcnwm4rQk4VCJuXypRKz3HiVkc0tiWx+bWgGAjCDK543ca29UzaPLJGZJYCmRLOR1dkCSyJCAGw5Ak0VBEihwuY9fD5B/tXeX0zSlF5Yid5EwLPB/OUSgULS1NPB4/HwaLjHEqAjweD97tte7r65t6Tuz7kydP9PT0VqxY8emnn/4vfCxatOjrr79evnz5ypUrly1btnTp0i++gAwmAwICxNqBL1KQoaEhT08PExOT9vY28ZpIfk4QWHBcgUAg7Nu3F9kB/du7p2uQbXXJb7Wy+o67wfsJZCkSVQKiCxNcQZwuyOEou5OJGAqL2jM0BBtEiIJI8eCYUr0g+JjLTe7rv1pdb0Mv0iHTdLJpehS6eR7r/OOKyNb2rMGh8jFeJ8wtOPBn6RjvTn3HyUymfGq2FIEhAdEFaAdEJFQQul2SIDK3kuiSpFxpIHtXGlH2pv8mLV23u8HDo1PUJ/52ukiFDw4Bf39/XV1dxBH7B7cwrzygtLQ0DQ2NjIyMGVoIBIKioiJXV9ddu3atXr36iy8Wf/7554sXL/7880WLFi368ssvlyxZ8umnn65cuTI6OnqGfkAQrKio0NPTu379Ogcxk54ZqVmdXXBc4d69e4cPH66oqJgVXAuoER8Eswof79IzWa9vcvBhghyRLEWkSpAYL0oXpAk0mTTy8ZSMq/mljweg0C48EOTDMgah/SQffvy3gWA5Z4w6OEzo7cf19RP7BrIGhorZo408fhcIDsByCJEwoBcEc7k8t7LGgwQaCoC2IZ7jCkJDDEiuwJQg0aWJ1O148r7Y5J+s7A+YWeeWQosrFG8803paQEv3MUx1ZGTEysrK1dW1v7//Y5jPgpxDbW2toaGhs7Pz4ODgDACMj483NzdnZmZev37dwcHByMjo+PHje/fuRaFQEhISv/3225o1a/7444+ZQ0sIBIKEhAQ9PT0KhfKiyGGGqyOnXhGBBccVPDw81NTUxG1vXhGpBVhtaJRzK+rhqgOKEu5eO9PSZICsraQ8EVcQ24ygowjUvSkZutjM0JKKypHR0UmiIAKNDztr4sBKDAMwMxiECcQoHKCSB9MLkSaiAAQ7QTBrmHemuFYBnysN0OG9hmdyBWGYKAmIMTAliXR5gLIvlbTt2t2Nmjo+9yP7RjkgTFb4YpRFNBIkMy8QKC0tVVFRiYiIEKmzzYthI4MUR4DD4fj7+x89qpSVlSVePm2ew+F0dXU1NTXV1NQUFxdlZ2fjcNikpMSwsLArV674+PhUVlZO21BY2NraCgeX9+7q6pqhGnJq1ggsOK7g5eV14MABJhOJQ/NK90xte+dxW4fvVNT+unNHDgv8RaRuJT6jC5M7EQwpYt42XM7B1AwTIMu/pLyor38Afk6/0jUmK/Em+UQnCFL7hnxK67UzmLvxNBTk0vF59UZhmChIiYEhTczbQ8jZ/yBpo7GVoq3jo+oaHsxUEKIwieu8/Hvv3j0VFZX8/L+JPDQv57aQBl1RUaGtre3g4PBaj3A+nyd03fgf8VJ/f387fIxC7yAvPSIjI/X09NLT0xFy+VKM3uzEguMKZDJZTU3Nzc2tqWmq3483Q/LjbD3OFyRRaBtV1ZabmUvHxG0FyFuJuVsn9BwZYlyBjgJo2/A5+1IzTmFJl+n5OV3dnbCywjgsM/jbvQA+XLkPBBsF/KzevousEm0S7QCBKkvIkyJAMSnENRWEeUkiE/IzDdD2JgJ/eV1dr6IZjAVGuVzBpFDhby/6ca7Z/J/V0NCQoaHhf0JGdXZ2zP/ZLOgZcDicBw8eHDhwICws7C35XebxeDQaTUtL6/Lly4h57du72xYcVxgaGnr48KGRkdHly5dedBP29oCeXc+jo6O9vT0dHR2dnZ1DQ4PvZR+uf3gEffP2dyrHt1y7JoHFbQVythJpsJ4jZBYB7wIwpYgMKSIdBeRK47J3J5OOp5LO0FixdS3FPUOtY4JBeKNhhic3D96VaOCMUrq7wmqfnGGwNAhZ+3AUeQJN+jlPUM/pNkoRmTJA3k4CZVtAxAot/RMYt6qnkCG+kCvMcLnZrQXS6p0hUFxcvG/f3oCAAMRa8p1h/vYu1NXVee7cOW1t7fR00syygVmMQSDgl5SUmJubm5qaFhcXI/49Z4HhKzZZcFwBBMG+vr7IyEgNDY3z5883NTW9IlLvsppAIGhtbWUwGFFRUVeuXHaDj5s3b5JIpIaGhncvZKNUVG03MV1hZiYZFSWNz5SCfC/mQcaKk1wBFjBAOxFSAE0GR9mRmqWUSjbE53hRC8PK6zI7ekpHuY0g2AaCXSDYC4L9INgHZ7pBsIXLKxscyWjrCC2vOEuj65EyjuEy9uGy5PE0WQIdRYA8TE86mRbnCvkoUv42gLYzkfizk8dP6qcTs/M44xM6DwhReJe365xfKyQkZP/+/UwmsgEx59C+hw4FAsGTJ0/s7e0tLS3JZPIc0gUej1dRUeHh4XH69GkSae6JyHsA6wO+5ELkCiAIdnZ2BgcHa2pq+vr6fmh0gcvllpWVXbt2TUNDQ0pK6ocfflizZs2yZcs2bNiwa9cue3v7rKysd+x0sp/LvRQeufqE+k8eXttTAFmAggLyhKEgRXQBDgTFgBQIAIYsnr4DR92TlHkkKeMUPscmh+nJenS7qia8ruFhQ0tS09PUxqcpDa3JdS0PaxoCH1dezC+yp+SdJpKVsOl709J34XK24XNhh81MaSBfGGx6yh4EisiSJjF3EKjSQQ/W6JhYXr3ZMzTyAf+jIUN7VQSGh4ednJx0dXXb29tftQ1S78NGgMfj5eXlWVlZmZiYpKenz5VNY3l5mZeXp5GRYXx8/BBkr40cbxGBBcoVBAJBV1dXaGioqqqqj49Pd3f3W8T4NbsuKyuztrb+5ZdfVqxYsXTp0pUrV/7www/Lli37F3wsXbpUQUGBRCIJBCIDw9e8wOtX54NgeXPLUbTDt8fVZe5F7sBmSeNpKAIcrGFCtACHlgagd31pEkuamC8LMLfh8+TTqLvScvalkQ9jM1WBLK10yul0qkFGrmE6lAxIVF1SjiaBfAyfeQiXuRefvRNP3YbPlSPQZQCGkCWIAkRNSBeILBSxAEVkoYB8GYC2I5G42eW8tKltZnEFIkt4/YX9EFtUVVVpaGhcu3ZtDl9AP8R5LrAxsdns3NxcMzMzDQ2NtLQ0Npv9JgCMj48zmUxHR0dDQ4OYmBgkuM+bgPmKbRcoVxCi09nZ6ePrc+LEiYiI8JktgF8RzTev1tnZeeHChbVr1y5Z8tWWLVtOnz7t5+f34EHU3bt3DAwMfvzxx//6r//65JNPNDQ0ysrK3vxyr94Dl8+PIqb/qHx8M8ZtVxxOFpcrPRGsgSF0fiAJPcVZKFKBMMGMASIN0gBDBsiTBahyBMp2PGUHLmcndiLtwuXswufswOfIE6jbgFw5Il2WyJSFSAAUC0rEEkQZIV2QJhYIu92eli155/4qHSNMUFgv4nzp1dfyfdcUCARcLndwcFBoI1dRUUGn07Ozs4lE4sOHD52cnJSUjmRnZ78X7Zz3jc3HfP3R0VE6nW5nZ6euru7v719ZWTkL+ejYGLehoT4+Pt7U1NTa2hqHw/b29iK3yju4bxY0VxAIBPX19T4+PoaGhjExMe+dLnC53NTU1G3b5D777LPNmzd7eXk9evSou7t7aGiot7e3trb22rVrGzZs+H//7/8tW7bsP35L3vGLV3v/oO3Fq0uV1P7y9ZdLy5KZDBs94SiJVCA1SRREjAHOsFAkljQkb2DKEJnSwHNJhggVypCYcAWWNKlAmlggM01iiRgDfDZ/G4G+L5640c51hyU6o7Tq3clY3sE/5UdxCSEb6OjoaGpqqq6uLioqouZSiUQgISEhIiLC39/fx+equ7u7i4uLcCfb3Nzc0tLSwsJCX1//6tWriEL7R3EXTJ2EcIPVx8fHyMjI3t4+PDy8tLS0v7//VR72XC63trY2NTXV09PT1NTUw8ODRqMhWw9TIX5r3xc0VwBBkMfjVVdXe3t76+joxMfHi8c8fWuYv7Tjnp5uJyen5cuXf/rpp1paWrW1NVP0wDs62i0sLD755JN//vOfqqqq9fX1L+3rLZzggyCtpHyrpu53umZbIxNl8VRJIA8OGw05P3ieH0xIF2ZROCNXKJAGCmSIhduA/B1pOair/htOGl56ENcJO196CzNGupwJAXHxQHNzc2VlZWFhIZVKBQAgMTHh/v37N27c8PLyErIBG/hAo9EODg6Ojo6urq6enp6XLl3y8/MLCAiIiIhITEwkEAjZ2dk0Gq2+vv7dK/DONFXk3NwhwOPx2tra8Hi8l5eXqakpGo328/PDYrElJSVtbW1sNnt8fJzP5/N4vPHx8dHR0e7u7tra2ry8vAcPHri7u9vYWJ89ezYqKrKmpmau9B7mbnIfc08LnSuAIDg2NlZWVubu7q6pqZmYmDg8/N7iE9bV1aqoqCxatOiTTz65ceMGjzf+4q2XkpKyYsWKf/zjH7///nteXt6LFd5qyQiHezX84fJjmqs9LskkkaQINKGGo/juw2vzA+HmxeTn33IFWWLhTgJDNjJ5ubaxkuOZ4qaWsbc65wXf+ejo6MBAf09PT0tLS3V1dX5+fmZmZkpKSkRExJ07ty9dunTmzBl7e3sLCwtjY2MTExMzMzNLSwt7e7Sbm9vly5euX7/u7+8fGhoaFxdHJBIZDMbjx4+rq6vr6uqampqePn3a2dnZ29s7ODg4MjLC4XC4XC5i+fbR33TDw8ONjY1EIvHatWs2NjbCqJIYDObq1auBgQGhoaHBwcH+/v43blx3cXGxsbG2trbGYDC+vr6pqamVlZW9vT3ITfKObxKEK0CAj42NVVdXodFoTU1NMpn8vt5pysrKtm+XF4ZnTUxMnPZWKCwsXLNmzX//939v2rRx5qAs0zZ/88Km7l4VZ4+vtA0l7sXI4nOlCHlSAANFzEeRZiVaeD4clBRsHvnCHgRLhjihxCADMOSI9N0pGRvdvL9TOBZGJLPHeeOIWuObr+tLeugf6AeIwPnz521tbc3NzQ0MDLS0tFRVVVVUVI4fP66jo2Nqampvb+/l5XXz5s3w8PDk5OT09HQmk1leXl5TU9PU1NTW1tbZ2dnT0zMwMDAyMjI2NvYqAueXDAcp/qgQYLPZT58+LS8vx+Fwt27dcnR01NfX19E5pa2trampqaWlqaOjIy8vr6amFhsbW1ZW2tLSMjQ0hLCE93ITIFxhAnYej1dQUGBnZ2djY0Oj0d7L7VhVVSkrK/uvf/3rs88+i4iImPaGYLFYK1eu/O///u8tW37OycmZts5bLeSDYEQ6dbOmwVoHj20JJFnYBzOKyIS5AqSaMJlebRtieq7AkiGKp3xY55EhDdBlgdzthGzZ4MhvTuqpOp1t7B8SwH4h3+qUP77Ox3njXC73VThxV1dXTEyM0NoNg8GcP3/+zp07UVFRKSkp2dlZBQUFZWVlT548aWpq6ujo6OvrGx4e5nBGX6Xnjw9VZEazRoDNZnd0dNTU1JSUlLBYLCaTyWAwWKz84uJiFxcXY2Pj+vp6hGLOGt45aYhwhWcwcrncvLw8W/ig0+nvni60tbUdPXr0s88++/TTT21tbaeN+56QkLBixYr/+7//k5OTKyoqejb6d5hr6hs2v3jzOzU9qZv3d+FyZQEGigRZSz6fXk3MMA1XyIekCM8lpgzAkAVoKGKuHCF7RyLupzOev+mZJOYxhBIFRKww8+L39fWJK+KMj48XFBZERz8oLS2duSEIglwut7m5+fHjx/9x7F9fX9/S0tLd3T04ODg6Ojo+Po78fP8tgEiF10VAIHaAIJiYmHj69OnHjx+/bj9I/blFAOEKz+HJZrPJZLKZmZmNjXVReK7bWgAAIABJREFUUdE7/insH+izs7P97rtvPvnk/yQktiYmJkyxQq4oLzMzMf5m6ddLly4xNNBva219bvTv6su4ACQXlMsZ2mwwddwfR9wD0GWJdBkiQxoyZ4ASCkrCXQmRmGEiM2lLyZImClM+ChAmJgqAkjTAhKQIRIYwwY4W6NIATYZIlQFydqSRZAND1xuY2t4J6hp5IxPtd4XW7K8zi9tvYGCgurpanGV2d3ffvn37+vXrT58+FQ6FzWZfv35dRkYmMDBwivLstGMVCAR8Pn8Wg5m2N6QQQeC1EMjPzxdqkr1WK6TynCOAcIWpkA4PD2dkZOjr61taWs4cBXVqyzf7Pjw0kJFBVD9x/Pvvl336yb+WLPlCUVEhMjKsrq6Gw2H3dHdScrIc0DabN/6w9Ksvtvy46UFk+NgY982uOfvWQ6Pcq5GJyw4el7hw83Ba1g6AIkfMlSHRZEh0GRJdmsR4WYKNJMXFBkxpyO0SXQagyxLyZKBEkwOgJAvkygK5MgSqDJ6CIuTIADlyuPRdsUmb7J3kLGzSS8s/ejvJKZKtKV85HE5VVVV1dbWofHR0NDEx8cSJE+Hh4SKWWVtbe+DAATk5uby8POHznsfjJScnm5ubJycnz8LAffY3DdISQeD1EWhpaTE2Nr548eLrN0VazCUCCFeYBs3h4WE8Hq+uru7q6voOZF9s9nBJcaGf7+XTp7ROqCorHtq/bs2KRf/+vyVLFklK/KF98gTGwcba3FhRYd/mDWu/WbJ49YplW//4NTYmSsB/nxYA5S1de/QtvlbW2hMcuZ+QsYOYJUfKliNR5IhUOWKuHJEmR8zbBiWaeJIHaNMkAm07gbaDkLsDyN0J5O4kPks7AOpOYu4uEnV/BlWRmCl/N2DDKd0zofe7OBzxlfvItiGE5gCiV/nx8fGmpqb/3JPV1dWiWTc1NVlbW+vr65eUlAgLh4aGfH19v/vuOwwG09vbKywcHh729/e/du1ac3OzqG1vb29dXV1PD6JMLoIEyXygCIyMjLi7u5ubmyO89v2uEMIVpsd/aGgoLi5OV/e0u7v723NjwOWwKytKw0KDLM0MT6gq2VmZBty+FnjnuqGu1u+/bFzy1WdfLPrX11/9e9k3X3z/7RfLv/li5Xdf/75l8/GjiipHFIwNdAB8Knf0vQVB4PIEwSn47/cr/oF2UnoYfzgVuzsxZW8idk88dnccdnccfk8cfk8sbvdD7K7o1B0PUrZHJctHJMpHJGwLi5e7HysbEisT8lAm5KH0vWhUcLRUYBQqIEoqIELybrjE3TCJu2Fb79zfeuf+X7dDt94Olbwdsi0gdPuNO+v0DA5Y22RXVIibkwrg2JLTL+QHVircihUf1Pj4eF9fn0gMAIJgf38/Ho9/+PBhb2+PsCaXy42OjpaSkvL29hbtLzQ3N+vr66uoqBQUFAir8Xg8Fot1+fJlMpksbnre09PT1dX1KtsN4gND8ggCHwICfD4/MDBQS0urvr7uQxjPgh0DwhVeuvT9/f2RkZGnTp26cuVK61xrBnA47MbGOlxqgpur42ltNVMjncteZ6JC/YHUuHRc4oP7AWcw1seU9qG2/vLLj+s2bVjxy+Y1Mlu3HFPch7E1v3f3xg0fbz1tdX0dreSEh73dHS+dw1s+UdPVo2xls3L/ISkrW0mM8692jr/aOv1m7fS7pdOv5pjfzBx/NXP8xdThZxP0z8Z2P5sIk+3PJtY/GVltNrDcbGC5ycBis4EF9KlvvlnPfLMulDadNtt02nyT7mQ6bfajrtkfRlZrlFSXoGSuhYcPiAkV5hdRaG5urqqqGht7JhAqLy+/cOFCYmKiiC7U1dWZmJgcOHAgPz9fuIB8Pj85OXnfvn0+Pj4i1/ccDicnJ4dAIIhKQBDkcDjd3d0jIyMimcRbvgWQ7hEE3joCRCKgqqqKx+Pf+pWQC7wcAYQrvBwbEGxvbw8KCtLS0vL29m5ra5up6uuc62hvSUtNdD/rZGqkY2Wq5+3hFB58MyUuHJcURUiJJqbGEFJiEmJCgv19fS66XXB3cnG0dHOyvuTpHHDjSlxkCCE5Ni0+6ta1S0a6WidUFP1vX+9on1Bbe51RvGldzjiPUlB03MB4+3F1fXev0+cvanh6a3ld1jvva+p93fziDXPvG2aXblpcumVx+ZbV1ds2vrft/O6ib9y1v+XvcCvA8Xag451AzJ0gl4CQM0FhbsHhHiGRXvcfnA+LuRAe6x0Rdyky4fKDhCsPkq5GJ1+LSfZPwBm6nPtFTj6TQhXtOMwjogCCYFdX14ULF3R1dR89Khahj8PhJCS22tnZiQKYdXd3X79xHYPB1NbWiqp1dHRkZ2dXVVWKK6mMjo6OjIyI9BVElZEMgsDHhMB/7HI1NDSuXLnyLgPmfUwAzslcEK4wE4x8Pr+zs/POnTt79+69du2a6Nd8pjYznuOOjhQXsXyunD+peUxPW+28u2NY0I3UuDBCUhSQ9ACfGIFLDMNDKQKXFIlNisQlReJTopPjwhKiQ5Jjw1LjIvGJ0YSkGHxSdEps+L2714x0tfbvlr929dLTlqYZrzyXJwUg2N3XiyUAhqbmJla2SQRSVUNjWWNTSWNTWWPzk6aW2uandcLU0lbf0lbf2tbQ2t7wtL2xraOxraOpvaOpo7N5MrV0drd29Tzt7mnr7m3r6Wvv7Wvv7e/oG+joG+jsG+jsH+zsH+zqH+wdHGYWlhw8fCQ25uFcTuYd9tXU1KilpfXLL7+QyWTRZcvLy729n5Mr8Hi81taW2tpa8Q1aoUNleB9BxJREfSAZBIGPGYGenh57e7SBgQES/eE9LjPCFf4e/ObmZl9fXyUlpcDAQHF570tavviuC/24czgjVRWl94P9zYx1T2ooOzuYh9z1TYy5h0uIAJKigMRIQmI4ISEMHx8Kp/v4hHBcYjg+KYKQHIVPisAlRuISo7AJkTg4YRMisQmRaXERYcG3TPS1FRX2Xr18obH+2WvoS8Y2N8UNjY2BQUF6BgZu59xZhcVDI2zhnPlvWW9gdJRrbW1jaW7R1PzuiNHcQAb3wmazsVhscHBwR8ezbSMOh9Pe3j4wMCC+ayA0U5zDSyNdIQjMXwR4PJ6/v7+CgkJNTc38ncV8HznCFf5+BeH3vFZvb28tLa3o6OgZue2LD00BZ3Sosb4mLTnOwdb8hPIhM8NT1y67x0UG4hIj8InhuIQwfEIYISGMMMESQnBxIfj4UEL8fXz8fVwClLDxobj4cFx8BC4+HBsHJfhrODY+Ii0hMizolo2Foary4csXvepq3+7/EofDqSgvv+bra2Js7OfnV/3kydi4uJbh34P5hjXi4+OPHDmSlpbG489Lk8nh4eH+/n5k1+ANbwOk+UJDICMjY/fu3QAALLSJfzjzRbjCK62FQCCora09f/68vr5+QkLCy+NLibiC8Ek23tXRQsQlXXB3MTM4aaqr6eWKvn/3WkpsKD4xAuIHCaH4hFCCMEFcASIKk1whdJI9hMKFobi4++IJG3cfC5GJCGxCZFToXWd7K3VV5XNnXUuKi97S631/fx+JRHJxdsY4OMQ9fPi0ueXdu/JtbW3V09Pz8PDo6+9/pZVDKiEIIAjMfwQaGhpUVVV9fHzGx5/pBc//ac2nGSBc4VVXi8fjVVZWnj9/XltbOy4ubmRkWmNFAQjy4TTOHupjMSiXL7gZnFIz0dPwPudw7/bVxKggbGwoLC2AmAEhPgSIDwES4AR9vYePg9JEufBsfAhcOEEjhGTi2SckeIjAJz2Ijbzn5uJ4TOmwjaVZPpMOCubytZvP57e3t0dERBgbG3u6e+SQs/r7+gT897BxzuPxbt68eerUqbKyslddOaQeggCCwDxHgMvlotFoY2Pjrq6ueT6V+Tp8hCu8xsqNj4+Xl5c7OjoeO3aMSCROZ7AujGQ01tRQdS/ghuFpdY1jCi52JkE3LiZEBmBj4Z2FuBA8JDy4R4gLJsQFA/H3JhP0lRAXBKdgIH4iCasJOcSUT1zcPVxCCC7hPiEpkpAcnfAg7IL7maOKCpbmJkw67TUmNmNVgUBQVVXl6+urra19/fr12poa9vQ8acZe5u4ki8XS0tKKjY2duy6RnhAEEAQ+dATu3LmjpKRUUVHxoQ/0Ix0fwhVeb2HHxsaKi4tNTEwMDQ2pVKq4PhoI8gV8bntbIx6bcNbJRkvtsLmBpt/Fs7Fhd7BxIThIBSGUEBcy+ewXEoVgID4IiBfygyBCXKBYEhUGCZtM+cTHBePigvEJ9/AwXcBD2g/RKbFRl7zOaakftzAxzCFnjI8959zw9aYKggKBYGhokMFgODg4GBoaBAcHNzc3v/e99sHBQVdXV3t7+xkVR153rq9Un8/nj42NTccRX6k5UglBAEFg1ghkZKQfPHgwPT191j0gDd8EAYQrvDZ6Y2NjDAbD2trazs6OxcoXKgeMcUY62prI6ThvT1c9bVXj0+peZ2zDAnxSY+7h4qDtBjzEEiaIAiEuCIgLgiUHQUC8kB8EEOJelgInhQ3i7AHK4+OC8PHB+HhIuoBPuI9PiACSY5JjI3wve2mrq+ieVE9LThjsn/D997rzFAgE7e3tSUmJlpaWFhYWiYkJbW1t715B4cVhCwSC2NjYo0ePUiiUF8/OeQmHw+np6a6vry8oKMDhcFFRUWRyZn9///M0cc4vi3SIIIAg8BwC9fX16urqAQEBCFl/Dpd39QXhCrNBmsPhUCgUc3Nze3u7R48Khwb7yRmEq5c8TQy0jXU13J2sg29eSnoQiBeyhNh7hMkdh8mnfiAQHwhLFP6WKLyMQAjLA/FxQZB0AWIMIfj4+/jEcEJSVNLD+9eveJ7WVNFSU464H9T29FkggFecLZ/Pr66u9vf3NzU1PX/ei0ql9vX1vXeJgmjw1dXVmpqa586dGx0dFRXOYWZ8fLy/v//x4xI8Hn/v3r2LFy9iMI42NjZoNNrNze0//KmvrxfhCnMIONIVgsDfIsBmj9jb2zs7O/cjes1/C9ZbqIBwhVmCymaz8Xi8np6umZmxr88lPR1NPW01VwfL4FtXEqOCcHH3CQn3CfEhL7AE0UbDzCTg1c8G4qGdiyBoSyL+Hj4hFJ94H58UkfLw3u1rXvraKieUFQLvXO/peg2nk6OjowwG49y5c+bmZv7+d+vq6kZHRz+oRyOXy/Xx8VFQUCgvL5/l+j3fTCAQDA4O1tXV0Wi02NhYX19fJycnU1PTU6dOGRsbnz179s6dOwkJCdnZ2Y8ePXr69CnyZvM8fsg3BIG3joBAIPD39zcyMqqrQwJDvHW0X7wAwhVexORVS4aGhu6Hhf726897d2+3MjO863c5NjwQGxuGjw+DXvEniIJQh1G0fRD48r2GV+cHU2oKucKzLQmhEWZq3L2Q25fN9TVUFff73/Lt7nwlujA4OJiWlqqjo2NmZobH4zs7Oz8ccYL4wjAY9J07dwYFBYkXvm5+cHCgoqKCSCQGBQW5uLjo6+traWmdOnXK3Nzc1dU1MDAQAICCgoKGhobOzs7BwcHR0dHx8fEPE5DXnTtSH0Fg3iGQlUXW1NSkUqkgrE0178Y/rweMcIU3Wr6amupdO+VVjh6OiQjBJcXgEyLx8eG4uPv4uNCXSBSmPObn6qtIKRISMOAhAUMIITEUFx8SeveypaHWscN7r13xrq95MsNs+Xx+c3NzVFSUsbGxk5MTmUx+uRuJGbp5R6dGRobhiMx64j4QZ762cGehsbGByWQkJycHBgaeO+dmYmKira2tp6dnY2Nz4cKFsLAwMplcWlra2NjY3d09Ojr6IahozDwv5CyCwAJBoKbmia6ubmRk5IvxWhcIAu9xmghXeCPwR9kjujraigf3Jcc9AFJi8fGR+LgwmCiIdh/EJQpvQ6gwhW3AipDxQYT4YEL8PUJCCDbuXuidy1bG2sePHHQ/41L2uGQ61wsCDodTVFTo6+trbW3t7+9fWVkpCnv4RgC9zcYpKSn79+8nEF4afU4g4A8MDNTV1RUWFhKJxNDQUB8fHzc3N2trawsLC2tr67Nnz/j5+T148CA7J7u6urqtra2/v5/L5SKSg7e5bkjfCAKzRKC3t8fR0fH8+fMvcW8zy26RZq+CAMIVXgWll9YRCATeXh7yMlKRoQHE1Fh8fAQ+Lgy2d5jCFd4BS5hCGmBLywSYLsQGRwb5udpbqB495OyILi0pnuLYcXBwMCMjHY1G29raxsbGtre3z4uX6ZaWFm1tbVdX14GBAdEKjY+P9/T0lJeXpaenR0ZGXrp0ycrKytjY2MrKCo1Ge3l5+fv7x8fHZ2ZmFhYW1tXVdnR0DAwMcDicD0ohQzQdJIMggCAgQmB8fOz27dtmZmZzGPVX1DmSmRkBhCvMjM/fn01Jikdt/eOW76X01Dhc3IfDFYS7EkGwdCEUnxAeHxns4eqgcuSQg511cRFLNLHBwcHY2Fh9fX1nZ+fMzMze3nmj4T8+Pn779i1VVVUKhdLW9rSoqAiHwwUHB7u7nzMwMNDW1tbX17exsfHy8goODiYSiY8flzQ1NXV2dg4MDAg1DxB+ILoNkAyCwHxAQBAfH6emplZYWDgfRvtRjRHhCm+6nPl0mrTEH2ccbYnJD4V7EARIWeG9yxUCYLdOQUD8PSiuBGRL+SDhwX2vs85qyopmxgZ5NCp/fKyhvu7mzRs6OqcuXbxYXl4+MjIyvx6f+fn5ioqKampqRkaGWlpasEqmqYuL8507d7BYLIvFqq6ubm1t/U9MWzabPS+EJW96OyLtEQQ+UAReDMA7m4Hm5uaqqKjExs7XwPSzmfOH0QbhCm+6Dg21T5QOHTA6rZUWF0FIiIL3IO7DdEHcAuLd70FMcAUCpOoYgosPwyVG4ZMexj8I93Y/e+zIIZ2Tmg/C73t5uBsZ6t8LDmxtbpqPj9KBgQE/Pz9TU1NnZ+fbt2+TSKTi4uKampru7m4hOZhf1OdN70WkPYLAh4vA3HCF+vp6AwMDLy8v/pyGvPlwYftgRoZwhTddCs7oiIOtlYrigbjwICDxwQfIFQhQkOswXHwkLiEalwjRBc8zzvLSkkcO/n/23gMsiizr/3939/d/392deXd3dnZ3ZnfyqISOZDAg3VXdTdIREAFRQBCRICYMmOOYA5gldYAGpBOhc0InOYZx1FHHHMYAIpJDAx3+762iy1YxzNiAoXzu0xbV1beqvre661PnnHtO0LJFmdKK8vv37r6i91STyXTr1q2zZ8/aTlt4Rc/lRS9E/PO4AoOkgNlsbmxouHTx4vVr1+pqa5sbGzrb28ygIKQ9K9ihJ9fa2rpy5crk5GQ8I9MAjzbOCi8uuDlnz85AeDRnb5ZKUqIUFSqFL5ddAbCCkKsQFclFxQguCHJ2ZdFH+syZkXry+LHWlmaLeRAqRr647mgPJpPJaDTifGAvPfF+cAV+rQKdnR0V5eWpyckzZ6QvzczcsHb1zqxtpYVcRWX513rNiSOHL/x08uaVC/U1N9ua7pu6Ol6EIUwmE5fLjYiIOHPmzK89Tnz7F1EAZ4UXUa/3sxqldAyTlr1xlVJc/DKxAuaGYCuEHLmQJxMWyUUlVYLiNUszWbTRhzSq7q4uO5w/3gWuAK7AG6oAeMy4devGnNkz/ZmMpKkJ06fGJ8RMipsYMSlifHR4aFToF1GhY6dEhiVPmTQ/PXnDqmW7t2/i5u6XlJUe1KhPnzj+y5XLTffqOttautrbzMae51Hx6NEjERHh5eXlz7Mxvo29FMBZwQ5KXvz5p4iQ4FWZc14+VshBKlAUYKwgExaXsHNiIsJmp0xvuVdnh5PHu8AVwBV4gxUwW3qUyqqgQOb8jNncglxO3l5Ozu783dm7t23aum71uhWLls2fPT99+ozE2KnR4ZPCxkSFBE/4ImjCF0GRoWOjx4ckTp44J2X64nlz165YumPb1kIuW1pZ/s3XB8+cPnXrlxsN9XUtzY2dHW3G7i6L2YjKfO9e7fSkqdlZWWaT/X0cb/BIPuPUcVZ4hkDP83ZLw73UxLj0aTHSMt5LZlcApgWkejVbLuRJBYVVZUUbViwZF8CQSYRmY+9373nOEd8GVwBXAFfgcQWamu+uWbt0TDC8f8/2KnFJlbBYJiyWidDXErm4RCbkV5RwBdzcopydOdmbdm9Zl7V+9caVS1csnLswPXV2UkJq/OSESZGTI8MmTgidFDUhdlLktKlx6WnJ8+bOXLJo/uqVy7ZsWrd/765iPrdcIjxUrT1UrUmcGpeclHjl0gWLCfsRe4UdqY+r+hKuwVnBDoNiMvasWZYZGzFOws9XiopUIB0TluMZzds4KPMgchTCHIUwVw5qUbLlQq5UWFjGzU2KnZiWOOV+zS3kzO0TnGwHEfEucAVwBV49BYzHj38dEzs+Y06SqLSgUsirEhbKhIUKkGmGrxQXq8pL1aAdUIlLELMrXykqVopL5MLiqgO8imKOiJdbUrCXm7Mzd/e23Vmbsjav37R+1Zerl65cumDxgjkZs1Nnpk1LTYpPmhoTHxsVMzE8MX5S6vR4BuTr6UZds3LZ1cvnrZrhP2VWJfrnf5wV7KNrwb6dkV/4F+XsUEn4VlZgK4X5SBs0XFCIcuQiG1YQcHdtWRsVEswvyLG6BvEvmH0uALwXXIE3UIH29oZ9+7dHTxrHzt1eJeJUCdhSAUcq4MgFHCXIdl+oEBYqRUVKER95LVKJ+GoxXy0pBq28WCMpVouLlRK+QlIslxTLJMVScXGVkF8hKJQc4IlKOWVFecWc/bz83fl7t+/OWr913YqNa5asWjZ//py0iRPGjQ2EZRVCi6kbSURrQl5x60J/XYY4K9hHWY2sIjyYtf3LZdryEpWIp+qdCjFoGZmARQGAAsYKBXIhp/IAe05KQkpCzOVzp5HTRkEB/3bZ5xrAe8EVeNMUOPfz8cRpE+fNmyYt51YK8qWCPJkgXybIlwvyFYICBSAGDjIvjPvIK/iRtDYwo1vMk0uK5OV8BdYqipXlxcifxQoAE3yZuLBKwK0UcMoPcCoEPG7Ojgkh/jm7t1l62hFKMCLTK/Bfs/66BnFWsI+yP/1wJHJc0KqFs/WVZSpxIWJa4A5i9kYrKNiyAjtv58bo0KD9O7d2tTdbv1e4XcE+FwDeC67Am6dAN5u9a+xYv+ztK2Xl3CphnkyQK0eaQpCrEOQpeomhAOEG8IpU30Vf2da6OWyFkC0XsWUiLiCGJzSFhKeQgHdBCtoKvrqyVCHhT50ctjxzdltjLaI8zgr9ewHirGAffWtuXk1JiJmbnKCrFKjEfKWoEDEtDI5dwQYUellBJiqQidgL0qfGRYWc+P5rJKIYM9nhJG6fawDvBVfgjVLgfv3ttLTYuJhxxbydUnGB1MoKCCXkIrjw+Gse8q7NK4imypOL8tHfKBmAhic2uZiDNK5MzNVUlcxOiUubNunOLxcR2TFWwM2l/XIZ4qxgH1m7O1vWLFs4KWyMtKxQJQFZFgaRFRDXA+qAAKwgE+XJROzC3O0RXzDWr8xsuV9jdeyhXyoMGuwjBd4LrgCuwBuggEkpl4SGwGtXZVQI86XgZg/u+gohGp6VpxQ8aE/gBoQkelkhTw5+pvKf0cQFcjFbLmZXCfJ1spLVS2bFTRx35sfDiNo4K/TvRYezgp30NZsK9u1g+noV5u4cXFZQCDFKQEEhVybKlwrZSzKSQ4Pp31Yrzb2hQKg5wYQ4I9BXO0mBd4MrgCvwuitwt/bm7JnTJkYEFRZkSSVsmShfLgKg8IAVMGh41oLCigvIU03eU1/z5QguSIUFmir+js0rosICVFIhIrb5Yb8qbi618yWIs4LdBFVLxdBIj6z1KwaRFWxCGjGLQr5MxObnZ4UF0zLnJrc33rU5YfTbheGCzTv4Iq4ArgCuQN8KmC2mblmlAKZ5LluUViUsUIgLFML830AJSKY4gBeIG+LplIC+28sKMhFbWc7j5myLGh+Qt3c7Yii14KzQ93DZaS3OCnYS0mI5d/JYaBC8eE6KSlKsEhcNig/CJlIhF/U+SEX5VYKCNcvmMEa7KyoOYLnPkNPGWcFuo493hCvwZigAfjTu3rmRMTt5bKAvN2+rQsKRP8tygDLBk157WQFELTwbF+SifLmYrRBzFGKOqDgnbuK4pQtnd3e2IuJj7lQ8ZNv+FyPOCnbTtOlebXL8pCmRIQpR0cvBCuCLJxUVFBVkT44aMyM5tr72+sNni7PCw3rgf+EK4Ao8QwGzxdR1UCsPGQPPnZlQISyQiQrsxgqogeGprwpRvlLMVkm4SjFHKmTPSJoUHzPh9o1LyFHjrPCMwXuRt3FWeBH1HvqsyWhYu2xhgJ+PhJ+nEhch84kHeh4EYlfIlYt6A4WkovyKsryNaxaGBNNFB7imh0qzYNHCOIM/NI74H7gCuAJPVsDc2lC3fdOaCSGs/bs2SEVsGcg4Z41n/E0LD+wKT6UEJP9snkKUrxCx1RKeSsJVSHjLM9PDvmAdPXwQOWDMnYr/pj15AH/rOzgr/Fbl+vicmV+Q40V2LNyfrRIXgTLQwoFnBeB6kAtBRDHwPojYJdzdSVMiUpNiam9defiQbVnh4Xfwv3AFXhEFbC9iPJhtQAbNeOLIN9PiIhbMTiovy5cKC+T2YAU0KPJ5X0UFaglXJeGqyot2bFk9NsBPIiiypmOynQ0xIHq8MTvBWcGeQ/21XuVJcdqwIlMp5itEgBUUwgJrmucBKAmRCwhdhKC3GJmjLOHu2LpqQoh/Qc4Ok7HbnqeK94UrMNgKoKCAPks+60HyWe8/77m86UDS0dq0f9e2yNDAfTvWyyU8mbAA+Yl7xK6QqxT2X8tTIm4IhYitKi8szMsOHQNv27zGYuywWIxIQz0Rzzui+HbPqQDOCs8p1HNtdvXCWWik14zEGKmABxKXPmCFgQAFpKQkyGqiANOKOHIJyIeaMXNaQmzkudPHn+sE8I1wBV4FBWzNCXaf72symbq7uw0CopcmAAAgAElEQVQdHR2tLa2N9xvr7zbU1XZ3tCHCoCE+r4JG/XOMl86dTps2JX16rJCfIxdzrKZTW1bo19+6XODvQH7ilCK2SsITF+fERI6dmz6tvbnOalrAWaFfxh5nBXvK2t7cEBX2RfhYlrgoTykukgs5VrtCv35/cpRCUHtaKQQWBbkIBQWesrwob/eWqPHBm9evam+5b8/zxPvCFRhUBV7o6d5s7u7sbG9pbW5svFdbe+uXX65duXLx/IUfT5w4/N23Op22QiLm8zgF+3bt2bZh25fL169YsHpxRvmBos7WZuSksSLIgyrB4OzcJOBzJo4fs3X9MqkIzESwprHHWAH9Leq/V+RXDvzQFShFbKWEJxNxZ06fPHF88M2raMFJzAcxOAK9xnvFWcGeg2s2GVctzWT5Deftz1aVFytEPMQNkY/cyPv3+4OEF+UrRAUKkAaVq5AUScWF82YlR4QGH9QqzKYee54n3heuwIArgD7R91gs3Ujrsc6ptx6I2WLqsZh6ug0dLU2Nd2vv3Lh+9dKF82dOnzx+9LvvvqquVsllEqGQz+Pn7duzed3WVcs2LF64avaMRUkJc2Mmpk0ImRrMmsKixzF8Y2jDJ490n+RDmexNiBlOnDySPM7NYepY5ncamcXUhVi5rft8w/5vrL87Jy1pevzEEu4euYSnEHNUIjQka+BZIV8pYivEXFUFf9Xi2cHMUUe+1SOjgbmk3rCx6f/TxVnBzhpLJYLR3m67t61TVZQqxIVyIUfem6Wk/0wLiF0ORCD3fn/k4kJFOZ+Xt2NsALRiyYLGerS2ip3PFO8OV2AgFTAhiGCwWAwWS7vFdK329snTp458+021Ui4vKxXl53Kytu7duHbj0oULZ0xPmRI9JSIkelxQeAA9hD7ii9GeX4xwG+NFCXIjBlMdxpCHjKMMnUB1mOzmnOBJTPYmpw2nzB5JXTDKdclo1xV+bmtoruvoLhthly3+nhuDfOb7UcOIn6ycMbX2+sVHEWUgJRjkfRmVVeJxgfS1y+dXCrmghpOEqxJxVCAka6BZAQRUAlbgqCuLd21bE8QYWcLLQ3IxYRmZBlms12/3OCvYeUx/PnPK18d9zbIFiooDcnGhDLACltSsn3ChlxVUiF1OAYwK/EoBb3nmbH/IV6OQmk1vstXUzuOLdzeICpiRh/pui+Xwie/nzZs1JWxcYlBAHG1UrLdHjAslguQ0njQsjDw0jDpsPNUh0tVxsrtTrLtjvPuwRI+hKR7DZno6zvVyyvR2Xu1L3UBz2wq5Z8PuexieuSzP/AAvToBXYYB3SaD3gQAvQaCnKNBDFOgmDPQoDfbKDfSe5T40yptYvD+rp7t9EBUYxF3X3r4xMzkhKjSoMH+nTFKokBSqxLxBZwVVBZ/P3hU2Bl61bEFPFxpTgscr9MtlgrOCnWW9f6/2i2DWjOT4CkGRTFwkF3HlQnY/mxZQVgCgrRRxlGKeUlLMy9s5ISRo4dz0hnu4UcHOQ4x3N7gKdLS3ZK1bFeRGjvWgzvZyne9FWeZFXTfcdf0ot01+7pthzy1Mr63+3tkBPrsDffYGeO0P9MwN9CgI8OQGeBb5e5b4e5YFeAoDPMUBHmJ/9wp/90p/t0p/1yp/VxnLVc5yVbBcFCyqkkVR+lMULKrU31UY4LHdj5pA+TT5C/jY11rr8+vgyjCwezf1yCuEvt6uSxfMlEmKFOVFSisrIGWm862zvfrP09obkoXaMBSoXUHEUZYXVQo4MZFfJMZF3a+7jYhirzkvA6vwS783nBXsPERGY8+s9JSoCSEHivLlkmK5qFAhQk0Lef0WtYCwgqhAIeIoRFyluFAuKvpyxUJ/eLRKWo4bFew8wHh3g6yA6dzRb1OCWdOohG3M0QWsUUUMbwHDq4LpKWV5yFnuMpa71N9NGuAqD3BTBLgp/F0U/lSFP0XFoqqYVBWjt6kZFDWDrGaQ1AySBmswSYM2sJ6oAY2kYlDkTNdipse6EaRI4sdLk2OvXPzpTfJEgEDSpvq7SxfO9aePKNi3XVlRjBgVClUirgqkkLHNItN/rIB5Wnv9HSoUFySFqsrS9OmxIWOYZ05hs71eKPh1kC/wl3X3OCvYf2T27Mr6IphVkLMLuCEkfLmYKxexkcIq/eiDUAgRVgD74pVw9k6JHp8yLa6h7o79Tw/vEVdgcBQANwBDW2PO+hUTycO+HOFSFOBb7j9CzvJSM9y0DFcdg1oNk/UwWccg6RgkPdJ0DJIWJmhhgg4m6mCilv6gaehEDUTUQODdR5oGJmhgghZhBQ2gCpdKpnsh7DHf3WECdejejSubG2psNHjd70xm07FvD00YFzhvZlKFAMRNA6OCiKcScRFQGBxWAAYGEVsu5mmkB9avXuQ30l1eJbYOyus+ItbzHMj/cVawv9oqRVWQP7Rj2wZ5RZlMUiwHD/ocpA4bmp/EvugN+uxFbBFXLuZVCXlb1i0PG8uSCIoRowL6tcHtcvYfaLzHgVXAZLFYLp45nhQwejr5Mw7LuyJwhIrlpWe4VcPUaphyECJVQwSkOVdDznrIWdfbnHSQk5bupKU7I42AEQPABTpB2xcu9NIDMDlQNMAa4VYJe+zxc0ulDpns56kS800g+Q/67zW/M7W3NO7YvD4yJDBvz1Z5eTFgBRCpwFUK0TmTg8wKaumB3D1b6L5eBTm7re6h13xErBfegP6Ps4L95T7708mI8eNWL18sqxDKJKVyMV8h5oJgAnG+QmR3TwSwyKlE+UrggOApJEWi4rz06XEzpsfX3LyKnJtt3hr7nyzeI67AQClgbmu5z9m1cSLl0w1+VEnQcKW/ZzXD9RBMOQSRDkJEKygAXNAjTQcRrA2lhEdZAYEGbBuw8JiBgaiFyVqYqmW4qmEPAey1fbRbLHVoZkLU2Z+OvRmeCPOZkz9Mi5s4Ny1RKixUlhcrxCgrYKAwyKygrCwpK8odPy5gzcrF7W1NA3U1vnH7wVnB/kNeX1c7beqUGSnTKsUH5BVlckkJmMQo5irEbKW4ACQoFeUphLmKX5EG9UmmiN6oRjDLWcSRi3kKCX9f9saI0KD8fTuNIKmzLSjgrG3/scZ7HDAFjOaeMye+mzVxzHSXTzhjRlQFeGsYbocgyiGIeJCOmhMevNqwAlEHEXV0gvah9sAToaUTwAYPqOIRXCBqYZIW+DVcdLCbjOFZwvRZNpwc70PZs2FFS8PrHzjcbego2L87MjR455a16soDCglfIS4EcVG9kQoYKKAVpPrDdIr++vUdryAX84Cft7wkJTEmNSn+9i/oA9KAXZVv0I5wVrD/YHcbOhYtnDcxIkxQylNUClVVQlXlAVUFX1XOU0k4SoQYkGpp+YAbQOWVfJXooYautL4+JcqhlxWAUUEMHBBSUeH8WUmTIkJO/XAEOTG8SKv9xxfvcVAUaG1vKtq/LXo4YY0fWTB2hJzpqYNdDtFJh+h9sAJqWkAggKSDSDqbMAXMAYEtgA0exgUUHWxsDCQdg6JjuGgY7lVMr3zYK8ObND3Y75BcbDV6D4okA7HT65cvpiROSU2MFRTmqipKFJJChZinED7CClh+BbvbTbHHpIdYAfnBBKkb5WKeTFyolgqWZs6ZFBl26jj6u4c/F9n/2sBZwf6ams2mndnb/HxHLMnM2Lpx7f7d24vydwv5uRVlBTIRV1nOU1cUaSqLdFV8XWWRprxQLeGqJRy1hKMSs1ViNjL1ESk6BawFbOBfeJDqxPY7mddblg3J1QiijSpKeLk7wsYy165c3NHSgJwYxgr2P028R1yBgVTgws8nF02NSvAYsi/ISxLsrWK46SDKQTrwPhzsDVN44H1A7QqILcHWhPCUZYI1msHGW2E1NmhhlBUALqiYHhUBI3Yzh09zc5w/OfTcycMDKcLA76ukkBMa7L9x9RKZiA+MCoPMCtgzVUFvOhkRYAWNTJi9ee34cYFqeSUiEQhtwf/ZVwGcFeyrZ29veq06ONCfTHD0Z9BCxvqHjGFOCAmYEh2aOjV6/sypKzJnbFq1YM/WVZy9W0rZO0WF+yoP5ClEHFV5oaaCr63iayr46vIitaRQLeEhDFGgEiPfDZAiDSyA74m4QNHb2AoJV1nOV5YXL8+cFTqG8XW12mJGvy2YD6JfThPvFFdgYBQwdXUc4OyN86Uu9SMXjx1RFeChgak6EMz4IExBT3fW0511vQGMfYYmPGAFHZ2IGhvQBZ31g9gCig69BgaI1OuJYFK1TDeVv3dZkO+a4eRw4kdbl8xqrL81MCIM/F7q6+7OSE6Miw7ns/cqyksUkiIQFAUq6GKVILA6uraPMViRScwq8OILwK6A/vTZvLKVSEC3RlrGydkRGRpckLPHYsbz2ffLlYKzQr/I2trcKDhQwmJAc2fNKOax9+zYtnbF4kXzZ6YnT5kWFxkbFRIVFhAR4j8xLCgualz8pNDEyeNT46My0uKXzkvdsiZz95bVOdnr2Ls383OyBJzd5cX7ZWX5CgFHKeaqxFxNOU8DjBOFwKlRzlWWc1UVRerKEm7ujrAxjBWLMjqa0UpR+NyHfhlcvNN+VQDDW1s78i+Xzi5IjIx3+2xPgKc4yEfOdNXAZB1E1COP/sCKgIDCw6zwYL4D5m7AFmxZQU8jYh/UPQYcCC4ARwYIcmSQtUwXDdNNGuDFgT3SXT+NHkmUlOw3dKJmvH4VZhA6V8qrxgYyly/KqBIWgRhtUaESmSqJpGt8JFLBlhWw5RdHBKyHXNTvYAMKqGkBuF9VSHhjQkzEqmUL21pfz7EYhOF/eJc4Kzysh73+Mpvr62rTUqYvnDe3ueFeY8P9upqbd365evn8Tz+dOHLs2+qDaqm8vKysqGBv9qZ1qxZnZsyYlZKQHB8dFxUSHR4cGRoYMc4/cpx/7ISx02MnzEqavHjO9FULZ25YMT9r/ZJ921az92zk52eXcneJivcD1waoFFW0fNFsvxFuqirxw0YFe50S3g+uwEAo8DgrmLvbK4tyJg53XjDcgR/sU+nvqYJdNCDkkKiFCKglwIYVsOmRT2MFPZ2opwHTAgAFhBVQXHjErmC1LhC1iGlBA5PUDLKGQVYwqRKmWxZEmer6cfpE/6NfSZE6FbZ4MxBa9es+6utqF2TMDg8JZufukpeXyhBWQNMqAFYAVaOwdI0YHDyygN3pX3zhiayAZKotqhTwwE9oYiwe3thPVwXOCv0krMVkMm1YtzY4MODOrZtgH2azxWwymYzGnu7uLoOhs6Ojva21pbnh/t262l9u37h89eKZsyePHf22ulojrRSVlnDz8vZsz9689ssVCxdnpM1Ln5Y2dXL8xLDosMCoEFbkOGZUqP+kCcFTokOS4iNnz5g6b3Yyg+4zLT669tY16ynhdgWrEvj/r44Cj7NC3Y2flyVFRRP/s53hJg70UjDctBBVC5M0EEEDAaeDbUPyKKCpFJ7ICgARMEqwYQXMuvBY7AIRTdykholqmKBmENQMogIm8f1dvqQ5R7t/tG5efG0NWhP59fGUK+VSfwZtwdwZleISaXmpFGMFIQdhhYKnhFJZQ6xeHBGwHvpmBZWIrRLzQLJacdHyBbMmTRj304/HXp2L/VU6UpwV+nG0JCLhcG/vrw8deuo+kFq7D2NEe1tra3NTU2PD/fp7dXfv1Ny+dvvG5RuXz/186vjRb3TVqkpBccGu7euXZc5OTpwUGRb8xRhmIMsPoo0QlvGNRtxd91S98TdfbgUeZQVzl17MjXL/fJ7HZ4VBXlVMNzVM1UJkLQxSLqohZw1oBCSrErijq8FKgoZO0NBJSHsQo4A6IHpBgf7AbYHZJLCIB2vQAzrTEu2WqIKIKoiggpzUDNCUsJOYSSjwp8z2/CjK+3Nx0S6Luf21ybjQ0tS0dHEmg+7Lzt2tlkuqJCUPWEGElJdEoqaehQvYnf7FF/qMV0CCt8QcpYSnLC/etn5FSCBDWiF8uS/wV/XocFbox5G7dOGC78iReTm5L7wPYJMAZgljD2qTaG1tbrhfX1tz5+Yv165eOvvTqWPVWqVWLW+4f/eF94V3gCswaAo8CgoWy72aK8sSwmMc/7mb4SoK9JRDFDWdpEUsCmrISQU5KRhEKZNUwaSWM10koLlWMF2rGC4ymKoEG5M1dJIWtF5oQFihL1CgOev8nLQ0ZzXNWU4nyGBSJUyugMnlMFnMIJczyFUMkgJyVoGdOqogByU8TAY7CpjO20cPiyP8Y0Y4/aej+tdjCmVTY6NYJILofjDdl8/NU8slUknJYz6I3iDrp+LCiyMC1sNDcyZRuwU2c1Ip5qorSgr2bh/DpO3K3jJol+9rvWOcFfpxeA0Gw/jx4xcuXGgwGPptN4hrw9hjMHQaOjvNvdMf+m1veMe4Av2pAMoKWFHhnp42uYg72X3Icu9hAn/PKpiiApYDZw3kpIYc1ZCjAnLUhHp9PS1IlxaqSh2vTJmgTI3UpkUdTJ1YPTlIyvJQ0qkaOkVLJ2O4oKMTqh/P3UR31gNWIKhpxEoaQREy/KvELw6mRahTJ0iTw6SpYYdmTfg2MVgd7KqiOWrArh1U8DAVNFQOO5QxnFf7fBZFfG/VjNia66gnAtXoQfjC4wzUnyr+9r4NXYarV6/u3Llz2rRpEydGMhn01OlTefl75eWlYB6EuMgmXgFjhac4I7A7/Ysv9MEKaGYapYitEHFV5cVlhbkRIcGLFsxBSpf/dhHwT/apAM4Kfcpit5XLli2bMmVKbY1tpRm7dY53hCvwOinw8A0V+Obu/PLzl7MTEggf5LM8pLCLEpRvcNJADmhTQ45SyEk7mVbPWdv6bVnLd5KW76tajshav5e1fVdVx94mj2RV0Vw0dBctggs6OkjKpH+IFUDlCNAAKxB0fkQZnVwZPPz8+nltmtK276paD0ubvq9qPlrZ9kNlM3f9VxPpSpqjBnZSQw5qaJgGGqKGhspgRx6TtND94yjXz8v2bTW0Y2mGXzFWaG5uPnTo0OrVq2fOnMlms48c+X7vnl1h48YkJcRwcnYqK0pV5cUqUAyCqxRxlL0+CIwY+kwD8+KIgPXQJyvkgfhKhBUUkiKpiD8jaUp8TNQ9vGZeP/wu4KzQD6LadFlVVRUaGnrixAmbdfgirgCuwKMK2IICeo/tMbVXV5Yks3yWeTqIAr3VNBIScuioATfpYVpomBpyLKc5lHzhfrt4s6XxrMVwy9JVg7Q7FsMt07lvDmYkHBhNUdJcdXSqlk7W0UkgpPEBKzhXQ05o09OddH7OmtFEEZ0qjxvXUS2xtN22GO6B1nUX9Nl25S5/iyx0uJLmpIHQYxiqhYYgbWgVi1jAIKdSP0ryH/61utxi6cZO75HzeoAP2BYvx0JHR4dEIomNjU1PT6+urm5qaurq6mpsbORx2BHjx02NiSzYu11VUaKuKAbBAaD6TIECZJvFWKFP6wJ2p3/xhSexAqg2CVI+iIs0VYK1yxd9Ecz68YejL4eor9VR4KzQv8N56dKl8PBwiQQrltq/u8N7xxV4RRWwvaeip1BXez170cwkd4ccf+8qf3cdzVkPakU6aukOWsgBsALdodzPYa/fMNXyxPar31ksjRZLk8XSgiw0WFquX2JvKw0cUUFHWYEESj8gkybQrI56UIvSSQ85gkZ30vo5K0c5lzLcvl8111xz0WLptFi6LBaDydJssTRYbp44umaGgElW0xy1gFRQSgCvOmiIkuFUEeCyjUYO//zvC+InXP35R2wUbM8LXcbeenkW7t69W1BQEBsbO3/+/GPHjnV2dmLH1tzcLDxQMiF07OTIkML8nTp5mQoUpOYobfLCWYnhcdPCiyMC1sMzWEEp4Wulwj1Zm1jwaLVSih0/vmAvBXBWsJeSfffT1taWnJy8devWnh58ekLfEuFrcQXAnGJrs6ph+lpZMSuYvmQE+UDwCDnDBbnNOyKsgOICYIUquhN7tCN7sv8lbanFdN9i6UBau8XSajHd7z6hVyZFCWF3DbArELGZkNZa1c46yEkHO+phRx3dSU0nlPs6HQil3RTmW7oaEFAwIZ7vNoulsf6gUDp1rAgianpZATMqDNFBQ7Wwo4pJKvF3y3T7bKKbQ2HWBsPDBQ+xs3vZ7ApGo/H8+fObN2+aMmVKdnb25cuXu7q6rEPQ+39ra2tZKT8ibGx0xNi9WetkAo5KjE6FYFspAbMuPJJxAbvTv/jC46zQW0wHJMIX81TlfHWVoKhg35hAxq4d2x45BfzPF1cAZ4UX1/BpPZjN5vXr16enp9fgIQtP0wl/701X4JFn7vbm+qwl8xLdCbuYPuWBPiqYooVQowKKC8CuoIUc1DBBAlFzg0fodqw23r2M3OC7EBeAwWJpt9Rf+ylrjSB4lIpO0QBWQNM0odkXHAEoAFYAr1q6kwImCWGqYnZsz9nvLGaDlRV6AHw0Xju1Z61grE8lnaClYbYN4AdBmx5y1ELOVUxKLuSS5jZk5hfwd2qp7ZwI5OxAihUzgKKX5V9zc7Ner8/IyJg+Pam4mF9TU2M0Gvs8uNbWZonoQEx0+MSwoKz1y6pK81UirkrIRpMyPUwMtrjw4oiA9fAQK6hAvT0UUMAxqBFWUFWWHSjMDx0bODM9pa2tpc8TwVf+ZgVwVvjN0j3vB0tKSiIjI0+fPv28H8C3wxV48xTAnrzRUz/53cFpjFEZnsSiwFFVLE8NTNbCTlpwS3YEDgg6uEnrIEcdg6hiuBYyPMvS4moPa5EMBz3ITdoIEin2NDeqy0WTx5WNpkhGEytGO1WNdpL6OcmQJqc5y2nOMhpBSiNU0YhldAov0OfIjtWW+9etzNGDLLT2nP5KMydOBFPlEAociGEDuEIQVqA76IAjw0nNIItYHptGU+NchiydNvnWpbMPDyN2ii8FLty6dYvH46Wnpy9btkyr1dbX3zOZnpZIqq2ttVqrzEifPml88IaV8yuK85CU8zzExsAGOZGssQtIPkc0gSN2p3/xhQesYAUFdKdspZCjkhQqJfxi9t7VSxeO9PHwGz3iyJHXvKbXw5fWQPyFs0K/q/zdd9+GhoZWVVX1+57wHeAKvLIKYDdSi8XS2nw/e+WiGIrDFpqX2H+kHHZDMjo7AVyAnXRw700a3KFhgh6mljM8i0L9j+fttLTcRUABvRl3WyxdpusX9Mvn84JGFzG9S5keZUx3AdNdyHQTsdyELHehv7vA36PM36sscHievw8vNuSy/ICl4x6CCODjIGqho/Z66T7BBIYMoqoesILVvEEfpqU7IkfirIdJcqZrkb93pg9xPGVo/qZVXS1oZRbUx4IVfbU918EZsAsXLqxfvz4uLnbXrl03btzoBNOtn00wnZ0dJ48fXjRvZtgYxsrMWRWl+ZpyPrhPP+qSwAIXfgsiqES5WFMKsR5QVsi3gkIBYtIAGSQVIq6Yn7Nt3dKpMRMmRYYmTJlEGz1i6dJFt2/fHhxxX9O94qzQ7wN77dq16OjoLVvwDCH9LjW+g1dXAez+aTT1nPjuUAx95Ex3IifQT8rwUYLqD0QNAgooLmhh8GSPPs0fhMkKpltZwMjKecltZ48hN3gjEvxgBNEGhrZ731ZfKMq7xNlzpWDX1YIdSMu+WpB9pSALbZcLsi9zdp3M23G+vKT79mWLuRPxYnQj4Y2tpkvHDy2bURrgpYSoSFonZxtfBmpgcNTSnXQQYAU1y7UiaPi+oFFJrg4RXqSvq8qQ4zEjcQ9GK8dg59r37bnvtXYa2q6uriNHjixYsGDatGlFRUV37tx5ujnhkd12dxkunDm5eP6sQMbIFZkzy0sLVBV8JcAFjhIpEoFaF6ymBexO/+wFjA/6WshD0i6hfgfUnMBRirgKEa/yQMH+7PUzpk0aP5YxOy2xSnLgyqVzwrKS6IkRGzduuHXrtS0B+si4DMCfOCv0u8htbW1z585NS0vr7Ozo953hO8AVeMUVqKu5tWPl4nDi0E3Q8AMBoxWwhwqmqgErOGNNCyNhiWAWg1M15KxhuFQyPPlRQRcFXEtHI3JjRsMSTRaz0dTZ2tN0r6ehtud+TU9DDVhoRFtNT8PtnoZbyOudrnu3uxvrLMZOi6UH6QGJeDDU3pIVlU0MFMBuGsgFYQU08TNa8xoLgHDSQQQ9TNIxXZQBXmVf+G1i+IR+/t6imLBr545ZQQF1jtiCQt9U8OwtfusQNzU1VlZWJiYmzpo16+DBg01NTb8KFNDdGnu6L/58etXS+WFjGIvmppRwdsvFRQoxqFUNghiszggkteKzEQG1HDzMB3lq8YOmEqGg8CA6AaEEbkVpQf6eLYszUidPGJsYF5G3N+vSz6fa29tMJmN7WxuXnR8xYcK2bdvu3sVT2f7Wy+Xhz+Gs8LAe/fCX2Wzet29fdHT0jRs3+qF7vEtcgVdbAfTW2HsOJuORanUCPGq6iyM70E/CGq6GXdUwWQ2TQNEmpGlgghYmIKWinRDTgqMOIinoLhz/4ZplGZYr5yzmLmvIAuqAR2MKjRazEc2Vbn01WszdSOuxmNFmQj5oQnChE0y/vPXTN5syC/09K2FXLeSigSgILhC1dAI2qwJbADWyGVQdy6NqjC83aHSGJyGKOix/0/LOxjuIneNX+CBsccEuo9vd3X316tW8vLzU1NTVq1efOPGDwWB4Hr9Dn3s39nTfuHoha/OXUWFjM9Kn8XJ3SoU8hbhQ0VuxGsQuPD8r2IICSgkacT7a1OJ8tbhAbRvGKOLJBBxubtaqpRmJcZFJ8ZO2bVrz7SFNc+Nd21I49+vqdmZnx8XF5eXlNTY29nkW+MpfpQDOCr9Krt+4sV6vHz9+vE6n+42fxz+GK/D6KmD7cN3ZWFewfnWk82drfD3KAnylTA81RFZDoCKU6mFWQEtCaCAnLeSgoTupaaQiuis3IviGpMTS0Wy9Nz9dNeyOjG6GHQjKCh0WY139IYkgPqSU7qJguILilk9nBTpRB1N0DDdlwHBx0KjdzBHTKJ/HjnbXHGBbDNqy8AoAACAASURBVE8Ky0d3iu36wQE/cnAP3vj1S52dnUePHl25cmVaWhqHw7l69Wp394NsUb++P/AJk9FYd+dGwf5dkyNCUqZOzt+zTSosVIiLFCKQqUkpKlAI82yiDZ5mYMBYQS3OQxChQCMuAIggKVBJ2CoxRyXmKMQgLkEu4Aq4+zatWRIbHRYzMXTT+pWH9Kq7Nb90Gdqt/p3eszGbzbdu3dqxY0dUVBSbzW5qwpJp/rbTxT9lwVlhIC6Ca9euhoeH79ixYyB2hu8DV+CVUsD2Pnnt5NEFYWPmeJDyA0ZXMr1BpEJv9QdnFajbBJq1tiRYUIPCEA5quoOG5iyEXHIZ3roV8y03LiJ3jqer8JR7sdkM3BDtlpbrJ/au5QV5V0AuGtgFgAJEQuZe9m1XALmeQAFMFzXTQ+bvUxzku3IkZexn/5wWOLpo52ZdhfDYIe21n39quleDeDoePzyk5CxYbTIjDQ2JfHy7X7Wms7NToVAkJSWlpaUpFIr79+8/aWLkr+oWHJvJ1NxYV8zLiwgbEzcxLH/3VpmoSCkuUgJcYCtF+Uph7iMNw4KHF/IQR0OeGpgTCjRithppKglbXc5VSXgKUEaSXyXg7tqydkZSbHhIYHoqCE2oq7lh6OxAiuCg0tleShaTyXTnzp1NmzaNHTu2tLTUNsHUrz1TfHuLBWeFAbkKmpubU1NT09NnDMje8J3gCrwyCtjO0jN2toj3ZCV5uWyh+wgCfZUMdw1E0kIgpzLCBCgc2L6iFaQc1DQHDc2pEqIW0t0FUyIbv9EDz0JveidMCiOIWATuiR5r60ZiGNHoBKxeFXqr7rb0NDWePqSYG1cKUxUMCpi0CZE1EKhP3acDQkt37i2EDVFUsIuc6SYI8NzD8koifch8/60Q0ufhrsSJIzxTxwUtmhq7KXPOvs1rSgt2qSpLTx4/dOP62YaGm93dDQBQLJ1mi8EMskSjB4YZHlC4QeMwsDBJ7Oz6XADP1mw2Oy4ubvHiRYcPH+7o6PjNfoc+d2CxmFsb6oQlvIiwMdHhY/dnb1SI+WoJH9SMELMVonyFKA8xMIAplEh8Yi8WoHCAEAMWtwjcDRoxWyPmqMUclYSjLueqy3mq8iKpiMfen5U5Ny0iLCglKY5bsO/i+Z/a21vNZjSIFQUF2xHsPViTyXTr1q3Vq1dHREQIBAI8Id4TBvG5VuN2heeS6QU3MplMW7duDQ4O+uWXX16wK/zjuAKvjQLIb/yDZ8GLp44tmRQ+14PKAUYFLw1E0UPOOpDO2QEpweCkAdwAmhUd0AUnNd1RQ3eS0clCyJ0TTD+Zs8vSUGeNPEDVMltMhsba67d+Onbvp2MtZ0+0nD3RcOaH+jMnas79WP/LJUsPasS2bmzpsbTcOVeyVxDFqGBQ1AyyFiZqEFeIpjdS4UFUIxqvoEFYAXGXkBQQuQqmCPzd9tLJacPeif34L7PcHed6U9PdycmuxBji0EjnT8OJn46nfB7pRZgW5Dt30tjVM+N2rprL3bm2snjfN2rR6SP6a+d/uH/nSmfLXUt3q5UbeqwTNDDcQaGhj9uk0dhz/vz5rKys5OTkXbt2Xbp06fGEjPa5kMzmttZGWYVwSvSE2IiQ3VvXSgU8dXmRUgJwQSkuAM2aekElygfGA0mBRlKAxCLko3WlVaICtYitFnM0Yq5GzFOLeUqQXqlQLuLyC3auWTZvcuS4CWHBWzauOfr91y1N9UZjt3V8MfuQ7cKDMzOZTFeuXsnMzIyJiVGrVUZT38mmHnwAX3qCAjgrPEEYe6+Wy+VeXl5KpdLeHeP94Qq8DgqYejoLd22L93Td4DtcFDBKBbvqIUI1qNQwTAdyGIA0BmhDzAyOiAPC1sbgrKSTKumuXNinam5a48njiGnBGttoMZoNTaf0Mu7iObwZU8vnJksyUoRzU4pnTc+bl64vZhub7yGzFVAlwRTHjgs/HFyWXhboqQJTMEA0pcbq/kDgwDaJpLOGjh0JQQUR5TCpgkE+wKJu8/h41sd/XEX9KC9gODvQL481Oofhu4vmk+3rsWmky9rhlGXepEwf0iwv5xQvx6mew+K8hk31IyXCrsnBI2dHBS5LnpS1bC5/9ybZAXa1TPDDd6rL54/U3j7X0nyzq6seMUL0nTm+rb1Fo1FnZi6cP3++RCK+e/euvfwOT7jUzB3tbVplVfr0+JgJ47asXSIXgTu9Egk1ABYCCU8t4aokHJWYrZGw9RVcXQVXW87WiNEMTmw1yL3IVQNKKERakUJUVMbbt2ntkmlTouJjwpcvyZBWCmpuX+vqQieqYNYgLBzVlhUeAKjFYjEajadPn1q8eHFKSkp1dXU/S/EEhV791TgrDNAYXrp0yc/Pb/Pmzb9hktIAHSK+G1yBwVPg5pVzsyPDEsmOuQzfKqaPHqYiFSAdqiEHKy5gxSDQBWf05m2NWnDS0AkKOqUM8uCMDzhbyrW03UeewtEn7x6L2VBz4tu9CZGbRntw4RFceHg+PHwH3WdzSMDhojxzZyPy7I4Z/A03qoqrJgVJGFQktQNBg7ACCKXsTRT94GCARQHBCDUIpwCsIIVJEhaFTXNcOvTPmZ/+af9IR3HQcHHASDFrpIQ5spw5ooI5UsIcIWKNEPqPLAv05QeOYvsP38/w2kF33+xLXunlsNjDYZ674yw3h1Q3xyRXh3hXxzh3pxTYa/4E5rL40G0LphVuXaYs3ntcK7l6+rv7Ny923r9tam9AwiCMTY33iot5EyaEZWTM+fbbb1paWuztd+j7Kuns6Dj8lW7ezOSwYMaGlZmVZRx1BV9bWayXH9BU8kWFewp2b9i1adm+rStL8rfJynJ15TxdORe4G8RcUNABtCKVuEgt5lcd4OzPWp+aEB0+jjV/TmqlpPTGlfMdHc1mE5aU09agglJC30eFru3u7j558uTcuXMnT55cXV2N/wg/TawnvIezwhOEsffqjo6OqVOnTpkypb293d594/3hCrzaCnR2tHD3bA+hOi30ohQzRiggj0MQ5SDkWA0BVrDiwoPbM2JgAE/zSOSjM+KYAPWfNHRCBZ1awPDSLMvoungapHkGjn8kUsFiNLbU6tcszKV7V4xyqxzpIhzpUuDrVpwQWf+dxmLuQLa0skL9zaNbVlQF+shArCJmVACRE5h5A1uwAQXACkqIWMUgl8LETdR3Z/7rd2ud/lZCI0mZ7nKGhxL2UEEeGthThzaGl57ppWX6aFg+KpaPguUjY3pXMjwkDE8B7F0Me/NgnwLIex/NK3u0+5c+pMUejnNdh0wnfRRP+mAy+cMJhH+Pp3wUM5o6Ldhv3qSQTfNS87d8qa4oE5UVTk+K37R53blzZwwGw0BeGV2Gzp9+PDp/VjLTz2f1krmVZRyN9EAxe8eyBamTwwMC6V7DXYcOdxkaSHdPiQ3bsX5xZXGOprxQJSlSisGrpry4spTN2bM1c9b00EB6/KTxhQV7L58/3d7eYjJi2SkwQ0IfnpennGx3d/fRo0cTEhLi4mKPHDkyMPz0lON55d7CWWGAhsxsNm/cuJHJZOJZFgZIcXw3L70CRrOpvr7+0KGDWdvXB47yoP3n3dUj3STMERqGx0E68SDkeNCGFfR0R53VDYGygjWxQa87QE8HpaUVdGIxnVoSGXS9qtTS02J18CMJm82GGglPFMas8iEph5MrRlF5kMfXXy403TlvrUCNxsr1NHyrrZoWLaO7qiCSFnYGDgjYWQ05ImETj+KCDSsAUFBA5AoWJd93SMaHv5//0R/2+3xWDlOVIEuEK8jmBLnorE0PuehhtLnqYTc97KaD3bSwq4bhpmZ4KBmeSqa3nOkjY/pUMn1ETJ9ShnchwyuP4bkbdtsOua4c7jiH+nGqy2exhI/GD3kv3PnjQKePpwRDJey9h6oV9fdrkHwDA+2e7+nuunTu5II5aYGMUfNmJq1ekjF+LIMw5N+fvP+X//zjT//6yx/e+dMf/v7W//fJe2+PdHWcmxwr4ufoZQJN1QFVRbGQt3915uyY8DHxE8OyN63+8ehXrS33kLPApjlgYYwoMTzka3jm9d7V1YXiwuzZs48dO4bjwjMVs90AZwVbNfp3ubKycuTIkdXV1f27G7x3XIGXWwGz2dzY2Hjt2rXyioo1a1anpiYvnD8zc0ZCONUxgzxUCA/XsLyqIdIhyBkzLejpwxAUsMWFR90B6AYayFlMJ/NYXl9vXG6pw6pAdSM2BoPxxKHq1JjK4RTlCIpkFKUkhPaLhG3puotUsu4xW5DMCo13T+/LLgmmK0dTwSRJMGmz13TxOCsga3qDFVQIKEhhipBF2er+fvK7/7XJ5V9CJlXOcEFyM1CRV7IOwhpJD6ONrIcpepgC0jNAZB1M0cIuWtgVbRrYTQ27q2APBcNTyvSsZHmKAzwFgd4lAV5cf6/cAO8dLO8NdPeVNPdpbk6R3mR5GcdgaHuOWaP9dZUYe7qvXTq7ZvlCFm24J9Xp0w/e/fBff3EjDQlijIoMCQiARhAdP/nXO3/++9v/j+zwydzUBEFhrrg4f8emVTOnxUyJHLd68Ty9sqLu9tWe7nZrUOcjJgTb0IRfdxbd3d06nS4xcWpmZuaZM2d+3Yff7K1xVhi48b9x43pgYOD+/fsHbpf4nnAFXjIFGhoavvnmm507d86cOTMtLfXLL9eKxYLLl87cuXxq57zUxGEf7PYkShmeWjr1IEQ6CFI49/ogUBR4zLrw4ClfhxgeNHQnKUwqhVzKUyc1H6lGKk92IUUZkJzNdy9dyf5SyRwp83Ut9aVWz0vo+flbi6XRYuk0WUwmMM3S0PTjkarkhFKaj4bmqqGT0CBKJFLhwb5QB4RtlCWS+4EkhykVTBce3XnBJ/8968M/5NOcpCw3FUTR9TayDiKBRif2NjDRA9SS0EEEkF2q199BRBiFZH0lg3yRoFE1oDSGi4rpomS6KljusgD38kBPYaB3Ecs7L3DUOsbwWHcn/q6NiEtloC0KtheaydjzdbWaQRvxr3fe+vBffwtm0XJ2bTvyte786eM/Hv+2iJsfOSHkg//8452//NGFNGzalOgZ02LjIsYtmz9TJi755fI5Q2ez2YT6j7AYxl9nQrA9mEeWOzs7pVJpfEL88uXL79y588i7+J9PUgBnhScpY//1PT09qampixcv7ujAC0PYX168x5dcgTt37kil0hUrViQkJCQnJ2dnZ3/11Ve3b98COfyNPWZTz7VjX2UG09OH/SdvtGsl7K6BqHqIWA056+lOOuBfeNBQLNDRkeLUvbMkwHQJHUjK5KCgEyR0SuEXtHO52RaQX9mAsEKnxdJm6Wlo11cqp0RwfD04/r4X87MsTTcsllazpcsMQMFiab1/rpjDD2aJR3to6KAAxPOxQq/3oYpBLWNSt3h8lPzv/1pDea/U300Ju6jpZC2dZG1oeobHi0qgBSactRAah0FQQ0ijE9WgkdR0MGlTC5M0aGOQNQyymklWMqkKllsVw0PEGp4X4JtIGbJpQaqx/R5iV7Db/fU3XFoH+FyS89C//+2tEV6uRZyclqa67i6Dsaenp6cblLfWqceMCfjrX956529vUwiOqYnxxQU5V86e6gAXAxpignkZ7H8WbW1tZYKy6OjoNWvW1NXV/YazewM/grPCgA769u3bp0yZgsPsgIqO72ywFbh48QKXy01JSQkPD58zZw6Pxz1z5kxTU5PBYLBGpAOrsrGrTZazI5Y6bB7hYz7TW8pwVUNkHZ2gozvr6E62rIAuI3AwVAs91DS0oSq6k4xGKqS7KWdONZz63mJsQ8IROhFHQ7v55s+6lZlrhrsWJ0R3fH/Q0tOMpD/qLU3ZffmcetFcvp+33M9dTaeA+3TvVEnbSZK9BgabJFEEJUSSwVQJ05UDk+cP/Uvqp3/c70cU+3uo6VQtnawDGZzQZksJVj6gP7pgdXyg+Z0IajqKDtjMTFBGCwmkcNYyiFoGRQe7KGDPAwG+M0ifLogJabp9CYnotM10NaAXQXtrc8r0xL//7e0P/v2veXNntjbfR1JjPTgGg6Eze0fWRx998Pb/vkWlkCpEwraWFmNP31NAH3zMfkttbW3FxcUBAQFbt27FM0A/j644KzyPSnbbRq1WR0dHf//993brEe8IV+ClVKCnp+fevXvff//9/v37Z8yYgaQOXCyRSK5du9ba2orOcX/sgdHceOvKpjnJ4Z/+c70PQcjyQDz9FD1E0vfFCkgQwxAdNERr09T0z9X0YSqac5kviRfke5Gfa2mpRSihA3nttBgaTwqLl44JlG/80lx3x+oRR1zgXa13lGLBxLGi0S5qOhVJrNR7e0Zv3tZoyt5bOxbVqIaISpB/yUXAct/s/XnKx39aTP1PMcujiuGuoVN1NIqehuJCHxWnHukT/RPszgYgbHaEprV2BIGWsBNap1vHALmlNZCrxH/EfOrnyQGjLh//yoYVnj2l0O5XUFPDvdBxY/73rT8N/fyTvJy9j4ACujv9wWpPb6+3/vdtR0cHhUxm92N4ZoctLS379+8PDQ3ds3dPfX39M7d/wzfAWWFAL4ArV67ExcWy2ezGxsb6+vq7d+/eu3evsbER90oM6DDgO+tPBdra2i5cuCAWi9euXTtjRtqsWbOys7O1Wu2NGzc6OjqshoS+j8Bs6vnpO/3C8IBpTv/Z5UsQs9xUDKoOIlXTnR+3K+jpQ3XQ59oHDUCDBhqioQ/V0BwrRhMKRhA1C9KMF04A74OlAw1vtJi76s6d4q5bc06nsYDEPhix9BhvXzm2ddWBwOFSGlkDLApYgsheYnjkvm6TgomogCjlTBcew2W+89/TP3s7ezRRwvJS0N10NKreygq6vqpTPtJnLyvYgAKSPRpxTIDUkM4a+oP8lWAOJ+ykg52A9QV2qWR5r/FyShhO/kEpRs4LNZZgxvy+Ne+Ptc2N98cEBbz95z9+/ukn/EJun7s4efon/8DAP/75zx9+9JFQIOxzm/5eWV9fv3Pnzujo6JycnIaGhv7e3SvdP84KAzR8JpOprq5OrVYHBASEhISsXLli/vz5c+bMzsjIyMzM3LBhA5vNVqlU58+fb2trG6BjwneDK2A/Bcxmc11d3dGjR3Nzc+fMmZOUlLR06dKSkpLTp0/fv3/fxt3wjF12d3VUC9kxHkNmOf+Lx3KVM6kamFQNER5nBZDPEYDCZ0gbooOG6SAHkBOaPkxNG6YY7Vzi41QcxrwjLbX0NFpZoQvk8Wu5f+nUiea7NaBKde8/s8XYUf+NSjY9SkwnK0GsAHh2tyaT7k3k8Mh9HcvChMyAoIgD3Lb7fJb4yX8vp/67kOkhgz20NDe9lRX0NOLzs8IjO3ryn446yEkPO+lozjqYWsVw3+HnEu8yVM/PtWEFbMKh9Vz7///21paoiAl//uP/vP+vf+zM3t7nDo8cO+5Hh/77j38a6uAolcn73Ka/V5rN5tra2qysrMmTJ3M4bDz5zVMEx1nhKeLY5622trZTp07l5+cvWpQZFxfHZDKjoqIWLly4YsWK5cuXL126NCMjIyUlJTIycvz4sPj4+NWrV8vl8ps3b9pn93gvuAIDosCNG9e3bt06ceLE6Ojodeu+1Gg0N27caGtr6+npefpE9sdN5J3Nt3cumTFh2LtrfIYKA9xVLBc9RKqmOVfbhDciEyIcAB/AQ0GDHHSwI3jCRlIramhOaj/n8pHORbDnsa2rLPd/QcIb0cJRRou5q7uj1dRtsJlYaLI03z2Tu+1AiK+UTlABiwLKCr2vyDyIR6MKep/4IWclRJQyKIUM0iKnv6Z89j87RzlKWF5qyKO631kBnUPhrKM56xkUKcNlP+wWS/igcMMyxLeCDfzjGmNv9cuC2WSalzH3L3/537fe+lPM5OhbN288vpu8/AJnAvHtt/8XguEfTpx4fIOBWYPWl9qyZUt4eHhRURFu4n2S7DgrPEkZO6w3Go2XLl3KysqaNGlSSEjIwoULxWLxyZMnr1+/Xl9ff9/67969e7W1tT///LNGo9myZcukSZNgGE5NTZHLZY2NjXY4DrwLXIH+V+DixQtbt27dsmXL0aNHGhoaOjs7n+5uwI4IvY9hngCw3my68fOROeGMBOf3d44mVbDctTDlIJ1YTXsowhHMNgQWeAQRwIIzaBABzD+kOWn8nBR+xDI/F0lSdNOJb5B7J1pyyQh8+WYsDyB6ICbD2WPajKklDOrjoIBkYXJ60sO9BnKWwcRyFiVrxMfTP/j9IvK7RUwXBeyup7sdpLtW06l6GllPI/WHXQE9WfR8dTBJxqDks9xiHP+5dfZUS3czpvCgLJSWlg4ZMuQPf/j9Z599snXLpsaGhwICjh8/HhkZ+Y9//OO9997LyMi4d+/eoBxk79iDcpQ3V6xYERoaKhaLDYbOQTyYl3bXOCv0y9AYjcabN28KBIK0tLT4+PjNmzdXV1ffunWro6PDaDT2+ZhlMpkMBkNTU9PZs2dLSkrS09OjoqJWrVr13XffdXbicyz7ZZjwTu2oQHd3d319fWNjY3d396/qFmOF3lmLyIeNPV1aSdE0P9fZ5I+LYDc1y/UgDZgWsMzKOshRh2RURHMwY6/I7dNZS3PS+jkpRxPK/ai8cfBJ7j5LRyNilkfn66OOfOxp22zpbL54IF8UDgnpBGvWhOeyKwDTAuRcySQWwo4Lnf+c/PHvtvt+LmG56iDXagAKLtV0ihUUnljM+kkU8sz1tqygh4kKJpnNpMY7/WPRpDGd9bd+1SjYfeNbt26lpKS8++7f/+d//p+zs8OSxZkajerkyR+/+eab/Pz8iRMnfvrpp++9915AQIBarR70ek4mk+natWvz58+PiYmRyWS4deHx6wFnhcc1edE1BoPhxIkTmzZtSklJ2bx588GDB2tra7u6uvpEhMd3ZjQa29vbL1wA08zS09NTUlI4HM7du3cf3xJfgyvwUinwnFd4n8eMEQP2blvjnZw1CydTPtng7VTp76WHqDqQY8A6dxGE9YHsy1qY+FCDiBo6ATQaQeVHkPpR2bB3+bz0zqs/Iz2jNYcesmIAhrh1Sbt89gGGWyXNWUMHuZwxHwRaDhspGfWoD0KHRCCqIGcRk5A1/IPpH/5uMemvPCZJyqAepFOrQaNU08l6GtFqVHjeeRDPpAR0g0dYQcUkFTIpM0nvp/mPqAHlMAbzn9Fo/Oqrr8aPH//uu+/88Y//88EH//by8gwICPD19R06dMjf//7OP//5T39/Fo/He0mmLBqNxjNnzsyZMychIUGtVg+mdi/lvnFWsPOwGI3Gb7/99v+samlpaRUVFXV1dc9PCbaHYjQaW1tbjx07tn79+pCQkN27d9fU1NhugC/jCgywAvX19Tdv3nwRIHjKAT/OCmaz6fKpwwsnj0sa9n6er4sa9tDAFDVM0ELOWgidLuiMUAJJCz9oGgikLQKZi2gENY2o8KMU+XlwIkIuyisspm4kQOHxrANdDV8rD8R8IfIjKhDTBZrLGXt90p1bh0xMkDMIhZBDpvOfUz7+r+zRn4pZVCVEOUinHKSTq8EMDpKeTtSDRI2PosaTun3+9RgraGhOOpioZZLKWNSlrh/HeDie+Vr3FLUH5i2DwfDNN9+kpqYSCIR33vnb22+//VfrPycnpylTplRWVt6/f7+frqjfcI49PT3Hjh1LT58xderUI0eO/IYeXuOP4Kxgz8E1mUynTp1KSUlJT0/XaDStra0v+DXo7u6ura3Zu3dvWFjY9u3b8UnA9hwtvK9fo0BbW9uWLZujo6MPHuzHgiaPPO/3dHd9LRckeDpnOPxHQPNQMN1VTIoGGBKctbATYlR4QAkgpyEEkhv2sgKdqKYR1TSSkOaWy/RVrFtprge0bUZyOVvRxAxiFxpuHtu5rih4hMyPgGQ1wCpNYAt93+Z1IAqSUMEg7Bz+Yeqnv1tC/iuPSVQwqFoACsCiAFgBJIcAGZ2fnwCef0uMFbR0Jz1M1DFJYiZ1g/fQaOKnKj771wxvf23b1dVVU1Mjk8nWr18/Y8aM/8tEl5SUtGLFCqFQeOnSpc7Ozhf8hbT7cXd3d3///fcJCQmJiYk//vij3ft/dTvEWcGeY3fu3Lnk5OkpKSmHDx82GAx2+RqghXZycnLCwsL27dvX0tJizyPG+8IV6EuBri7DoUOHjh8/jjmSW1pa0tNnODg48PlFfX3CbusewQVDZwtv3dKYof9eT/pcAHnImW4qmAxwAeQrRBMekzVgDRlNfoyCApogWQOsC8QKumsh5MOZGn39aw2SwLHb1Fuo2ogEPLbdOawWTY8qZbqrQSbm53cTEDR0ogwmlsCOKwhvp372+x2+n4n8qRo6GXU9YKxgTdrYN3A8Pxk8vqUNKzgDVmAQKliU3b6EyY4f5q5dbjFhM0LtNjq/oSOz2WwwGFpaWmpqaq5fv15TU9PU1PT8oa+/YY8v+BG0vtSECRNmzZp1/vz5F+zttfk4zgp2G8qbN2+uW7cuNjb24MGDnZ32jKRFJwFv3rwJjbvBfr7tduh4R2+YAmaz2fYqMpvNbW1tttMWTpw4wWKxoqKirl27hmpjMpm+//4wn8/v79m8j7CCxWKuu3J2bVxE8ifv7fQmVDDdFUwXFYOiQQsiwGQ1cEygjayGSUiyRUJvYmYkakFGpwgYHtlBoxTbVvbcv2axNHUb643mJpOlyWJpsjRePZa3mTt2lAR20UJ9swJ2S7ZZIOogkhomVbBIO0d8OOvT3y2mvlPEIlUxyHo66SAdmBOwNgCsoKM762GCnuEkY5F4TJfJQ/65PGGyySaeHwvjHMQr3Ww2m0wmuzxB9fdZGAwGhUIRHw/qS124cKG/d/dK9I+zgn2Gqbm5OScnJyEhQaVSdXV12adTm15MJtP/pWmaN29eXFwcjro2wuCLdlDg9OnTWVlZVVVVGEBcuHB+8uTJSdOTbtx4MDO+u7v7mYkX7XA0j3VhNvb8oCif6esxx+nDIthdL2k9mwAACtBJREFUFeSjYbpqGFQNA6OEJ7AC5KylE5R0UhXsUsD04MSNPcrZ+lMV53hVwY9Szk+VnEuV3Ivc7bLpE0phqgwiW40KmOsBXeidh/kIKOggkpxJLmUSllP+OuvzP2zz/VTsT1VA5Oq+WeH5zRW/zvwAimWAaaJOesixmuGgYBLLAtyTHP49Ywyj5d6DgOiXgRUeG9iXeoXBYADlKOPjV6xYcf369Zf6WAfk4HBWsI/MR48enTp1alZWln0tCrYH19PTU11dHRISsnHjRjy3o60y+PKvUqClpaW2tgYjWqPRWFxcPGzYsLi42Pv376NddXd3nz179syZMwaD4Vd13k8bd7c28Detmkr+/Eu3oVWBI3QBnlqWq4bpYrUo9LKCCiJidgWbCg4EFZ0sZrjwAz14kbTcaHh/LIsdG8Cf5C+eGCCLgKUBnjIamD2BGPmt8yzoaIEokFYBuR9jxAAsCjqIpIHJlf7Uvb6fpX3++6Xkv3KYhCoGWQv1xihgRoVqUIG6v0AB9Uogh+eoh4dVw0NVDOeKQPf51M9ifVwun/kJGw6cFTApnn+ho6ODz+eHh4eXlpY+/6de1y1xVrDDyLa3t+/YsWPmzJlPf+K/e/euRqM5fPi7n3/+uba2tufXF1Vrb2/fuXMnnU4/fPiwHY4b7+LNU8BoNObn50+aNEkkEmGJEE6dOrVkyRI2m43ZFSwgEzL497JYjM3mOxdPfxk3IeY/f9nt4aDw99L4e6iZrrasoIJID7MCdtcH93slRKyCSUIGuZRJLvGnlrGoEqaLgkHVQBQ9nVRNI9gmb8CyOGALIO8TkuVJBwFW0MBkJZNSwiStIv9txqe/yxr+kZBFUQC/w6OsoO9/VgA0AyGsAA1Rw8NkLOpqb8fAj9/TSqVv3gVu5zO+dOlSYmJifn6+nft9BbvDWcEOg3by5MnExEQul/v02395ucTFxcXDw8Pf3z86OjojI2PNmjXbt2/jcDgymQxNm/+sozFfu3YtPDx81epVzc2DnJftWYeKvz/4ChgMhrNnz548eRLLLdPT07Ns+bIhQ4Zs27YNsxmgaZRePmPVQw/DJmPPEUlxsidh9sfvlNDdlEHeapabBqYgEykpaoiigkCwQm9yBTBBEWOFXguBhu6kgpyUICWzswpsQDhEc/7KD7RDNOdqmpOO7viUpqWjCZUBKygZ5EoWZfeoz2Z+8vtM57d4sLOUQdHYxChgdoUBYAWkZrejjj5MT/9cAw1VsojbRhED3v8bd9/ewb8EX/EjOHv2bEJCgkgkesXPww6Hj7OCHUTctWvXlClxZ8+efXpfe/bsfuutt/7617++++7f33333ffff//DDz/8+OOPhw0b5ubmFhgYsGjRIrVa/fSfbKPRmJeXGx4efvz48afvDn/3DVTAhPzDTvzSpUsJCQn+/v6YIcpsNh89ejQvL+/MmTO2NgPbZezjg73wECtYLJauhjvCjSsTPn9/NeFDCctdxXLTQRQtRNFAFDWdrKaTNP9/e9cf09QRx/1jhIGjrV3dglIqVUrf6y/QQTaUpO+9lh/TxZiauQoYQiKJYlgx/kjYZpdM3BIW3BiLmsBSQ5hZ6jbLUKD0PX790agBYggmI43JgsSJmlBIJ+nj1e3elbeC5WVSmIC9XF6Oe3f3vvc90vvc5+77vTmmifOwAsAB7C0SMKHowhTd+rRuvbIbAAVkgWuvQRVYy4WlkThC4ioXoW41an8k0M814qPSdV9nbbYbNe24hnyOVAAGk8vMK4BTjSAqKUxBYVtdeKrTiF7U6z54O+HLT07T9Iv50HzZI77ivt/X13foUHFPT8+Kk+x/FyiKFSJV+cOHD0tKSqxW69TUFH9b1eeqY2JixGIAFDZu3CgWixMSEt6YDSKRUCqVEgRx6dIljhwO2+Dw8LDJZGpsbOSnMcLWjWauVQ0wDHPv3r3m5ub29jaOMLh//355efnevXtv377Nddzv909OTq6Gfx6IFUIMIwLMhOduTcmHRZsSvtkh/43YTuLpJA7MFNmodoVgBRILwxOEXFapoDBFl17Z9d+wwizIULoIVQehuZaru7Az5fiWmCplgg34eNa5MA21IFZYeu/OnP0kCVACvCZDwV7SneoyIJcN6R9tEhwvOuAd/5Mb92hiERqw2+2lpaX8m8uLaHY1VolihUhHze12Yxhmt9v5V2ZPn/5lqbTExMRAoKBWq3NyclAUSUnZsnnzJg40CIXCzMxMh8PBI5bP5zt27NjJkydXiG9UHlGjr5ZPAz6fb2xsjJvyaZpuaWnRaDQmk2l0dBQaQM7MzIyMjNy5c4efrFo+ISNr+Tms8OxZYIb+vc9ZSbxbIZfYdqo7DTtcuM6Fa12YxgW8IwRdHrG0/JyLpkJQQpAqYKdYwCgAUgHwCki4MlxhNoEjLoP6hlH7E6H+Qv1mZfJr3+2S/5yru0Fogz4VntuGYHkFFScYN8cvVYLFClBIBYWlkpiCJJArxvTDsg2HDTljd/893hjZWLyKtWmarq+vt1gs8Mwv/y/8mlfQukA0RKaBhoaGgoKCwcFB/mYePXpUWFgYFxcnkUiSkpIsFovb7W5vb7PZbGfPnt2zZ49UKhUIBOvXr4+Njd23b9/4+PhCDTIMU1dXV1xc7PF4FioTzV/bGmAYxuFwHDlyxOl0wp4yDDM4OFhefrS6unpiYgIeSwwEAjQboF37qtUJMMrnAj39tO2H70u02z7Vyq7g6a2Erh0HWwAdGPDuzDpeZC0XwvEKIccRlCyeQEg9SupVbEQhwmAJCeXcZ/AcgwtTduZqW/IzLu7ceiLldSuyocmoazFmdOA6CtNSgFoAmw6hkQQ+G1TAKxTrEHppn0EbjWBPFSTECjhqz8s4gSQWZqqGeklOb9HEi2pgcnLyzJnPrFar3+/nnEO8aCNrpnwUK0Q0lDRNnzp1ymw280zt8AOjo6O7d+8WCAQSiUQmk9XX1/v9/unpaZ/P5/V6h4aGqqqqZDKZQCCIi4tLTEykKIpHstbWVrPZPDAwwFMm+mrNaICm6eHhYbfbDX+zIAKoqamRy+W1tbXQlXggEID+dB8/fgxPLaxyfMA3ehNjf3xVUVaKJNVmp/2au/0Goe3AgBFEB446gYEiSmEohaNh53sWLkCggJIYSrIOmGefMGfOEzQFzwTgCEmonXkZV/O2n9O+9XFybN17W6/m77iO6zpxHYWDPYhQlADTQQNLcJ0VslSR4ySCcAdYdcLzCqngEAaGOvIyzmWlHtDKe365wqfH6DteDTx48KCsrOz8+VreUq/KyyhWiGikp6amioqKKioquGXcQs2NjIxkZ2eLRCKxWJycnGyz2UJL0jTd39+flZUlEomEQmF8fHxTU1NogXnpW7du7d+/v7e3d17+SvgTem9dCZIsoQwvd9598uRJZWVlQUF+f38/16mBgYG6um9v3rzJAQi49FmUqHMW7twnVmyCmZlxU50V7+eUbdtwWa++btCBhTuhchpUwNMzpmLnaRWFQ8QAaYYgNwC2HnCUtVPQABNHIkykCA01m99NaLsNGhhJY3pb/jsNu5SnZfFVaWIbrr1mzGjDNJ24Bvh8nI3kfGohUlKBvS4LceEAbcxyCXDTBIF97MKQbiytC1P0YIpevfK6UXeBSDcpk+wXzgcCwPA1GhahAY/Hc/Cgubm5eRF1X1YVr9f7Dx2yHF//G8APCPLxcjvcAAAAAElFTkSuQmCC;" vertex="1" parent="1">
          <mxGeometry x="200" y="170" width="537" height="402.17" as="geometry" />
        </mxCell>
      </root>
    </mxGraphModel>
  </diagram>
</mxfile>
